<?xml version="1.0" encoding="UTF-8"?><!DOCTYPE svg PUBLIC "-//W3C//DTD SVG 1.1//EN" "http://www.w3.org/Graphics/SVG/1.1/DTD/svg11.dtd"><svg xmlns="http://www.w3.org/2000/svg" xmlns:xlink="http://www.w3.org/1999/xlink" version="1.1" x="0px" y="0px" viewBox="0 0 64 64" xml:space="preserve"><g id="object"><path fill="#399BB9" d="M55 53H9V41H3v20h58V41h-6z"/><path fill="#F15439" d="M25 29h14V17h7L32 3 18 17h7z"/><path fill="#FFF" d="M25 33h14v8H25z"/><path fill="#FFF" d="M25 45h14v4H25z"/><path d="M62 62H2V40h8v12h44V40h8v22zM4 60h56V42h-4v12H8V42H4v18z"/><path d="M40 30H24V18h-8.414L32 1.586 48.414 18H40v12zm-14-2h12V16h5.586L32 4.414 20.414 16H26v12z"/><path d="M40 42H24V32h16v10zm-14-2h12v-6H26v6z"/><path d="M40 50H24v-6h16v6zm-14-2h12v-2H26v2z"/></g><metadata><rdf:RDF xmlns:rdf="http://www.w3.org/1999/02/22-rdf-syntax-ns#" xmlns:rdfs="http://www.w3.org/2000/01/rdf-schema#" xmlns:dc="http://purl.org/dc/elements/1.1/"><rdf:Description about="https://iconscout.com/legal#licenses" dc:title="email-internet-connection-network-computer-arrow-upload" dc:description="email-internet-connection-network-computer-arrow-upload" dc:publisher="Iconscout" dc:date="2018-01-27" dc:format="image/svg+xml" dc:language="en"><dc:creator><rdf:Bag><rdf:li>Petai Jantrapoon</rdf:li></rdf:Bag></dc:creator></rdf:Description></rdf:RDF></metadata></svg>