<svg xmlns="http://www.w3.org/2000/svg" enable-background="new 0 0 51 51" viewBox="0 0 51 51"><path fill="#3F5176" d="M4.35018,39.65456V10.67731c0-1.79157,1.45235-3.24392,3.24392-3.24392h35.21052
				c1.79157,0,3.24392,1.45235,3.24392,3.24392v28.97725H4.35018z"/><path fill="#010101" d="M46.04958,12.15417v27.5042H4.35485v-3.71752h8.9824c16.02123,0,29.0042-11.48302,29.0042-27.5042
				c0-0.31138-0.02828-0.61332-0.08489-0.90581C44.41722,7.95543,46.04958,9.86139,46.04958,12.15417z" opacity=".05"/><path fill="#C8C7C7" d="M47.83474,39.738H2.56399c-0.31152,0-0.56409,0.25256-0.56409,0.56409
				c0,2.91779,2.3653,5.28308,5.28302,5.28308h35.83282c2.91779,0,5.28308-2.3653,5.28308-5.28308
				C48.39883,39.99056,48.14627,39.738,47.83474,39.738z"/><path fill="#FFF" d="M10.69818,45.58729H7.2782c-2.91003,0-5.28003-2.37-5.28003-5.28998c0-0.31,0.25-0.56,0.57001-0.56h4.31
				c-0.26001,0-0.45996,0.25-0.45996,0.56C6.41821,43.2173,8.32819,45.58729,10.69818,45.58729z" opacity=".1"/><path fill="#010101" d="M48.39819,40.29731c0,2.91998-2.35999,5.28998-5.28003,5.28998h-3.40997
				c2.35999,0,4.27002-2.37,4.27002-5.28998c0-0.31-0.20001-0.56-0.45001-0.56h4.31
				C48.14819,39.73732,48.39819,39.98732,48.39819,40.29731z" opacity=".05"/><rect width="33.7" height="24.22" x="8.353" y="11.438" fill="#FFF"/><g opacity=".05"><path fill="#010101" d="M42.05313,11.43839v24.21997H8.35318v-0.98999h3.28003c14.87,0,27.21997-9.27002,29.66992-23.22998
					H42.05313z" opacity=".1"/></g><g><circle cx="40.457" cy="13.958" r="8.543" fill="#F16A83"/><path fill="#010101" d="M31.91696,13.95637c0,4.71648,3.82215,8.53863,8.53856,8.53863
					c3.01365,0,5.65972-1.55584,7.17877-3.90791c-1.323,0.85755-2.91562,1.34752-4.6062,1.34752
					c-4.71641,0-8.53856-3.82215-8.53856-8.55082c0-1.70284,0.49005-3.28312,1.34752-4.6062
					C33.47272,8.29665,31.91696,10.94279,31.91696,13.95637z" opacity=".1"/><path fill="#FFF" d="M45.99178,13.36461v1.18308c0,0.26887-0.20613,0.47499-0.47505,0.47499h-3.52234
								c-0.26887,0-0.47499,0.20618-0.47499,0.46608v3.53131c0,0.25093-0.20618,0.46608-0.47505,0.46608h-1.17411
								c-0.26887,0-0.47499-0.21515-0.47499-0.46608v-3.53131c0-0.2599-0.20618-0.46608-0.47505-0.46608h-3.52234
								c-0.26887,0-0.47499-0.20613-0.47499-0.47499v-1.18308c0-0.25995,0.20612-0.46608,0.47499-0.46608h3.52234
								c0.26887,0,0.47505-0.20612,0.47505-0.47499V8.9012c0-0.26892,0.20612-0.47505,0.47499-0.47505h1.17411
								c0.26887,0,0.47505,0.20613,0.47505,0.47505v3.52234c0,0.26887,0.20613,0.47499,0.47499,0.47499h3.52234
								C45.78565,12.89853,45.99178,13.10466,45.99178,13.36461z"/><path fill="#2A3D66" d="M47.83496,38.73779h-0.78662v-17.8963C48.8631,19.10326,50,16.66283,50,13.95751
			c0-5.26172-4.28076-9.54248-9.54248-9.54248c-2.20441,0-4.2309,0.75854-5.84827,2.01855H7.59424
			c-2.34033,0-4.24414,1.90381-4.24414,4.24365v28.06055H2.56395C1.70166,38.73779,1,39.43945,1,40.30224
			c0,3.46436,2.81836,6.28271,6.28271,6.28271h35.83301c3.46436,0,6.2832-2.81836,6.2832-6.28271
			C49.39893,39.43945,48.69727,38.73779,47.83496,38.73779z M48,13.95751c0,4.15918-3.3833,7.54248-7.54248,7.54248
			s-7.54248-3.3833-7.54248-7.54248s3.3833-7.54248,7.54248-7.54248S48,9.79833,48,13.95751z M40.45752,23.49999
			c0.19958,0,0.39471-0.01782,0.59131-0.02997v11.18476H9.34961V12.43359h21.69891c-0.08038,0.4975-0.13348,1.00409-0.13348,1.52393
			C30.91504,19.21923,35.1958,23.49999,40.45752,23.49999z M5.3501,10.67724c0-1.2373,1.00684-2.24365,2.24414-2.24365h25.09668
			c-0.44012,0.61694-0.80847,1.2865-1.09332,2H8.34961c-0.55225,0-1,0.44775-1,1v24.22119c0,0.55225,0.44775,1,1,1h33.69922
			c0.55225,0,1-0.44775,1-1V23.13293c0.70178-0.19855,1.37305-0.46906,1.99951-0.81439v16.33624H5.3501V10.67724z
			 M43.11572,44.58495H7.28271c-2.21436,0-4.04199-1.68945-4.26074-3.84717h44.35498
			C47.1582,42.8955,45.33057,44.58495,43.11572,44.58495z"/></g></svg>