<svg xmlns="http://www.w3.org/2000/svg" data-name="Layer 1" viewBox="0 0 64 64"><circle cx="32" cy="32" r="27" fill="#e6e7e8"/><path fill="#2a292a" d="M48.75,53.16a26.94,26.94,0,0,1-33.5,0L16,50.5A9.12,9.12,0,0,1,24.79,44H39.21A9.12,9.12,0,0,1,48,50.5Z"/><path fill="#ffd2b4" d="M36,39.94v5.47a.94.94,0,0,1-.52.84l-3.06,1.53a.94.94,0,0,1-.84,0l-3.06-1.53a.94.94,0,0,1-.52-.84V39.94a.94.94,0,0,1,.94-.94h6.11A.94.94,0,0,1,36,39.94Z"/><path fill="#fff" d="M36,44v1.42a.94.94,0,0,1-.52.84l-3.06,1.53a.93.93,0,0,1-.84,0l-3.06-1.53a.94.94,0,0,1-.52-.84V44H26v1.42A2.92,2.92,0,0,0,27.63,48l3,1.53a3,3,0,0,0,2.64,0l3-1.53A2.92,2.92,0,0,0,38,45.42V44Z" opacity=".1"/><path fill="#ffd2b4" d="M32,15.21C43.45,15.21,42.47,26,42.47,26c1.68-.17,3,.49,3,2.86s-1,2.86-2.35,3a.29.29,0,0,0-.27.27c-.39,3.69-3,6.39-5.58,8.2a9.16,9.16,0,0,1-10.56,0c-2.57-1.81-5.19-4.52-5.58-8.2a.29.29,0,0,0-.27-.27c-1.31-.13-2.35-.63-2.35-3s1.27-3,2.94-2.86C21.47,26,20.54,15.21,32,15.21Z"/><path fill="#262234" d="M36,41.08v1.5a9.16,9.16,0,0,1-8,0v-1.5a9.16,9.16,0,0,0,8,0Z" opacity=".1"/><circle cx="28.04" cy="28.15" r="1.7" fill="#2a292a"/><circle cx="35.96" cy="28.15" r="1.7" fill="#2a292a"/><path fill="#2a292a" d="M43.5,20.2a10.51,10.51,0,0,0-.44-2.44,11,11,0,0,0,.18-4.11.75.75,0,0,0-1-.54c-.24.09-.5.17-.76.25a4.69,4.69,0,0,0,0-1.13.76.76,0,0,0-1-.6,30.85,30.85,0,0,1-8,1.41H32c-6.09,0-11,.31-11.49,7.16a30.25,30.25,0,0,0,.14,5.53A21.56,21.56,0,0,0,21,28.47c.18.72,2.07.69,2.19,0s-.33-4.16,1.37-7.38A20.51,20.51,0,0,0,32,22.35a20.53,20.53,0,0,0,7.48-1.21c1.7,3.22,1.28,6.83,1.37,7.38s2,.67,2.19,0A19.13,19.13,0,0,0,43.32,26,30.77,30.77,0,0,0,43.5,20.2Z"/><path fill="#691c24" d="M35.87,32.53a1,1,0,0,1,1,1.25,5,5,0,0,1-9.68,0,1,1,0,0,1,1-1.25Z"/><path fill="#be1e2d" d="M34.42,36.91a5,5,0,0,1-4.84,0c.2-1.23,1.21-1.57,2.42-1.57S34.22,35.68,34.42,36.91Z"/><path fill="#fff" d="M34.87,32.53v.95a.37.37,0,0,1-.36.37h-5a.37.37,0,0,1-.36-.37v-.95Z"/><circle cx="49.83" cy="49.14" r="9.02" fill="#39b54a"/><path fill="#fff" d="M49.83,54.38A1.35,1.35,0,0,1,48.48,53V45.25a1.35,1.35,0,0,1,2.7,0V53A1.35,1.35,0,0,1,49.83,54.38Z"/><path fill="#fff" d="M53.72,50.49H45.95a1.35,1.35,0,1,1,0-2.7h7.78a1.35,1.35,0,1,1,0,2.7Z"/></svg>