<?xml version="1.0" encoding="UTF-8" standalone="no"?>
<svg xmlns="http://www.w3.org/2000/svg" xmlns:xlink="http://www.w3.org/1999/xlink" width="2378" height="2500" viewBox="-187.963 -153.725 616.463 648"><linearGradient id="a" gradientUnits="userSpaceOnUse" x1="-1530.638" y1="1263.974" x2="-1361.192" y2="956.949" gradientTransform="translate(1619.806 -922.943)"><stop offset="0" stop-color="#fff"/><stop offset="1" stop-color="#e1e1e1"/></linearGradient><path d="M-46.192-137.833h278.339C293.931-93.941 364.489-28.38 412.777 43.095V471.29H-46.192v-609.123z" fill="url(#a)"/><path d="M-46.192-137.833h278.339C293.931-93.941 364.489-28.38 412.777 43.095V471.29H-46.192v-609.123z" fill="none" stroke="#c8c8c8" stroke-width=".5"/><linearGradient id="b" gradientUnits="userSpaceOnUse" x1="-1317.196" y1="896.203" x2="-1291.077" y2="872.127" gradientTransform="translate(1618.831 -924.375)"><stop offset="0" stop-color="#fff"/><stop offset="1" stop-color="#c8c8c8"/></linearGradient><path d="M232.147-137.833C299.36-88.92 363.359-28.669 412.777 43.095 380.77 9.85 336.879-7.895 284.796-5.617c6.153-61.643-17.619-101.453-52.649-132.216z" fill="url(#b)"/><path d="M232.147-137.833C299.36-88.92 363.359-28.669 412.777 43.095 380.77 9.85 336.879-7.895 284.796-5.617c6.153-61.643-17.619-101.453-52.649-132.216z" fill="none" stroke="#c8c8c8" stroke-width=".5"/><path fill="none" stroke="#c8c8c8" stroke-width="6.005" d="M-173.561-95.046h414.34V44.215h-414.34z"/><g><path d="M115.929 262.786c11.188-21.929 23.902-46.636 34.08-71.44l4.023-9.792C140.74 130.969 132.769 90.365 139.89 64.11c1.917-6.845 9.845-10.998 18.32-10.998l5.165.076h.948c11.604-.178 17.068 14.583 17.688 20.322 1.023 9.558-3.398 25.733-3.398 25.733 0-6.532.256-17.087-3.867-26.195-4.799-10.538-9.383-16.835-13.493-17.833-2.074 1.387-4.092 4.257-4.782 9.777-1.432 7.741-1.86 17.512-1.86 22.549 0 17.796 3.504 41.285 10.39 65.499 1.3-3.749 2.442-7.351 3.352-10.726 1.412-5.319 10.389-40.578 10.389-40.578s-2.262 46.935-5.422 61.136c-.677 3.001-1.424 5.97-2.202 9.007 11.355 31.728 29.652 60.044 51.479 80.425 8.605 8.043 19.475 14.527 29.762 20.438 22.465-3.21 43.149-4.726 60.405-4.535 22.894.303 39.698 3.688 46.504 10.392 3.332 3.258 4.684 7.192 5.104 11.604.101 1.716-.735 5.748-.98 6.76.245-1.225.245-7.249-18.133-13.114-14.475-4.627-41.563-4.483-74.068-1.023 37.597 18.395 74.225 27.533 85.833 22.055 2.838-1.384 6.28-6.1 6.28-6.1s-2.046 9.296-3.516 11.62c-1.875 2.525-5.553 5.26-9.04 6.182-18.332 4.892-66.051-6.427-107.65-30.196-46.479 6.845-97.521 19.489-138.437 32.91-40.208 70.462-70.436 102.823-95.026 90.512l-9.041-4.546c-3.676-2.103-4.236-7.219-3.387-11.386 2.867-14.027 20.456-35.154 55.787-56.251 3.804-2.302 20.743-11.259 20.743-11.259s-12.541 12.139-15.479 14.521c-28.2 23.108-49.014 52.182-48.494 63.453l.102.982c23.955-3.413 59.879-52.171 106.063-142.537m14.636 7.494c-7.714 14.528-15.254 27.998-22.215 40.366 38.506-16.133 79.95-26.457 119.4-33.791-5.302-3.661-10.448-7.538-15.292-11.636-21.725-18.394-38.288-41.341-50.294-65.487-7.612 20.513-16.667 42.311-31.599 70.548" fill="#f91d0a"/></g><path d="M372.806 326.104h1.486c1.649 0 3.055-.499 3.055-1.925 0-1.135-.714-1.923-2.837-1.923-.851 0-1.35.077-1.704.154v3.694zm0 6.666h-2.204v-11.865a24.49 24.49 0 0 1 4.128-.337c1.984 0 2.973.337 3.748.911.715.496 1.213 1.429 1.213 2.499 0 1.491-1.051 2.401-2.344 2.839v.137c1.074.423 1.647 1.354 2.007 2.842.337 1.844.556 2.559.851 2.976h-2.28c-.356-.417-.637-1.489-.934-3.117-.274-1.29-1.048-1.847-2.757-1.847h-1.428v4.962zm2.288 5.196c-6.277 0-11.368-5.089-11.368-11.364 0-6.279 5.091-11.371 11.368-11.371 6.275 0 11.368 5.092 11.368 11.371 0 6.276-5.093 11.364-11.368 11.364zm9.09-11.366c0-5.023-4.071-9.096-9.092-9.096a9.096 9.096 0 0 0 0 18.19c5.021 0 9.092-4.072 9.092-9.094z" fill="#f91d0a"/><g fill="#1a171b"><path d="M167.819 413.897l-3.081-19.909c-.885-5.728-2-14.68-2.869-20.884h-.333c-.91 6.249-2.162 15.466-3.074 20.934l-3.321 19.859h12.678zM153.47 426.85l-4.014 22.071h-14.818l18.475-91.832h18.186l16.78 91.832H173.19l-3.946-22.071H153.47zM221.81 407.905c0-1.237 0-2.669-.221-3.965-.605-4.547-2.828-8.63-6.374-8.63-6.125 0-8.381 9.603-8.381 20.812 0 12.873 3.211 20.22 8.159 20.22 2.269 0 4.853-1.27 6.282-6.663.331-1.082.533-2.526.533-4.205l.002-17.569zm15.2-53.25v75.217c0 5.976.286 13.313.513 19.051h-13.146l-.845-7.666h-.337c-2.185 4.718-7 8.735-12.726 8.735-12.591 0-18.83-15.104-18.83-34.173 0-23.239 9.316-34.55 19.456-34.55 5.301 0 8.711 2.838 10.448 6.92h.269v-33.534h15.198zM268.671 437.289c5.822 0 7.238-11.897 7.238-21.755 0-9.376-1.416-21.569-7.481-21.569-6.424 0-7.777 12.193-7.777 21.569 0 11.307 1.718 21.755 7.909 21.755h.111zm-.268 12.703c-14.016 0-22.816-12.255-22.816-34.158 0-23.918 11.272-34.563 23.15-34.563 13.816 0 22.503 12.857 22.503 34.166 0 27.396-13.589 34.557-22.725 34.557l-.112-.002zM314.954 425.157c0 1.646.268 3.201.601 4.243 1.517 5.573 4.121 6.941 6.194 6.941 5.859 0 8.245-8.108 8.245-21.08 0-11.81-2.516-19.951-8.312-19.951-2.893 0-5.324 3.419-6.149 7.077-.311 1.14-.577 2.948-.577 4.185l-.002 18.585zm-15.194-70.502h15.194v34.667h.244c3.011-5.113 6.998-8.053 12.766-8.053 11.478 0 17.229 14.195 17.229 32.732 0 23.45-8.58 35.989-19.697 35.989-5.305 0-8.846-2.557-12.033-9.043h-.313l-.868 7.974h-13.04c.205-5.531.521-13.075.521-19.051v-75.216h-.003zM381.647 409.288c.064-9.347-2.452-15.878-7.266-15.878-5.503 0-7.845 8.766-8.022 15.878h15.288zm-15.33 11.707c.178 12.03 5.991 15.96 13.211 15.96 4.566 0 8.515-1.107 11.409-2.306l2.029 11.902c-4.011 1.899-10.252 3.08-16.227 3.08-16.312 0-25.224-12.122-25.224-32.854 0-22.237 10.339-35.604 23.845-35.604 13.034 0 20.278 11.809 20.278 31.08 0 4.413-.182 6.886-.449 8.825l-28.872-.083z"/></g><g><linearGradient id="c" gradientUnits="userSpaceOnUse" x1="-2155.72" y1="918.355" x2="-2236.214" y2="1166.092" gradientTransform="matrix(1 0 0 -1 2229.395 1017.359)"><stop offset=".127" stop-color="#8a0000"/><stop offset=".244" stop-color="#900000" stop-opacity=".999"/><stop offset=".398" stop-color="#a00000" stop-opacity=".999"/><stop offset=".573" stop-color="#bc0000" stop-opacity=".998"/><stop offset=".761" stop-color="#e20000" stop-opacity=".997"/><stop offset=".867" stop-color="#fa0000" stop-opacity=".996"/></linearGradient><path fill="url(#c)" d="M-173.741-94.495h414.34V44.768h-414.34z"/><linearGradient id="d" gradientUnits="userSpaceOnUse" x1="-2152.32" y1="908.536" x2="-2239.196" y2="1175.913" gradientTransform="matrix(1 0 0 -1 2229.395 1017.359)"><stop offset=".315" stop-color="#5e0000"/><stop offset=".444" stop-color="#830000" stop-opacity=".999"/><stop offset=".618" stop-color="#ae0000" stop-opacity=".998"/><stop offset=".775" stop-color="#cd0000" stop-opacity=".997"/><stop offset=".908" stop-color="#e00000" stop-opacity=".996"/><stop offset="1" stop-color="#e70000" stop-opacity=".996"/></linearGradient><path d="M248.511 53.122h-429.747V-102.85h429.747V53.122zM233.053-87.389h-398.841V37.629h398.841V-87.389z" fill="url(#d)"/><path d="M-65.448-74.06h30.15c8.963 0 15.836 2.645 20.617 7.934 4.815 5.25 7.221 12.746 7.221 22.494 0 9.79-2.405 17.329-7.221 22.619-4.781 5.25-11.654 7.875-20.617 7.872h-11.985v32.366h-18.165V-74.06m18.167 17.431v26.056h10.052c3.521 0 6.243-1.124 8.162-3.373 1.919-2.292 2.878-5.521 2.878-9.687 0-4.166-.958-7.374-2.878-9.623-1.918-2.249-4.641-3.374-8.162-3.374l-10.052.001m70.774.749V1.044h6.509c7.425 0 13.088-2.437 16.986-7.311 3.932-4.874 5.899-11.956 5.899-21.244 0-9.249-1.952-16.286-5.853-21.121-3.898-4.832-9.578-7.248-17.033-7.248h-6.508M5.327-74.06h19.155c10.696 0 18.655 1.02 23.874 3.06 5.254 2.002 9.752 5.416 13.495 10.249 3.304 4.206 5.756 9.06 7.36 14.557 1.604 5.501 2.406 11.727 2.406 18.684 0 7.039-.803 13.331-2.406 18.871C67.607-3.142 65.154 1.71 61.85 5.918c-3.774 4.831-8.304 8.269-13.587 10.31-5.285 1.999-13.211 2.998-23.781 2.998H5.327V-74.06m80.209 0h49.023v18.181h-30.858v17.372h29.018v18.185h-29.018v39.549H85.536V-74.06" fill="#fff9f9"/></g>
	<metadata>
		<rdf:RDF xmlns:rdf="http://www.w3.org/1999/02/22-rdf-syntax-ns#" xmlns:rdfs="http://www.w3.org/2000/01/rdf-schema#" xmlns:dc="http://purl.org/dc/elements/1.1/">
			<rdf:Description about="https://admin.iconscout.com/legal#licenses" dc:title="adobe-pdf-icon" dc:description="adobe-pdf-icon" dc:publisher="Iconscout" dc:date="2017-06-17" dc:format="image/svg+xml" dc:language="en">
				<dc:creator>
					<rdf:Bag>
						<rdf:li>Icon Mafia</rdf:li>
					</rdf:Bag>
				</dc:creator>
			</rdf:Description>
		</rdf:RDF>
    </metadata></svg>
