<svg xmlns="http://www.w3.org/2000/svg" viewBox="0 0 64 64"><path fill="#05ace5" d="M56.75,7.25a15.05,15.05,0,0,0-20.18-.93,1.19,1.19,0,0,0-.33.22L7.53,35.26a15.18,15.18,0,0,0-.78,21A14.87,14.87,0,0,0,17.5,61.14h.37a14.86,14.86,0,0,0,10.59-4.39l29-29a.83.83,0,0,0,.2-.32A15,15,0,0,0,56.75,7.25ZM52.73,24,32.39,44.34l-.11.1a4.56,4.56,0,0,1-5.9.29,4.4,4.4,0,0,1-.48-6.39L42.72,21.5a3,3,0,0,0-4.25-4.24l-17,17a.8.8,0,0,0-.15.21,10.39,10.39,0,0,0,.47,14.21,10.51,10.51,0,0,0,3.82,2.44l-1.15,1.15A9.21,9.21,0,0,1,12,52.93a8.88,8.88,0,0,1-3.08-6.48,9,9,0,0,1,2.62-6.67l28.4-28.4.37-.32a9,9,0,0,1,5.9-2.18,9.42,9.42,0,0,1,1.06.06,8.91,8.91,0,0,1,6.27,3.71A9.26,9.26,0,0,1,52.73,24Z" data-name="Layer 2"/><path fill="#070707" d="M36.57,6.32a1.19,1.19,0,0,0-.33.22L7.53,35.26a15.18,15.18,0,0,0-.78,21A14.87,14.87,0,0,0,17.5,61.14h.37a14.86,14.86,0,0,0,10.59-4.39l29-29a.83.83,0,0,0,.2-.32A15,15,0,0,0,36.57,6.32ZM56,26.36a.63.63,0,0,0-.13.2L35,47.42a.69.69,0,0,0-.13.11A8.41,8.41,0,0,1,23,35.64a1.47,1.47,0,0,0,.1-.13L39.89,18.67a1,1,0,0,1,1.41,1.42L24.69,36.7l-.26.29a6.4,6.4,0,0,0,.68,9.28,6.56,6.56,0,0,0,8.5-.34L54.07,25.48l.17-.2a11.26,11.26,0,0,0,.87-13.79A10.85,10.85,0,0,0,47.46,7,11,11,0,0,0,39,9.54l-.43.37L10.08,38.36a11.08,11.08,0,0,0-3.21,8.15,10.89,10.89,0,0,0,3.76,7.92,11.21,11.21,0,0,0,15.26-.76l2-2a10.69,10.69,0,0,0,2.88,0l-3.74,3.73a13,13,0,0,1-18.82-.45,13.2,13.2,0,0,1,.71-18.21L37.43,8.18A.77.77,0,0,0,37.64,8,13,13,0,0,1,56,26.36Zm-13.24-9.1a3,3,0,0,0-4.25,0l-17,17a.8.8,0,0,0-.15.21,10.39,10.39,0,0,0,.47,14.21,10.51,10.51,0,0,0,3.82,2.44l-1.15,1.15A9.21,9.21,0,0,1,12,52.93a8.88,8.88,0,0,1-3.08-6.48,9,9,0,0,1,2.62-6.67l28.4-28.4.37-.32a9,9,0,0,1,5.9-2.18,9.42,9.42,0,0,1,1.06.06,8.91,8.91,0,0,1,6.27,3.71A9.26,9.26,0,0,1,52.73,24L32.39,44.34l-.11.1a4.56,4.56,0,0,1-5.9.29,4.4,4.4,0,0,1-.48-6.39L42.72,21.5a3,3,0,0,0,0-4.24Z" data-name="Layer 3"/></svg>