<svg xmlns="http://www.w3.org/2000/svg" id="Layer_1" enable-background="new 0 0 64 64" viewBox="0 0 64 64"><path fill="#2b2f64" d="M53.38,28.66c0.16-0.87,0.24-1.75,0.24-2.64c0-8.25-6.72-14.96-14.97-14.96c-4.66,0-9.04,2.18-11.87,5.86
		c-1.38-0.55-2.82-0.83-4.31-0.83c-6.43,0-11.67,5.24-11.67,11.68c0,0.29,0.01,0.58,0.04,0.86C4.77,29.31,0,34.54,0,40.74
		c0,6.73,5.47,12.2,12.19,12.2h22.59c0.01,0,0.01,0,0.01,0h17.02c6.72,0,12.19-5.47,12.19-12.2C64,34.53,59.42,29.43,53.38,28.66z
		 M34.78,42.13c-0.53,0-0.97,0.43-0.97,0.97V51h-3.62v-7.9c0-0.54-0.44-0.97-0.97-0.97h-2.49L32,35.44l5.27,6.69H34.78z M51.81,51
		H35.75v-6.93h3.52c0.38,0,0.71-0.21,0.88-0.55c0.16-0.33,0.12-0.73-0.11-1.02l-7.28-9.22c-0.36-0.47-1.15-0.47-1.52,0l-7.27,9.22
		c-0.23,0.29-0.28,0.69-0.11,1.02c0.16,0.34,0.5,0.55,0.87,0.55h3.52V51H12.19C6.54,51,1.94,46.4,1.94,40.74
		c0-5.52,4.49-10.12,10.01-10.25c0.29,0,0.55-0.13,0.73-0.36c0.18-0.22,0.25-0.5,0.2-0.78c-0.09-0.51-0.14-1.03-0.14-1.58
		c0-5.37,4.37-9.74,9.73-9.74c1.47,0,2.88,0.33,4.21,0.96c0.44,0.21,0.95,0.07,1.22-0.32C30.34,15.12,34.36,13,38.65,13
		c7.18,0,13.03,5.84,13.03,13.02c0,1.11-0.14,2.21-0.42,3.27c-0.07,0.28-0.01,0.59,0.16,0.82c0.18,0.24,0.45,0.38,0.75,0.39
		c5.55,0.2,9.89,4.7,9.89,10.24C62.06,46.4,57.46,51,51.81,51z"/><path fill="#ffdc7d" d="M37.27,42.13h-2.49c-0.53,0-0.97,0.43-0.97,0.97V51h-3.62v-7.9c0-0.54-0.44-0.97-0.97-0.97h-2.49L32,35.44
		L37.27,42.13z"/><path fill="#ebc25d" d="M35.89,40.38l-2.6-3.3L32,35.44l-2.33,2.96l-1.56,1.98l-1.38,1.75h2.49c0.53,0,0.97,0.43,0.97,0.97V51h3.62
		v-7.9c0-0.54,0.44-0.97,0.97-0.97h2.49L35.89,40.38z M34.78,41.13c-1.08,0-1.97,0.88-1.97,1.97V50h-1.62v-6.9
		c0-1.09-0.88-1.97-1.97-1.97H28.8l0.59-0.75l1.52-1.94L32,37.06l1.09,1.38l1.53,1.94l0.59,0.75H34.78z"/><path fill="#a0d2f1" d="M62.06,40.74c0,5.66-4.6,10.26-10.25,10.26H35.75v-6.93h3.52c0.38,0,0.71-0.21,0.88-0.55
			c0.16-0.33,0.12-0.73-0.11-1.02l-7.28-9.22c-0.36-0.47-1.15-0.47-1.52,0l-7.27,9.22c-0.23,0.29-0.28,0.69-0.11,1.02
			c0.16,0.34,0.5,0.55,0.87,0.55h3.52V51H12.19C6.54,51,1.94,46.4,1.94,40.74c0-5.52,4.49-10.12,10.01-10.25
			c0.29,0,0.55-0.13,0.73-0.36c0.18-0.22,0.25-0.5,0.2-0.78c-0.09-0.51-0.14-1.03-0.14-1.58c0-5.37,4.37-9.74,9.73-9.74
			c1.47,0,2.88,0.33,4.21,0.96c0.44,0.21,0.95,0.07,1.22-0.32C30.34,15.12,34.36,13,38.65,13c7.18,0,13.03,5.84,13.03,13.02
			c0,1.11-0.14,2.21-0.42,3.27c-0.07,0.28-0.01,0.59,0.16,0.82c0.18,0.24,0.45,0.38,0.75,0.39C57.72,30.7,62.06,35.2,62.06,40.74z"/><path fill="#8ec1d6" d="M62.06,40.74c0,5.66-4.6,10.26-10.25,10.26H35.75v-2h16.06c4.55,0,8.25-3.71,8.25-8.26
			c0-4.46-3.5-8.08-7.95-8.24c-0.91-0.03-1.75-0.46-2.3-1.2c-0.52-0.7-0.7-1.64-0.48-2.52c0.23-0.89,0.35-1.82,0.35-2.76
			c0-6.08-4.95-11.02-11.03-11.02c-3.63,0-7.03,1.8-9.11,4.81c-0.55,0.8-1.46,1.28-2.43,1.28c-0.45,0-0.89-0.1-1.29-0.29
			c-1.07-0.51-2.2-0.77-3.35-0.77c-4.26,0-7.73,3.47-7.73,7.74c0,0.41,0.04,0.82,0.11,1.23c0.15,0.85-0.08,1.73-0.6,2.37
			c-0.56,0.71-1.4,1.12-2.25,1.12c-4.45,0.1-8.06,3.81-8.06,8.25c0,4.55,3.7,8.26,8.25,8.26h16.06v2H12.19
			C6.54,51,1.94,46.4,1.94,40.74c0-5.52,4.49-10.12,10.01-10.25c0.29,0,0.55-0.13,0.73-0.36c0.18-0.22,0.25-0.5,0.2-0.78
			c-0.09-0.51-0.14-1.03-0.14-1.58c0-5.37,4.37-9.74,9.73-9.74c1.47,0,2.88,0.33,4.21,0.96c0.44,0.21,0.95,0.07,1.22-0.32
			C30.34,15.12,34.36,13,38.65,13c7.18,0,13.03,5.84,13.03,13.02c0,1.11-0.14,2.21-0.42,3.27c-0.07,0.28-0.01,0.59,0.16,0.82
			c0.18,0.24,0.45,0.38,0.75,0.39C57.72,30.7,62.06,35.2,62.06,40.74z"/></svg>