<?xml version="1.0"?>
<svg xmlns="http://www.w3.org/2000/svg" height="48" viewBox="0 0 48 48" width="48"><path d="M0 0h48v48h-48z" fill="none"/><path d="M44 6h-30c-1.38 0-2.47.7-3.19 1.76l-10.81 16.23 10.81 16.23c.72 1.06 1.81 1.78 3.19 1.78h30c2.21 0 4-1.79 4-4v-28c0-2.21-1.79-4-4-4zm-6 25.17l-2.83 2.83-7.17-7.17-7.17 7.17-2.83-2.83 7.17-7.17-7.17-7.17 2.83-2.83 7.17 7.17 7.17-7.17 2.83 2.83-7.17 7.17 7.17 7.17z"/>
	
	
	<metadata>
		<rdf:RDF xmlns:rdf="http://www.w3.org/1999/02/22-rdf-syntax-ns#" xmlns:rdfs="http://www.w3.org/2000/01/rdf-schema#" xmlns:dc="http://purl.org/dc/elements/1.1/">
			<rdf:Description about="https://iconscout.com/legal#licenses" dc:title="Delete, Card, Tag, Backspace, Cross, Remove, Lable" dc:description="Delete, Card, Tag, Backspace, Cross, Remove, Lable" dc:publisher="Iconscout" dc:date="2016-12-14" dc:format="image/svg+xml" dc:language="en">
				<dc:creator>
					<rdf:Bag>
						<rdf:li>Google Inc.</rdf:li>
					</rdf:Bag>
				</dc:creator>
			</rdf:Description>
		</rdf:RDF>
    </metadata></svg>
