<?xml version="1.0" encoding="UTF-8"?><!DOCTYPE svg PUBLIC "-//W3C//DTD SVG 1.1//EN" "http://www.w3.org/Graphics/SVG/1.1/DTD/svg11.dtd"><svg xmlns="http://www.w3.org/2000/svg" xmlns:xlink="http://www.w3.org/1999/xlink" version="1.1" id="Layer_1" x="0px" y="0px" width="72px" height="72px" viewBox="0 0 72 72" xml:space="preserve"><path d="M53.678 61.824a8.447 8.447 0 0 1-6.01-2.49L36 47.667 24.332 59.334c-1.604 1.605-3.739 2.49-6.01 2.49s-4.404-.885-6.01-2.49a8.442 8.442 0 0 1-2.49-6.01c0-2.271.885-4.405 2.491-6.011l11.666-11.667-10.96-10.961c-1.605-1.604-2.49-3.739-2.49-6.01s.885-4.405 2.49-6.01a8.444 8.444 0 0 1 6.011-2.49c2.271 0 4.405.885 6.01 2.49L36 23.626l10.96-10.96c1.605-1.605 3.738-2.49 6.01-2.49s4.406.885 6.01 2.49c1.605 1.604 2.49 3.739 2.49 6.01s-.885 4.405-2.49 6.01l-10.959 10.96 11.666 11.668a8.44 8.44 0 0 1 2.49 6.01 8.444 8.444 0 0 1-2.49 6.01 8.438 8.438 0 0 1-6.009 2.49zM36 42.839c.511 0 1.023.195 1.414.586l13.082 13.081a4.47 4.47 0 0 0 3.182 1.318 4.469 4.469 0 0 0 3.182-1.318 4.464 4.464 0 0 0 1.318-3.182 4.462 4.462 0 0 0-1.318-3.181L43.78 37.06a2 2 0 0 1 0-2.828l12.373-12.375c.852-.851 1.318-1.979 1.318-3.182s-.467-2.331-1.318-3.182c-.85-.851-1.98-1.318-3.182-1.318s-2.332.468-3.18 1.318L37.414 27.868a2 2 0 0 1-2.828 0L22.21 15.494a4.464 4.464 0 0 0-3.181-1.318 4.47 4.47 0 0 0-3.182 1.318c-.851.851-1.319 1.979-1.319 3.182s.469 2.331 1.318 3.182L28.22 34.233a2 2 0 0 1 0 2.828L15.14 50.143a4.469 4.469 0 0 0-1.318 3.182c0 1.201.469 2.331 1.318 3.182a4.468 4.468 0 0 0 3.182 1.318 4.47 4.47 0 0 0 3.182-1.318l13.083-13.081c.39-.392.902-.587 1.413-.587z"/><metadata><rdf:RDF xmlns:rdf="http://www.w3.org/1999/02/22-rdf-syntax-ns#" xmlns:rdfs="http://www.w3.org/2000/01/rdf-schema#" xmlns:dc="http://purl.org/dc/elements/1.1/"><rdf:Description about="https://iconscout.com/legal#licenses" dc:title="delete" dc:description="delete" dc:publisher="Iconscout" dc:date="2017-09-14" dc:format="image/svg+xml" dc:language="en"><dc:creator><rdf:Bag><rdf:li>Taras Shypka</rdf:li></rdf:Bag></dc:creator></rdf:Description></rdf:RDF></metadata></svg>