<?xml version="1.0" encoding="UTF-8"?><svg xmlns="http://www.w3.org/2000/svg" version="1.2" baseProfile="tiny" width="24" height="24" viewBox="0 0 24 24"><path d="M21 14h-6a1 1 0 1 1 0-2h6a1 1 0 1 1 0 2zm-7-5c0 1.381-.56 2.631-1.464 3.535C11.631 13.44 10.381 14 9 14s-2.631-.56-3.536-1.465C4.56 11.631 4 10.381 4 9s.56-2.631 1.464-3.535C6.369 4.56 7.619 4 9 4s2.631.56 3.536 1.465A4.984 4.984 0 0 1 14 9zm-5 6c-3.75 0-6 2-6 4 0 1 2.25 2 6 2 3.518 0 6-1 6-2 0-2-2.354-4-6-4z"/><metadata><rdf:RDF xmlns:rdf="http://www.w3.org/1999/02/22-rdf-syntax-ns#" xmlns:rdfs="http://www.w3.org/2000/01/rdf-schema#" xmlns:dc="http://purl.org/dc/elements/1.1/"><rdf:Description about="https://iconscout.com/legal#licenses" dc:title="user,delete" dc:description="user,delete" dc:publisher="Iconscout" dc:date="2017-09-24" dc:format="image/svg+xml" dc:language="en"><dc:creator><rdf:Bag><rdf:li>Typicons</rdf:li></rdf:Bag></dc:creator></rdf:Description></rdf:RDF></metadata></svg>