<svg xmlns="http://www.w3.org/2000/svg" xmlns:xlink="http://www.w3.org/1999/xlink" data-name="Layer 1" viewBox="0 0 512 512"><defs><linearGradient id="a" x1="211" x2="211" y1="486" y2="27.045" gradientTransform="matrix(1 0 0 -1 0 514)" gradientUnits="userSpaceOnUse"><stop offset="0" stop-color="#00efd1"/><stop offset="1" stop-color="#00acea"/></linearGradient><linearGradient id="b" x1="255.8" x2="255.8" y2="27.045" xlink:href="#a"/><linearGradient id="c" x1="371.05" x2="371.05" y2="27.045" xlink:href="#a"/></defs><path fill="url(#a)" d="M211,223a90.4,90.4,0,1,0-90.4-90.4A90.5,90.5,0,0,0,211,223Zm0-160.7a70.4,70.4,0,1,1-70.4,70.4A70.5,70.5,0,0,1,211,62.3Z"/><path fill="url(#b)" d="M371,289.7c-1.6,0-3.2.1-4.9.1a82.048,82.048,0,0,0-77.4-54.4h0a10,10,0,0,0-8.1,4.1,86.461,86.461,0,0,1-139.4,0,10,10,0,0,0-8.1-4.1h0a82.432,82.432,0,0,0-82.3,82.3v142a10.029,10.029,0,0,0,10,10h300a10.075,10.075,0,0,0,2.5-.3q3.75.3,7.5.3a90,90,0,0,0,.2-180ZM71,317.8a62.366,62.366,0,0,1,57.5-62.1,106.586,106.586,0,0,0,165,0A62.069,62.069,0,0,1,346,293.3a89.989,89.989,0,0,0-31.5,156.5H71ZM371,449.7a86.517,86.517,0,0,1-8.8-.5A70.065,70.065,0,0,1,301,379.7c0-34.3,25.6-64.1,59.4-69.2a74.518,74.518,0,0,1,10.6-.8,70,70,0,0,1,0,140Z"/><path fill="url(#c)" d="M411,344.8H396.3v-7.4a15.151,15.151,0,0,0-15.1-15.1H360.8a15.151,15.151,0,0,0-15.1,15.1v7.4H331a10,10,0,0,0,0,20h1.4l5.1,63.3a10.024,10.024,0,0,0,10,9.2h47.1a10.1,10.1,0,0,0,10-9.2l5.1-63.3h1.4a10,10,0,1,0-.1-20Zm-45.3-2.6h10.6v2.5H365.7Zm19.6,75H356.7l-4.3-52.5h37.1Z"/></svg>