<?xml version="1.0" encoding="UTF-8"?><!DOCTYPE svg PUBLIC "-//W3C//DTD SVG 1.1//EN" "http://www.w3.org/Graphics/SVG/1.1/DTD/svg11.dtd"><svg xmlns="http://www.w3.org/2000/svg" xmlns:xlink="http://www.w3.org/1999/xlink" version="1.1" id="Calque_1" x="0px" y="0px" width="512px" height="512px" viewBox="0 0 512 512" xml:space="preserve"><g fill="#202020"><path d="M299.229 288.621c-2.873-2.794-5.125-5.486-3.961-4.519-6.039-5.506-5.859-5.933-7.123-6.165-3.958-3.452-7.561-7.755-3.136-3.749L274.01 263.82l6.308 6.468c-2.169-1.311-10.079-10.336-12.604-11.859l11.605 11.522-.72-.436c2.786 2.479 7.837 7.658 9.56 9.501-.352-.21-.287.083-2.34-1.943 13.93 13.995 4.511 3.011 16.239 14.454a84.483 84.483 0 0 1-2.829-2.906z"/><path d="M310.04 301.532l5.408 4.332 8.032 8.31c.278-.093 6.38 5.709 2.514 1.516-.817-.759-2.43-2.261-3.671-3.535 1.313.511 11.065 10.665 9.07 7.858-6.567-6.356-7.472-7.437-11.774-11.088-5.887-5.961-10.108-10.367-12.728-13.28-1.82-1.697-2.313-1.698-4.597-3.884l1.533 1.502-.362.845c1.99 1.736 3.691 3.558 5.771 5.612l-10.269-8.859c2.519 3.648 12.248 12.715 15.769 16.704-4.148-5.166 3.962 3.455-4.696-6.033z"/><path d="M302.295 291.76l-.236-.233.236.233z"/><path d="M117.715 135.27c-2.044-2.023-2.786-2.48-3.151-2.702l22.908 22.885c-.559-.875-6.958-7.666-2.456-3.354-1.79-2.141-7.926-7.977-9.008-8.631l1.901 1.418c-5.585-4.965-8.58-9.177-4.958-5.92l-.448-.442-15.803-13.419c5.295 5.433 4.541 3.721 11.015 10.165z"/><path d="M304.702 223.641c2.911-3.022 3.219-3.444 2.823-3.166a108.43 108.43 0 0 0-2.823 3.166z"/><path d="M103.005 121.969l-4.949-4.205c1.933 1.733 3.677 3.209 4.949 4.205z"/><path d="M140.383 148.006c.029-.01.096.021.002-.125l-2.246-1.865.052.053 2.192 1.937z"/><path d="M187.078 165.312l1.528 1.476a1064.82 1064.82 0 0 0-1.528-1.476z"/><path d="M204.54 207.901l-10.538-9.821c1.526 1.188-3.435-3.672-1.093-1.726-.802-.749-4.507-4.319-3.603-3.239l2.088 2.065c-5.862-4.874-2.802-1.432-12.079-9.956 5.232 5.819 7.924 7.973 11.075 10.674l2.732 2.596 9.156 7.773 2.262 1.634z"/><path d="M395.466 105.807l-.073.149c.089-.114.095-.146.073-.149z"/><path d="M395.107 106.56l.286-.604c-.468.627-2.487 2.798-.286.604z"/><path d="M105.007 123.33c-.231-.047-.931-.522-2.002-1.361l3.695 3.135-1.693-1.774z"/><path d="M113.856 130.019l8.646 8.505 3.418 2.905c-3.379-3.185-7.284-6.957-12.064-11.41z"/><path d="M173.823 151.476c17.839 17.687-4.946-3.781 3.076 4.521 5 4.864 7.017 6.327 10.179 9.315-14.325-13.853 2.82 1-11.536-13.063 2.521 1.521 10.792 9.703 15.478 14.659 4.976 5.939-5.121-4.416-6.83-5.179 5.78 5.623 4.864 4.531 7.552 6.682 8.841 9.064 19.115 17.932 23.793 23.946 6.587 6.374 6.391 5.717 10.372 9.19 1.257.226-9.368-9.91-11.363-12.717.454.541 1.337 1.599.984 1.39l-5.495-5.711c5.139 5.498-1.254-.224-4.137-3.026-2.078-2.057-6.211-6.144-5.503-5.721l3.242 3.02c-3.867-4.192-9.267-8.515-13.243-13.049-.107-.338 1.558 1.217 1.874 1.39-5.121-4.417-9.698-9.036-17.006-15.844l4.603 3.58c-6.212-5.08-18.835-18.026-27.397-27.185.896 1.069 2.606 2.901 1.444 1.937-5.326-5.082-8.906-9.363-6.227-7.222-5.508-4.66-19.013-19.727-26.493-26.104l-5.383-4.571-.854-.72c-.362-.292-.716-.601-1.125-.862-.786-.559-1.656-1.046-2.573-1.489a16.613 16.613 0 0 0-6.113-1.506c-4.327-.263-8.977 1.426-12.12 4.591a15.63 15.63 0 0 0-3.583 5.437 15.243 15.243 0 0 0-1.03 6.09c.128 4.007 1.932 7.462 4.05 9.65l.799.785.573.49 1.045.888 1.699 1.443 1.48 1.257a142.132 142.132 0 0 1-3.926-3.645l-.993-1.333c-.375-.48-.65-.958-.885-1.358-.464-.803-.659-1.376-.668-1.498.006-.133.236.164.827.953.333.367.718.892 1.323 1.44l.464.443.418.353.949.801-.903-.812-.399-.352-.452-.441c-.597-.556-1.009-1.1-1.4-1.557-.711-.967-1.201-1.715-1.628-2.663-.443-.939-.833-2.095-1.007-3.936-.125-1.809-.042-4.48 1.803-7.695-1.334 2.597-1.197 4.461-.878 3.853.199-.277.474-1.153 1.273-2.58.8-1.402 2.173-3.427 4.943-5.121 3.424-2.196 7.69-2.531 11.285-1.251 1.795.606 3.474 1.715 4.748 2.923l3.102 2.824c4.089 3.703 7.999 7.169 11.879 10.593 7.759 6.846 15.396 13.519 24.093 21.563.272.964 13.512 14.01 19.819 20.479-2.81-2.066-7.656-6.702-12.651-11.546l12.296 12.396 2.336.875z"/><path d="M131.041 111.018c.417.479.863.96 1.323 1.452-.225-.282-.617-.718-1.323-1.452z"/><path d="M157.704 136.692c-.075-.048-.064-.017-.1-.024l1.587 1.534-1.487-1.51z"/><path d="M101.588 118.349l3.14 2.688-2.359-2.178c-.8-.707-1.206-1.019-.781-.51z"/><path d="M104.564 122.542l-.711-.426 1.153 1.214c.201.047.132-.151-.442-.788z"/><path d="M238.575 222.483l1.778 1.627c-1.032-1.019-1.504-1.431-1.778-1.627z"/><path d="M193.024 171.851c-6.211-6.144-1.255-.222-9.997-8.959l2.533 2.597c-6.491-6.049-17.41-17.171-24.878-24.604 1.046.635-4.268-4.768-3.077-4.216-5.168-5.018-10.282-9.99-13.235-12.285-3.047-3.263-8.131-7.766-12.005-11.914 1.5 1.887-6.365-5.058 3.634 4.469-.814-.762-.364-.223-1.17-.975 6.02 6.558 8.998 8.623 14.422 14.034 3.048 3.429-5.604-4.989-2.625-1.856 6.942 6.587 20.998 21.457 21.267 20.292 4.974 4.873 5.495 5.71 6.832 7.31 8.552 7.023 28.573 29.229 29.479 28.181-2.882-2.804-7.493-7.458-11.875-11.42l.695-.654z"/><path d="M91.908 106.248a7.684 7.684 0 0 1-.192-1.035 6.228 6.228 0 0 1-.092-.966c.001.3.043.633.094.976.04.344.101.695.19 1.025z"/><path d="M166.289 188.813l-3.223-1.945c-14.862-14.558-20.001-20.056-32.889-32.892-.895-1.07.721.435 1.541 1.198-9.116-8.968-22.512-22.632-29.388-28.921-2.873-2.882-10.222-10.638-7.176-7.967l-2.301-2.152-.599-.575c-.219-.217-.342-.317-.71-.718a16.008 16.008 0 0 1-1.75-2.182c-.074-.248.19.057.651.633.226.293.512.643.857 1.002l.53.568.233.238.182.178c.977.954 2.014 1.979 2.154 1.931-1.261-1.292-1.714-1.834-2.08-2.055 2.345 1.95-1.449-3.007 8.552 7.023 3.341 4.415-7.009-6.885-5.312-4.003 3.318 3.326 3.161 2.71 3.518 2.923 4.22 4.247 3.96 4.284 3.6 4.194 1.806 1.438 6.875 7.019 9.395 8.98 8.278 8.187-.893-.004 4.492 5.367l3.699 2.5 8.827 9.054c13.153 12.732-.815-2.887 14.317 11.568-2.256-1.631 3.151 4.828 9.912 11.838-4.142-4.097-12.147-11.321-17.287-16.817 7.027 7.966-10.375-10.262-7.022-5.834 3.959 3.451 10.171 9.594 14.852 14.55l-1.634-1.524c5.06 5.187 9.565 8.438 16.396 15.749 3.533 3.494 2.706 3.005 1.947 2.527 3.064 2.882 5.839 5.422 5.716 5.564zm-7.78-7.53l-4.641-4.76c1.016 1.216 2.772 2.964 4.641 4.76z"/><path d="M375.859 367.195l-1.379-1.477c.284.34.812.894 1.379 1.477z"/><path d="M144.347 359.448l-2.742 2.703a157.709 157.709 0 0 0 2.742-2.703z"/><path d="M103.285 411.485c0-.001.437-.003.826-.154.394-.133.709-.359.709-.359-.269.142-.523.242-.774.343-.257.059-.504.149-.761.17z"/><path d="M408.281 399.701l.129.137.659.596-.788-.733z"/><path d="M223.529 295.521a67.983 67.983 0 0 0 2.348-2.084c-.171.052-1.042.838-2.348 2.084z"/><path d="M102.968 411.485c.043.012.067.019.102.027.069-.009.142-.002.216-.027-.002.019-.316-.01-.318 0z"/><path d="M173.012 334.279l1.683-1.803a51.65 51.65 0 0 0-1.683 1.803z"/><path d="M167.475 336.419a83.324 83.324 0 0 0 1.634-1.754l-1.634 1.754z"/><path d="M229.294 235.07l-3.751-3.579c1.811 1.792 2.92 2.834 3.751 3.579z"/><path d="M177.568 327.11c.186-.241.372-.481.487-.65-.488.525-.694.801-.487.65z"/><path d="M354.353 342.117l.225.22.163.023-.388-.243z"/><path d="M344.568 334.077l-3.27-3.171a112.63 112.63 0 0 0 3.27 3.171z"/><path d="M282.901 291.879c.884 1.057 3.058 3.438 1.896 2.474 1.982 1.732 2.161 1.305-1.896-2.474z"/><path d="M375.973 356.234c-.665-.504-1.454-1.168-2.244-1.836 1.444 1.27 2.706 2.387 2.244 1.836z"/><path d="M373.729 354.398l-2.122-1.852c.737.66 1.453 1.285 2.122 1.852z"/><path d="M255.782 275.143c-.144.063-.373.224-.681.51.112.052.349-.15.681-.51z"/><path d="M338.792 328.208c-.721-.435-15.033-14.127-3.329-2.276-.899-.01-7.762-7.351-11.012-10.38 2.177 2.385-1.42-.849-.887.003 1.611 1.503 3.591 3.227 6.133 5.833.98 1.387-3.063-2.382-6.037-5.508 3.522 3.992-5.121-4.416.018 1.082 11.525 11.213 19.722 19.086 28.366 26.432-6.587-6.374-13.97-13.491-19.106-18.985l2.619 1.85c5.669 6.346 9.631 9.802 15.503 15.746l-13.068-13.478c-5.897-6.537-1.664-2.451 3.307 2.38-1.201-1.211-2.269-2.325-2.507-2.699z"/><path d="M351.111 333.776l-.211-.233c-.209-.181-.459-.413-.599-.521l.81.754z"/><path d="M222.186 243.531l-1.286-.995c1.018.887 1.357 1.135 1.286.995z"/><path d="M357.165 343.557l-.01-.01c.094.087.116.108.01.01z"/><path d="M225.93 264.665c.03-.05.059-.102.119-.185-.091.114-.08.125-.119.185z"/><path d="M226.64 280.543c.07-.034.103-.033.244-.139.585-.628.273-.352-.244.139z"/><path d="M225.945 264.722c-.012-.012-.042-.005-.015-.058-.009.035-.046.096.015.058z"/><path d="M90.483 407.167l.135-.548c.074-.353.216-.85.422-1.443.034-.242.008-.251-.098.051-.113.3-.303.911-.459 1.94z"/><path d="M117.215 377.415l.54-.455-.54.455z"/><path d="M278.193 283.706a183.27 183.27 0 0 0-3.231-3.19c.973.992 2.037 2.053 3.231 3.19z"/><path d="M226.049 264.48c.243-.325.606-.771 1.222-1.491-.681.791-1.028 1.223-1.222 1.491z"/><path d="M134.947 391.674l-.795.88.517-.479.278-.401z"/><path d="M149.44 377.748c-.441.528-.619.797-.851 1.107 4.912-5.23 14.402-14.374 15.097-15.887-1.711 1.731-10.874 10.413-9.593 8.652-3.433 3.638-8.946 8.577-10.782 10.548 6.027-5.58.973-.282-2.808 3.774-3.683 3.443.341-1-2.804 1.993l-8.2 8.29 7.236-7.128-1.788 2.575.695-.77c11.968-12.333 1.609-.454 13.798-13.154z"/><path d="M148.589 378.855a60.332 60.332 0 0 0-1.85 2.044c1.14-1.153 1.545-1.638 1.85-2.044z"/><path d="M198.881 329.862l2.088-2.214-2.088 2.214z"/><path d="M131.949 147.588c.097.33 6.938 7.648 7.114 7.219l-6.25-6.439-.864-.78z"/><path d="M333.273 346.498l-2.363-2.378-.507-.413c.437.526 2.053 2.031 2.87 2.791z"/><path d="M156.138 369.291c-1.252 1.345-1.782 1.97-2.046 2.33.817-.864 1.554-1.679 2.046-2.33z"/><path d="M332.998 347.663c.918 1.091 2.266 2.703 2.36 3.028 2.053 2.058 3.654 3.342 5.804 5.378-2.405-2.317-5.106-5.079-8.164-8.406z"/><path d="M341.338 356.233a18.11 18.11 0 0 1-.176-.164l.176.164z"/><path d="M127.865 143.247l-1.945-1.818 1.061.899-4.779-4.962-2.054-1.958c.326.305.602.517.787.635l-1.525-1.596c-4.191-3.565-14.072-12.987-17.041-15.587a438.542 438.542 0 0 1-5.983-5.679c-.502-.493-.959-.913-1.471-1.445a12.522 12.522 0 0 1-1.437-1.782 11.154 11.154 0 0 1-1.569-3.706c.443 2.184 1.894 4.426 3.204 5.631 1.104 1.032 1.771 1.581 1.336.972l-.931-1.005c-.295-.317-.642-.75-.937-1.112-.555-.797-1.037-1.597-1.36-2.453-.684-1.69-.957-3.479-.78-5.4.079-.959.286-1.955.661-2.969a11 11 0 0 1 1.653-3.058 11.642 11.642 0 0 1 7.612-4.535l-.364.052c-.23.042-.566.061-.954.17-.788.158-1.801.523-2.758 1.002-.934.521-1.821 1.135-2.389 1.701-.305.261-.527.51-.682.686l-.246.272.525-.64c.364-.38.89-.926 1.621-1.48 1.441-1.118 3.784-2.161 6.305-2.285 1.252-.061 2.52.084 3.675.386 1.164.289 2.176.8 3.022 1.268.401.267.78.505 1.095.742l.789.65.565.501c.991 1.13 1.088 1.339.646.993a21.981 21.981 0 0 1-1.023-.888l-.354-.322-.465-.394a9.33 9.33 0 0 0-1.068-.804c-1.538-1.082-3.651-1.793-5.504-1.931-1.859-.162-3.406.222-4.029.48 3.66-1.063 7.649.031 10.19 2.347.678.604 1.132 1.113 1.649 1.643l1.485 1.555 2.795 2.957c3.575 3.789 6.549 6.915 9.023 8.807.27.96.726 2.568 6.941 8.715-4.063-4.85 3.958 3.452.724-.625 2.333 1.938 6.771 7.019 7.384 7.116l-.721-.435c10.007 11.1 14.319 13.699 19.115 17.932 12.777 12.495 18.357 18.522 28.722 28.771.174.636 2.343 4.078 6.502 8.189 2.235 1.609 11.707 10.791 13.06 11.341-7.225-7.559-6.384-5.711-10.903-10.043-3.263-4.104.082-.75-4.698-6.032 3.897 4.225 18.566 18.128 22.619 22.97l-1.625-1.515c6.859 7.338 7.224 9.687 19.65 20.913l5.889 5.397c-.312-.232-.39-.216-.571-.325 4.598 4.64 6.152 6.443 7.876 8.316a90.953 90.953 0 0 0 3.117 3.226l2.345 2.271 2.962 2.764c-.703-.648-.284-.141-1.011-.813a102.6 102.6 0 0 0 2.707 2.83 147.061 147.061 0 0 0 3.18-3.264l3.063-3.291c2.12-2.297 4.086-4.462 5.861-6.316 3.017-2.348-.308.966-1.725 2.867 10.354-10.097 20.817-21.706 26.76-28.464l6.788-6.396c-3.771 4.047-8.196 9.178-6.802 8.187 3.558-3.692 2.698-3.148 7.89-8.211-.661 1.088-2.612 3.438-4.754 6.118 10.961-10.246 1.612-3.129 9.688-9.893 3.335-3.327 4.958-5.574 5.063-6.197l6.374-5.697c.342-1 7.773-8.469 12.606-13.402.455-.738-4.281 3.58-6.006 5.559.106-.623 5.18-5.939 8.526-9.275 1.913-.534 21.773-21.974 18.637-17.211 14.782-15.231 35.795-36.383 45.411-46.576a165.96 165.96 0 0 0 2.983-2.75c.533-.496 1.017-.977 1.631-1.482a10.057 10.057 0 0 1 1.732-1.157c1.093-.592 1.957-.793 2.144-.783.201.034-.309.191-1.602.977 4.076-2.171 8.691-1.419 11.68.856 3.059 2.249 4.669 5.902 4.466 9.489a11.232 11.232 0 0 1-1.604 5.172c-.249.39-.516.777-.805 1.147-.3.344-.633.747-.912 1.026l-1.778 1.849a351.736 351.736 0 0 1-8.093 8.096c-1.078.906 5.414-5.426 4.758-5.23-7.561 8.113-14.551 13.967-26.527 26.312 2.033-2.058 2.487-2.797 2.7-3.153.327-.099-4.744 5.219-7.779 8.476-1.827 1.708 2.271-2.438 1.192-1.534-23.825 23.155-40.783 41.989-64.178 65.321 6.682-6.663 8.746-9.642 8.63-9.9l-6.544 6.528c-2.29 2.747-7.198 7.654-11.132 11.928-.59.418-2.679 2.322-.75.178-13.374 12.449-19.333 21.001-35.393 36.587l18.238-20.082-5.062 4.42 8.005-8.843c-5.283 4.778-9.075 9.738-10.027 9.997.966-1.16 3.559-3.691 3.452-3.958-4.966 4.695-5.088 5.333-8.652 9.031 8.863-10.272 27.633-29.019 37.557-39.288 1.533-1.644-1.19 1.53-1.399 1.883 4.096-4.143 6.788-6.396 11.852-11.704 2.922-3.518-2.676 2.238-5.263 4.763.093-.611 1.395-1.881 4.201-4.767.964-.273 15.747-15.502 19.837-18.749 15.099-15.316-3.326 1.538 11.67-13.158l4.83-4.04c8.313-8.924 19.189-20.342 29.027-30.011l-2.043 2.068c-1.2 1.538 1.166-.621 2.254-1.535 7.54-7.201 13.683-14.304 18.544-18.374l3.243-3.548 1.785-1.931.462-.497.335-.411c.241-.257.4-.578.607-.863a8.513 8.513 0 0 0 .817-1.976 8.59 8.59 0 0 0 .23-2.167c-.074-1.467-.564-2.918-1.45-4.088-.885-1.176-2.122-2.079-3.48-2.517-1.354-.451-2.84-.477-4.146-.081a6.355 6.355 0 0 0-1.82.831c-.289.157-.523.394-.785.581l-.347.339-.186.178-.242.253-3.706 3.877c-.778.518-.411-.034.634-1.222a102.82 102.82 0 0 1 2.02-2.203l.622-.661.325-.344c.112-.119.179-.171.271-.262.333-.339.72-.656 1.15-.925a7.38 7.38 0 0 1 2.959-1.093c1.074-.16 2.179-.038 3.158.251 1.989.57 3.355 1.93 4.048 2.76l-.244-.33c-.139-.224-.411-.485-.706-.824-.636-.639-1.617-1.358-2.747-1.757a7.829 7.829 0 0 0-3.229-.47c-.897.063-1.473.243-1.473.243a8.092 8.092 0 0 1 3.813-.099 8.67 8.67 0 0 1 2.761 1.099 8.426 8.426 0 0 1 1.998 1.667c.567.639 1.083 1.359 1.462 2.255-.656-2.208-2.097-3.684-3.531-4.559-1.464-.873-2.985-1.168-4.435-1.111-1.446.094-2.859.507-4.14 1.386-.333.197-.623.474-.941.726-.286.292-.571.553-.975.997l-2.459 2.585c.424-.707-.634.176-3.99 3.525l-.606 1.298c-.09.034-.487.378-1.545 1.391l-12.722 13.145c2.893-2.596 3.326-2.428 6.671-5.765-1.395.991 1.399-1.883 4.749-5.221-2.704 3.155 3.45-3.07 3.565-2.813-6.712 6.694-14.901 14.976-19.201 19.465l-1.746 1.109c-6.468 6.307-13.036 13.231-17.462 17.471l1.196-1.535c-7.761 7.566-15.103 15.318-22.218 21.813-6.473 7.2-14.775 16.109-19.982 22.077-2.577 3.399-20.575 19.543-27.704 27.83-.563.475 4.984-5.604 7.459-8.389-5.19 5.063-8.756 9.65-10.795 10.825 11.65-11.36-.963.273 4.096-5.032-5.378 5.394-10.98 11.152-13.468 13.949 8.715-8.721-2.498 3.694 6.139-5.32-3.167 3.523-6.982 7.59-11.023 11.762a585.67 585.67 0 0 1-6.177 6.281l-9.298 9.209-.838-.856c.138-.234-1.388-1.935-5.802-6.504l-1.938-1.668-1.393-1.122c-.941-.966-.931-1.008-.504-.649l.885.773 1.174 1.048c1.054.968 1.91 1.735 1.808 1.553-.05-.09-.34-.417-.959-1.07l-2.289-2.376c-8.362-7.436-23.523-24.049-27.838-26.651-5.682-6.358 11.798 11.113 3.139 1.626 5.588 4.969 12.515 12.604 14.682 13.916-5.295-5.051-1.526-2.25-4.86-5.591l-6.034-5.506 1.26 1.292c-10.086-9.278-25.232-24.813-37.666-37.108-10.904-10.042-18.736-16.63-31.251-29.239 3.96 3.456-10.19-10.676-1.819-3.231a176.05 176.05 0 0 0-7.93-8.01c-2.237-2.114-3.813-3.465-3.963-3.429 5.05 5.179 1.738 1.859 5.955 6.258-3.135-2.682-9.827-9.395-12.433-12.296 1.26 1.293.818.764 1.17.974-5.955-6.258-3.151-2.701-7.659-7.02-1.083-1.717-9.659-9.829-13.525-14.022l-6.295-5.392c1.754 1.457.381.03-1.511-1.911l-1.476-1.515-.721-.743c-.143-.127-.273-.262-.398-.391-.528-.474-1.028-.75-1.156-.917-1.598-.558-3.269-.27-4.633.56-1.347.857-2.596 2.391-2.685 4.674-.028-.469-.079-.456-.141-.146-.051.306-.095.922.053 1.584.128.665.427 1.357.743 1.866.143.271.309.458.404.655.206.268.316.446.292.498 10.639 11.216 18.919 17.275 28.836 28.057-.392-.251-2.679-2.142.271.959 2.467 2.298 6.603 6.506 9.186 9.022l-.089-.072.141.125c1.265 1.232 2.087 1.98 2.191 1.938 4.658 4.069 7.21 6.017 16.048 14.355-.285-.976-7.669-8.092-10.92-11.12l-3.054-2.373c-2.072-3.113-7.835-7.654-9.634-9.804 5.762 4.542 20.449 19.528 29.724 28.053-4.946-5.907-16.676-17.788-27.034-28.029l4.33 4.743-5.396-5.383 4.85 5.583c-5.041-5.169-9.548-9.489-14.141-14.123 5.409 5.395 7.038 7.975 4.056 4.844-5.681-6.358-6.494-6.053-11.075-10.675 2.53 2.593 5.856 5.931 3.51 3.98-8.659-9.487-11.379-11.668-19.188-20.362.112.399-.48-.042-1.458-.939l-.384-.357-.17-.177c-.133-.106-.224-.257-.344-.398-.197-.307-.422-.649-.528-1.054a4.694 4.694 0 0 1-.208-1.241c.009-.416.048-.816.127-1.167.161-.698.406-1.207.399-1.453.007.004-.112.106-.215.306a3.77 3.77 0 0 0-.377.73c-.229.559-.3 1.177-.3 1.177a.86.86 0 0 1 .009-.225 3.18 3.18 0 0 1 .06-.594 4.71 4.71 0 0 1 .661-1.705 4.83 4.83 0 0 1 1.331-1.377c.207-.172.421-.241.547-.339l.226-.097c.652-.137 1.078-.103 1.321-.054.245.058.313.102.284.157-.063.103-.511.199-.849.348-.341.146-.565.316-.325.306.124.012.363-.031.778-.033.407.02 1.02.019 1.73.35.342.107.623.285.889.447.116.107.263.163.363.281.055.051.112.099.17.144.016.007.075.063.147.135l.194.19 2.747 2.638a153.23 153.23 0 0 0 4.13 3.74c2.431 2.132 4.594 3.97 8.752 8.084-1.533-1.192-4.013-3.356-6.943-6.057a311.745 311.745 0 0 1-4.67-4.4l-4.61-4.489 3.515 3.814c-.584-.485-1.597-1.429-2.858-2.644l-.485-.468c-.069-.064-.195-.195-.221-.208l-.1-.076c-.119-.122-.269-.204-.406-.31a4.11 4.11 0 0 0-.984-.429c-.724-.213-1.569-.122-2.237.151-.669.267-1.199.8-1.516 1.24.432-.826.784-1.083.721-1.114-.028-.025-.42.173-.809.653-.387.462-.731 1.168-.846 1.935-.041.382-.044.76-.022 1.104.049.337.09.645.147.885.279.059.136-.491.195-.722.016-.114.053-.144.143.016.105.148.233.519.708.988-.377-.486-.507-.964-.583-1.389a3.147 3.147 0 0 1 .04-1.205c.091-.386.254-.769.568-1.164a2.97 2.97 0 0 1 1.519-1.037c-.744.25-1.343.8-1.598 1.344-.305.524-.319 1.085-.28 1.533.157.926.654 1.399 1.165 1.657l.088.058.308.259.63.531 1.278 1.09c.867.748 1.772 1.548 2.771 2.466 1.998 1.837 4.366 4.148 7.542 7.462-6.132-5.833 1.61 2.562 2.17 3.442 2.855 2.775 8.644 8.408 11.075 10.674l-1.649-2.603c7.767 7.356 9.385 10.992 18.604 19.228 1.419.849-7.58-7.773-5.955-6.259 12.24 11.642 15.774 16.711 26.019 27.672.743.457.921.031 4.881 3.488-1.451-.879 1.146 2.011-3.234-1.952 3.424 3.666 7.833 7.655 11.072 10.671-7.212-7.547 3.43 2.608 4.961 3.797 3.774 3.871-1.451-.88-3.885-3.149 2.992 3.146 6.218 7.213 8.389 8.528-.181.422-9.371-7.787-15.138-13.398l3.787 3.883c-2.796-2.488-3.247-3.026-7.007-6.88 3.494 3.96 2.868 3.85 1.785 3.196-.444-.532.344.2-.08-.309-2.989-3.142-5.423-5.412-4.873-4.541-3.161-2.352 4 4.505 5.875 6.784l4.76 4.598 17.227 14.629c6.956 6.654 9.705 10.024 14.62 15.332l1.75 1.056c5.885 5.957 11.362 11.654 7.127 8.299-.097-.329-.906-1.083-2.175-2.386-.217-.123-.547-.386-.949-.733l-.354-.232 10.863 10.466c-11.271-10.263-1.168.093-3.586-1.093l11.076 10.674c-6.397-6.787.18-.422 2.604 1.834.131.437 1.841 2.183 4.036 4.33l10.165 9.959-2.417 2.413.311-.453-4.828 4.702a16932.89 16932.89 0 0 1-4.443 4.416 567.166 567.166 0 0 0-7.306 7.474c.317-.085-4.766 6.131-7.139 9.186 7.686-7.426 3.341-2.804 4.161-3.194-.801.763-2.211 2.164-2.331 2.372-.983 1.181 1.599-1.336 1.927-1.435l11.345-11.794 5.692-6.046c2.33-2.479 4.171-4.508 5.366-5.945-2.327 2.108-4.017 3.903-5.83 5.839-.86.912-1.734 1.839-2.666 2.825-.573.605-1.2 1.231-1.927 1.885a85.507 85.507 0 0 1 1.643-1.874l.494-.54.788-.828 1.622-1.689a701.647 701.647 0 0 1 7.181-7.313l-11.88-11.893-1.898-2.478-6.872-6.559c2.956 2.65 1.572.659 8.676 7.647-.626-1.173-7.049-6.925-11.271-11.331l-2.591-1.822c1.064.636-8.128-8.64-1.275-2.372l10.989 10.359-2.704-3.229 9.098 8.95-2.328-1.93 2.421 2.352 2.63 2.611a385.21 385.21 0 0 1 4.996 5.078c2.447 2.545 3.353 3.623 4.183 4.617-1.222 1.049-2.342 2.003-4.823 4.42a361.729 361.729 0 0 0-4.948 4.94l-1.539 1.568c-.322.336-.665.693-1.028 1.074l-2.442 2.581c-4.101 5.034-8.961 9.995-18.019 18.824 6.367-6.575.336-.992 2.501-3.698-6.796 6.406-8.639 9.02-11.882 12.625-1.927 1.436-3.324 2.43 2.608-3.431.223-1.255-7.668 7.846-8.736 7.853-19.519 19.55-13.938 17.368-37.436 39.539l.642-1.07c-14.233 14.767-22.854 22.877-36.113 36.473l-11.117 10.027c2.281-2.447 8.23-9.212 5.001-6.508 5.693-4.591 10.958-10.241 16.795-15.487.423-.708-1.937 1.444-3.008 2.339 3.348-3.339 5.273-4.77 9.594-9.281-.327.1-5.282 4.78-1.717 1.082l6.347-5.668c7.876-8.2 3.147-4.771 12.744-14.057-1.453 2.059-4.6 6.081-8.183 9.81 4.379-4.249-5.568 5.934-1.45 2.178 5.767-6.663 9.122-9.309 17.105-17.854-.908 1.033-1.077 1.378-3.083 3.438l12.18-11.802c-3.229 2.705 9.617-10.192 8.112-9.466-12.94 12.617-8.95 9.098-23.733 23.438 4.034-4.211 8.954-9.923 11.08-12.778.142-.111.365-.31.819-.75 1.84-2.61-.532-.446-1.163-1.163-6.168 7.126-11.006 11.176-18.571 19.292-1.105 1.844 5.02-4.078 8.821-8.07l-6.663 7.151 1.19-1.53-17.655 17.408c3.303-3.342 4.217-4.684 5.789-6.579-2.277 2.248-4.614 4.392-7.104 6.667.853-.148.786.415-1.427 2.615-11.363 11.196-17.95 17.149-22.515 20.91l-1.289 1.338c2.252-1.53-7.361 8.659-10.488 12.523-.1-.273-1.609 1.124-3.523 2.973l-3.05 2.958-1.5 1.433a8.237 8.237 0 0 1-.424.415 6.513 6.513 0 0 1-.359.414c-.125.806.281.797.896.488.171-.066.318-.179.536-.264.105-.05.195-.094.311-.166l.618-.447a63.93 63.93 0 0 0 2.924-2.321c7.235-8.019 3.879-4.669 6.927-8.828l11.864-12.604-2.393 3.076c6.257-5.956 11.671-12.272 11.668-11.38-2.93 3.522-8.438 8.671-11.342 12.17l4.202-3.877c-6.689 7.563-4.073 3.232-12.397 12.165 3.551-2.796-.755.809-4.198 4.759 3.23-2.704 15.084-15.3 13.134-12.065-2.104 2.384-6.065 5.97-10.164 9.781-2.049 1.906-4.133 3.869-6.035 5.766a96.962 96.962 0 0 0-2.69 2.781l-1.193 1.324-.279.323c-.058.078-.06.107-.093.162-.045.1-.117.175-.142.277a.778.778 0 0 1 .021-.183 3.417 3.417 0 0 0-.874 2.765c.119.844.487 1.442.9 1.847.865.842 1.705.896 2.415.849.39.131.871.141 1.331.017a2.818 2.818 0 0 0 1.216-.779l3.159-3.312a6496.47 6496.47 0 0 1 3.141-3.254l.088.286 5.621-5.776c-2.373 3.054-6.688 6.669-11.533 11.613l.956-.262-1.082.948c-.159.08-.271.209-.421.27-.26.184-.541.282-.8.409-.539.194-1.088.366-1.659.385a4.452 4.452 0 0 1-1.71-.227c-.569-.189-1.133-.576-1.564-1.083.591.772 1.542 1.533 2.692 1.773 1.154.28 2.469.017 3.352-.666.107-.091.233-.153.324-.265.121-.126.138-.107.425-.41l1.327-1.365c.85-.881 1.625-1.701 2.292-2.433 1.335-1.463 2.239-2.572 2.443-3.115l4.291-3.591 1.759-2.011c3.199-2.673.614.736-5 6.508-1.077.901-1.615 1.352-1.388.979-1.243 1.398-2.404 2.772-4.063 4.585l-.647.701-.343.367c-.114.122-.256.275-.298.309-.253.257-.533.527-.891.738a4.563 4.563 0 0 1-2.818.701c0 .001.623-.027 1.197-.209a4.43 4.43 0 0 0 1.067-.495 4.99 4.99 0 0 1-3.826.133c-1.167-.435-2.09-1.348-2.62-2.284a5.46 5.46 0 0 1-.677-2.854c.028-.871.228-1.574.388-2.081-1.185 1.86-1.048 4.533.386 6.262 1.391 1.81 3.912 2.542 6.062 1.836.542-.148 1.028-.429 1.491-.733l.339-.243.313-.285c.078-.056.284-.266.454-.434l.523-.521 4.162-4.146 8.182-8.187c2.398-3.967 5.735-8.183 6.628-10.534 7.106-7.375 16.836-17.306 23.392-23.328l-.434.722a198.003 198.003 0 0 0 8.207-8.302c3.433-3.051-1.833 2.604.529.448l10.127-10.615c-.31.97-9.036 9.698-13.156 13.865.754-.81 2.278-2.443 1.727-1.981-4.957 4.686-13.375 14.228-15.96 15.858-2.266 2.432 4.419-5.124-3.557 2.803-5.504 5.146-6.81 7.308-7.223 8.007.101.273 8.613-8.101 5.908-4.946 4.121-4.167 5.53-6.059 11.01-11.178-4.084 4.13-9.283 10.087-11.762 11.984-7.773 8.47-5.731 8.182-1.854 4.4-1.187.637 14.477-15.153 3.469-4.862 4.431-5.137 13.167-13.88 19.205-20.358l-.213.355 7.681-7.857c-.996 1.192-3.261 3.624-3.152 3.888l10.26-11.262c-5.721 6.394 3.988-3.521 6.894-6.13.867-1.438 4.86-5.851.664-1.98-4.741 4.325-2.484 2.793-6.585 6.938l5.387-6.289.544-.456 3.145-3.884c7.978-7.925-2.616 4.331 7.212-6.218l-1.829.822c11.87-11.721 27.585-26.305 35.688-34.871-2.013 2.585-2.567 4.059.867 1.17-3.681 3.508-10.885 10.747-15.993 15.949-1.081.903 5.846-7.034 11.554-12.526-3.537 1.891-13.589 14.583-15.081 14.407-14.56 13.977-9.84 11.447-22.441 23.068.206.539-3.261 3.624-3.568 4.59 4.193-2.977 16.169-16.211 24.241-23.857-.743.797-2.235 2.401-2.467 2.774 5.728-5.51 7.965-7.913 11.752-11.976l-.539.45c6.494-7.222 4.521-3.965 8.721-7.837 1.508-1.619 7.228-7.124 6.052-6.495l7.663-6.954-.768-.064c4.098-4.146 5.275-4.773 8.758-8.764l-.199-.545-10.368 10.108c5.067-5.311 1.089-1.803 6.713-7.582-5.962 6.776 4.712-4.3 5.685-4.581l1.992-2.202 1.491-1.635 1.055-1.12-.842.94-.533.602-.152.184.275-.248.403-.38.754-.718 1.333-1.3c.824-.817 1.538-1.554 2.237-2.288 1.397-1.468 2.745-2.937 4.743-4.982.8.78 1.755 1.729 2.867 2.858l-2.867-3.035c-3.037 2.853-5.861 5.502-8.978 8.547l-1.791 1.758-1.481 1.496a148.151 148.151 0 0 0-3.3 3.507l2.661-2.902 3.236-3.468 9.652-10.002 5.389 5.304 2.857 2.78c.825.82 1.624 1.615 2.404 2.393.969.979 1.875 1.929 2.766 2.876 1.781 1.895 3.502 3.779 5.545 5.864-4.036-3.887-3.625-2.911-4.155-2.981-.266-.035-.767-.332-2.177-1.629a102.15 102.15 0 0 1-2.881-2.788l-7.258-7.35c.485.343 2.55 2.439 3.313 3.29-1.044-1.367-3.219-3.638-5.804-6.195-2.491 2.518-5.335 5.507-7.921 8.259-1.504 1.588-2.012 2.185-2.758 3.015l-1.874 2.095c1.161-.613-2.372 3.055 3.883-2.897-.39.327-.495.354-.37.143.069-.112.167-.254.369-.5l1.03-1.162c1.657-1.832 4.453-4.784 7.641-8.026a339.745 339.745 0 0 1 7.725 7.83l-1.016-.429-.963-.377 9.175 9.313-.818-.764c2.802 3.559 9.094 8.948 14.693 14.992 4.412 3.994 20.371 20.286 14.047 12.734 4.858 5.593 9.912 9.711 15.692 15.334l-6.868-7.347c8.822 7.983 6.131 5.834 13.523 11.892.52.84 1.887 2.471.352 1.273 11.259 11.319 27.215 27.607 34.317 33.75 7.932 7.983 8.49 9.923 19.927 20.816 2.434 2.27-1.285-2.38 5.938 5.181.454.541-7.552-6.683.728 1.504 6.313 5.411 13.521 14.02 21.539 21.255l.759.815c.117.123.299.321.37.387l.21.207c.28.284.616.52.975.725.725.386 1.565.613 2.303.608 1.479.025 2.415-.515 2.036-.012-1.121.457-2.55.554-3.823.124a5.536 5.536 0 0 1-1.739-.946 6.393 6.393 0 0 0-.371-.328l-.626-.615-1.246-1.227c-3.256-3.196-5.918-5.735-6.691-6.338 1.097.666-4.327-4.745.538-.21-9.371-9.912-6.479-6.037-14.944-14.871-.739-.454 4.053 4.842 6.034 6.568-.446.527-17.291-16.82-10.187-8.547 9.201 9.285 12.961 11.014 20.458 19.536-3.507-2.914-8.277-8.187-12.868-11.754l6.386 6.778 5.13 4.426-.356-.213c2.795 3.018 4.896 5.168 6.642 6.854l.639.611.455.374c.299.221.589.422.893.563.587.323 1.195.462 1.773.564.587.092 1.172.063 1.765.004a7.702 7.702 0 0 0 1.813-.534 6.483 6.483 0 0 0 1.841-1.235c.611-.566 1.157-1.338 1.542-2.297-.62 1.042-1.138 1.289-1.337 1.326-.211.031-.206-.199-.184-.423.039-.217.019-.482-.078-.523-.106-.054-.302.111-.861.512 1.598-1.43 1.602-3.498 1.214-4.686-.176-.621-.443-1.076-.619-1.429a1.567 1.567 0 0 1-.105-.251c-.07-.116-.161-.25-.211-.349-.109-.206-.14-.345-.085-.412l.851.813c.16.192.334.358.45.545.129.179.248.347.331.521.109.161.17.33.24.482.252.617.376 1.082.424 1.403.112.644.183.712.289.743.093.035.197.035.219.667-.021.309-.037.795-.301 1.468a5.705 5.705 0 0 1-1.769 2.437c.784-.43.439.145.515.375.04.104.227.147.721-.203.466-.352 1.386-1.071 2.053-2.829.524-2.058.132-2.96.081-3.215-.132-.265-.116.04-.176.34-.043.3-.068.589-.133.326-.051-.129-.031-.402-.146-.863-.079-.463-.256-1.126-.687-1.954-.142-.419-.347-.851-.121-.676-.57-.721-.99-1.072-1.75-1.817-.656-.642-1.211-1.217-1.79-1.816a74.398 74.398 0 0 0-4.8-4.591l1.16.965c-5.232-5.824-6.383-5.713-10.819-10.794 1.542 2.266-3.492-2.898-6.669-5.624 4.687 4.961 6.779 8.091 16.326 17.581 1.436.863.899.009 4.946 3.78l-6.222-6.152c1.383 1.288 2.473 2.23 3.754 3.397a15484.028 15484.028 0 0 0 3.96 4.164c.408.412.463.539.647.735.141.186.234.354.316.461.084.105.104.184.108.181a5.283 5.283 0 0 0-.694-.803l-.167-.171-.281-.26-.522-.479a70.101 70.101 0 0 0-1.61-1.433c-.848-.724-1.289-1.031-1.598-1.2-.617-.34-.705-.125-2.454-1.577-6.77-7.02-5.769-5.61-10.011-10.04.855.017-12.577-14.012-20.246-22.221l3.667 3.7c6.031 5.501-3.618-4.318-3.716-4.646l-4.413-3.993c.82.762 2.013 1.758.279-.094-5.768-5.611-5.853-4.864-11.611-10.466-.195-.657 4.958 3.794 1.547.141-1.016-1.42-4.357-5.835-12.108-13.177-.623-.446-2.629-2.353-4.936-4.583.328.303.732.689.892.814l-4.761-5.265c4.665 3.877 8.451 8.824 13.14 12.721l.739-.011c3.343 3.34 8.041 7.714 10.321 9.605-5.029-5.156-6.2-6.13-11.974-11.748-.56-1.034 3.627 2.801 4.23 3.354l-1.063-.636c6.482 7.103 10.515 9.795 18.899 18.32 1.262 1.291.455.54.1.327 7.208 6.481 13.426 13.695 20.559 19.869l-2.367-1.972 23.129 21.369.224-.061c-.24-.31-.2-.299.027-.072.226.228.657.657 1.081 1.273.443.6.864 1.384 1.204 2.191.318.815.537 1.658.639 2.361l-.006-.014a11.648 11.648 0 0 1-.099 5.231 11.57 11.57 0 0 1-2.366 4.545c-2.176 2.608-5.401 4.005-8.327 4.129.942.053 2.025-.054 3.194-.332 1.16-.307 2.39-.837 3.552-1.64.456-.39 1.482-1.228 2.461-2.502.984-1.268 1.83-3.012 2.19-4.731.385-1.719.287-3.363.065-4.391-.204-1.038-.483-1.476-.485-1.001-.268-1.516-.986-3.219-2.17-4.693-.303-.343-.646-.734-.942-1.031l-.883-.87-1.782-1.735c-2.364-2.292-4.615-4.448-5.921-5.902 4.777 5.278-3.868-3.134-4.964-3.8-1.444-1.937-7.47-7.432-6.48-7.104-.906-1.078 2.249 2.688 4.586 4.629 5.573 4.958-9.371-9.912-2.518-3.645-8.576-8.112-19.471-19.208-28.381-27.511l4.683 4.953c-3.777-3.874-12.906-12.855-13.423-13.691l9.903 9.702c.549-.197-8.742-8.738-8.917-9.373l-11.18-9.945 4.605 4.647c-3.141-2.688-12.54-12.635-19.657-19.856 4.624 3.603 10.829 10.803 18.578 18.142 5.673 5.286-2.892-3.876 2.416 1.188-1.226-1.464-4.623-4.834-6.42-6.374l-1.954-2.139c5.091 4.163 15.358 14.638 22.661 21.143-.655-.557-1.236-1.032-1.481-1.17 5.135 5.495 10.541 10.887 15.847 15.946-2.595-2.888-3.779-3.873-5.399-5.386-.08-.31 4.861 4.533 6.84 6.257-4.686-4.956-.626-1.173-3.6-4.299 3.25 3.029 5.762 5.604 9.538 9.479 1.809 2.16-1.882-1.399-1.707-.765 4.079 3.802 5.331 6.153 11.362 11.654-7.573-7.767 2.521 1.521 5.317 4.01l-1.27-1.302c2.702 2.162 4.777 4.216 6.212 6.144-3.25-3.029-6.212-6.144-5.593-4.977 2.086 2.062 4.165 4.117 6.596 6.384l-2.333-1.938 5.182 5.124.967.956c.135.125.393.414.58.616.199.227.41.437.586.672.721.925 1.312 1.86 1.695 2.72.42.844.641 1.603.803 2.125l.208.837c.502 1.509.851 3.689.59 5.854-.215 2.168-.994 4.249-1.671 5.636-.808 1.052-1.828 2.064-2.979 3.01a17.037 17.037 0 0 1-3.967 2.308c-2.882 1.183-6.061 1.367-8.527.894-.001.052 2.324.204 2.322.15-2.381-.17-5.547-1.037-8.223-3.134-.346-.244-.66-.527-.975-.815l-.473-.435-.335-.33-1.243-1.238-2.483-2.438c-3.247-3.16-6.086-5.805-6.619-6.124-3.058-3.439 24.318 21.597 1.162-1.163-8.729-8.726-6.118-4.754-11.336-9.499 0 0 .352.211-.099-.328-3.77-3.869-4.412-3.993-7.662-7.022 2.187 2.394 5.501 5.717 6.669 6.688-1.436-.864-7.93-7.979-11.081-10.682 4.238 3.358-7.215-7.551-4.041-4.828-7.313-7.879-15.782-15.652-20.097-19.317-4.603-5.708-9.112-8.967-17.223-17.588 1.27 1.303 3.686 3.553 5.425 5.411 5.118 4.418-8.485-8.853-.825-1.833-1.625-1.515-.298.075 1.368 1.63 2.854 2.775 5.66 5.273 5.111 4.406l-6.508-7.127 2.465 2.295-9.918-10.775c-.352-.211.531.848.985 1.389-11.812-12.188-25.771-25.671-36.228-36.241-1.356-.452-6.986-5.828-13.561-12.276l-10.155-9.997-2.468-2.413-.917-.883-.544-.504a46.138 46.138 0 0 0-1.897-1.669 22.61 22.61 0 0 0-1.036 1.296c.443-.751.868-1.612 1.036-2.18.132-.088.163-.265 0-.599.005-.097-.084-.087-.218-.019l.218-.239 2.562 2.1c.82.646 3.197 2.888 5.103 4.87.527.846 5.653 6.331 2.058 3.098 11.985 11.761-1.174-2.04 2.698 1.097a662.507 662.507 0 0 0-7.772-7.537l-1.437-1.349-1.136-1.039-2.075-1.86-2.481 2.801-1.15 1.313-1.779 1.939a688.36 688.36 0 0 1-6.932 7.469l-.327.094-6.049 6.491c5.189-5.059 5.496-4.245-1.304 2.163l.776-.831c-4.002 3.532-11.563 11.646-17.483 17.493l-3.665 4.313c-5.93 5.856-6.787 5.507-9.064 7.062-9.279 9.194-14.119 15.022-20.386 21.877-3.23 2.704-17.127 16.478-10.116 8.828-8.1 8.563-5.01 8.291-20.08 21.8l3.455-3.962c-13.609 13.715-32.589 33.704-39.151 39.731 1.032-1.487.424-1.223-1.122.035a90.586 90.586 0 0 0-2.932 2.537l-1.828 1.648-.976.889-.259.235-.351.302-.718.597c-1.013.741-2.127 1.392-3.325 1.848-1.2.439-2.45.756-3.704.842-2.501.199-4.958-.323-6.886-1.323-1.949-.979-3.368-2.334-4.25-3.535-.899-1.202-1.293-2.246-1.404-2.782.177.597-.976-1.07-1.478-3.354-.25-1.134-.321-2.382-.272-3.423.036-.519.094-.986.137-1.366l.145-.838c.342-.968.86-2.239 1.728-3.523.432-.641.925-1.297 1.498-1.925l.727-.813.683-.795c-.701.661-1.134 1.015-1.507 1.337-.386.345-.582.476-.666.474-.17-.001.121-.536.252-.849.132-.31.08-.407-.809.537-.424.486-1.037 1.266-1.702 2.547a13.134 13.134 0 0 0-1.386 5.584 12.657 12.657 0 0 1 .458-3.899 12.998 12.998 0 0 1 1.813-3.972 8.69 8.69 0 0 1 .692-.942l.689-.831 1.139-1.317 2.491-2.809c3.523-3.908 7.895-8.504 13.556-14.135l.203.543-9.047 8.821c1.177-.628-3.442 3.95-5.2 5.962 16.829-16.41-1.303 3.049 15.639-13.991 1.399-1.883.436-.72 4.756-5.231-2.064 2.09-2.181 2.72 1.17-.622l2.917-3.512c6.555-5.312-9.417 10.227-3.918 5.601-6.268 6.854-17.475 18.374-14.882 16.732 10.887-10.541 8.748-10.53 20.167-21.517l1.396-.989c3.802-4.079 4.111-5.043 6.07-7.398.31-.079 1.397-.994 3.961-3.492 6.174-7.133 10.497-11.643 16.111-18.303-15.943 16.728-14.329 13.601-30.841 30.812 2.488-2.797 14.245-14.78 14.458-16.025l.216.531c5.288-5.676 10.575-11.347 17.583-18.109l-3.993 4.413c8.866-9.386 15.737-14.604 22.316-22.426-2.577 2.51-4.63 4.586-6.143 6.212 4.531-4.863 10.462-10.719 15.63-15.761l9.947-11.179c.092.277 6.797-6.405 3.863-2.88 7.889-7.322 10.918-11.463 15.22-15.949 8.184-7.392-6.569 6.923-6.817 8.201 10.902-10.557 22.119-22.086 27.837-28.476-2.263 2.113-3.391 3.112-3.37 2.91.221-.104 1.404-1.244 2.834-2.659l3.988-3.983c.02-.02.341-.825.321-.806 1.656-1.328 1.936-1.323.69.29a19.393 19.393 0 0 0 1.447-1.564c-.728-.629-1.447-1.219-2.071-1.801l-.457-.443-.941-.97a48.4 48.4 0 0 1-2.021-2.253l3.725 3.481c.693.649 1.388 1.33 2.046 1.986-.897.895-1.753 1.747-2.497 2.487l-2.076 2.112a71.883 71.883 0 0 0-1.705 1.813l2.859-2.928 1.596-1.595a56.139 56.139 0 0 1 2.055-1.891l-1.733-2.071-.463-.555-.243-.288-.193-.216-.255-.277-2.166-2.33c-3.067-3.265-6.969-7.265-13.122-13.204-.097-.329 3.067 2.384-.273-.963-7.837-7.658-2.523-1.525-5.213-3.675 6.115 5.814 8.743 8.737 11.898 12.504l-1.789-1.395c-.139-.343-3.879-4.094-4.883-5.296l-1.365-.563c.889.001-4.765-6.329-9.641-10.872 4.438 5.081 3.169 3.778 3.958 5.578-7.102-6.144-7.002-7.943-14.933-14.858.699.414 7.286 6.788 1.795 1.079-4.616-4.655-4.344-3.691-7.563-6.69 3.871 3.132 3.246 1.958 7.479 5.315 8.282 8.189 3.317 3.327 11.529 11.216l-6.501-7.126c7.038 6.918 5.497 4.651 6.213 5.084-11.54-12.292-9.542-8.419-17.112-16.183-3.95-3.443 7.128 7.235 1.081 1.719-7.116-7.224-1.876-1.394-10.084-9.28l1.518 1.177c-2.241-2.679-4.943-4.841-7.827-7.65-3.243-3.019 2.26 4.829-10.636-8.017.733.527 1.031.693 1.074.651l15.661 9.452a4337.915 4337.915 0 0 1-42.885-43.459c-2.95-4.164 11.28 10.279 10.629 9.081l6.764 7.013c-.644-.129-14.511-14.352-8.745-7.677 12.348 11.979 17.572 17.794 29.642 28.803-2.976-4.193-15.306-15.09-22.342-23.067 3.112 3.192 5.84 5.786 8.511 8.282-6.969-7.129-14.428-14.757-22.356-22.868l-1.949-1.654c5.336 5.473 9.024 9.264 9.484 9.769-7.113-7.22-13.495-12.928-14.416-12.958l1.257 1.289-2.729-2.451c-1.65-1.702-3.303-3.411-4.947-5.112zm190.974 65.086c.393-.479.687-.872.878-1.187-.198.328.138.076-.878 1.187zm-103.087 75.518l28.313-27.852-1.655-1.672 1.521 1.672a39189.82 39189.82 0 0 1-6.853 6.25l-4.985 4.432c-2.923 2.572-5.009 4.347-5.774 4.853-.765.505-.209-.258 2.15-2.76 2.304-2.446 6.723-6.941 12.556-12.774l-.777-.777-1.779-1.652 2.319 2.43a490.766 490.766 0 0 0-5.64 5.56l-6.896 6.974-10.933 12.648-5.276 6.192c-1.36 1.612-2.195 2.629-2.128 2.613 1.927-1.436 4.109-4.155 7.241-7.136l-1.404.999zm-8.269 5.323c-5.516 5.319-4.088 4.281-4.753 5.297l5.626-5.759c-.764.675-1.181.969-.873.462zm-4.253 5.147c.613-.604 1.14-1.115 1.436-1.363l-1.436 1.363zM175.037 189.04l.567.545-3.859-3.941c.491.548 1.458 1.558 3.292 3.396zm10.566 11.425l1.606.964-3.619-3.693c.266.557.569 1.113 2.013 2.729zm34.284 36.397c2.614 1.843 10.094 9.289 10.997 9.301.59.362-.936-1.252-2.661-3.05l-6.251-6.326c-.142-.012-.645-.394-1.441-1.074 2.142 2.252 3.499 3.831 2.335 3.214-5.053-6.245-5.486-4.638-11.44-10.897-2.258-1.63 6.485 7.106 8.461 8.832zM391.524 406.18c.135.212.631.908 1.345 1.869l-4.522-4.081c-7.576-7.771-13.084-14.557-20.54-20.914-3.095-3.37-4.533-5.393-5.946-7.286 1.564 1.6 3.022 3.103 4.218 4.373 20.167 18.559 9.245 10.946 25.445 26.039zm-87.44-89.006c.819.764 1.176.976 1.176.976-17.961-16.329-32.314-30.209-41.526-39.484 1.469 2.116 9.509 10.658 13.313 14.729l-3.857-3.12-1.889-2.469-6.393-5.722c1.445 1.941 6.389 6.782 9.468 10.242.354.214 11.255 10.254 14.409 12.953l-8.111-8.62c2.156 2.361 13.339 13.374 17.834 17.681.271-.1-7.027-7.968-8.384-8.521-.628-1.176 8.117 7.563 2.883 1.741 6.844 6.259 17.023 16.927 21.724 21.899l.358 1.279c5.127 5.485 4.141 3.029 10.178 9.601-7.84-7.661.805 1.815-5.395-4.315 1.794 2.143-.447.528 5.765 6.671 5.753 4.532 6.129 6.894 11.528 11.217 3.058 3.438-3.862-3.128 2.447 3.344 7.65 7.011 7.457 6.357 8.355 6.367-6.729-6.979-8.278-7.124-13.776-12.838l11.91 10.39c-1.947-2.163-3.456-3.694-4.763-4.94 2.284 2.196 4.301 3.987 6.084 5.461l2.801 2.348c-6.316-6.323-11.917-11.946-12.72-13.128l1.087.656c-2.04-2.435-5.842-5.927-7.681-7.45-5.682-5.635-11.635-10.986-12.591-12.502l2.345 1.95c-7.021-6.898-7.824-7.647-16.579-16.396zm-193.766 72.4c-2.502 1.712-5.09 3.557-9.494 7.448a199.385 199.385 0 0 0-3.67 3.333c-.661.629-1.433 1.278-2.067 2.152a10.2 10.2 0 0 0-1.563 3.01 10.404 10.404 0 0 0 .683 7.85c1.364 2.632 4.175 5.025 7.831 5.489 0 0-.573-.045-1.133-.184a5.203 5.203 0 0 1-.767-.198l-.344-.107c3.408 1.527 7.636.836 10.493-1.582.717-.637 1.301-1.264 1.908-1.896l1.819-1.909 3.669-3.894c4.944-5.258 10.164-10.777 16.47-16.533-5.556 6.15-5.268 5.809-11.048 12.951l6.056-6.503c-1.31 2.169 4.732-4.317 9.36-8.904l-3.555 4.578c-2.913 2.619-10.136 9.735-9.809 9.642.757-.813-1.771 1.392-5.219 4.568a352.906 352.906 0 0 0-5.566 5.237l-2.766 2.694c-1.017 1.01-2.184 1.756-3.296 2.287.273.012 1.732-.531 3.251-1.843.413-.344.693-.624 1.036-.942l1.022-.965 2.046-1.933c2.614-2.456 4.472-4.102 1.929-.992 4.745-5.219 5.708-5.492 10.793-10.82-4.756 5.231-.764 1.708-4.229 5.678l8.421-8.656c.338-.106-12.179 12.692-4.756 6.121 3.239-3.603 12.602-12.509 12.393-13.046l.325-.096c6.481-6.319 2.287-3.343 10.359-10.989-.095-.279-1.724 1.089-4.5 3.943-2.296 2.463-2.405 3.084-7.254 8.037-2.489 1.905 5.948-5.876 2.052-2.967-1.936 1.445-12.727 13.151-9.697 9.013l6.468-6.308c-.21-.537 4.438-5.142 4.007-5.313 3.769-4.043 7.876-7.31 11.541-11.624 1.415-1.897-1.926.546 4.87-5.859 5.71-4.605 20.801-19.911 26.415-25.683l4.744-5.22c-.653.194-9.487 9.55-6.586 6.054l7.679-7.859-.456.743c2.606-2.542 5.085-5.33 7.352-7.76-2.15 2.688-7.858 8.18-6.357 7.456 3.723-3.57 4.424-3.981 7.705-7.412-.705.76-1.297 1.428-1.15 1.39 7.551-7.214 6.694-7.564 8.419-9.542 6.917-7.929-7.952 7.013-7.403 5.663l21.458-21.886c-1.725 1.978-3.462 3.966-2.604 3.428 5.495-5.137.422.181 7.867-7.301-1.063 0 9.066-9.729 14.031-15.309 2.681-2.245 3.231-2.708-2.148 2.685.963-.272 8.062-7.637 10.664-10.177.698-.783 1.686-1.839 2.655-2.875l2.702-2.908c-2.04 1.72-1.672.953 2.628-3.638l.797.737.304.158-1.101-1.127-13.512 13.068c-4.361 4.252-8.289 8.184-10.419 10.652l1.186-1.528c-9.158 8.562-18.661 19.9-23.398 23.334.119-.635-1.839 1.721-2.058 1.193l-6.232 6.815 1.188-1.526-11.013 11.182.224-.363-11.869 13.546c.15.175.543-.118-1.095 1.76a92.68 92.68 0 0 1-4.224 4.367c-.009.01-.009.01-.007.012l-.002-.002c-2.77 2.675-4.818 4.255-8.266 7.513l10.279-10.358c.564-1.116-.6-.525-5.849 4.337 2.057-2.078 2.707-3.158.116-.632-.209.354-6.585 6.938-3.896 4.689-9.702 9.903-26.296 25.047-40.654 40.454 10.377-11.008-8.94 8.2 2.817-3.783-8.728 7.844-6.694 7.564-15.209 15.941-.879.561 4.619-4.578 6.247-6.832a449.253 449.253 0 0 0-9.804 9.873l-1.13 1.176c-.199.216-.343.337-.504.495-.157.153-.313.309-.491.433a7.681 7.681 0 0 1-2.246 1.293c-1.616.636-3.43.707-5.12.281a8.531 8.531 0 0 1-4.383-2.83 8.513 8.513 0 0 1-1.927-5.055c-.071-1.874.454-3.847 1.656-5.443.282-.426.624-.749 1.001-1.161l1.22-1.223 2.517-2.489.925-.236a11265.9 11265.9 0 0 1 8.248-8.538zm26.443-27.304l7.842-8.079-.792.771 7.578-8.134c-4.961 4.693-8.52 7.494-1.941.563-.426.711 1.723-1.089-.542 1.343 4.734-4.32 14.867-14.053 11.756-11.983-8.208 9.191-2.69 1.364-9.161 8.565 3.329-4.008 7.116-7.489 10.429-11.105-3.323 3.891 1.484-.197 7.037-5.479 2.274-2.442 8.735-8.744 12.517-12.8-1.715 1.079 1.514-2.516-4.95 3.789a190.62 190.62 0 0 1 10.042-10.015c-1.555 1.665-4.331 4.52-4.021 4.44 2.913-2.328 5.969-5.41 7.788-6.978l3.988-4.091c-.423.368-.802.675-1.092.873l4.206-4.768c-5.827 6.126-2.91 2.615-3.019 2.352.212.534 3.896-3.799 5.929-5.857l-4.838 4.051c1.951-2.346 7.868-7.3 6.356-6.567-9.584 9.272-13.143 12.964-21.551 21.607l3.767-3.155c-9.404 9.837-6.458 5.409-17.238 16.219-4.208 4.766-16.214 16.252-15.877 17.034 1.183-1.523-7.219 6.224-10.665 10.177-3.577 4.601-15.872 17.033-11.894 13.521 3.347-3.334 7.563-8.112 10.581-10.465l-6.374 6.588 4.531-3.974c-2.298 2.098-1.812 2.158-.392 1.557zm69.446-149.374l-.243-.257c.095.096.188.189.276.28l-.033-.023z"/><path d="M350.595 338.26c-1.99-1.737-6.577-6.365-5.949-5.188.19-.413 8.279 8.187 5.949 5.188z"/><path d="M345.38 332.455c-.397-.252-.286.089-2.364-1.968l5.769 5.615-3.405-3.647z"/><path d="M341.663 324.62c-3.161-2.711-5.147-4.444-9.735-9.072-.995-2.466 7.749 7.338 10.523 8.741-8.376-8.515-11.611-10.466-18.62-17.351 3.136 3.749 17.02 17.988 17.832 17.682z"/><path d="M346.344 327.443l-4.863-4.531.42.506 4.866 4.535z"/><path d="M397.517 403.647c-.193-.653-3.346-3.354-4.972-4.868 1.262 1.291 2.987 3.138 4.972 4.868z"/><path d="M412.183 101.952s.134.284.258.827a4.202 4.202 0 0 1-.207 2.278 3.896 3.896 0 0 1-.837 1.297l-2.975 3.018-6.537 6.619-17.805 18.025 15.698-15.862 9.094-9.207 2.517-2.552c.354-.379.632-.798.829-1.276.394-.941.435-2.145-.035-3.167z"/><path d="M277.121 286.254c9.837 9.404 14.507 13.282 24.41 22.983-12.427-13.353-17.747-16.302-28.096-27.598l3.686 4.615z"/><path d="M282.347 287.815c1.162 2.027-7.93-6.916-6.85-5.202 6.589 6.378 3.432 2.606 9.278 8.528l-2.428-3.326z"/><path d="M318.791 338.562l-3.142-2.692 2.43 2.266z"/><path d="M230.211 288.025l.965-1.161-4.96 4.688z"/><path d="M232.14 285.702l-.964 1.162.964-1.162z"/><path d="M314.115 335.742l4.243 4.428 2.343 1.946z"/><path d="M278.168 295.152l4.017 3.74c-.796-.742-5.924-6.226-4.017-3.74z"/><path d="M200.567 317.302l-4.554 4.884.525-.439 4.538-4.869z"/><path d="M251.844 279.527c3.012-2.347-7.648 7.827-1.841 2.608 4.848-4.951 2.684-3.134 1.841-2.608z"/><path d="M192.649 334.211a48.309 48.309 0 0 0-1.904 2.002c.749-.789 1.379-1.452 1.904-2.002z"/><path d="M192.649 334.211c2.055-2.056 4.237-3.983 5.55-5.488-2.712 2.411-3.589 3.401-5.55 5.488z"/><path d="M169.18 357.833l1.887-1.84c-1.739 2.068-.861 1.142.707-.69 1.963-1.985 1.747-1.979 1.91-2.286l1.085-1.344-1.499 1.739c-3.062 3.057-4.912 4.939-4.09 4.421z"/><path d="M108.68 399.513c-3.503 3.38-5.715 5.499-7.036 6.695l-.298.267a1.016 1.016 0 0 1-.13.087c-.094.04-.133.092-.191.108-.107.041-.183.014-.23-.072-.453.607-.563 1.174-.562 1.587.006.422.145.692.239.907.273.415.52.629 1.042 1.154-.472-.518-.647-1.062-.672-1.57a2.516 2.516 0 0 1 .283-1.339c.031-.108.126-.182.164-.292.094-.075.121-.196.229-.273.053-.052.065-.075.142-.164l.512-.512 1.081-1.082 5.427-5.501z"/><path d="M101.513 410.247c.217.234.454.437.768.584a3.534 3.534 0 0 1-.768-.584z"/><path d="M199.523 333.136l-3.882 4.672 1.515-1.625z"/><path d="M119.024 389.43c-1.292 1.26-3.327 3.317-4.42 4.232-.109.628 5.709-5.489 4.42-4.232z"/><path d="M95.132 413.318c.1.479 1.072 2.025 2.688 3.161 1.58 1.189 3.727 1.739 4.962 1.827-1.795-.15-3.289-.934-4.496-1.827-1.206-.934-2.155-1.993-3.154-3.161z"/><path d="M137.703 368.621c-1.293 1.26-3.429 3.049-2.793 1.984-1.728 1.982-3.781 4.947 2.793-1.984z"/><path d="M100.044 398.38l-1.07.895-2.271 2.438c-.53.603-1.005 1.244-1.29 1.768l-.339.632-.105.251.136-.299.43-.752c.402-.609.968-1.332 1.703-2.047 1.402-1.444 2.806-2.886 2.806-2.886z"/><path d="M96.967 421.984c1.288.574 2.068.681 2.376.741.322.017.2-.06-.173-.246-.754-.35-2.492-1.188-3.757-2.246a27.539 27.539 0 0 1-.872-.766 19.866 19.866 0 0 1-.635-.694c-.353-.391-.498-.666-.404-.645.088.024.454.308 1.228.918.802.562 2.046 1.486 4.13 2.197-2.652-1.029-4.216-2.517-5.235-3.604-1.021-1.119-1.503-1.966-1.81-2.448-.313-.484-.403-.65-.43-.604-.023.045.037.292.148.569.205.563.536 1.299.238.983-.133-.168-.478-.575-.939-1.478-.468-.893-1.06-2.31-1.338-4.459.279 2.522 1.132 4.648 2.141 6.26.996 1.632 2.118 2.752 3.026 3.575 1.871 1.608 2.865 2.07 2.306 1.947z"/><path d="M89.493 410.203a14.93 14.93 0 0 1 .271-4.762 13.95 13.95 0 0 0-.271 4.762z"/><path d="M163.606 332.327a71.87 71.87 0 0 0-1.676 1.884 68.073 68.073 0 0 0 1.676-1.884z"/><path d="M114.577 376.947l-7.477 8.401c4.995-5.61 18.355-18.933 17.063-18.562-4.414 4.227-9.49 9.547-11.426 11.881l1.84-1.72z"/><path d="M214.056 294.171l-3.248 3.613 4.337-4.229c-1.296 1.157.585-1.4-1.089.616z"/><path d="M215.983 292.736l-.838.818c.194-.17.461-.429.838-.818z"/><path d="M148.813 347.566c-2.598 2.532-4.637 4.597-6.894 7.019 1.057-.884 7.529-7.194 6.894-7.019z"/><path d="M237.541 269.347l-5.583 5.741 6.143-6.212z"/><path d="M229.569 233.115l-.89-1.064-4.859-4.529.905 1.079z"/><path d="M221.127 269.201c-3.887 3.789-6.471 7.2-5.379 6.283l7.423-7.459c-2.253 1.529-2.054 2.074-6.459 6.297l4.415-5.121z"/><path d="M151.987 147.087c-1.904-1.421-9.904-9.701-10.101-10.357 1.194.994 5.702 5.312 3.077 2.394l-7.034-5.847c-8.196-8.937 7.292 5.731 11.732 9.752-8.65-8.804-11.628-11-20.909-20.286a110.274 110.274 0 0 1 5.586 6.244c-.103.733-8.567-8.102-14.784-14.253 3.755 4.119 1.325 1.994-1.707-.709a18.369 18.369 0 0 0-1.168-1.039l-1.032-.915.742.741c-.099-.005.008.215.465.827 5.31 5.067 8.929 9.385 12.264 12.73-2.621-3.979 11.533 11.219 15.942 15.209l4.916 4.782 1.815 1.813c.29.439-.32.017-3.22-2.615 2.442 2.174 10.094 9.919 9.601 8.991l17.578 17.559c.52.575 1.032 1.156 1.388 1.61.652.566.789.632.743.518 26.04 26.012 52.079 52.024 78.119 78.063l6.973-7.004-6.973 6.808-12.183-12.586c.787.674 1.278 1.079 1.541 1.273l.215.168a.588.588 0 0 0 .119.079c.034.009-.02-.066-.146-.209-.312-.383-1.194-1.284-2.252-2.36-2.095-2.129-4.709-4.772-3.638-4.128 3.008 2.699 5.682 5.469 10.763 10.758.806.59-.206-.624-1.257-1.89-1.06-1.274-2.158-2.596-1.727-2.423a7788.32 7788.32 0 0 1-2.066-2.138l-1.541-1.56c-.985-.981-1.889-1.85-2.738-2.644-1.7-1.587-3.183-2.874-4.663-4.149-2.96-2.551-5.908-5.062-10.548-9.859.632.116 3.775 2.807-2.437-3.335l1.625 1.514c-10.181-9.603-7.124-8.291-14.059-13.81l.537-.209c-4.769-4.206-13.5-12.935-18.472-17.803l.366.222c-14.229-13.375-7.838-7.657-23.515-22.976l7.567 6.697c-5.167-5.526-6.845-6.258-10.634-10.145.347.203-.271-.959 3.422 2.598l-19.468-18.142c-4.77-4.208.637 1.184 1.176 2.041z"/><path d="M128.752 122.743a158.771 158.771 0 0 0-3.447-3.475l3.447 3.475z"/><path d="M270.253 238.007l-7.28 7.287 4.499-4.46 2.781-2.827z"/><path d="M103.875 100.433c.673.277.363.289-.065.31-.45.017-1.015.244-1.071.367-.002-.007.06-.024.172-.043.054-.018.12-.041.201-.041.078-.014.167-.035.267-.027.395-.032.932.061 1.364.32.117.051.21.143.32.208.052.038.091.095.143.133l.084.065.259.258 1.871 1.87 1.826 1.824c.091-.196 1.408.799 1.304.433l-4.783-4.754c-.135-.13-.131-.105-.199-.171-.053-.039-.088-.105-.148-.132-.114-.06-.196-.166-.313-.207a1.41 1.41 0 0 0-.308-.159c-.095-.058-.197-.086-.29-.113-.368-.126-.634-.141-.634-.141z"/><path d="M112.356 109.329c.496.295 1.821 1.442 3.291 2.742l-6.4-6.394c-.069.148.551.963 3.109 3.652z"/><path d="M118.787 100.428l2.08 2.055 3.238 3.016z"/><path d="M150.489 133.394c-2.251-2.687-7.102-7.207-8.724-8.718 5.406 5.392 2.984 3.135 8.724 8.718z"/><path d="M146.151 124.388l5.327 5.081-.442-.528z"/><path d="M308.531 196.795l2.52-2.567a128.806 128.806 0 0 0-2.52 2.567z"/><path d="M263.062 242.974l2.842-2.722 1.246-1.14c.673-.607 1.067-.942 1.242-1.063.35-.242-.18.372-1.109 1.383-.495.577-3.338 3.497-5.54 5.791-2.292 2.384-4.49 4.688-5.742 6.077-1.239-1.106-1.578-1.282-.172.332l.172.169 11.459-11.811-.432.718 8.192-8.286c-1.937 1.444-3.222 2.699-3.113 2.073 11.1-10.897 3.774-3.161 12.169-10.903l12.246-12.34-.917 1.072c1.029-1.041 1.454-1.531 1.768-1.928l41.268-41.589c7.333-7.743-4.633 3.704.546-2.236-8.735 8.738-21.992 21.445-22.219 22.702.223-.365.658-1.084-1.174.625l-4.629 5.477 4.954-4.683c-4.658 5.503-21.159 21.816-24.388 24.52 9.186-9.474 3.994-5.301 17.269-18.022-.714.454-3.323 2.603-.469-.395-7.54 7.69-14.78 14.888-22.054 22.191l-10.975 11.108-12.44 12.88z"/><path d="M411.888 100.455l-.101-.014c.145.109.207.134.101.014z"/><path d="M409.038 98.879s-.314 0-.761.091a4.293 4.293 0 0 0-1.489.592 4.123 4.123 0 0 0-1.109 1.034l-1.025 1.174.495-.499.563-.566c.1-.077.2-.175.311-.283.474-.376 1.192-.767 2.015-.86.817-.109 1.645.075 2.182.344.273.127.491.258.63.371.15.095.229.164.226.169-.016-.008.717-.033.713-.005-.268-.209-.933-.676-1.695-.924a7.854 7.854 0 0 0-1.162-.24l-.948-.055c-.002-.016.242-.102.508-.209.261-.063.548-.15.546-.134z"/><path d="M396.34 110.694c5.826-6.127 5.085-6.22 1.635-3.15 5.294-5.682 3.344-2.447 6.683-6.667-.425-.178-7.013 6.764-8.512 8.374l.194 1.443z"/><path d="M352.022 154.573l1.508-1.854-4.187 4.095z"/><path d="M353.53 152.719l4.157-4.063c-.413.156-.819.312-1.578.895l-2.579 3.168z"/><path d="M368.592 137.99l6.073-5.942-6.073 5.942z"/><path d="M363.785 142.584l.193-.084 4.613-4.509-4.806 4.593z"/><path d="M357.687 148.656c.959-.375 2.048-.851 7.91-6.874l-1.618.718-6.292 6.156z"/><path d="M183.561 162.679l4.866 4.535-.453-.543-4.862-4.532z"/><path d="M210.415 190.067a159.109 159.109 0 0 0 3.003 2.683c-1.256-1.193-2.278-2.117-3.003-2.683z"/><path d="M232.572 208.232c5.234 5.823-8.016-7.238 2.092 3.131.629 1.176-4.523-3.271-9.208-8.228.641.125 4.863 4.532 2.162 1.306-3.5-2.903-4.514-4.324-3.787-2.82-5.628-5.145-6.504-5.468-10.413-8.871 6.683 6.34 19.956 20.41 28.717 28.176 5.022 4.088 2.896.689 3.588.033-.526-.845-12.26-12.728-13.151-12.727z"/><path d="M224.546 198.86c-2.526-2.592-3.334-3.347-4.96-4.861.192.654 2.882 2.804 4.96 4.861z"/><path d="M276.881 219.584c.392-.584 4.902-5.332 3.741-4.503l-6.896 7.139c1.663-1.631 2.361-2.095 3.155-2.636z"/><path d="M270.699 225.35l3.026-3.13a97.116 97.116 0 0 0-3.026 3.13z"/><path d="M277.274 219.309l-.393.274c-.079.12-.04.122.393-.274z"/><path d="M385.79 121.127c.086.284 3.104-2.954 4.618-4.579-1.292 1.261-3.144 2.993-4.618 4.579z"/><path d="M336.414 182.124l-2.91 2.616c1.065-.889 1.609-1.346 2.91-2.616z"/><path d="M298.887 229.755c-.044.116-.218.351-.465.654.252-.299.413-.521.465-.654z"/><path d="M298.422 230.408c-1.734 2.042-7.802 7.631-9.663 9.96l.194-.337-3.761 4.039c3.635-3.676 11.338-11.321 13.23-13.662z"/></g><metadata><rdf:RDF xmlns:rdf="http://www.w3.org/1999/02/22-rdf-syntax-ns#" xmlns:rdfs="http://www.w3.org/2000/01/rdf-schema#" xmlns:dc="http://purl.org/dc/elements/1.1/"><rdf:Description about="https://iconscout.com/legal#licenses" dc:title="delete,cancel" dc:description="delete,cancel" dc:publisher="Iconscout" dc:date="2017-09-29" dc:format="image/svg+xml" dc:language="en"><dc:creator><rdf:Bag><rdf:li>Iconika Store</rdf:li></rdf:Bag></dc:creator></rdf:Description></rdf:RDF></metadata></svg>