<svg xmlns="http://www.w3.org/2000/svg" width="25" height="25" viewBox="0 0 25 25"><g fill="#fff" transform="translate(4.482 -1032.309)"><circle cx="8.018" cy="1044.809" r="12.5" fill="#3a6c87"/><path fill="#2f4b6c" style="line-height:normal;text-indent:0;text-align:start;text-decoration-line:none;text-decoration-style:solid;text-decoration-color:#000;text-transform:none;block-progression:tb;isolation:auto;mix-blend-mode:normal" d="M 14.867188 24.763672 A 12.5 12.5 0 0 0 15.84375 24.544922 A 12.5 12.5 0 0 0 17.029297 24.150391 A 12.5 12.5 0 0 0 18.169922 23.640625 A 12.5 12.5 0 0 0 19.253906 23.017578 A 12.5 12.5 0 0 0 20.269531 22.291016 A 12.5 12.5 0 0 0 21.208984 21.466797 A 12.5 12.5 0 0 0 22.060547 20.552734 A 12.5 12.5 0 0 0 22.816406 19.558594 A 12.5 12.5 0 0 0 23.470703 18.492188 A 12.5 12.5 0 0 0 24.013672 17.367188 A 12.5 12.5 0 0 0 24.441406 16.193359 A 12.5 12.5 0 0 0 24.75 14.982422 A 12.5 12.5 0 0 0 24.767578 14.871094 L 17.447266 7.5527344 C 16.179776 6.2852344 14.430027 5.5 12.5 5.5 C 8.6399291 5.5 5.5 8.64 5.5 12.5 C 5.5 13.9475 5.9417692 15.292773 6.6972656 16.410156 C 6.6972656 16.410156 6.6972656 16.412109 6.6972656 16.412109 C 6.8229292 16.597877 6.9571748 16.776696 7.0996094 16.949219 C 7.0996094 16.949219 7.0996094 16.951172 7.0996094 16.951172 C 7.2421046 17.123696 7.3946384 17.289168 7.5527344 17.447266 L 14.867188 24.763672 z " color="#000" font-family="sans-serif" font-weight="400" transform="translate(-4.482 1032.309)" white-space="normal"/><path d="M 8,1 C 4.1399291,1 1,4.14 1,8 c 0,3.8601 3.1399291,7 7,7 3.860071,0 7,-3.1399 7,-7 C 15,4.14 11.860071,1 8,1 Z m 0,1 c 3.319631,0 6,2.6804 6,6 0,3.3197 -2.680369,6 -6,6 C 4.6803692,14 2,11.3197 2,8 2,4.6804 4.6803692,2 8,2 Z M 5.5253906,4.8183594 4.8183594,5.5253906 7.2929688,8 4.8183594,10.476562 5.5253906,11.183594 8,8.7070312 10.476562,11.183594 11.183594,10.476562 8.7070312,8 11.183594,5.5253906 10.476562,4.8183594 8,7.2929688 5.5253906,4.8183594 Z" color="#000" font-family="sans-serif" font-weight="400" overflow="visible" transform="translate(.018 1036.808)" white-space="normal" style="line-height:normal;text-indent:0;text-align:start;text-decoration-line:none;text-decoration-style:solid;text-decoration-color:#000;text-transform:none;block-progression:tb;isolation:auto;mix-blend-mode:normal"/></g></svg>