<svg xmlns="http://www.w3.org/2000/svg" viewBox="0 0 32 32"><rect width="22" height="22" x="5" y="5" fill="#8c9eff" rx="4" ry="4"/><path fill="#5f7cf9" d="M16,27h7a4,4,0,0,0,4-4V9a4,4,0,0,0-4-4H16Z"/><path fill="#5f7cf9" d="M17.41,16l2.13-2.12a1,1,0,0,0-1.42-1.42L16,14.59l-2.12-2.13a1,1,0,0,0-1.42,1.42L14.59,16l-2.13,2.12a1,1,0,0,0,0,1.42,1,1,0,0,0,.71.29,1,1,0,0,0,.71-.29L16,17.41l2.12,2.13a1,1,0,0,0,.71.29,1,1,0,0,0,.71-.29,1,1,0,0,0,0-1.42Z"/><path fill="#4062ed" d="M18.12,19.54a1,1,0,0,0,.71.29,1,1,0,0,0,.71-.29,1,1,0,0,0,0-1.42L17.41,16l2.13-2.12a1,1,0,0,0-1.42-1.42L16,14.59v2.82Z"/></svg>