<svg xmlns="http://www.w3.org/2000/svg" data-name="Layer 1" viewBox="0 0 64 64"><circle cx="32.75" cy="32" r="27" fill="#e6e7e8"/><path fill="#2a292a" d="M35.51,25.7c-1.09-10-11-4.15-11-4.15s-9.86-5.87-11,4.15c0,0-1.43,11.69-1.74,16.88-.16,2.68,12.7,1,12.7,1s12.86,1.63,12.7-1C36.94,37.38,35.51,25.7,35.51,25.7Z"/><path fill="#be1e2d" d="M41.22,57.64A27,27,0,0,1,11.75,49a8.62,8.62,0,0,1,5.93-2.35H31.43a8.7,8.7,0,0,1,8.33,6.2Z"/><path fill="#ffd2b4" d="M24.55,19.16c10.54,0,9.63,10.29,9.63,10.29,1.54-.17,2.76.47,2.76,2.73S36,34.89,34.79,35a.27.27,0,0,0-.25.26c-.36,3.51-2.76,6.09-5.13,7.82a8.19,8.19,0,0,1-9.72,0c-2.37-1.72-4.77-4.31-5.13-7.82a.27.27,0,0,0-.25-.26c-1.21-.13-2.16-.6-2.16-2.85s1.17-2.9,2.71-2.73C14.87,29.44,14,19.16,24.55,19.16Z"/><circle cx="20.78" cy="31.49" r="1.62" fill="#2a292a"/><circle cx="28.33" cy="31.49" r="1.62" fill="#2a292a"/><path fill="#2a292a" d="M35.51,25.82c-.44-6.54-6.31-8.73-11-8.73s-10.52,2.2-11,8.73a10.79,10.79,0,0,0,.1,3.26A30.11,30.11,0,0,0,14,32.55c.17.75,1,.72,1.13.05a21.27,21.27,0,0,1,2.4-8l.77,2.57a1,1,0,0,0,.91.68H29.87a1,1,0,0,0,.91-.68l.76-2.55a21.29,21.29,0,0,1,2.39,8c.11.67,1,.7,1.13-.05a29.32,29.32,0,0,0,.33-3.4A10.7,10.7,0,0,0,35.51,25.82Z"/><path fill="#ffd2b4" d="M28.36,41.83v5.49A1.91,1.91,0,0,1,27.31,49h0a6.16,6.16,0,0,1-5.51,0h0a1.91,1.91,0,0,1-1.06-1.71V41.83Z"/><path fill="#fff" d="M28.36,46.6v.72A1.93,1.93,0,0,1,27.31,49a6.18,6.18,0,0,1-5.51,0,1.93,1.93,0,0,1-1.06-1.72V46.6H18.83v.72a3.78,3.78,0,0,0,2.12,3.41,8,8,0,0,0,7.21,0,3.78,3.78,0,0,0,2.12-3.41V46.6Z" opacity=".2"/><path fill="#262234" d="M28.36,43.82v1.43a8.73,8.73,0,0,1-7.63,0V43.82a8.73,8.73,0,0,0,7.63,0Z" opacity=".1"/><path fill="#be1e2d" d="M58.41,22.19H43.34a3.2,3.2,0,0,0-3.19,3.19v9.3a3.2,3.2,0,0,0,3.06,3.18l-.85,3.8a1,1,0,0,0,1.58,1l6.22-4.79h8.26a3.2,3.2,0,0,0,3.19-3.19v-9.3A3.2,3.2,0,0,0,58.41,22.19Z"/><path fill="#611c24" d="M21.31,39.83a1.34,1.34,0,0,1-1.12-2.08,5.2,5.2,0,0,1,4.36-2.17,5.2,5.2,0,0,1,4.36,2.17,1.34,1.34,0,0,1-1.12,2.08Z"/><path fill="#be1e2d" d="M26.91,39.83H22.19A2.11,2.11,0,0,1,24.55,38,2.11,2.11,0,0,1,26.91,39.83Z"/><path fill="#fff" d="M27.42 36.35v.29a.37.37 0 0 1-.36.37H22a.37.37 0 0 1-.36-.37v-.29a5.73 5.73 0 0 1 5.74 0zM47.8 34.46a1.35 1.35 0 0 1-1-2.3L53 26a1.35 1.35 0 0 1 1.91 1.91l-6.15 6.15A1.35 1.35 0 0 1 47.8 34.46z"/><path fill="#fff" d="M54,34.46a1.35,1.35,0,0,1-1-.39l-6.15-6.15A1.35,1.35,0,0,1,48.76,26l6.15,6.15a1.35,1.35,0,0,1-1,2.3Z"/></svg>