<svg xmlns="http://www.w3.org/2000/svg" width="25" height="25" viewBox="0 0 25 25"><g fill="#fff" transform="translate(4.499 -1031.861)"><circle cx="8.001" cy="1044.361" r="12.5" fill="#424242" fill-rule="evenodd"/><path fill="#1f212a" style="line-height:normal;text-indent:0;text-align:start;text-decoration-line:none;text-decoration-style:solid;text-decoration-color:#000;text-transform:none;block-progression:tb;isolation:auto;mix-blend-mode:normal" d="M 15.261719 24.675781 A 12.5 12.5 0 0 0 15.84375 24.544922 A 12.5 12.5 0 0 0 17.029297 24.150391 A 12.5 12.5 0 0 0 18.169922 23.640625 A 12.5 12.5 0 0 0 19.253906 23.017578 A 12.5 12.5 0 0 0 20.269531 22.291016 A 12.5 12.5 0 0 0 21.208984 21.466797 A 12.5 12.5 0 0 0 22.060547 20.552734 A 12.5 12.5 0 0 0 22.816406 19.558594 A 12.5 12.5 0 0 0 23.470703 18.492188 A 12.5 12.5 0 0 0 24.013672 17.367188 A 12.5 12.5 0 0 0 24.441406 16.193359 A 12.5 12.5 0 0 0 24.59375 15.599609 L 18 9.0058594 L 16.427734 9.0058594 L 14.710938 7.2890625 C 14.528028 7.1061625 14.276187 6.9921875 14.001953 6.9921875 L 11.013672 6.9921875 C 10.465214 6.9921875 10.007813 7.4495469 10.007812 7.9980469 L 10.007812 9.0058594 L 7 9.0058594 L 7 10.005859 L 8 11.005859 L 8 17.005859 C 8 17.278559 8.113098 17.529037 8.2949219 17.710938 L 15.261719 24.675781 z " color="#000" font-family="sans-serif" font-weight="400" transform="translate(-4.499 1031.861)" white-space="normal"/><path d="m 7.0039062,2.9824219 c -0.5484574,0 -1.0058593,0.4573593 -1.0058593,1.0058593 l 0,1.0078126 -3.0078125,0 0,1 1,0 0,7.0000002 c 0,0.5454 0.4546484,1 1,1 l 6.9999996,0 c 0.545352,0 1,-0.4546 1,-1 l 0,-7.0000002 1,0 0,-1 -2.992187,0 0,-1.0078126 c 0,-0.5485 -0.457402,-1.0058593 -1.0058595,-1.0058593 l -2.9882813,0 z m 0,0.9960937 2.9882813,0 c 0.011784,0 0.00586,-0.010234 0.00586,0.00977 l 0,1.0078126 -3,0 0,-1.0078126 c 0,-0.012 -0.00592,-0.00977 0.00586,-0.00977 z m -2.0136718,2.0175782 6.9999996,0 0,7.0000002 -1,0 0,-6.0000002 -0.9999996,0 0,6.0000002 -1,0 0,-6.0000002 -1,0 0,6.0000002 -1,0 0,-6.0000002 -1,0 0,6.0000002 -1,0 0,-7.0000002 z" color="#000" font-family="sans-serif" font-weight="400" overflow="visible" transform="translate(-.49 1035.872)" white-space="normal" style="line-height:normal;text-indent:0;text-align:start;text-decoration-line:none;text-decoration-style:solid;text-decoration-color:#000;text-transform:none;block-progression:tb;isolation:auto;mix-blend-mode:normal"/></g></svg>