<svg xmlns="http://www.w3.org/2000/svg" width="36" height="36" viewBox="0 0 36 36"><g transform="translate(784 -1314.612)"><rect width="36" height="36" x="-784" y="1314.612" fill="#f8b84e" rx="6" ry="6"/><g transform="translate(-782 296.25)"><path style="isolation:auto;mix-blend-mode:normal" d="m 7.0000002,1021.3622 0,20 1.9078161,0 7.3578087,0 2.734376,0 4,0 0,-3.1453 0,-2.6813 0,-8.3531 0,-0.8 0,-1.0203 -4,-4 z" color="#000" opacity=".15" overflow="visible"/><path d="m 4,1035.3622 c -1.10801,0 -2,0.892 -2,2 l 0,4 0,2 0,2 2,0 22,0 2,0 0,-2 0,-2 0,-4 c 0,-1.108 -0.89199,-2 -2,-2 z" opacity=".15"/><path fill="#e9eded" d="m 8,1021.3622 0,20 1.9078161,0 7.3578089,0 2.734376,0 4,0 0,-3.1453 0,-2.6813 0,-8.3531 0,-0.8 0,-1.0203 -4,-4 z" color="#000" overflow="visible" style="isolation:auto;mix-blend-mode:normal"/><path fill="#2b4255" d="m 4.9999998,1035.3622 c -1.10801,0 -2,0.892 -2,2 l 0,4 0,2 0,2 2,0 22.0000002,0 2,0 0,-2 0,-2 0,-4 c 0,-1.108 -0.89199,-2 -2,-2 z"/><path d="m 5.0000002,1044.3622 19.9999998,0 0,6.5 -19.9999998,0 z" opacity=".15"/><path fill="none" stroke="#2b4255" d="M10 1024.8622l7.000001 0M10 1027.8622l12 0M10 1030.8622l12 0"/><path fill="#576d7e" fill-rule="evenodd" d="m 20,1021.3622 0,4 4,0"/><path fill="#576d7e" d="m 6,1044.3622 20,0 0,6.5 -20,0 z"/><path style="isolation:auto;mix-blend-mode:normal" d="m 4,1037.3622 14,0 0,2 -14,0 z" color="#000" opacity=".15" overflow="visible"/><rect width="14" height="2" x="5" y="1037.362" fill="#f8b84e" color="#000" overflow="visible" style="isolation:auto;mix-blend-mode:normal"/><path style="isolation:auto;mix-blend-mode:normal" d="m 6.9999995,1045.3624 16.0000005,0 0,3 -16.0000005,0 z" color="#000" opacity=".15" overflow="visible"/><rect width="16" height="3" x="8" y="1045.362" fill="#e9eded" color="#000" overflow="visible" style="isolation:auto;mix-blend-mode:normal"/><path fill="none" stroke="#2b4255" d="m 10,1033.8622 12,0"/><path d="M26 1038.3622a.99866641.99997652 0 0 1-.998667 1 .99866641.99997652 0 0 1-.998666-1 .99866641.99997652 0 0 1 .998666-1 .99866641.99997652 0 0 1 .998667 1zM22 1038.3636a.99732488.9986338 0 0 1-.997325.9987.99732488.9986338 0 0 1-.997325-.9987.99732488.9986338 0 0 1 .997325-.9986A.99732488.9986338 0 0 1 22 1038.3636z" opacity=".15"/><path fill-rule="evenodd" style="line-height:normal;text-indent:0;text-align:start;text-decoration-line:none;text-decoration-style:solid;text-decoration-color:#000;text-transform:none;block-progression:tb;isolation:auto;mix-blend-mode:normal" d="m 13,1048.3633 0,1 3,0 0,-1 -3,0 z" color="#000" font-family="sans-serif" font-weight="400" opacity=".15" overflow="visible" white-space="normal"/><ellipse cx="26.001" cy="1038.362" fill="#f8b84e" rx=".999" ry="1"/><ellipse cx="22.003" cy="1038.364" fill="#f8b84e" rx=".997" ry=".999"/><path fill="none" stroke="#2b4255" d="m 13.999999,1048.8625 3,0"/></g></g></svg>