<svg xmlns="http://www.w3.org/2000/svg" enable-background="new 0 0 50 50" viewBox="0 0 50 50"><path fill="#1E1E1C" d="M36.2,19.1c0.1,5.1,0.5,10.2,0.8,15.2c0.3,4.3,2.2,8.9-3,10.1c-8.4,1.8-18.2,0.7-26.7-0.6
				c-3.6-0.5-4.2-1.2-4.8-4.8c-0.8-4.9-0.9-9.9-0.6-14.8c0.1-2,0.4-4.1,1.5-5.8c2.5-3.7,9.2-3.2,13.1-3.1c4.8,0.2,9.6,1,14.5,1.1
				c0.4,0,1.6-0.5,0.7-0.5c-6.4-0.1-12.8-1.6-19.2-1.1c-3.9,0.3-9.3,0.9-11.2,4.9C-1,24.6,0.2,32.3,0.8,37.5
				c0.4,3.8,0.4,5.9,4.2,6.7c9.3,1.8,20.4,2.6,29.7,0.6c2.8-0.6,4.4-1.4,4.2-4.3c-0.5-7.2-1-14.3-1.2-21.5
				C37.7,18.6,36.2,18.8,36.2,19.1L36.2,19.1z"/><path fill="#1E1E1C" d="M40.7,6.2c-4.1,4-7.1,8.6-11.6,12.2c-3.5,2.7-9.1,5.7-9.9,10.4c-0.7,4.4,5.6,2.1,7.2,1.1
				c2.3-1.5,4.3-4.3,6.2-6.3c2.5-2.5,5.1-4.9,7.7-7.3c3-2.7,8.3-4.5,9.4-8.7C50.9,2.4,42.4,4.9,40.7,6.2c-0.3,0.2,1,0.9,1.3,0.6
				c1.7-1.3,7-3,6,1.3c-0.6,2.6-4.9,4.4-6.9,5.7c-5.9,4.1-11,10.3-16,15.4c-0.7,0.7-3.7,2.2-4.4,0.9c-1.6-3.2,4.3-6.9,6.3-8.5
				c2.8-2.2,5.6-4.4,8.3-6.8c2.6-2.4,4.3-5.6,6.8-8.1C42.3,6.5,41,5.9,40.7,6.2z"/><path fill="#1E1E1C" d="M40.1 7.9c.3.9.6 1.8 1.1 2.6.6.8 1.6 1.4 2.5 1.8.2.1.7.3.9.2.2-.1-.3-.5-.4-.5-1.7-.8-2.3-1.9-2.8-3.6C41.4 7.9 40 7.6 40.1 7.9L40.1 7.9zM20 30.5c-.4.2-.7.6-1 1-.3.4-.6.8-1 1-.8.4.1 1.5.7 1.2 1-.5 1.4-1.6 2.4-2.1C21.7 31.1 20.7 30.1 20 30.5L20 30.5z"/></svg>