<svg xmlns="http://www.w3.org/2000/svg" enable-background="new 0 0 70 70" viewBox="0 0 70 70"><polygon points="39.7 41.9 42.5 44.7 51.9 35.2 51.9 35.2 55.5 31.6 52.7 28.9"/><polygon points="42.7 12.5 42.7 19.9 50.1 19.9"/><polygon points="38.7 44 38 46.3 40.4 45.7"/><path d="M58.8 28l-2.4-2.4c-.1-.1-.1-.1-.2-.1 0 0-.1 0-.2.1l-1.8 1.8 2.8 2.8 1.8-1.8C58.9 28.2 58.9 28 58.8 28zM43.2 47c-.1.1-.2.1-.3.2 0 0-.1 0-.1 0 0 0 0 0-.1 0l-6 1.7c-.1 0-.2 0-.3 0H20.2c-.6 0-1.1-.5-1.1-1.1 0-.6.5-1.1 1.1-1.1h15.4l1.1-3.9H20.2c-.6 0-1.1-.5-1.1-1.1s.5-1.1 1.1-1.1h17.6l3.9-3.9H20.2c-.6 0-1.1-.5-1.1-1.1 0-.6.5-1.1 1.1-1.1h23.6l7.8-7.8v-4.9h-10c-.6 0-1.1-.5-1.1-1.1V11H15.8v41.3h27.4c.6 0 1.1.5 1.1 1.1v2c0 2 1.6 3.6 3.6 3.6s3.6-1.6 3.6-3.6V38.6L43.2 47C43.2 47 43.2 47 43.2 47zM20.2 16.4h16c.6 0 1.1.5 1.1 1.1s-.5 1.1-1.1 1.1h-16c-.6 0-1.1-.5-1.1-1.1S19.6 16.4 20.2 16.4zM20.2 22.5h16c.6 0 1.1.5 1.1 1.1 0 .6-.5 1.1-1.1 1.1h-16c-.6 0-1.1-.5-1.1-1.1C19.1 23 19.6 22.5 20.2 22.5zM20.2 28.6h24.5c.6 0 1.1.5 1.1 1.1s-.5 1.1-1.1 1.1H20.2c-.6 0-1.1-.5-1.1-1.1S19.6 28.6 20.2 28.6z"/><path d="M42.2,54.5H14.7h0h-3.6c0.5,2.6,2.8,4.5,5.5,4.5h26.9c-0.8-1-1.3-2.2-1.3-3.6V54.5z"/></svg>