<?xml version="1.0" encoding="UTF-8"?><svg xmlns="http://www.w3.org/2000/svg" xmlns:xlink="http://www.w3.org/1999/xlink" version="1.1" id="Layer_1" x="0px" y="0px" viewBox="0 0 52 52" xml:space="preserve"><g fill="none" stroke="#000" stroke-width="2" stroke-linecap="round" stroke-linejoin="round" stroke-miterlimit="10"><path d="M7.431 28.087h21.68"/><path d="M7.431 35.491h21.68"/><path d="M7.431 42.896h21.68"/><path d="M7.431 13.278h10.84"/><path d="M7.431 20.683h21.68"/></g><path fill="none" stroke="#000" stroke-width="2" stroke-linecap="round" stroke-linejoin="round" stroke-miterlimit="10" d="M26.465 3.043H2v45.603h32.543V11.122z"/><g fill="none" stroke="#000" stroke-width="2" stroke-linecap="round" stroke-linejoin="round" stroke-miterlimit="10"><path d="M44.905 8.064l-5.095 8.429v24.921H50V16.493z"/><path d="M47.16 48.957h-4.51a2.84 2.84 0 0 1-2.84-2.84v-4.703H50v4.703a2.84 2.84 0 0 1-2.84 2.84z"/><path d="M50 16.493H39.81"/></g><g><g fill="none" stroke="#000" stroke-width="2" stroke-linecap="round" stroke-linejoin="round" stroke-miterlimit="10"><path d="M7.431 28.087h21.68"/><path d="M7.431 35.491h21.68"/><path d="M7.431 42.896h21.68"/><path d="M7.431 13.278h10.84"/><path d="M7.431 20.683h21.68"/></g><path fill="none" stroke="#000" stroke-width="2" stroke-linecap="round" stroke-linejoin="round" stroke-miterlimit="10" d="M26.465 3.043H2v45.603h32.543V11.122z"/><g fill="none" stroke="#000" stroke-width="2" stroke-linecap="round" stroke-linejoin="round" stroke-miterlimit="10"><path d="M44.905 8.064l-5.095 8.429v24.921H50V16.493z"/><path d="M47.16 48.957h-4.51a2.84 2.84 0 0 1-2.84-2.84v-4.703H50v4.703a2.84 2.84 0 0 1-2.84 2.84z"/><path d="M50 16.493H39.81"/></g></g><metadata><rdf:RDF xmlns:rdf="http://www.w3.org/1999/02/22-rdf-syntax-ns#" xmlns:rdfs="http://www.w3.org/2000/01/rdf-schema#" xmlns:dc="http://purl.org/dc/elements/1.1/"><rdf:Description about="https://iconscout.com/legal#licenses" dc:title="edit,write,pen,document" dc:description="edit,write,pen,document" dc:publisher="Iconscout" dc:date="2017-11-11" dc:format="image/svg+xml" dc:language="en"><dc:creator><rdf:Bag><rdf:li>Dinosoft Labs</rdf:li></rdf:Bag></dc:creator></rdf:Description></rdf:RDF></metadata></svg>