<svg xmlns="http://www.w3.org/2000/svg" width="32" height="32" viewBox="0 0 32 32"><g transform="translate(-390.217 -756.633)"><path fill="none" stroke="#373748" stroke-linecap="round" stroke-linejoin="round" stroke-width=".214" d="m 140.39216,1028.8209 c 0.63624,0 1.14843,0.5123 1.14843,1.1485 l 0,1.1245 c 0,0.6362 -0.65486,1.1484 -1.14843,1.1484 -0.49357,0 -1.14842,-0.5122 -1.14842,-1.1484 l 0,-1.1245 c 0,-0.6362 0.5122,-1.1485 1.14842,-1.1485 z m 3.30756,5.4141 c 0,-0.1417 0,-0.2083 0,-0.2801 0,-0.2696 -0.20971,-0.5092 -0.44938,-0.6291 -0.98864,-0.5393 -2.10169,-1.0908 -2.10169,-1.0908 l -0.25541,-0.1262 c -0.15065,0.055 -0.29681,0.1272 -0.508,0.134 -0.24069,-0.018 -0.3525,-0.091 -0.52297,-0.1414 l -0.23584,0.1151 c -0.0899,0.06 -0.95869,0.4494 -2.24692,1.1684 -0.23967,0.1497 -0.32954,0.3895 -0.32954,0.6891 0,0.054 0,0.1039 0,0.1778" transform="matrix(-4.66181 0 0 4.67869 1060.619 -4052.09)"/><path fill="#00d1b6" stroke="#363647" stroke-linecap="round" stroke-linejoin="round" d="m 413.14114,760.32532 2.384,2.3841 m -8.34396,3.5759 -1.19198,3.576 3.57599,-1.192 z m 7.15195,-7.152 2.38401,2.3841 -7.15195,7.1519 -2.38401,-2.384 z"/></g></svg>