<svg xmlns="http://www.w3.org/2000/svg" width="32" height="32" viewBox="0 0 32 32"><g transform="translate(-216.007 -1245.819)"><path fill="#37c8ab" fill-rule="evenodd" stroke="#363647" stroke-linecap="round" stroke-linejoin="round" d="m 232.35191,1266.6399 0.25305,0.3167 0.94086,0.9423 0.94085,0.9424 0.94085,0.9423 0.94086,0.9424 0.94085,0.9423 c -0.0138,0.1477 -0.0212,0.2959 -0.0221,0.4442 8.5e-4,2.8215 2.28849,5.1083 5.11006,5.1082 2.82157,10e-5 5.10921,-2.2867 5.11006,-5.1082 9e-5,-2.8222 -2.28783,-5.11 -5.11006,-5.1099 -0.14773,9e-4 -0.29534,0.01 -0.44243,0.022 l -0.9526,-0.9542 -0.95261,-0.9542 -0.95261,-0.9542 -0.9526,-0.9542 -0.95261,-0.9542 -0.14401,-0.2562 m -5.21586,-5.1127 -0.35576,-0.3564 -0.9526,-0.9542 -0.95261,-0.9542 -0.9526,-0.9542 -0.95261,-0.9542 -0.9526,-0.9542 c 0.0672,-1.4342 -0.47203,-2.8305 -1.48582,-3.8472 -0.97728,-0.9758 -2.30791,-1.5144 -3.68876,-1.4932 l -3e-5,0 c -0.4943,0.01 -0.98485,0.087 -1.45632,0.236 l 2.83154,2.8334 -0.66733,2.6692 -2.66932,0.6674 -2.83339,-2.8334 c -0.57259,1.8159 -0.0881,3.7995 1.25724,5.1469 1.11725,1.1163 2.6879,1.6532 4.25469,1.4544 l 0.94085,0.9423 0.94086,0.9424 0.94085,0.9423 0.94085,0.9424 0.94086,0.9423 0.16364,0.18 m 15.27367,8.04 c 0.34643,10e-5 0.68933,0.07 1.00837,0.2047 0.31879,0.1355 0.60714,0.3336 0.84799,0.5825 0.14243,0.1476 0.26681,0.3116 0.37053,0.4885 0.23569,0.398 0.36045,0.8518 0.36132,1.3143 -2.8e-4,1.4293 -1.15889,2.5879 -2.58821,2.5882 -0.43938,-5e-4 -0.87141,-0.1128 -1.2554,-0.3263 -0.0754,-0.042 -0.14856,-0.087 -0.21937,-0.1364 -0.14174,-0.099 -0.27328,-0.2109 -0.39265,-0.3355 -0.0598,-0.062 -0.11636,-0.1275 -0.1696,-0.1954 -0.0533,-0.068 -0.10311,-0.1389 -0.14931,-0.212 -0.0432,-0.068 -0.0832,-0.1382 -0.11983,-0.2101 l -0.004,-0.01 c -0.0107,-0.022 -0.0212,-0.044 -0.0313,-0.066 -0.028,-0.058 -0.0538,-0.1171 -0.0774,-0.177 l -0.002,-0.01 c -0.0297,-0.079 -0.0555,-0.1585 -0.0774,-0.2396 -0.0226,-0.083 -0.0411,-0.1675 -0.0553,-0.2526 -0.0141,-0.085 -0.0239,-0.1716 -0.0294,-0.2581 -0.004,-0.055 -0.006,-0.1093 -0.006,-0.164 -7.7e-4,-1.43 1.15815,-2.5898 2.58821,-2.5901 z"/><path fill="#ff5a67" fill-rule="evenodd" stroke="#363647" stroke-linecap="round" stroke-linejoin="round" d="m 240.84993,1247.92 6.63143,-1.6015 -1.59882,6.6423 z"/><path fill="none" stroke="#363647" stroke-linecap="round" stroke-linejoin="round" d="m 240.84989,1247.92 -21.85275,21.8887 5.03261,5.0409 21.85279,-21.8888 z"/><path fill="#ff5a67" fill-rule="evenodd" stroke="#363647" stroke-linecap="round" d="m 218.99714,1269.8087 -2.25748,2.2612 5.03261,5.0409 2.25748,-2.2612 z"/><path fill="none" stroke="#363647" d="m 246.19955,1246.5626 1,1"/></g></svg>