<?xml version="1.0" encoding="UTF-8"?><svg xmlns="http://www.w3.org/2000/svg" xmlns:xlink="http://www.w3.org/1999/xlink" version="1.1" id="Layer_1" x="0px" y="0px" viewBox="0 0 52 52" xml:space="preserve"><path d="M36.315 15.834c-2.747-2.62-6.018-5.772-8.247-8.71-1.435-1.892-2.847-3.64-5.088-4.61-3.738-1.62-8.743-.981-12.665-.692-1.902.14-6.64-.111-8.238 1.24-1.572 1.33-.908 5.297-.984 7.049-.202 4.685-.22 9.377-.06 14.065.149 4.358.56 8.657.238 13.017-.277 3.758-1.54 8.32-.565 12.035.103.395.458.793.873.873 2.588.5 5.317-.289 7.99-.04 3.288.304 6.434.486 9.745.476 3.878-.012 7.767.051 11.645-.035 1.49-.033 3.039.249 4.193-.897 3.112-3.091 2.174-9.765 2.29-13.496.197-6.387 1.841-14.405-.677-20.445-.61-1.463-3.03-.821-2.41.665 2.203 5.286.817 12.323.644 17.93-.093 3.019.158 6.264-.286 9.25-.497 3.346-.836 4.363-3.754 4.493-5.767.258-11.84.363-17.599-.027-2.556-.174-5.168-.327-7.711-.553-2.002-.178-1.464.789-2.628-.73-.575-.752.202-3.898.279-4.749.545-6.038.44-11.725.233-17.767a181.9 181.9 0 0 1 .06-14.065c.046-1.064-.316-3.646.031-4.355-.468-.903.018-1.185 1.458-.845 1.137-.186 2.28-.33 3.428-.434a73.503 73.503 0 0 1 4.518-.302c4.479-.174 8.71-.436 12.028 3.169 3.179 3.453 6.071 6.995 9.491 10.258 1.164 1.11 2.935-.654 1.768-1.768z"/><path d="M21.2 4.024c.006 2.728.09 5.453.292 8.174.12 1.627-.137 4.502.995 5.847 1.078 1.281 3.156 1.005 4.62 1.027 2.709.041 5.416 0 8.123-.095 1.604-.057 1.611-2.557 0-2.5-1.861.065-3.722.108-5.584.111-1.804.003-4.636.693-5.383-1.333-.52-1.412-.321-3.596-.403-5.098a116.784 116.784 0 0 1-.16-6.133c-.002-1.609-2.502-1.612-2.5 0z"/><path d="M17.978 11.148c-3.312-.178-7.535-.882-10.743.177-1.52.502-.87 2.918.664 2.411 1.549-.511 3.317-.312 4.925-.282 1.72.033 3.437.102 5.154.194 1.608.086 1.603-2.414 0-2.5z"/><path d="M31.647 21.684c-8.139.02-16.278-.022-24.416-.127-1.61-.02-1.61 2.48 0 2.5 8.138.105 16.277.148 24.416.127 1.609-.004 1.612-2.504 0-2.5z"/><path d="M31.665 28.061c-8.108-.281-16.24-.234-24.353-.337-1.61-.02-1.61 2.48 0 2.5 8.113.103 16.245.056 24.353.337 1.61.056 1.607-2.444 0-2.5z"/><path d="M7.064 30.106c1.608 0 1.61-2.5 0-2.5s-1.612 2.5 0 2.5z"/><path d="M31.73 34.57a595.25 595.25 0 0 1-25.5-.449c-1.61-.062-1.607 2.438 0 2.5 8.497.332 16.996.482 25.5.45 1.608-.007 1.612-2.507 0-2.5z"/><path d="M31.699 40.981c-4.005-1.116-6.901-.286-10.891.13-4.666.486-9.959-.941-14.733-.95-1.608-.004-1.61 2.496 0 2.5 4.324.008 8.452.822 12.732 1.05 4.27.227 7.836-1.543 12.227-.319 1.552.433 2.215-1.979.665-2.41z"/><path d="M42.921 37.929c-.537-5.228-.736-10.444-.75-15.697-.004-1.92-.815-6.554.001-8.257.497-1.038 2.414-1.792 3.525-1.704 1.993.16 2.788 2.137 3.08 3.729.953 5.208-.279 10.746-.219 16.03.035 3.042.264 6.335-.533 9.295-.738 2.742-2.523 4.522-4.024 6.826-.88 1.352 1.283 2.607 2.16 1.262 2.292-3.52 3.918-4.76 4.58-9.14.547-3.618.252-7.265.286-10.905.037-3.923.926-7.894.53-11.805-.207-2.04-.488-5.746-2.431-7.083-2.598-1.787-8.102-1.03-9.293 2.098-1.142 2.997-.18 8.118-.156 11.312.034 4.698.264 9.365.744 14.039.163 1.584 2.665 1.601 2.5 0z"/><path d="M40.95 38.42c-.01-.07-1.128 1.675-1.167 2.252-.11 1.627.768 3.215 1.347 4.68.969 2.445 1.844 4.97 4.841 5.164 1.606.105 1.6-2.396 0-2.5-1.758-.114-3.27-4.717-3.512-6.137-.275-1.613 1.135-2.509.902-4.124-.23-1.586-2.638-.911-2.41.665z"/><path d="M49.89 37.548c-3.252.283-6.453.133-9.658-.508-1.078-.216-1.932.837-1.411 1.836.307.59.627.787 1.238.997 1.525.524 2.18-1.89.665-2.41l.255.151-1.411 1.836c3.42.685 6.844.9 10.323.598 1.59-.139 1.605-2.64 0-2.5z"/><path d="M48.534 17.888c-.88.43-2.12.094-3.047-.008-1.082-.12-2.103-.134-3.177.08-1.576.314-.91 2.725.665 2.411 2.31-.46 4.59.763 6.821-.324 1.446-.705.18-2.861-1.262-2.159z"/><path d="M42.397 20.44c1.609 0 1.611-2.5 0-2.5-1.609 0-1.611 2.5 0 2.5z"/><metadata><rdf:RDF xmlns:rdf="http://www.w3.org/1999/02/22-rdf-syntax-ns#" xmlns:rdfs="http://www.w3.org/2000/01/rdf-schema#" xmlns:dc="http://purl.org/dc/elements/1.1/"><rdf:Description about="https://iconscout.com/legal#licenses" dc:title="create,write,edit,pencil" dc:description="create,write,edit,pencil" dc:publisher="Iconscout" dc:date="2017-11-11" dc:format="image/svg+xml" dc:language="en"><dc:creator><rdf:Bag><rdf:li>Dinosoft Labs</rdf:li></rdf:Bag></dc:creator></rdf:Description></rdf:RDF></metadata></svg>