<?xml version="1.0" encoding="UTF-8"?><svg xmlns="http://www.w3.org/2000/svg" xmlns:xlink="http://www.w3.org/1999/xlink" version="1.1" id="Layer_1" x="0px" y="0px" viewBox="0 0 100 100" xml:space="preserve"><style type="text/css">.st0{fill:#03ADAD;} .st1{fill:#E64B3F;} .st2{fill:none;stroke:#000000;stroke-width:2;stroke-linecap:round;stroke-linejoin:round;stroke-miterlimit:10;} .st3{fill:#973732;} .st4{fill:#FFFFFF;} .st5{fill:#DAAC01;} .st6{fill:#CD811C;} .st7{fill:#DC6E79;} .st8{fill:#A1334B;} .st9{fill:#98B260;} .st10{fill:#738748;} .st11{fill:#F36C00;} .st12{fill:#C05600;} .st13{fill:#E46675;} .st14{fill:#A35BB4;} .st15{fill:#76418F;} .st16{fill:#2EC19C;} .st17{fill:#348969;} .st18{fill:#04847D;}</style><path class="st16" fill="#2EC19C" d="M2 2h96v96H2z"/><path class="st17" d="M72.093 30.429h-4.44c-1.1 0-2.01.82-2.14 1.9-.13 1.14-.25 2.47-.35 3.92l2 2h-2.12c-.04.69-.08 1.41-.11 2.14l-14.38-14.39a.997.997 0 0 0-1.74.66v.83l-1.83-1.82h-19c-1.64 0-2.98 1.47-2.98 3.27v42.11c0 1.01.42 1.91 1.08 2.51h-.02L50.504 98H98V55.456L73.613 31.069c-.39-.39-.93-.64-1.52-.64z" fill="#348969"/><path class="st4" d="M74.23 32.338a2.16 2.16 0 0 0-2.14-1.91h-4.44c-1.1 0-2.01.82-2.14 1.9a97.518 97.518 0 0 0-.343 3.918h9.405a96.915 96.915 0 0 0-.342-3.908z" fill="#FFF"/><path class="st4" d="M74.698 38.246h-9.657a192.625 192.625 0 0 0-.301 10.502c0 13.61 4.02 24.48 4.19 24.94.15.39.52.65.94.65.42 0 .79-.26.94-.65.17-.46 4.19-11.33 4.19-24.94 0-3.418-.113-7.162-.302-10.502z" fill="#FFF"/><path class="st4" d="M51.84 41.118c-2.774 0-5.03-2.368-5.03-5.28v-9.18c0-.347.063-.68.172-.993H27.984C26.34 25.665 25 27.134 25 28.94v42.11c0 1.812 1.339 3.286 2.984 3.286h32.077a1 1 0 0 0 1-1V40.94a3 3 0 0 1-1.001.18h-8.22zm-19.002-5.576H43.03a1 1 0 0 1 0 2H32.838a1 1 0 0 1 0-2zM53.222 62.46H32.838a1 1 0 0 1 0-2h20.384a1 1 0 0 1 0 2zm0-8.306H32.838a1 1 0 0 1 0-2h20.384a1 1 0 0 1 0 2zm0-8.305H32.838a1 1 0 0 1 0-2h20.384a1 1 0 0 1 0 2z" fill="#FFF"/><path class="st4" d="M51.84 39.118h8.22c.4 0 .75-.23.91-.59.17-.36.1-.78-.16-1.08l-10.26-11.45a.997.997 0 0 0-1.74.66v9.18c0 1.81 1.36 3.28 3.03 3.28z" fill="#FFF"/><metadata><rdf:RDF xmlns:rdf="http://www.w3.org/1999/02/22-rdf-syntax-ns#" xmlns:rdfs="http://www.w3.org/2000/01/rdf-schema#" xmlns:dc="http://purl.org/dc/elements/1.1/"><rdf:Description about="https://iconscout.com/legal#licenses" dc:title="edit,pen,write,document" dc:description="edit,pen,write,document" dc:publisher="Iconscout" dc:date="2017-11-11" dc:format="image/svg+xml" dc:language="en"><dc:creator><rdf:Bag><rdf:li>Dinosoft Labs</rdf:li></rdf:Bag></dc:creator></rdf:Description></rdf:RDF></metadata></svg>