<svg xmlns="http://www.w3.org/2000/svg" width="32" height="32" viewBox="0 0 32 32"><g transform="translate(-186.941 -1299.862)"><path fill="#f9f9f9" stroke="#a6bcc0" stroke-dashoffset="1.3" stroke-linecap="round" stroke-linejoin="round" d="m 211.94432,1313.8692 0,10.993 -17.99986,0 0,-10.993"/><path fill="#f2f2f2" stroke="#a6bcc0" stroke-dashoffset="1.3" stroke-linecap="round" stroke-linejoin="round" d="m 202.9278,1306.8622 -8.98345,6.7339 8.98345,5.5996 8.98346,-5.6117 z"/><path fill="#fff593" stroke="#f4ba00" d="m 14.5,386.48047 0,6 6.896484,4.29883 0.175782,0 6.927734,-4.32813 0,-5.9707 z" transform="translate(181.444 922.362)"/><path fill="#fff593" stroke="#a6bcc0" stroke-linecap="round" stroke-linejoin="round" d="M193.95044 1324.8584l5.9879-3.9925M211.92756 1324.8585l-5.97715-3.9926"/><path fill="none" stroke="#a6bcc0" stroke-dashoffset="1.3" stroke-linecap="round" stroke-linejoin="round" d="m 193.94435,1313.5961 8.98345,5.5996 8.98346,-5.6117"/><g transform="matrix(1.16459 1.20423 -1.14686 1.22284 1322.113 -454.008)"><path fill="#d5fff6" stroke="#71c837" stroke-linecap="round" stroke-linejoin="round" stroke-width=".597" d="M234.85744 1212.6078l-.0142 2.8361M234.83874 1215.438l-1.45908.02"/></g></g></svg>