<?xml version="1.0" encoding="UTF-8" standalone="no"?>
<svg xmlns:dc="http://purl.org/dc/elements/1.1/" xmlns:cc="http://creativecommons.org/ns#" xmlns:rdf="http://www.w3.org/1999/02/22-rdf-syntax-ns#" xmlns:svg="http://www.w3.org/2000/svg" xmlns="http://www.w3.org/2000/svg" xmlns:sodipodi="http://sodipodi.sourceforge.net/DTD/sodipodi-0.dtd" xmlns:inkscape="http://www.inkscape.org/namespaces/inkscape" version="1.1" id="Layer_1" x="0px" y="0px" viewBox="0 0 16 16" style="enable-background:new 0 0 16 16;" xml:space="preserve" inkscape:version="0.91 r13725" sodipodi:docname="!6x16 thin Line-37.svg"><defs id="defs13"/><sodipodi:namedview pagecolor="#ffffff" bordercolor="#666666" borderopacity="1" objecttolerance="10" gridtolerance="10" guidetolerance="10" inkscape:pageopacity="0" inkscape:pageshadow="2" inkscape:window-width="1366" inkscape:window-height="705" id="namedview11" showgrid="true" inkscape:snap-bbox="true" inkscape:bbox-paths="true" inkscape:bbox-nodes="true" inkscape:snap-bbox-edge-midpoints="true" inkscape:snap-bbox-midpoints="true" inkscape:zoom="7.375" inkscape:cx="3.4818841" inkscape:cy="25.094666" inkscape:window-x="-8" inkscape:window-y="-8" inkscape:window-maximized="1" inkscape:current-layer="Layer_1"><inkscape:grid type="xygrid" id="grid4146"/></sodipodi:namedview><style type="text/css" id="style3">
	.st0{fill:#231F20;}
	.st1{fill:none;stroke:#231F20;stroke-width:0.5;stroke-miterlimit:10;}
</style><path style="fill:#231f20;stroke:none" d="M 3.7539062,1.5 C 2.7869062,1.5 2,2.2869062 2,3.2539062 L 2,14.246094 C 2,15.213094 2.7869062,16 3.7539062,16 l 7.9921888,0 c 0.967,0 1.753906,-0.786906 1.753906,-1.753906 l 0,-8.4746096 c 0,-0.007 -0.0068,-0.012531 -0.0078,-0.019531 -0.005,-0.058 -0.02145,-0.1152031 -0.06445,-0.1582031 l -4.0000006,-4 c -0.041,-0.041 -0.094391,-0.060406 -0.1503906,-0.066406 -0.024016,-0.007 -0.044329,-0.027344 -0.070329,-0.027344 l -5.453125,0 z m 0,0.5 L 9,2 9,4.28125 c 0,0.959 0.779281,1.7402344 1.738281,1.7402344 l 2.261719,0 0,8.2246096 C 13,14.936094 12.437094,15.5 11.746094,15.5 l -7.9921878,0 C 3.0629062,15.5 2.5,14.937094 2.5,14.246094 L 2.5,3.2539062 C 2.5,2.5629062 3.0629062,2 3.7539062,2 Z m 5.7441407,0.3925781 0.00195,0 c 0.7700001,0.766 2.3135311,2.3009063 3.1445311,3.1289063 l -1.90625,0 c -0.683,0 -1.2402342,-0.5572344 -1.2402342,-1.2402344 l 0,-1.8886719 z m 0.4765626,8.5468749 0,2.705078 L 8.890625,12.527344 8.53125,12.875 l 1.517578,1.560547 c 0.047,0.049 0.110735,0.07617 0.177734,0.07617 l 0.002,0 c 0.068,0 0.132688,-0.02812 0.179687,-0.07813 l 1.476563,-1.560547 -0.363282,-0.34375 -1.046875,1.105469 0,-2.695313 -0.4999995,0 z" id="path7" inkscape:connector-curvature="0"/>
	<metadata>
		<rdf:RDF xmlns:rdf="http://www.w3.org/1999/02/22-rdf-syntax-ns#" xmlns:rdfs="http://www.w3.org/2000/01/rdf-schema#" xmlns:dc="http://purl.org/dc/elements/1.1/">
			<rdf:Description about="https://admin.iconscout.com/legal#licenses" dc:title="37 file paper document memo important download" dc:description="37 file paper document memo important download" dc:publisher="Iconscout" dc:date="2017-04-23" dc:format="image/svg+xml" dc:language="en">
				<dc:creator>
					<rdf:Bag>
						<rdf:li>Dalpat Prajapati</rdf:li>
					</rdf:Bag>
				</dc:creator>
			</rdf:Description>
		</rdf:RDF>
    </metadata></svg>
