<?xml version="1.0" encoding="UTF-8" standalone="no"?>
<svg xmlns:dc="http://purl.org/dc/elements/1.1/" xmlns:cc="http://creativecommons.org/ns#" xmlns:rdf="http://www.w3.org/1999/02/22-rdf-syntax-ns#" xmlns:svg="http://www.w3.org/2000/svg" xmlns="http://www.w3.org/2000/svg" xmlns:sodipodi="http://sodipodi.sourceforge.net/DTD/sodipodi-0.dtd" xmlns:inkscape="http://www.inkscape.org/namespaces/inkscape" width="32px" height="32px" viewBox="0 0 32 32.000001" id="svg2" version="1.1" inkscape:version="0.91 r13725" sodipodi:docname="11 file format document text txt extension notepad.svg">
  <defs id="defs4"/>
  <sodipodi:namedview id="base" pagecolor="#ffffff" bordercolor="#666666" borderopacity="1.0" inkscape:pageopacity="0.0" inkscape:pageshadow="2" inkscape:zoom="16" inkscape:cx="16.973731" inkscape:cy="17.838932" inkscape:document-units="px" inkscape:current-layer="layer1" showgrid="true" units="px" inkscape:snap-bbox="true" inkscape:bbox-paths="true" inkscape:bbox-nodes="true" inkscape:snap-bbox-edge-midpoints="true" inkscape:snap-bbox-midpoints="true" inkscape:window-width="1366" inkscape:window-height="715" inkscape:window-x="-8" inkscape:window-y="-8" inkscape:window-maximized="1">
    <inkscape:grid type="xygrid" id="grid3336"/>
  </sodipodi:namedview>
  
  <g inkscape:label="Layer 1" inkscape:groupmode="layer" id="layer1" transform="translate(0,-1020.3622)">
    <path style="color:#000000;font-style:normal;font-variant:normal;font-weight:normal;font-stretch:normal;font-size:medium;line-height:normal;font-family:sans-serif;text-indent:0;text-align:start;text-decoration:none;text-decoration-line:none;text-decoration-style:solid;text-decoration-color:#000000;letter-spacing:normal;word-spacing:normal;text-transform:none;direction:ltr;block-progression:tb;writing-mode:lr-tb;baseline-shift:baseline;text-anchor:start;white-space:normal;clip-rule:nonzero;display:inline;overflow:visible;visibility:visible;opacity:1;isolation:auto;mix-blend-mode:normal;color-interpolation:sRGB;color-interpolation-filters:linearRGB;solid-color:#000000;solid-opacity:1;fill:#000000;fill-opacity:1;fill-rule:evenodd;stroke:none;stroke-width:0.99999994;stroke-linecap:round;stroke-linejoin:round;stroke-miterlimit:4;stroke-dasharray:none;stroke-dashoffset:0;stroke-opacity:1;color-rendering:auto;image-rendering:auto;shape-rendering:auto;text-rendering:auto;enable-background:accumulate" d="M 20.488281 0.99804688 A 0.50005 0.50005 0 0 0 20.414062 1.0039062 L 6.9960938 1.0039062 C 5.8967491 1.0039062 4.9960936 1.9046063 4.9960938 3.0039062 L 4.9960938 29.003906 C 4.9960938 30.103306 5.8967491 31.003906 6.9960938 31.003906 L 24.996094 31.003906 C 26.095438 31.003906 26.996094 30.103306 26.996094 29.003906 L 26.996094 28.251953 C 26.99631 28.236709 27 28.222318 27 28.207031 L 27 27.070312 L 27 24.794922 L 27 22.521484 A 0.52044797 0.52044797 0 0 0 26.996094 22.457031 L 26.996094 7.5820312 A 0.50005 0.50005 0 0 0 26.800781 7.1015625 L 20.894531 1.1953125 A 0.50005 0.50005 0 0 0 20.488281 0.99804688 z M 6.9960938 2.0039062 L 19.996094 2.0039062 L 19.996094 6.0039062 C 19.996094 7.1032063 20.896709 8.0039062 21.996094 8.0039062 L 25.996094 8.0039062 L 25.996094 22 L 24.574219 22 L 7.4257812 22 L 5.9960938 22 L 5.9960938 3.0039062 C 5.9960938 2.4413063 6.4334583 2.0039062 6.9960938 2.0039062 z M 20.996094 2.7109375 L 25.289062 7.0039062 L 21.996094 7.0039062 C 21.433498 7.0039062 20.996094 6.5665062 20.996094 6.0039062 L 20.996094 2.7109375 z M 7.4746094 4 A 0.50064427 0.50064427 0 1 0 7.5253906 5 L 12.517578 5 A 0.50005 0.50005 0 1 0 12.517578 4 L 7.5253906 4 A 0.50005 0.50005 0 0 0 7.4746094 4 z M 7.4746094 6 A 0.50064427 0.50064427 0 1 0 7.5253906 7 L 16.525391 7 A 0.50005 0.50005 0 1 0 16.525391 6 L 7.5253906 6 A 0.50005 0.50005 0 0 0 7.4746094 6 z M 7.4746094 9 A 0.50064427 0.50064427 0 1 0 7.5253906 10 L 11.525391 10 A 0.50005 0.50005 0 1 0 11.525391 9 L 7.5253906 9 A 0.50005 0.50005 0 0 0 7.4746094 9 z M 13.474609 9 A 0.50064426 0.50064426 0 1 0 13.525391 10 L 14.525391 10 A 0.50005 0.50005 0 1 0 14.525391 9 L 13.525391 9 A 0.50005 0.50005 0 0 0 13.474609 9 z M 16.474609 9 A 0.50064426 0.50064426 0 1 0 16.525391 10 L 24.517578 10 A 0.50005 0.50005 0 1 0 24.517578 9 L 16.525391 9 A 0.50005 0.50005 0 0 0 16.474609 9 z M 7.4746094 11 A 0.50064427 0.50064427 0 1 0 7.5253906 12 L 13.525391 12 A 0.50005 0.50005 0 1 0 13.525391 11 L 7.5253906 11 A 0.50005 0.50005 0 0 0 7.4746094 11 z M 15.474609 11 A 0.50064426 0.50064426 0 1 0 15.525391 12 L 16.525391 12 A 0.50005 0.50005 0 1 0 16.525391 11 L 15.525391 11 A 0.50005 0.50005 0 0 0 15.474609 11 z M 18.474609 11 A 0.50064426 0.50064426 0 1 0 18.525391 12 L 24.517578 12 A 0.50005 0.50005 0 1 0 24.517578 11 L 18.525391 11 A 0.50005 0.50005 0 0 0 18.474609 11 z M 7.4746094 13 A 0.50064427 0.50064427 0 1 0 7.5253906 14 L 15.525391 14 A 0.50005 0.50005 0 1 0 15.525391 13 L 7.5253906 13 A 0.50005 0.50005 0 0 0 7.4746094 13 z M 17.474609 13 A 0.50064426 0.50064426 0 1 0 17.525391 14 L 18.525391 14 A 0.50005 0.50005 0 1 0 18.525391 13 L 17.525391 13 A 0.50005 0.50005 0 0 0 17.474609 13 z M 20.474609 13 A 0.50064426 0.50064426 0 1 0 20.525391 14 L 24.517578 14 A 0.50005 0.50005 0 1 0 24.517578 13 L 20.525391 13 A 0.50005 0.50005 0 0 0 20.474609 13 z M 7.4746094 15 A 0.50064427 0.50064427 0 1 0 7.5253906 16 L 11.525391 16 A 0.50005 0.50005 0 1 0 11.525391 15 L 7.5253906 15 A 0.50005 0.50005 0 0 0 7.4746094 15 z M 13.474609 15 A 0.50064426 0.50064426 0 1 0 13.525391 16 L 14.525391 16 A 0.50005 0.50005 0 1 0 14.525391 15 L 13.525391 15 A 0.50005 0.50005 0 0 0 13.474609 15 z M 16.474609 15 A 0.50064426 0.50064426 0 1 0 16.525391 16 L 21.056641 16 L 24.517578 16 A 0.50005 0.50005 0 0 0 24.517578 15 L 21.091797 15 L 16.525391 15 A 0.50005 0.50005 0 0 0 16.474609 15 z M 6.0410156 23.041016 L 7.4257812 23.041016 L 24.574219 23.041016 L 25.958984 23.041016 L 25.958984 24.794922 L 25.958984 27.070312 L 25.958984 28.207031 C 25.958984 29.232931 25.296463 29.960938 24.574219 29.960938 L 7.4257812 29.960938 C 6.703537 29.960938 6.0410156 29.232931 6.0410156 28.207031 L 6.0410156 27.070312 L 6.0410156 24.794922 L 6.0410156 23.041016 z M 12.519531 24 L 12.519531 24.001953 A 0.50005 0.50005 0 0 0 12.46875 24.001953 A 0.50005 0.50005 0 0 0 12.101562 24.806641 L 13.375 26.507812 L 12.101562 28.207031 A 0.50019595 0.50019595 0 0 0 12.902344 28.806641 L 14 27.341797 L 15.097656 28.806641 A 0.50019595 0.50019595 0 0 0 15.898438 28.207031 L 14.625 26.507812 L 15.898438 24.806641 A 0.50005 0.50005 0 0 0 15.464844 24.001953 A 0.50005 0.50005 0 0 0 15.097656 24.207031 L 14 25.671875 L 12.902344 24.207031 A 0.50005 0.50005 0 0 0 12.519531 24 z M 9.5 24.001953 A 0.50005 0.50005 0 0 0 9.3945312 24.013672 L 8.5078125 24.013672 A 0.50005 0.50005 0 1 0 8.5078125 25.013672 L 9.0078125 25.013672 L 9.0078125 28.503906 A 0.50005 0.50005 0 1 0 10.007812 28.503906 L 10.007812 25.013672 L 10.507812 25.013672 A 0.50005 0.50005 0 1 0 10.507812 24.013672 L 9.6152344 24.013672 A 0.50005 0.50005 0 0 0 9.5 24.001953 z M 18.492188 24.001953 A 0.50005 0.50005 0 0 0 18.386719 24.013672 L 17.492188 24.013672 A 0.50005 0.50005 0 1 0 17.492188 25.013672 L 18 25.013672 L 18 28.503906 A 0.50005 0.50005 0 1 0 19 28.503906 L 19 25.013672 L 19.492188 25.013672 A 0.50005 0.50005 0 1 0 19.492188 24.013672 L 18.607422 24.013672 A 0.50005 0.50005 0 0 0 18.492188 24.001953 z " transform="translate(0,1020.3622)" id="path5197"/>
  </g>

	
	
	<metadata>
		<rdf:RDF xmlns:rdf="http://www.w3.org/1999/02/22-rdf-syntax-ns#" xmlns:rdfs="http://www.w3.org/2000/01/rdf-schema#" xmlns:dc="http://purl.org/dc/elements/1.1/">
			<rdf:Description about="https://iconscout.com/legal#licenses" dc:title="File, Format, Document, Text, Txt, Extension, Notepad" dc:description="File, Format, Document, Text, Txt, Extension, Notepad" dc:publisher="Iconscout" dc:date="2016-12-14" dc:format="image/svg+xml" dc:language="en">
				<dc:creator>
					<rdf:Bag>
						<rdf:li>Mohit Gandhi</rdf:li>
					</rdf:Bag>
				</dc:creator>
			</rdf:Description>
		</rdf:RDF>
    </metadata></svg>
