<svg xmlns="http://www.w3.org/2000/svg" id="Layer_1" width="28" height="28" viewBox="0 0 28 28"><g id="g4141"><circle id="circle3926-2-6-1" cx="14" cy="14" r="14" fill="#ef4c45" fill-rule="evenodd"/><path id="path5" fill="#fff" d="m 20.312,16.3925 0.003,-0.003 c -0.006,-0.007 -0.014,-0.012 -0.02,-0.02 -0.188,-0.244 -0.406,-0.462 -0.65,-0.65 -0.014,-0.011 -0.023,-0.027 -0.037,-0.037 l -0.005,0.005 c -0.189,-0.141 -0.387,-0.27 -0.603,-0.371 l 0,-4.773 c 0,-0.023 -0.01,-0.043 -0.013,-0.065 -0.003,-0.021 -0.007,-0.04 -0.012,-0.061 -0.022,-0.085 -0.058,-0.165 -0.121,-0.228 l -4,-4 c -0.015,-0.014 -0.037,-0.015 -0.053,-0.027 -0.093,-0.089 -0.215,-0.139 -0.343,-0.139 l -4.455,0 C 8.899,6.0235 8,6.9215 8,8.0265 l 0,9.993 c 0,1.104 0.898,2.004 2.003,2.004 l 4.393,0 c 0.095,0.19 0.211,0.366 0.337,0.535 l -0.007,0.007 c 0.016,0.021 0.039,0.035 0.055,0.055 0.182,0.234 0.391,0.444 0.626,0.625 0.01,0.008 0.016,0.019 0.026,0.026 l 0.004,-0.004 c 0.581,0.441 1.298,0.709 2.083,0.709 1.93,0 3.5,-1.57 3.5,-3.5 0,-0.785 -0.268,-1.502 -0.708,-2.084 z M 15,7.7665 c 0.676,0.672 1.595,1.585 2.29,2.277 l -1.301,0 C 15.443,10.0435 15,9.6005 15,9.0555 l 0,-1.289 z m 0.02,10.71 c 0,-1.379 1.121,-2.5 2.5,-2.5 0.509,0 0.982,0.155 1.378,0.417 l -3.461,3.461 c -0.263,-0.396 -0.417,-0.869 -0.417,-1.378 z m 2.5,2.5 c -0.508,0 -0.98,-0.154 -1.375,-0.416 l 3.46,-3.46 c 0.261,0.395 0.416,0.867 0.416,1.375 -0.001,1.38 -1.122,2.501 -2.501,2.501 z"/></g></svg>