<?xml version="1.0" encoding="UTF-8" standalone="no"?>
<svg xmlns:dc="http://purl.org/dc/elements/1.1/" xmlns:cc="http://creativecommons.org/ns#" xmlns:rdf="http://www.w3.org/1999/02/22-rdf-syntax-ns#" xmlns:svg="http://www.w3.org/2000/svg" xmlns="http://www.w3.org/2000/svg" xmlns:sodipodi="http://sodipodi.sourceforge.net/DTD/sodipodi-0.dtd" xmlns:inkscape="http://www.inkscape.org/namespaces/inkscape" version="1.1" id="Layer_1" x="0px" y="0px" viewBox="0 0 32 32" xml:space="preserve" inkscape:version="0.91 r13725" sodipodi:docname="35 file paper document memo important verify accept.svg" width="32" height="32"><defs id="defs13"/><sodipodi:namedview pagecolor="#ffffff" bordercolor="#666666" borderopacity="1" objecttolerance="10" gridtolerance="10" guidetolerance="10" inkscape:pageopacity="0" inkscape:pageshadow="2" inkscape:window-width="1366" inkscape:window-height="705" id="namedview11" showgrid="true" inkscape:snap-bbox="true" inkscape:bbox-paths="true" inkscape:bbox-nodes="true" inkscape:snap-bbox-edge-midpoints="true" inkscape:snap-bbox-midpoints="true" inkscape:zoom="3.6875" inkscape:cx="42.378691" inkscape:cy="5.380564" inkscape:window-x="-8" inkscape:window-y="-8" inkscape:window-maximized="1" inkscape:current-layer="Layer_1"><inkscape:grid type="xygrid" id="grid4145"/></sodipodi:namedview><style type="text/css" id="style3">
	.st0{fill:none;stroke:#231F20;stroke-miterlimit:10;}
	.st1{fill:none;stroke:#231F20;stroke-linecap:round;stroke-linejoin:round;stroke-miterlimit:10;}
	.st2{fill:#231F20;}
</style><path style="fill:#231f20;stroke:none" d="M 16 0 C 7.169366 0 0 7.169366 0 16 C 0 24.830634 7.169366 32 16 32 C 24.830634 32 32 24.830634 32 16 C 32 7.169366 24.830634 0 16 0 z M 16 1 C 24.290194 1 31 7.709806 31 16 C 31 24.290194 24.290194 31 16 31 C 7.709806 31 1 24.290194 1 16 C 1 7.709806 7.709806 1 16 1 z M 12.003906 9 C 10.898906 9 10 9.8989062 10 11.003906 L 10 21.996094 C 10 23.101094 10.898906 24 12.003906 24 L 19.996094 24 C 21.100094 24 22 23.101094 22 21.996094 L 22 13.521484 C 22 13.498484 21.989328 13.477078 21.986328 13.455078 C 21.983328 13.433078 21.979629 13.415531 21.974609 13.394531 C 21.952609 13.310531 21.915519 13.229969 21.853516 13.167969 L 17.853516 9.1679688 C 17.838516 9.1529687 17.818734 9.152625 17.802734 9.140625 C 17.709731 9.051628 17.586031 9 17.457031 9 L 12.003906 9 z M 12.003906 10 L 17 10 L 17 12.03125 C 17 13.12825 17.892281 14.021484 18.988281 14.021484 L 21 14.021484 L 21 21.996094 C 21 22.549094 20.549094 23 19.996094 23 L 12.003906 23 C 11.450906 23 11 22.549094 11 21.996094 L 11 11.003906 C 11 10.450906 11.450906 10 12.003906 10 z M 18 10.744141 C 18.676 11.416141 19.594063 12.329484 20.289062 13.021484 L 18.988281 13.021484 C 18.443281 13.021484 18 12.57725 18 12.03125 L 18 10.744141 z M 19.197266 18.835938 L 17.429688 20.603516 L 16.910156 20.083984 L 16.203125 20.791016 L 17.076172 21.664062 C 17.170172 21.757062 17.296687 21.810547 17.429688 21.810547 C 17.562687 21.810547 17.689203 21.757058 17.783203 21.664062 L 19.904297 19.542969 L 19.197266 18.835938 z " id="path7"/>
	<metadata>
		<rdf:RDF xmlns:rdf="http://www.w3.org/1999/02/22-rdf-syntax-ns#" xmlns:rdfs="http://www.w3.org/2000/01/rdf-schema#" xmlns:dc="http://purl.org/dc/elements/1.1/">
			<rdf:Description about="https://admin.iconscout.com/legal#licenses" dc:title="35 file paper document memo important verify accept" dc:description="35 file paper document memo important verify accept" dc:publisher="Iconscout" dc:date="2017-04-28" dc:format="image/svg+xml" dc:language="en">
				<dc:creator>
					<rdf:Bag>
						<rdf:li>Dalpat Prajapati</rdf:li>
					</rdf:Bag>
				</dc:creator>
			</rdf:Description>
		</rdf:RDF>
    </metadata></svg>
