<?xml version="1.0" encoding="UTF-8"?><!DOCTYPE svg PUBLIC "-//W3C//DTD SVG 1.1//EN" "http://www.w3.org/Graphics/SVG/1.1/DTD/svg11.dtd"><svg xmlns="http://www.w3.org/2000/svg" xmlns:xlink="http://www.w3.org/1999/xlink" version="1.1" id="file-folder-pencil" x="0px" y="0px" viewBox="0 0 1010.0017 926.9296" xml:space="preserve"><path fill="#CCC" d="M77.64 330.755L529.693 113.39 866.244 690.27 404.565 906.39s-40.372 21.527-53.858 0c-19.415-31.045 0 0 0 0L77.64 330.755z"/><path fill="#4D4D4D" d="M370.668 926.93c-16.563 0-25.053-7.997-29.266-14.708-.011-.022-.022-.043-.043-.065l-1.073-1.737c-.332-.535-.653-1.028-.964-1.543l-6.54-10.441.15-.108c-2.272-4.139-2.648-6.004-1.94-8.04L67.724 335.45c-2.594-5.446-.29-11.964 5.157-14.58l452.051-217.363c5.189-2.53 11.364-.579 14.237 4.352L875.72 684.74a10.974 10.974 0 0 1-4.823 15.48l-461.68 216.119c-1.576.857-20.38 10.592-38.55 10.592zM92.242 335.922l268.381 565.772c.14.086 2.155 3.28 10.045 3.28 10.741 0 24.388-5.982 28.752-8.276l451.29-211.274L525.319 127.67 92.241 335.922zM411.33 724.51c-6.068 0-10.978-4.932-10.978-10.978 0-6.067 4.91-10.977 10.978-10.977 6.057 0 10.977 4.91 10.977 10.977 0 6.046-4.92 10.978-10.977 10.978z"/><path fill="#FFF" d="M767.06 107.13l231.965 435.458L565.048 773.63 275.815 230.627 589.94 63.35"/><path fill="#4D4D4D" d="M565.058 784.607c-3.923 0-7.73-2.1-9.7-5.81L266.123 235.794a10.965 10.965 0 0 1-.804-8.36 10.98 10.98 0 0 1 5.339-6.498L584.784 53.659c5.35-2.873 11.996-.836 14.848 4.524 2.851 5.36.814 12.006-4.535 14.858L290.661 235.152l278.91 523.64 414.606-220.729-226.809-425.766c-2.852-5.36-.825-12.006 4.535-14.858 5.339-2.852 12.007-.836 14.848 4.524l231.964 435.457a10.967 10.967 0 0 1 .804 8.362 10.976 10.976 0 0 1-5.339 6.496L570.204 783.321a10.859 10.859 0 0 1-5.146 1.286z"/><path fill="#4D4D4D" d="M413.581 386.972c-3.88 0-7.632-2.058-9.627-5.682-2.926-5.317-.986-12.007 4.331-14.922l164.557-90.437c5.317-2.916 11.996-.965 14.901 4.331 2.927 5.318.986 12.007-4.331 14.923l-164.556 90.436a10.882 10.882 0 0 1-5.275 1.35z"/><path fill="#4D4D4D" d="M444.98 445.847c-3.88 0-7.632-2.058-9.637-5.703-2.916-5.317-.976-11.985 4.342-14.901l164.588-90.35c5.34-2.938 11.996-.965 14.912 4.352 2.916 5.317.976 11.985-4.341 14.901l-164.589 90.35a10.943 10.943 0 0 1-5.274 1.351z"/><path fill="#4D4D4D" d="M478.353 508.497c-3.881 0-7.633-2.059-9.638-5.704-2.916-5.295-.975-11.985 4.342-14.9l164.578-90.351a10.98 10.98 0 0 1 14.912 4.352c2.916 5.296.975 11.985-4.342 14.901l-164.578 90.351a10.946 10.946 0 0 1-5.274 1.35z"/><path fill="#4D4D4D" d="M509.73 567.458c-3.923 0-7.728-2.1-9.7-5.81-2.852-5.36-.827-12.006 4.534-14.859l331.631-176.626c5.328-2.873 11.996-.837 14.848 4.523 2.851 5.36.825 12.007-4.534 14.858L514.877 566.172a10.866 10.866 0 0 1-5.146 1.286z"/><path fill="#4D4D4D" d="M545.033 633.709c-3.924 0-7.73-2.1-9.702-5.81-2.852-5.36-.815-12.006 4.535-14.858l331.62-176.499c5.328-2.851 11.996-.835 14.848 4.524 2.851 5.36.814 12.007-4.534 14.858L550.179 632.423a10.864 10.864 0 0 1-5.146 1.286z"/><path fill="#4D4D4D" d="M576.465 692.628c-3.924 0-7.73-2.1-9.702-5.81-2.851-5.361-.815-12.008 4.535-14.86l331.598-176.54c5.328-2.852 12.007-.815 14.848 4.524 2.852 5.36.815 12.007-4.534 14.858l-331.6 176.542a10.861 10.861 0 0 1-5.145 1.286z"/><path fill="#FFF" d="M762.044 104.429L598.26 58.417l55.594 104.244z"/><path fill="#4D4D4D" d="M653.854 173.639c-1.072 0-2.133-.15-3.173-.472a10.989 10.989 0 0 1-6.518-5.338L588.568 63.584a10.984 10.984 0 0 1 1.137-12.049c2.744-3.43 7.278-4.867 11.523-3.688L765.013 93.86a10.988 10.988 0 0 1 7.944 9.37 10.981 10.981 0 0 1-5.714 10.87l-108.19 58.232a11.064 11.064 0 0 1-5.199 1.308zm-33.811-97.705l38.314 71.848 74.548-40.137-112.862-31.71z"/><g><path fill="#4D4D4D" d="M350.814 269.092c-3.924 0-7.73-2.101-9.702-5.81-2.851-5.36-.826-12.007 4.535-14.859l224.686-119.68c5.339-2.873 12.007-.837 14.848 4.523 2.851 5.36.825 12.007-4.535 14.859L355.96 267.805c-1.64.88-3.41 1.287-5.146 1.287z"/></g><g><path fill="#4D4D4D" d="M380.284 324.366c-3.923 0-7.729-2.102-9.702-5.81-2.851-5.361-.825-12.008 4.534-14.86l224.719-119.68c5.36-2.873 12.007-.836 14.847 4.524 2.852 5.36.826 12.006-4.534 14.858L385.43 323.079a10.868 10.868 0 0 1-5.146 1.287z"/></g><g><path fill="#FF9554" d="M811.335 326.853L696.178 385.6l-68.095-133.103 115.2-58.747z"/><path fill="#4D4D4D" d="M696.188 396.577a11.004 11.004 0 0 1-9.787-5.982l-68.094-133.102a10.998 10.998 0 0 1-.666-8.384 11.01 11.01 0 0 1 5.458-6.389l115.199-58.747c5.392-2.787 11.996-.6 14.761 4.781l68.053 133.103a11.002 11.002 0 0 1 .664 8.383 11.013 11.013 0 0 1-5.456 6.39l-115.157 58.746a10.933 10.933 0 0 1-4.975 1.201zm-53.322-139.3l58.094 113.571 95.602-48.777-58.06-113.57-95.636 48.777z"/></g><g><path fill="#5FD4AF" d="M30.257 276.253L351.961 10.948l336.456 576.964-314.169 259.045c-38.42 34.904-23.541 59.433-23.541 59.433L18.787 341.175s-23.542-38.036 11.47-64.922z"/><path fill="#4D4D4D" d="M350.685 917.346a10.96 10.96 0 0 1-7.171-2.658c-.011-.022-.022-.022-.033-.022 0 0 0-.021-.01-.021 0 0-.01 0-.021-.022h-.011c-.011 0-.011-.021-.022-.021 0 0 .097.021-.032-.022 0-.021-.01-.021-.021-.021l-.011-.022s-.01 0-.022-.021c-.01 0-.021-.022-.032-.022a11.381 11.381 0 0 1-1.983-2.401.86.86 0 0 0-.107-.193L9.32 346.728c-9.82-15.845-19.672-53.13 14.247-79.18L344.972 2.48c2.497-2.037 5.746-2.83 8.919-2.337a10.95 10.95 0 0 1 7.558 5.275L697.904 582.38a10.984 10.984 0 0 1-2.509 14L381.227 855.427c-29.727 27.036-21.525 44.467-20.99 45.517a10.948 10.948 0 0 1 1.426 5.147V906.304c.01 3.173-1.34 6.282-3.827 8.405-.011 0-.022.021-.022.021h-.01c-.01 0-.01.022-.021.022.01 0-.022.043-.022.021h-.01c-.011.022-.011.022-.022.022-.01.021-.01.021-.022.021 0 0 .033.02-.021.02-.01 0-.01 0-.022.022h-.01s-.011 0-.022.022c-.01 0-.021.021-.021.021-.011 0-.022.022-.033.022-.246.193-.504.385-.782.579h-.021c0 .021-.011.021-.011.021h-.022l-.01.022h-.022c-.01.021-.021.021-.021.021h-.011c-.01.022-.01.022-.021.022h-.011c-.01 0-.01.021-.01.021h-.033c-.01.022-.01.022-.022.022-.086.064-.171.107-.257.17a11.014 11.014 0 0 1-5.639 1.545zm-1.704-889.717L37.246 284.722c-26.392 20.282-10.945 47.662-9.1 50.728L342.29 870.39c4.407-9.476 12.007-20.131 24.571-31.559l307.371-253.448L348.981 27.629z"/></g><g><path fill="#FFF" d="M254.59 483.54s4.148-98.841-11.493-103.601c-15.64-4.803-65.93 79.974-65.93 79.974l24.357 56.26 53.065-32.633z"/><path fill="#4D4D4D" d="M201.524 527.15c-1.104 0-2.219-.171-3.302-.514a10.91 10.91 0 0 1-6.775-6.11l-24.357-56.26a10.985 10.985 0 0 1 .633-9.95c33.672-56.774 58.575-85.547 74.002-85.547 1.093 0 3.548.364 4.598.685 6.476 1.952 23.735 7.226 19.233 114.536a10.956 10.956 0 0 1-5.22 8.898L207.27 525.52a10.998 10.998 0 0 1-5.746 1.63zm-12.04-66.423l17.078 39.45 37.275-22.92c1.072-33.511-.504-70.946-4.653-84.325-10.741 8.898-32.418 39.28-49.7 67.795z"/><g><path fill="#FF9554" d="M177.167 459.913l77.422 23.627L152.768 817.11l-77.421-23.627z"/><path fill="#4D4D4D" d="M152.768 828.089c-1.061 0-2.133-.15-3.205-.472L72.14 803.99a11.069 11.069 0 0 1-6.485-5.339 10.93 10.93 0 0 1-.805-8.362l101.821-333.572a10.947 10.947 0 0 1 13.7-7.31l77.422 23.627a11.07 11.07 0 0 1 6.486 5.339 10.928 10.928 0 0 1 .804 8.36L163.263 820.308c-1.436 4.738-5.789 7.782-10.495 7.782zm-63.72-41.895l56.43 17.217 95.41-312.581-56.43-17.217-95.41 312.581z"/></g></g><metadata><rdf:RDF xmlns:rdf="http://www.w3.org/1999/02/22-rdf-syntax-ns#" xmlns:rdfs="http://www.w3.org/2000/01/rdf-schema#" xmlns:dc="http://purl.org/dc/elements/1.1/"><rdf:Description about="https://iconscout.com/legal#licenses" dc:title="file,folder,pencil" dc:description="file,folder,pencil" dc:publisher="Iconscout" dc:date="2017-09-21" dc:format="image/svg+xml" dc:language="en"><dc:creator><rdf:Bag><rdf:li>Vecteezy</rdf:li></rdf:Bag></dc:creator></rdf:Description></rdf:RDF></metadata></svg>