<svg xmlns="http://www.w3.org/2000/svg" width="25" height="25" viewBox="0 0 25 25"><g transform="translate(0 -1027.362)"><circle cx="12.5" cy="1039.862" r="12.5" fill="#ef4c45" fill-rule="evenodd"/><path fill="#df2209" fill-rule="evenodd" style="line-height:normal;text-indent:0;text-align:start;text-decoration-line:none;text-decoration-style:solid;text-decoration-color:#000;text-transform:none;block-progression:tb;isolation:auto;mix-blend-mode:normal" d="M 10.880859 24.880859 A 12.5 12.5 0 0 0 11.251953 24.9375 A 12.5 12.5 0 0 0 12.5 25 A 12.5 12.5 0 0 0 13.384766 24.96875 A 12.5 12.5 0 0 0 14.625 24.818359 A 12.5 12.5 0 0 0 15.84375 24.544922 A 12.5 12.5 0 0 0 17.029297 24.150391 A 12.5 12.5 0 0 0 18.169922 23.640625 A 12.5 12.5 0 0 0 19.253906 23.017578 A 12.5 12.5 0 0 0 20.269531 22.291016 A 12.5 12.5 0 0 0 21.208984 21.466797 A 12.5 12.5 0 0 0 22.060547 20.552734 A 12.5 12.5 0 0 0 22.816406 19.558594 A 12.5 12.5 0 0 0 23.470703 18.492188 A 12.5 12.5 0 0 0 24.013672 17.367188 A 12.5 12.5 0 0 0 24.441406 16.193359 A 12.5 12.5 0 0 0 24.740234 15.017578 L 18.541016 8.8183594 L 14.707031 5 L 7 5 L 7 5.5 L 7 21 L 10.880859 24.880859 z " color="#000" font-family="sans-serif" font-weight="400" transform="translate(0 1027.362)" white-space="normal"/><path fill="#fff" fill-rule="evenodd" style="line-height:normal;text-indent:0;text-align:start;text-decoration-line:none;text-decoration-style:solid;text-decoration-color:#000;text-transform:none;block-progression:tb;isolation:auto;mix-blend-mode:normal" d="m 2,0 0,0.5 0,15.5 11.541016,0 0,-12.1816406 L 9.7070312,0 2,0 Z m 0.9980469,0.99804688 6.296875,0 3.2480471,3.23632812 0,10.769531 -9.5449221,0 0,-14.00585912 z" color="#000" font-family="sans-serif" font-weight="400" overflow="visible" transform="translate(5 1032.362)" white-space="normal"/></g></svg>