<svg xmlns="http://www.w3.org/2000/svg" id="Layer_1" width="28" height="28" viewBox="0 0 28 28"><g id="g4141"><circle id="circle3918-0-8-6" cx="14" cy="14" r="14" fill="#1d67b1"/><path id="path5" fill="#fff" d="M 19.987,11.456 C 19.984,11.435 19.98,11.416 19.975,11.395 19.953,11.31 19.917,11.23 19.854,11.167 l -4,-4 C 15.841,7.155 15.822,7.155 15.808,7.144 15.714,7.052 15.589,7 15.458,7 L 10.003,7 C 8.898,7 8,7.899 8,9.004 L 8,19.997 C 8,21.102 8.898,22 10.003,22 l 7.994,0 C 19.101,22 20,21.102 20,19.997 l 0,-8.476 c 0,-0.022 -0.01,-0.043 -0.013,-0.065 z M 16,8.744 c 0.676,0.672 1.595,1.586 2.29,2.278 l -1.302,0 C 16.443,11.021 16,10.578 16,10.032 l 0,-1.288 z m -0.686,8.858 0.656,0.676 0,-2.088 1,0 0,2.066 0.614,-0.649 0.727,0.688 -1.477,1.561 c -0.094,0.1 -0.184,0.169 -0.363,0.156 -0.135,0 -0.265,-0.055 -0.358,-0.151 L 14.597,18.3 15.314,17.602 Z"/></g></svg>