<?xml version="1.0" encoding="UTF-8" standalone="no"?><svg xmlns="http://www.w3.org/2000/svg" xmlns:xlink="http://www.w3.org/1999/xlink" width="22px" height="22px" viewBox="0 0 22 22" version="1.1"><title>file_plus [#1703]</title><g id="Page-1" stroke="none" stroke-width="1" fill="none" fill-rule="evenodd"><g id="Dribbble-Light-Preview" transform="translate(-378.000000, -1479.000000)" fill="#000"><g id="icons" transform="translate(56.000000, 160.000000)"><path d="M330 1337.962c0-.005.003-.009.003-.013 0-.005-.003-.008-.003-.013v.026zm13.706-13.228l-5.413-5.392c-.188-.186-.441-.342-.706-.342H325.976c-1.091 0-1.976.933-1.976 2.018v11.024c0 .55.448.996 1 .996s1-.445 1-.996v-9.953c0-.549.448-1.098 1-1.098h9v4.084c0 1.1.895 1.887 2 1.887h4v9.062c0 .55-.448.891-1 .891h-10c-.548 0-.99.49-.997 1.034.007.543.449.957.997.957h11v.052c1.105 0 2-.84 2-1.94V1325.466c0-.264-.106-.544-.294-.731zM327 1336.915h-1v-.891a.998.998 0 0 0-1-.996c-.552 0-1 .446-1 .996v.891h-1c-.548 0-.99.49-.997 1.034.007.543.449.957.997.957h1v1.099c0 .55.448.995 1 .995s1-.445 1-.995v-1.1h1c.552 0 1-.393 1-.943v-.026c0-.549-.448-1.02-1-1.02zm-5 1.021c0 .005.003.008.003.013 0 .004-.003.008-.003.013v-.026z" id="file_plus-[#1703]"/></g></g></g><metadata><rdf:RDF xmlns:rdf="http://www.w3.org/1999/02/22-rdf-syntax-ns#" xmlns:rdfs="http://www.w3.org/2000/01/rdf-schema#" xmlns:dc="http://purl.org/dc/elements/1.1/"><rdf:Description about="https://iconscout.com/legal#licenses" dc:title="file,plus" dc:description="file,plus" dc:publisher="Iconscout" dc:date="2017-09-15" dc:format="image/svg+xml" dc:language="en"><dc:creator><rdf:Bag><rdf:li>Alexandru Stoica</rdf:li></rdf:Bag></dc:creator></rdf:Description></rdf:RDF></metadata></svg>