<?xml version="1.0" encoding="UTF-8" standalone="no"?>
<svg xmlns:dc="http://purl.org/dc/elements/1.1/" xmlns:cc="http://creativecommons.org/ns#" xmlns:rdf="http://www.w3.org/1999/02/22-rdf-syntax-ns#" xmlns:svg="http://www.w3.org/2000/svg" xmlns="http://www.w3.org/2000/svg" xmlns:sodipodi="http://sodipodi.sourceforge.net/DTD/sodipodi-0.dtd" xmlns:inkscape="http://www.inkscape.org/namespaces/inkscape" version="1.1" id="Layer_1" x="0px" y="0px" viewBox="0 0 16 16" style="enable-background:new 0 0 16 16;" xml:space="preserve" inkscape:version="0.91 r13725" sodipodi:docname="!6x16 Medium Line-40.svg"><defs id="defs13"/><sodipodi:namedview pagecolor="#ffffff" bordercolor="#666666" borderopacity="1" objecttolerance="10" gridtolerance="10" guidetolerance="10" inkscape:pageopacity="0" inkscape:pageshadow="2" inkscape:window-width="1366" inkscape:window-height="705" id="namedview11" showgrid="true" inkscape:zoom="83.4386" inkscape:cx="7.847487" inkscape:cy="3.0127155" inkscape:window-x="-8" inkscape:window-y="-8" inkscape:window-maximized="1" inkscape:current-layer="Layer_1"><inkscape:grid type="xygrid" id="grid4145"/></sodipodi:namedview><style type="text/css" id="style3">
	.st0{fill:none;stroke:#231F20;stroke-miterlimit:10;}
	.st1{fill:none;stroke:#231F20;stroke-linecap:round;stroke-linejoin:round;stroke-miterlimit:10;}
	.st2{fill:#231F20;}
</style><path style="fill:#231f20;stroke:none" d="m 3.9941406,0.0234375 c -1.104,0 -2.0039062,0.89695312 -2.0039062,2.0019531 l 0,9.9960934 c 0,1.104 0.8989062,2.001954 2.0039062,2.001954 l 4.3925782,0 c 0.5739999,1.151999 1.7520472,1.953124 3.1230472,1.953124 1.93,0 3.5,-1.57 3.5,-3.5 0,-1.397999 -0.830532,-2.5982026 -2.019532,-3.1582026 l 0,-4.7734375 c 0,-0.022 -0.01067,-0.042453 -0.01367,-0.064453 -0.003,-0.022 -0.0067,-0.0405 -0.01172,-0.0625 -0.023,-0.084 -0.05909,-0.1655157 -0.121094,-0.2285157 l -4,-3.99999998 c -0.014,-0.013 -0.033828,-0.0133906 -0.048828,-0.0253906 -0.093,-0.089 -0.2167032,-0.140625 -0.3457031,-0.140625 z m 0,1 3.9960938,0 0,2.03125 c 0,1.097 0.8922812,1.9902344 1.9882812,1.9902344 l 2.0117184,0 0,3.9804687 c -0.159,-0.022 -0.316468,-0.048828 -0.480468,-0.048828 -1.9300004,0 -3.5000004,1.5700005 -3.5000004,3.4999995 0,0.187 0.026687,0.366876 0.054687,0.546876 l -4.0703125,0 c -0.553,0 -1.0039062,-0.450907 -1.0039062,-1.003907 l 0,-9.9941404 c 0,-0.553 0.4509062,-1.0019531 1.0039062,-1.0019531 z m 4.9960938,0.7441406 c 0.676,0.672 1.5960156,1.5853438 2.2910156,2.2773438 l -1.3027344,0 c -0.545,0 -0.9882812,-0.4442344 -0.9882812,-0.9902344 z m 2.5195316,8.2089844 c 1.378,0 2.5,1.1210005 2.5,2.4999995 0,1.379 -1.122,2.500001 -2.5,2.5 -1.378,0 -2.5000004,-1.121 -2.5000004,-2.5 0,-1.378999 1.1220004,-2.4999995 2.5000004,-2.4999995 z M 10.003906,12 l 0,1 2.992188,0 0,-1 z" id="rect7" inkscape:connector-curvature="0" sodipodi:nodetypes="sssscsscscccccssscssccsscssssccsscsssssccccc"/>
	<metadata>
		<rdf:RDF xmlns:rdf="http://www.w3.org/1999/02/22-rdf-syntax-ns#" xmlns:rdfs="http://www.w3.org/2000/01/rdf-schema#" xmlns:dc="http://purl.org/dc/elements/1.1/">
			<rdf:Description about="https://admin.iconscout.com/legal#licenses" dc:title="40 file paper document memo important remove minus" dc:description="40 file paper document memo important remove minus" dc:publisher="Iconscout" dc:date="2017-04-23" dc:format="image/svg+xml" dc:language="en">
				<dc:creator>
					<rdf:Bag>
						<rdf:li>Dalpat Prajapati</rdf:li>
					</rdf:Bag>
				</dc:creator>
			</rdf:Description>
		</rdf:RDF>
    </metadata></svg>
