<svg xmlns="http://www.w3.org/2000/svg" xmlns:xlink="http://www.w3.org/1999/xlink" id="Layer_1" width="28" height="28" viewBox="0 0 28 28"><defs id="defs13"><linearGradient id="linearGradient3466" x1="1073.403" x2="1097.116" y1="516.451" y2="544.308" gradientTransform="translate(-958.925 -462.595) scale(.89708)" gradientUnits="userSpaceOnUse" xlink:href="#linearGradient3932"/><linearGradient id="linearGradient3932"><stop id="stop3934" offset="0" stop-color="#16ff6a"/><stop id="stop3936" offset="1" stop-color="#0090a5"/></linearGradient></defs><g id="g4153"><rect id="rect3370" width="28" height="28" fill="url(#linearGradient3466)" rx="5.917" ry="5.917"/><path id="path7" fill="#fff" d="M 9.753906,6.5 C 8.7869062,6.5 8,7.286906 8,8.253906 L 8,19.246094 C 8,20.213094 8.7869062,21 9.753906,21 l 7.992188,0 C 18.713094,21 19.5,20.213094 19.5,19.246094 l 0,-8.47461 c 0,-0.007 -0.0068,-0.01253 -0.0078,-0.01953 -0.005,-0.059 -0.02145,-0.115203 -0.06445,-0.158203 l -4,-4 c -0.042,-0.042 -0.09634,-0.06041 -0.152343,-0.06641 C 15.252391,6.520344 15.232031,6.5 15.207031,6.5 l -5.453125,0 z m 0,0.5 L 15,7 15,9.28125 c 0,0.959 0.780281,1.740234 1.738281,1.740234 l 2.261719,0 0,8.22461 C 19,19.937094 18.436094,20.5 17.746094,20.5 l -7.992188,0 c -0.69,0 -1.2539061,-0.562906 -1.2539061,-1.253906 l 0,-10.992188 C 8.5,7.562906 9.063906,7 9.753906,7 Z m 5.748047,0.394531 c 0.77148,0.766478 2.313049,2.299469 3.144531,3.126953 l -1.908203,0 c -0.683,0 -1.236328,-0.557234 -1.236328,-1.240234 l 0,-1.886719 z m 1.621094,8.867188 -1.943359,1.943359 -0.695313,-0.695312 -0.353516,0.353515 0.871094,0.873047 c 0.048,0.046 0.110735,0.07422 0.177735,0.07422 0.066,0 0.130734,-0.02722 0.177734,-0.07422 l 2.121094,-2.121094 -0.355469,-0.353515 z"/></g></svg>