<svg xmlns="http://www.w3.org/2000/svg" xmlns:xlink="http://www.w3.org/1999/xlink" width="28" height="28" viewBox="0 0 28 28"><defs><linearGradient id="b" x1="949.87" x2="974.39" y1="518.014" y2="544.657" gradientTransform="translate(-848.372 -462.595) scale(.89708)" gradientUnits="userSpaceOnUse" xlink:href="#a"/><linearGradient id="a"><stop offset="0" stop-color="#24f7bc"/><stop offset="1" stop-color="#24c4fc"/></linearGradient></defs><rect width="28" height="28" fill="url(#b)" rx="5.917" ry="5.917"/><path fill="#fff" d="M 10.001953,7.023438 C 9.4489531,7.023438 9,7.472391 9,8.025391 l 0,9.99414 c 0,0.553 0.4489531,1.003907 1.001953,1.003907 l 4.072266,0 c -0.028,-0.179001 -0.05469,-0.359876 -0.05469,-0.546876 10e-4,-1.929 1.57,-3.5 3.500001,-3.5 0.165,0 0.321468,0.02583 0.480467,0.04883 l 0,-3.980468 -2.011718,0 c -1.097,0 -1.988281,-0.892281 -1.988281,-1.988281 l 0,-2.033204 -3.998047,0 z M 15,7.767578 15,9.056641 c 0,0.545 0.443281,0.988281 0.988281,0.988281 l 1.300782,0 C 16.594063,9.352922 15.676,8.439578 15,7.767578 Z m 2.519532,8.208984 c -1.378001,0 -2.500001,1.121001 -2.500001,2.5 0,1.379 1.122,2.500001 2.500001,2.5 1.378,0 2.5,-1.121 2.5,-2.5 0,-1.378999 -1.122,-2.5 -2.5,-2.5 z m -0.02539,0.78711 1.863281,1.75 -0.685547,0.728516 -0.673828,-0.63086 0,1.384766 -1,0 0,-1.363282 -0.628906,0.605469 -0.69336,-0.720703 1.81836,-1.753906 z"/></svg>