<svg xmlns="http://www.w3.org/2000/svg" xmlns:xlink="http://www.w3.org/1999/xlink" id="Layer_1" width="28" height="28" viewBox="0 0 28 28"><defs id="defs13"><linearGradient id="linearGradient3464-0" x1="1056.035" x2="1031.176" y1="544.13" y2="517.701" gradientTransform="translate(-922.68 -462.595) scale(.89708)" gradientUnits="userSpaceOnUse" xlink:href="#linearGradient3916"/><linearGradient id="linearGradient3916"><stop id="stop3918" offset="0" stop-color="#5a5a5a"/><stop id="stop3920" offset="1" stop-color="#656e85"/></linearGradient></defs><g id="g4153"><rect id="rect3368-2" width="28" height="28" fill="url(#linearGradient3464-0)" rx="5.917" ry="5.917"/><path id="path7" fill="#fff" d="M 9.753906,6.5 C 8.7869062,6.5 8,7.286906 8,8.253906 L 8,19.246094 C 8,20.213094 8.7869062,21 9.753906,21 l 7.992188,0 C 18.713094,21 19.5,20.213094 19.5,19.246094 l 0,-8.47461 c 0,-0.007 -0.0068,-0.01253 -0.0078,-0.01953 -0.005,-0.059 -0.02145,-0.115203 -0.06445,-0.158203 l -4,-4 c -0.042,-0.042 -0.09634,-0.06041 -0.152343,-0.06641 -0.02302,-0.007 -0.04338,-0.02734 -0.06838,-0.02734 l -5.453125,0 z m 0,0.5 L 15,7 15,9.28125 c 0,0.959 0.780281,1.740234 1.738281,1.740234 l 2.261719,0 0,8.22461 C 19,19.937094 18.436094,20.5 17.746094,20.5 l -7.992188,0 C 9.0629062,20.5 8.5,19.937094 8.5,19.246094 L 8.5,8.253906 C 8.5,7.562906 9.0629062,7 9.753906,7 Z m 5.748047,0.394531 c 0.77148,0.766478 2.313049,2.299469 3.144531,3.126953 l -1.908203,0 c -0.683,0 -1.236328,-0.557234 -1.236328,-1.240234 l 0,-1.886719 z m 0.488281,8.878907 0,1.25 -1.25,0 0,0.5 1.25,0 0,1.25 0.5,0 0,-1.25 1.25,0 0,-0.5 -1.25,0 0,-1.25 -0.5,0 z"/></g></svg>