<?xml version="1.0" encoding="UTF-8" standalone="no"?><svg xmlns="http://www.w3.org/2000/svg" xmlns:xlink="http://www.w3.org/1999/xlink" width="20px" height="20px" viewBox="0 0 20 20" version="1.1"><title>file_css [#1742]</title><g id="Page-1" stroke="none" stroke-width="1" fill="none" fill-rule="evenodd"><g id="Dribbble-Light-Preview" transform="translate(-420.000000, -1319.000000)" fill="#000"><g id="icons" transform="translate(56.000000, 160.000000)"><path d="M380 1171c-1.105 0-2 1-2 2.105v1c0 1.104.895 1.896 2 1.896h1.5a.5.5 0 0 1 0 1H378v2h4.021c1.093 0 1.979-.782 1.979-1.875v-1.042c0-1.092-.886-2.083-1.979-2.083H380.5a.5.5 0 0 1 0-1h3.5v-2h-4zm-7 0c-1.105 0-2 1-2 2.105v1c0 1.104.895 1.896 2 1.896h1.5a.5.5 0 0 1 0 1H371v2h4.021c1.093 0 1.979-.782 1.979-1.875v-1.042c0-1.092-.886-2.083-1.979-2.083H373.5a.5.5 0 0 1 0-1h3.5v-2h-4zm-9 4a4 4 0 0 0 4 4h2v-2h-2a2 2 0 1 1 0-4h2v-2h-2a4 4 0 0 0-4 4zm20-9.562v3.563h-2v-2h-6v-6h-10v8h-2v-10h13.979l6.021 6.438z" id="file_css-[#1742]"/></g></g></g><metadata><rdf:RDF xmlns:rdf="http://www.w3.org/1999/02/22-rdf-syntax-ns#" xmlns:rdfs="http://www.w3.org/2000/01/rdf-schema#" xmlns:dc="http://purl.org/dc/elements/1.1/"><rdf:Description about="https://iconscout.com/legal#licenses" dc:title="file,css" dc:description="file,css" dc:publisher="Iconscout" dc:date="2017-09-15" dc:format="image/svg+xml" dc:language="en"><dc:creator><rdf:Bag><rdf:li>Alexandru Stoica</rdf:li></rdf:Bag></dc:creator></rdf:Description></rdf:RDF></metadata></svg>