<svg xmlns="http://www.w3.org/2000/svg" xmlns:xlink="http://www.w3.org/1999/xlink" width="64" height="64"><defs><linearGradient id="b" x1="868.253" x2="937.656" y1="521.354" y2="588.736" gradientTransform="translate(-1325.468 213.843) scale(1.53785)" gradientUnits="userSpaceOnUse" xlink:href="#a"/><linearGradient id="a"><stop offset="0" stop-color="#24f3d2"/><stop offset=".394" stop-color="#0674f0"/><stop offset=".507" stop-color="#6961b5"/><stop offset=".813" stop-color="#f34660"/><stop offset="1" stop-color="#ee078d"/></linearGradient></defs><g transform="translate(-1.5 -1006.862)"><rect width="48" height="48" x="1.5" y="1006.862" fill="url(#b)" rx="10.144" ry="10.144"/><path style="line-height:normal;text-indent:0;text-align:start;text-decoration-line:none;text-decoration-style:solid;text-decoration-color:#000;text-transform:none;block-progression:tb;isolation:auto;mix-blend-mode:normal" fill="#fff" d="m 20.522786,1019.37 a 0.50005,0.50005 0 0 0 -0.5,0.5 l 0,1.5195 -2.976562,0 -3.025391,-0.039 a 0.50005,0.50005 0 0 0 -0.505859,0.5 l 0,1.9707 0.01563,14.4883 -0.01563,0.061 a 0.4415093,0.56635276 52.061236 0 0 0.01563,0.2715 l 0,0.021 0.0098,0 a 0.4415093,0.56635276 52.061236 0 0 0.357417,0.1992 l 20.570312,0 a 0.4415093,0.56635276 52.061236 0 0 0.632813,-0.4922 l 3.044922,-12.1074 a 0.4415093,0.56635276 52.061236 0 0 -0.382813,-0.4922 l -2.71875,0 0,-1.9492 a 0.50005,0.50005 0 0 0 -0.5,-0.5 l -1.521484,0 0,-0.3125 a 0.50005,0.50005 0 0 0 -0.130859,-0.4766 l -3.015625,-3.0156 a 0.50005,0.50005 0 0 0 -0.306641,-0.1465 l -9.046875,0 z m 0.5,1 8,0 0,2.5156 a 0.50005,0.50005 0 0 0 0.5,0.5 l 2.5,0 0,2.3848 -11,0 0,-5.4004 z m 9,0.707 1.308594,1.3086 -1.308594,0 0,-1.3086 z m -8,0.293 0,1 5,0 0,-1 -5,0 z m -7.507812,0.9863 2.523437,0.033 a 0.50005,0.50005 0 0 0 0.0059,0 l 2.978516,0 0,3.3809 -2.830078,0 a 0.4415093,0.56635276 52.061236 0 0 -0.632813,0.4922 l -2.033203,8.0879 -0.01172,-10.5293 0,-1.4649 z m 7.507812,1.0137 0,1 6,0 0,-1 -6,0 z m 11,0.9512 1.021484,0 0,1.4492 -1.021484,0 0,-1.4492 z m -15.570312,2.4336 19.554687,0 -2.798828,11.123 -19.554687,0 2.798828,-11.123 z" color="#000" font-family="sans-serif" font-weight="400" overflow="visible" white-space="normal"/></g></svg>