<?xml version="1.0" encoding="UTF-8" standalone="no"?>
<svg xmlns:dc="http://purl.org/dc/elements/1.1/" xmlns:cc="http://creativecommons.org/ns#" xmlns:rdf="http://www.w3.org/1999/02/22-rdf-syntax-ns#" xmlns:svg="http://www.w3.org/2000/svg" xmlns="http://www.w3.org/2000/svg" xmlns:sodipodi="http://sodipodi.sourceforge.net/DTD/sodipodi-0.dtd" xmlns:inkscape="http://www.inkscape.org/namespaces/inkscape" width="32px" height="32px" viewBox="0 0 32 32.000001" id="svg2" version="1.1" inkscape:version="0.91 r13725" sodipodi:docname="10 file format document jpg extension word.svg">
  <defs id="defs4"/>
  <sodipodi:namedview id="base" pagecolor="#ffffff" bordercolor="#666666" borderopacity="1.0" inkscape:pageopacity="0.0" inkscape:pageshadow="2" inkscape:zoom="16.000001" inkscape:cx="10.665331" inkscape:cy="12.611865" inkscape:document-units="px" inkscape:current-layer="layer1" showgrid="true" units="px" inkscape:snap-bbox="true" inkscape:bbox-paths="true" inkscape:bbox-nodes="true" inkscape:snap-bbox-edge-midpoints="true" inkscape:snap-bbox-midpoints="true" inkscape:window-width="1366" inkscape:window-height="715" inkscape:window-x="-8" inkscape:window-y="-8" inkscape:window-maximized="1">
    <inkscape:grid type="xygrid" id="grid3336"/>
  </sodipodi:namedview>
  
  <g inkscape:label="Layer 1" inkscape:groupmode="layer" id="layer1" transform="translate(0,-1020.3622)">
    <path style="color:#000000;font-style:normal;font-variant:normal;font-weight:normal;font-stretch:normal;font-size:medium;line-height:normal;font-family:sans-serif;text-indent:0;text-align:start;text-decoration:none;text-decoration-line:none;text-decoration-style:solid;text-decoration-color:#000000;letter-spacing:normal;word-spacing:normal;text-transform:none;direction:ltr;block-progression:tb;writing-mode:lr-tb;baseline-shift:baseline;text-anchor:start;white-space:normal;clip-rule:nonzero;display:inline;overflow:visible;visibility:visible;opacity:1;isolation:auto;mix-blend-mode:normal;color-interpolation:sRGB;color-interpolation-filters:linearRGB;solid-color:#000000;solid-opacity:1;fill:#000000;fill-opacity:1;fill-rule:evenodd;stroke:none;stroke-width:0.99999994;stroke-linecap:round;stroke-linejoin:round;stroke-miterlimit:4;stroke-dasharray:none;stroke-dashoffset:0;stroke-opacity:1;color-rendering:auto;image-rendering:auto;shape-rendering:auto;text-rendering:auto;enable-background:accumulate" d="M 20.488281 0.99804688 A 0.50005 0.50005 0 0 0 20.414062 1.0039062 L 6.9960938 1.0039062 C 5.8967491 1.0039062 4.9960936 1.9046063 4.9960938 3.0039062 L 4.9960938 29.003906 C 4.9960938 30.103306 5.8967491 31.003906 6.9960938 31.003906 L 24.996094 31.003906 C 26.095438 31.003906 26.996094 30.103306 26.996094 29.003906 L 26.996094 28.251953 C 26.99631 28.236709 27 28.222318 27 28.207031 L 27 27.070312 L 27 24.794922 L 27 22.521484 A 0.52044797 0.52044797 0 0 0 26.996094 22.457031 L 26.996094 7.5820312 A 0.50005 0.50005 0 0 0 26.800781 7.1015625 L 20.894531 1.1953125 A 0.50005 0.50005 0 0 0 20.488281 0.99804688 z M 6.9960938 2.0039062 L 19.996094 2.0039062 L 19.996094 6.0039062 C 19.996094 7.1032063 20.896709 8.0039062 21.996094 8.0039062 L 25.996094 8.0039062 L 25.996094 22 L 24.574219 22 L 7.4257812 22 L 5.9960938 22 L 5.9960938 3.0039062 C 5.9960938 2.4413063 6.4334583 2.0039062 6.9960938 2.0039062 z M 20.996094 2.7109375 L 25.289062 7.0039062 L 21.996094 7.0039062 C 21.433498 7.0039062 20.996094 6.5665062 20.996094 6.0039062 L 20.996094 2.7109375 z M 7.4570312 4 A 0.50064427 0.50064427 0 0 0 7.5078125 5 L 12.5 5 A 0.50005 0.50005 0 1 0 12.5 4 L 7.5078125 4 A 0.50005 0.50005 0 0 0 7.4570312 4 z M 7.4570312 6 A 0.50064427 0.50064427 0 0 0 7.5078125 7 L 16.507812 7 A 0.50005 0.50005 0 1 0 16.507812 6 L 7.5078125 6 A 0.50005 0.50005 0 0 0 7.4570312 6 z M 7.4570312 9 A 0.50064427 0.50064427 0 0 0 7.5078125 10 L 11.507812 10 A 0.50005 0.50005 0 1 0 11.507812 9 L 7.5078125 9 A 0.50005 0.50005 0 0 0 7.4570312 9 z M 13.457031 9 A 0.50064426 0.50064426 0 0 0 13.507812 10 L 14.507812 10 A 0.50005 0.50005 0 1 0 14.507812 9 L 13.507812 9 A 0.50005 0.50005 0 0 0 13.457031 9 z M 16.457031 9 A 0.50064426 0.50064426 0 0 0 16.507812 10 L 24.5 10 A 0.50005 0.50005 0 1 0 24.5 9 L 16.507812 9 A 0.50005 0.50005 0 0 0 16.457031 9 z M 7.4570312 11 A 0.50064427 0.50064427 0 0 0 7.5078125 12 L 13.507812 12 A 0.50005 0.50005 0 1 0 13.507812 11 L 7.5078125 11 A 0.50005 0.50005 0 0 0 7.4570312 11 z M 15.457031 11 A 0.50064426 0.50064426 0 0 0 15.507812 12 L 16.507812 12 A 0.50005 0.50005 0 1 0 16.507812 11 L 15.507812 11 A 0.50005 0.50005 0 0 0 15.457031 11 z M 18.457031 11 A 0.50064426 0.50064426 0 0 0 18.507812 12 L 24.5 12 A 0.50005 0.50005 0 1 0 24.5 11 L 18.507812 11 A 0.50005 0.50005 0 0 0 18.457031 11 z M 7.4570312 13 A 0.50064427 0.50064427 0 0 0 7.5078125 14 L 15.507812 14 A 0.50005 0.50005 0 1 0 15.507812 13 L 7.5078125 13 A 0.50005 0.50005 0 0 0 7.4570312 13 z M 17.457031 13 A 0.50064426 0.50064426 0 0 0 17.507812 14 L 18.507812 14 A 0.50005 0.50005 0 1 0 18.507812 13 L 17.507812 13 A 0.50005 0.50005 0 0 0 17.457031 13 z M 20.457031 13 A 0.50064426 0.50064426 0 0 0 20.507812 14 L 24.5 14 A 0.50005 0.50005 0 1 0 24.5 13 L 20.507812 13 A 0.50005 0.50005 0 0 0 20.457031 13 z M 7.4570312 15 A 0.50064427 0.50064427 0 0 0 7.5078125 16 L 11.507812 16 A 0.50005 0.50005 0 1 0 11.507812 15 L 7.5078125 15 A 0.50005 0.50005 0 0 0 7.4570312 15 z M 13.457031 15 A 0.50064426 0.50064426 0 0 0 13.507812 16 L 14.507812 16 A 0.50005 0.50005 0 1 0 14.507812 15 L 13.507812 15 A 0.50005 0.50005 0 0 0 13.457031 15 z M 16.457031 15 A 0.50064426 0.50064426 0 0 0 16.507812 16 L 21.039062 16 L 24.5 16 A 0.50005 0.50005 0 0 0 24.5 15 L 21.074219 15 L 16.507812 15 A 0.50005 0.50005 0 0 0 16.457031 15 z M 6.0410156 23.041016 L 7.4257812 23.041016 L 24.574219 23.041016 L 25.958984 23.041016 L 25.958984 24.794922 L 25.958984 27.070312 L 25.958984 28.207031 C 25.958984 29.232931 25.296463 29.960938 24.574219 29.960938 L 7.4257812 29.960938 C 6.703537 29.960938 6.0410156 29.232931 6.0410156 28.207031 L 6.0410156 27.070312 L 6.0410156 24.794922 L 6.0410156 23.041016 z M 8.4921875 23.986328 A 0.50005 0.50005 0 0 0 8 24.494141 L 8 28.494141 A 0.50005 0.50005 0 0 0 8 28.5 A 0.50005 0.50005 0 0 0 8.0019531 28.519531 A 0.50005 0.50005 0 0 0 8.0019531 28.544922 A 0.50005 0.50005 0 0 0 8.0039062 28.556641 A 0.50005 0.50005 0 0 0 8.0117188 28.607422 A 0.50005 0.50005 0 0 0 8.0429688 28.701172 A 0.50005 0.50005 0 0 0 8.0664062 28.746094 A 0.50005 0.50005 0 0 0 8.0898438 28.785156 A 0.50005 0.50005 0 0 0 8.0976562 28.794922 A 0.50005 0.50005 0 0 0 8.1230469 28.828125 A 0.50005 0.50005 0 0 0 8.1953125 28.896484 A 0.50005 0.50005 0 0 0 8.2363281 28.923828 A 0.50005 0.50005 0 0 0 8.28125 28.949219 A 0.50005 0.50005 0 0 0 8.3261719 28.96875 A 0.50005 0.50005 0 0 0 8.4082031 28.992188 A 0.50005 0.50005 0 0 0 8.4238281 28.994141 A 0.50005 0.50005 0 0 0 8.4726562 29 A 0.50005 0.50005 0 0 0 8.53125 29 L 9.5078125 29 A 0.50005 0.50005 0 0 0 9.6640625 28.978516 C 10.968218 28.86537 12.015625 27.810564 12.015625 26.5 C 12.015625 25.190612 10.970203 24.138428 9.6679688 24.023438 A 0.50005 0.50005 0 0 0 9.5136719 24 L 8.6171875 24 A 0.50005 0.50005 0 0 0 8.4921875 23.986328 z M 15.507812 23.996094 C 14.133024 23.996094 13.007814 25.121294 13.007812 26.496094 C 13.007814 27.870894 14.133024 28.996094 15.507812 28.996094 C 16.882604 28.996094 18.007812 27.870894 18.007812 26.496094 C 18.007812 25.121294 16.882602 23.996094 15.507812 23.996094 z M 21.507812 24 A 0.50005 0.50005 0 0 0 21.349609 24.023438 C 20.049384 24.1402 19.007812 25.191913 19.007812 26.5 C 19.007812 27.812515 20.056599 28.868045 21.363281 28.978516 A 0.50005 0.50005 0 0 0 21.515625 29 L 22.515625 29 A 0.50005 0.50005 0 1 0 22.515625 28 L 21.583984 28 C 20.691778 28 20.007814 27.3294 20.007812 26.5 C 20.007812 25.6703 20.691749 25 21.583984 25 L 22.507812 25 A 0.50005 0.50005 0 1 0 22.507812 24 L 21.507812 24 z M 15.507812 24.996094 C 16.342163 24.996094 17.007812 25.661794 17.007812 26.496094 C 17.007812 27.330494 16.342163 27.996094 15.507812 27.996094 C 14.673464 27.996094 14.007814 27.330494 14.007812 26.496094 C 14.007814 25.661794 14.673465 24.996094 15.507812 24.996094 z M 9 25 L 9.4375 25 C 10.329736 25 11.015625 25.6703 11.015625 26.5 C 11.015625 27.3294 10.329707 28 9.4375 28 L 9 28 L 9 25 z " transform="translate(0,1020.3622)" id="path5133"/>
  </g>

	
	
	<metadata>
		<rdf:RDF xmlns:rdf="http://www.w3.org/1999/02/22-rdf-syntax-ns#" xmlns:rdfs="http://www.w3.org/2000/01/rdf-schema#" xmlns:dc="http://purl.org/dc/elements/1.1/">
			<rdf:Description about="https://iconscout.com/legal#licenses" dc:title="File, Format, Document, Jpg, Extension, Word" dc:description="File, Format, Document, Jpg, Extension, Word" dc:publisher="Iconscout" dc:date="2016-12-14" dc:format="image/svg+xml" dc:language="en">
				<dc:creator>
					<rdf:Bag>
						<rdf:li>Mohit Gandhi</rdf:li>
					</rdf:Bag>
				</dc:creator>
			</rdf:Description>
		</rdf:RDF>
    </metadata></svg>
