<?xml version="1.0" encoding="UTF-8" standalone="no"?>
<svg xmlns:dc="http://purl.org/dc/elements/1.1/" xmlns:cc="http://creativecommons.org/ns#" xmlns:rdf="http://www.w3.org/1999/02/22-rdf-syntax-ns#" xmlns:svg="http://www.w3.org/2000/svg" xmlns="http://www.w3.org/2000/svg" xmlns:sodipodi="http://sodipodi.sourceforge.net/DTD/sodipodi-0.dtd" xmlns:inkscape="http://www.inkscape.org/namespaces/inkscape" width="32px" height="32px" viewBox="0 0 32 32.000001" id="svg2" version="1.1" inkscape:version="0.91 r13725" sodipodi:docname="5 file filetype document xml extension coding programming.svg">
  <defs id="defs4"/>
  <sodipodi:namedview id="base" pagecolor="#ffffff" bordercolor="#666666" borderopacity="1.0" inkscape:pageopacity="0.0" inkscape:pageshadow="2" inkscape:zoom="11.313709" inkscape:cx="16.10135" inkscape:cy="17.563895" inkscape:document-units="px" inkscape:current-layer="layer1" showgrid="true" units="px" inkscape:snap-bbox="true" inkscape:bbox-paths="true" inkscape:bbox-nodes="true" inkscape:snap-bbox-edge-midpoints="true" inkscape:snap-bbox-midpoints="true" inkscape:window-width="1366" inkscape:window-height="715" inkscape:window-x="-8" inkscape:window-y="-8" inkscape:window-maximized="1">
    <inkscape:grid type="xygrid" id="grid3336"/>
  </sodipodi:namedview>
  
  <g inkscape:label="Layer 1" inkscape:groupmode="layer" id="layer1" transform="translate(0,-1020.3622)">
    <path style="color:#000000;font-style:normal;font-variant:normal;font-weight:normal;font-stretch:normal;font-size:medium;line-height:normal;font-family:sans-serif;text-indent:0;text-align:start;text-decoration:none;text-decoration-line:none;text-decoration-style:solid;text-decoration-color:#000000;letter-spacing:normal;word-spacing:normal;text-transform:none;direction:ltr;block-progression:tb;writing-mode:lr-tb;baseline-shift:baseline;text-anchor:start;white-space:normal;clip-rule:nonzero;display:inline;overflow:visible;visibility:visible;opacity:1;isolation:auto;mix-blend-mode:normal;color-interpolation:sRGB;color-interpolation-filters:linearRGB;solid-color:#000000;solid-opacity:1;fill:#000000;fill-opacity:1;fill-rule:evenodd;stroke:none;stroke-width:0.99999994;stroke-linecap:round;stroke-linejoin:round;stroke-miterlimit:4;stroke-dasharray:none;stroke-dashoffset:0;stroke-opacity:1;color-rendering:auto;image-rendering:auto;shape-rendering:auto;text-rendering:auto;enable-background:accumulate" d="M 20.488281 0.99804688 A 0.50005 0.50005 0 0 0 20.414062 1.0039062 L 6.9960938 1.0039062 C 5.8967491 1.0039062 4.9960936 1.9046063 4.9960938 3.0039062 L 4.9960938 29.003906 C 4.9960938 30.103306 5.8967491 31.003906 6.9960938 31.003906 L 24.996094 31.003906 C 26.095438 31.003906 26.996094 30.103306 26.996094 29.003906 L 26.996094 28.251953 C 26.99631 28.23671 27 28.222317 27 28.207031 L 27 27.070312 L 27 24.794922 L 27 22.521484 A 0.52044839 0.52044839 0 0 0 26.996094 22.457031 L 26.996094 7.5820312 A 0.50005 0.50005 0 0 0 26.800781 7.1015625 L 20.894531 1.1953125 A 0.50005 0.50005 0 0 0 20.488281 0.99804688 z M 6.9960938 2.0039062 L 19.996094 2.0039062 L 19.996094 6.0039062 C 19.996094 7.1032063 20.896709 8.0039062 21.996094 8.0039062 L 25.996094 8.0039062 L 25.996094 22 L 24.574219 22 L 7.4257812 22 L 5.9960938 22 L 5.9960938 3.0039062 C 5.9960938 2.4413063 6.4334583 2.0039062 6.9960938 2.0039062 z M 20.996094 2.7109375 L 25.289062 7.0039062 L 21.996094 7.0039062 C 21.433498 7.0039062 20.996094 6.5665062 20.996094 6.0039062 L 20.996094 2.7109375 z M 18.326172 11.003906 A 0.50004997 0.50004997 0 0 0 17.884766 11.259766 L 13.246094 19.248047 A 0.50004997 0.50004997 0 1 0 14.109375 19.75 L 18.75 11.761719 A 0.50004997 0.50004997 0 0 0 18.326172 11.003906 z M 20.455078 11.998047 L 20.455078 12.001953 A 0.50005 0.50005 0 0 0 20.113281 12.863281 L 22.785156 15.503906 L 20.113281 18.146484 A 0.50005 0.50005 0 1 0 20.814453 18.857422 L 23.804688 15.902344 A 0.50005 0.50005 0 0 0 23.910156 15.220703 A 0.50005 0.50005 0 0 0 23.904297 15.210938 A 0.50005 0.50005 0 0 0 23.878906 15.179688 A 0.50005 0.50005 0 0 0 23.873047 15.169922 A 0.50005 0.50005 0 0 0 23.845703 15.140625 A 0.50005 0.50005 0 0 0 23.84375 15.140625 L 23.824219 15.121094 A 0.50005 0.50005 0 0 0 23.808594 15.107422 L 20.814453 12.148438 A 0.50005 0.50005 0 0 0 20.455078 11.998047 z M 11.525391 12.001953 A 0.50005 0.50005 0 0 0 11.179688 12.152344 L 8.1757812 15.123047 L 8.1523438 15.144531 A 0.50005 0.50005 0 0 0 8.1386719 15.158203 A 0.50005 0.50005 0 0 0 8.1054688 15.195312 A 0.50005 0.50005 0 0 0 8.078125 15.236328 A 0.50005 0.50005 0 0 0 8.0527344 15.279297 A 0.50005 0.50005 0 0 0 8.1914062 15.902344 L 11.179688 18.857422 A 0.50005 0.50005 0 1 0 11.882812 18.146484 L 9.2109375 15.503906 L 11.882812 12.863281 A 0.50005 0.50005 0 0 0 11.525391 12.001953 z M 6.0410156 23.041016 L 7.4257812 23.041016 L 24.574219 23.041016 L 25.958984 23.041016 L 25.958984 24.794922 L 25.958984 27.070312 L 25.958984 28.207031 C 25.958984 29.232731 25.296429 29.960938 24.574219 29.960938 L 7.4257812 29.960938 C 6.7035702 29.960938 6.0410156 29.232731 6.0410156 28.207031 L 6.0410156 27.070312 L 6.0410156 24.794922 L 6.0410156 23.041016 z M 16.464844 24 L 16.464844 24.001953 A 0.50005 0.50005 0 0 0 16.097656 24.208984 L 15 25.673828 L 13.902344 24.208984 L 13.898438 24.208984 A 0.50005 0.50005 0 0 0 13.490234 24.009766 A 0.50005 0.50005 0 0 0 12.998047 24.515625 L 12.998047 28.505859 A 0.50005 0.50005 0 1 0 13.998047 28.505859 L 13.998047 26.001953 L 14.521484 26.699219 A 0.50005 0.50005 0 0 0 15.400391 26.804688 L 15.998047 26.005859 L 15.998047 28.505859 A 0.50005 0.50005 0 1 0 16.998047 28.505859 L 16.998047 24.560547 A 0.50005 0.50005 0 0 0 16.515625 24 A 0.50005 0.50005 0 0 0 16.464844 24 z M 8.4667969 24.001953 A 0.50005 0.50005 0 0 0 8.0996094 24.806641 L 9.3730469 26.507812 L 8.0996094 28.208984 A 0.50005 0.50005 0 1 0 8.9003906 28.806641 L 9.9980469 27.341797 L 11.095703 28.806641 A 0.50005 0.50005 0 1 0 11.896484 28.208984 L 10.623047 26.507812 L 11.896484 24.806641 A 0.50005 0.50005 0 0 0 11.513672 24.001953 A 0.50005 0.50005 0 0 0 11.462891 24.001953 A 0.50005 0.50005 0 0 0 11.095703 24.208984 L 9.9980469 25.673828 L 8.9003906 24.208984 A 0.50005 0.50005 0 0 0 8.5175781 24.001953 A 0.50005 0.50005 0 0 0 8.4667969 24.001953 z M 18.490234 24.011719 A 0.50005 0.50005 0 0 0 17.998047 24.517578 L 17.998047 28.507812 A 0.50005 0.50005 0 0 0 17.998047 28.519531 A 0.50005 0.50005 0 0 0 18 28.539062 A 0.50005 0.50005 0 0 0 18 28.5625 A 0.50005 0.50005 0 0 0 18.001953 28.576172 A 0.50005 0.50005 0 0 0 18.316406 28.984375 A 0.50005 0.50005 0 0 0 18.332031 28.994141 A 0.50005 0.50005 0 0 0 18.470703 29.021484 A 0.50005 0.50005 0 0 0 18.505859 29.021484 L 20.494141 29.021484 A 0.50005 0.50005 0 1 0 20.494141 28.021484 L 18.998047 28.021484 L 18.998047 24.525391 A 0.50005 0.50005 0 0 0 18.490234 24.019531 L 18.490234 24.011719 z " transform="translate(0,1020.3622)" id="path4758"/>
  </g>

	
	
	<metadata>
		<rdf:RDF xmlns:rdf="http://www.w3.org/1999/02/22-rdf-syntax-ns#" xmlns:rdfs="http://www.w3.org/2000/01/rdf-schema#" xmlns:dc="http://purl.org/dc/elements/1.1/">
			<rdf:Description about="https://iconscout.com/legal#licenses" dc:title="File, Filetype, Document, Xml, Extension, Coding, Programming" dc:description="File, Filetype, Document, Xml, Extension, Coding, Programming" dc:publisher="Iconscout" dc:date="2016-12-14" dc:format="image/svg+xml" dc:language="en">
				<dc:creator>
					<rdf:Bag>
						<rdf:li>Mohit Gandhi</rdf:li>
					</rdf:Bag>
				</dc:creator>
			</rdf:Description>
		</rdf:RDF>
    </metadata></svg>
