<?xml version="1.0" encoding="UTF-8" standalone="no"?>
<svg xmlns:dc="http://purl.org/dc/elements/1.1/" xmlns:cc="http://creativecommons.org/ns#" xmlns:rdf="http://www.w3.org/1999/02/22-rdf-syntax-ns#" xmlns:svg="http://www.w3.org/2000/svg" xmlns="http://www.w3.org/2000/svg" xmlns:sodipodi="http://sodipodi.sourceforge.net/DTD/sodipodi-0.dtd" xmlns:inkscape="http://www.inkscape.org/namespaces/inkscape" version="1.1" id="Layer_1" x="0px" y="0px" viewBox="0 0 32 32" xml:space="preserve" inkscape:version="0.91 r13725" sodipodi:docname="44 file paper document memo important upload.svg" width="32" height="32"><defs id="defs13"/><sodipodi:namedview pagecolor="#ffffff" bordercolor="#666666" borderopacity="1" objecttolerance="10" gridtolerance="10" guidetolerance="10" inkscape:pageopacity="0" inkscape:pageshadow="2" inkscape:window-width="1366" inkscape:window-height="705" id="namedview11" showgrid="true" inkscape:snap-bbox="true" inkscape:bbox-paths="true" inkscape:bbox-nodes="true" inkscape:snap-bbox-edge-midpoints="true" inkscape:snap-bbox-midpoints="true" inkscape:zoom="5.2149125" inkscape:cx="3.6723469" inkscape:cy="32.240008" inkscape:window-x="-8" inkscape:window-y="-8" inkscape:window-maximized="1" inkscape:current-layer="Layer_1"><inkscape:grid type="xygrid" id="grid4145"/></sodipodi:namedview><style type="text/css" id="style3">
	.st0{fill:none;stroke:#231F20;stroke-miterlimit:10;}
	.st1{fill:none;stroke:#231F20;stroke-linecap:round;stroke-linejoin:round;stroke-miterlimit:10;}
	.st2{fill:#231F20;}
</style><path style="fill:#231f20;stroke:none" d="M 16 0 C 7.169366 0 0 7.1693663 0 16 C 0 24.830634 7.169366 32 16 32 C 24.830634 32 32 24.830634 32 16 C 32 7.1693663 24.830634 0 16 0 z M 16 1 C 24.290194 1 31 7.7098064 31 16 C 31 24.290194 24.290194 31 16 31 C 7.709806 31 1 24.290194 1 16 C 1 7.7098064 7.709806 1 16 1 z M 12.001953 8 C 10.897953 8 10 8.8969521 10 10.001953 L 10 19.996094 C 10 21.101094 10.897953 22 12.001953 22 L 16.396484 22 C 16.970483 23.151999 18.148531 23.953125 19.519531 23.953125 C 21.449531 23.953125 23.019531 22.383124 23.019531 20.453125 C 23.019531 19.054124 22.187047 17.852969 20.998047 17.292969 L 20.998047 12.521484 C 20.998047 12.498484 20.989348 12.477078 20.986328 12.455078 C 20.983328 12.434078 20.979629 12.415531 20.974609 12.394531 C 20.952609 12.309531 20.91652 12.229016 20.853516 12.166016 L 16.853516 8.1660156 C 16.840516 8.1530156 16.819687 8.152625 16.804688 8.140625 C 16.711688 8.051625 16.586031 8 16.457031 8 L 12.001953 8 z M 12.001953 9 L 16 9 L 16 11.03125 C 16 12.128251 16.892281 13.021484 17.988281 13.021484 L 20 13.021484 L 20 17.001953 C 19.841 16.979953 19.683531 16.953125 19.519531 16.953125 C 17.58953 16.953125 16.019531 18.523126 16.019531 20.453125 C 16.019531 20.640125 16.046219 20.82 16.074219 21 L 12.001953 21 C 11.448953 20.999999 11 20.549094 11 19.996094 L 11 10.001953 C 11 9.4489521 11.448953 9 12.001953 9 z M 17 9.7441406 C 17.676 10.416142 18.594062 11.329484 19.289062 12.021484 L 17.990234 12.021484 C 17.444233 12.021484 17 11.57725 17 11.03125 L 17 9.7441406 z M 19.519531 17.953125 C 20.898531 17.953125 22.019531 19.074126 22.019531 20.453125 C 22.019531 21.832125 20.898531 22.953126 19.519531 22.953125 C 18.140531 22.953125 17.019531 21.832125 17.019531 20.453125 C 17.019531 19.074126 18.140531 17.953125 19.519531 17.953125 z M 19.494141 18.742188 L 17.675781 20.496094 L 18.369141 21.214844 L 18.998047 20.609375 L 18.998047 21.972656 L 19.998047 21.972656 L 19.998047 20.585938 L 20.673828 21.21875 L 21.357422 20.492188 L 19.494141 18.742188 z " id="path7"/>
	<metadata>
		<rdf:RDF xmlns:rdf="http://www.w3.org/1999/02/22-rdf-syntax-ns#" xmlns:rdfs="http://www.w3.org/2000/01/rdf-schema#" xmlns:dc="http://purl.org/dc/elements/1.1/">
			<rdf:Description about="https://admin.iconscout.com/legal#licenses" dc:title="44 file paper document memo important upload" dc:description="44 file paper document memo important upload" dc:publisher="Iconscout" dc:date="2017-04-28" dc:format="image/svg+xml" dc:language="en">
				<dc:creator>
					<rdf:Bag>
						<rdf:li>Dalpat Prajapati</rdf:li>
					</rdf:Bag>
				</dc:creator>
			</rdf:Description>
		</rdf:RDF>
    </metadata></svg>
