<?xml version="1.0" encoding="UTF-8"?><!DOCTYPE svg PUBLIC "-//W3C//DTD SVG 1.1//EN" "http://www.w3.org/Graphics/SVG/1.1/DTD/svg11.dtd"><svg xmlns="http://www.w3.org/2000/svg" xmlns:xlink="http://www.w3.org/1999/xlink" version="1.1" x="0px" y="0px" width="512px" height="512px" viewBox="0 0 512 512" xml:space="preserve"><g id="file__x2C__jpg__x2C__image__x2C_"><g id="Layer_84"><path fill-rule="evenodd" clip-rule="evenodd" fill="#FFF" d="M107.072 25.469H349.08l71.522 72.375v350.033h-313.53z"/><path d="M420.602 454.738h-313.53a6.858 6.858 0 0 1-6.859-6.861V25.469c0-3.79 3.069-6.86 6.859-6.86H349.08a6.85 6.85 0 0 1 4.877 2.038l71.526 72.375a6.878 6.878 0 0 1 1.982 4.823v350.033a6.86 6.86 0 0 1-6.863 6.86zm-306.67-13.72h299.814V100.662l-67.534-68.333h-232.28v408.689z" fill="#4C8CF9"/><path fill-rule="evenodd" clip-rule="evenodd" fill="#4C8CF9" d="M129.98 177.616h313.532v105.601H129.98z"/><path d="M217.752 258.463h-11.187v-9.82h11.187v9.82zm34.498-56.096h11.056v39.283c0 5.378-1.734 9.687-5.194 12.78-3.464 3.229-7.994 4.84-13.321 4.84-5.727 0-10.389-1.477-13.717-4.304-3.332-2.822-4.928-6.993-4.795-12.646v-.133h10.788c0 2.96.801 4.979 2.131 6.323 1.466 1.345 3.329 2.019 5.593 2.019 2.131 0 3.864-.808 5.327-2.423 1.333-1.61 2.132-3.767 2.132-6.594v-39.145zm32.365 35.786v20.31h-11.054v-56.096h21.975c6.396 0 11.453 1.749 15.051 4.979 3.73 3.23 5.598 7.668 5.598 12.912 0 5.383-1.867 9.691-5.598 12.917-3.598 3.363-8.654 4.979-15.051 4.979h-10.921zm0-8.746h10.921c3.198 0 5.46-.808 7.062-2.556 1.597-1.615 2.396-3.767 2.396-6.456 0-2.688-.799-4.979-2.396-6.727-1.464-1.748-3.863-2.556-7.062-2.556h-10.921v18.295zm82.31 21.392c-1.726 2.147-4.258 4.166-7.723 5.919-3.593 1.61-7.988 2.551-13.32 2.551-6.791 0-12.252-2.146-16.515-6.456-4.392-4.171-6.524-9.687-6.524-16.546v-11.706c0-6.722 2.133-12.238 6.259-16.546 4.13-4.304 9.457-6.323 15.854-6.323 6.791 0 11.985 1.615 15.582 4.983 3.593 3.226 5.461 7.663 5.461 13.045v.271h-10.526c-.129-2.96-1.064-5.383-2.795-7.131-1.729-1.748-4.129-2.556-7.327-2.556-3.46 0-6.126 1.344-8.26 4.033-2.129 2.561-3.061 6.057-3.061 10.223v11.706c0 4.171 1.069 7.667 3.198 10.356 2.129 2.561 5.062 3.905 8.654 3.905 2.666 0 4.662-.271 6.259-.808 1.601-.537 2.799-1.211 3.597-1.886v-10.356h-9.855v-7.805h21.043v21.127z" fill="#FEFEFE"/><path d="M263.421 146.446h-.105c-13.938-.028-26.05-5.089-32.401-13.545a6.858 6.858 0 0 1 1.365-9.604c3.028-2.285 7.328-1.666 9.606 1.363 3.724 4.956 11.944 8.044 21.452 8.062h.078c9.737 0 18.726-3.244 22.393-8.081a6.854 6.854 0 0 1 9.608-1.331 6.86 6.86 0 0 1 1.33 9.608c-6.318 8.348-19.079 13.528-33.326 13.528z" fill="#4C8CF9"/><path d="M143.969 233.308h-.078c-41.673-.455-66.396-11.334-73.483-32.34-9.234-27.361 17.019-62.758 32.448-74.775 2.99-2.317 7.303-1.79 9.629 1.198a6.865 6.865 0 0 1-1.195 9.631c-13.261 10.324-34.52 39.884-27.882 59.56 6.256 18.538 36.426 22.741 60.635 23.007a6.86 6.86 0 0 1-.074 13.719z" fill="#4C8CF9"/><path fill-rule="evenodd" clip-rule="evenodd" fill="#D4E4FF" d="M349.08 97.844h71.522L349.08 25.469z"/><path d="M420.602 104.704H349.08c-3.79 0-6.86-3.07-6.86-6.86V25.469a6.859 6.859 0 0 1 4.254-6.346 6.842 6.842 0 0 1 7.483 1.523l71.526 72.375a6.862 6.862 0 0 1-4.881 11.683zm-64.663-13.72h48.239l-48.239-48.813v48.813z" fill="#4C8CF9"/><path d="M239.339 493.395c-.378 0-.759-.027-1.143-.092l-22.509-3.771a6.864 6.864 0 0 1-5.727-6.768v-34.887a6.857 6.857 0 0 1 6.859-6.859c3.791 0 6.86 3.07 6.86 6.859v29.082l16.782 2.809a6.863 6.863 0 0 1 5.633 7.9 6.856 6.856 0 0 1-6.755 5.727z" fill="#4C8CF9"/><path d="M325.251 493.395c-.381 0-.762-.027-1.146-.092l-22.507-3.771a6.861 6.861 0 0 1-5.727-6.768v-34.887c0-3.789 3.069-6.859 6.859-6.859s6.86 3.07 6.86 6.859v29.082l16.78 2.809a6.865 6.865 0 0 1 5.635 7.9 6.857 6.857 0 0 1-6.754 5.727z" fill="#4C8CF9"/><path d="M290.874 65.155c6.259-1.753 13.188.936 16.519 6.855a14.876 14.876 0 0 1-5.332 20.318c-7.057 4.033-15.978 1.615-19.979-5.515-3.193-5.516-2.396-12.243 1.469-16.95 1.331 1.881 3.726 2.418 5.727 1.211 1.999-1.211 2.798-3.771 1.596-5.919z" fill-rule="evenodd" clip-rule="evenodd" fill="#4C8CF9"/><path d="M228.809 65.155c6.259-1.753 13.185.936 16.65 6.855 3.994 7.13 1.597 16.147-5.463 20.318-6.924 4.033-15.982 1.615-19.979-5.515-3.196-5.516-2.397-12.243 1.466-16.95 1.331 1.881 3.861 2.418 5.727 1.211 2.131-1.211 2.796-3.771 1.599-5.919z" fill-rule="evenodd" clip-rule="evenodd" fill="#4C8CF9"/><g><path d="M162.612 305.279c14.119 0 25.439 11.568 25.439 25.828 0 14.262-11.32 25.83-25.439 25.83-14.117 0-25.572-11.568-25.572-25.83 0-14.259 11.455-25.828 25.572-25.828z" fill-rule="evenodd" clip-rule="evenodd" fill="#D4E4FF"/><path d="M162.612 363.797c-17.884 0-32.432-14.666-32.432-32.689s14.548-32.688 32.432-32.688c17.811 0 32.299 14.664 32.299 32.688s-14.489 32.689-32.299 32.689zm0-51.658c-10.317 0-18.712 8.512-18.712 18.969s8.395 18.969 18.712 18.969c10.244 0 18.579-8.512 18.579-18.969s-8.335-18.969-18.579-18.969z" fill="#4C8CF9"/></g><g><path fill-rule="evenodd" clip-rule="evenodd" fill="#4C8CF9" d="M137.838 442.361h278.368v-75.875l-59-63.625-84.044 66.721-43.023-28.654z"/></g></g></g><metadata><rdf:RDF xmlns:rdf="http://www.w3.org/1999/02/22-rdf-syntax-ns#" xmlns:rdfs="http://www.w3.org/2000/01/rdf-schema#" xmlns:dc="http://purl.org/dc/elements/1.1/"><rdf:Description about="https://iconscout.com/legal#licenses" dc:title="file,jpg,image" dc:description="file,jpg,image" dc:publisher="Iconscout" dc:date="2018-06-25" dc:format="image/svg+xml" dc:language="en"><dc:creator><rdf:Bag><rdf:li>Ibrandify Icons</rdf:li></rdf:Bag></dc:creator></rdf:Description></rdf:RDF></metadata></svg>