<svg xmlns="http://www.w3.org/2000/svg" data-name="Layer 1" viewBox="0 0 32 32"><path fill="#8a8790" d="M6,4H27a2,2,0,0,1,2,2V23a0,0,0,0,1,0,0H4a0,0,0,0,1,0,0V6A2,2,0,0,1,6,4Z"/><rect width="21" height="15" x="6" y="6" fill="#4eb9e9" rx="1"/><path fill="#58565d" d="M2,23H31a0,0,0,0,1,0,0v1a3,3,0,0,1-3,3H5a3,3,0,0,1-3-3V23A0,0,0,0,1,2,23Z"/><path fill="#aeadb2" d="M14.23,23h4.55a.23.23,0,0,1,.23.23V24a1,1,0,0,1-1,1H15a1,1,0,0,1-1-1v-.77A.23.23,0,0,1,14.23,23Z"/><circle cx="16.5" cy="12.5" r="1.5" fill="#3f6db3"/><path d="M26,5.5H7A1.5,1.5,0,0,0,5.5,7V20A1.5,1.5,0,0,0,7,21.5H26A1.5,1.5,0,0,0,27.5,20V7A1.5,1.5,0,0,0,26,5.5ZM26.5,20a.5.5,0,0,1-.5.5H7a.5.5,0,0,1-.5-.5V7A.5.5,0,0,1,7,6.5H26a.5.5,0,0,1,.5.5ZM31,22.5H29.5V6A2.5,2.5,0,0,0,27,3.5H6A2.5,2.5,0,0,0,3.5,6V22.5H2a.5.5,0,0,0-.5.5v1A3.5,3.5,0,0,0,5,27.5H28A3.5,3.5,0,0,0,31.5,24V23A.5.5,0,0,0,31,22.5ZM4.5,6A1.5,1.5,0,0,1,6,4.5H27A1.5,1.5,0,0,1,28.5,6V22.5H4.5Zm14,17.5V24a.5.5,0,0,1-.5.5H15a.5.5,0,0,1-.5-.5v-.5Zm12,.5A2.5,2.5,0,0,1,28,26.5H5A2.5,2.5,0,0,1,2.5,24v-.5h11V24A1.5,1.5,0,0,0,15,25.5h3A1.5,1.5,0,0,0,19.5,24v-.5h11Zm-14-9.5a2,2,0,1,0-2-2A2,2,0,0,0,16.5,14.5Zm0-3a1,1,0,1,1-1,1A1,1,0,0,1,16.5,11.5Zm2.5,4H14a.5.5,0,0,0,0,1h5a.5.5,0,0,0,0-1Z"/></svg>