<svg xmlns="http://www.w3.org/2000/svg" viewBox="0 0 32 32"><path fill="#5f7cf9" d="M20,14H12a1,1,0,0,1-1-1V9A5,5,0,0,1,21,9v4A1,1,0,0,1,20,14Zm-7-2h6V9a3,3,0,0,0-6,0Z"/><path fill="#4062ed" d="M16,4V6a3,3,0,0,1,3,3v3H16v2h4a1,1,0,0,0,1-1V9A5,5,0,0,0,16,4Z"/><rect width="18" height="16" x="7" y="12" fill="#8c9eff" rx="1" ry="1"/><path fill="#5f7cf9" d="M24,12H16V28h8a1,1,0,0,0,1-1V13A1,1,0,0,0,24,12Z"/><path fill="#8c9eff" d="M18,21H14a1,1,0,0,1,0-2h4a1,1,0,0,1,0,2Z"/><path fill="#5f7cf9" d="M18,19H16v2h2a1,1,0,0,0,0-2Z"/></svg>