<svg xmlns="http://www.w3.org/2000/svg" width="32" height="32" enable-background="new 0 0 32 32" viewBox="0 0 32 32"><polygon points="16 17.031 16 15.032 6.383 15.032 9.403 11.955 7.976 10.554 3.286 15.332 3.286 15.332 2.586 16.033 8 21.444 9.414 20.03 6.415 17.032"/><path d="M28.208,5.147l-10-2.125c-0.295-0.062-0.603,0.011-0.837,0.201C17.136,3.413,17,3.698,17,4v2.001l-6.013,0.009
		c-0.266,0-0.52,0.106-0.707,0.294c-0.188,0.188-0.292,0.443-0.292,0.708l0.011,3.957c0.001,0.551,0.449,0.997,1,0.997
		c0.001,0,0.002,0,0.003,0c0.552-0.001,0.999-0.45,0.997-1.003l-0.008-2.956L17,8.001v15.965l-5.009-0.008l0.008-2.956
		C12,20.45,11.554,20.002,11.002,20c-0.001,0-0.002,0-0.003,0c-0.551,0-0.999,0.446-1,0.997l-0.011,3.957
		c0,0.266,0.104,0.521,0.292,0.709c0.187,0.188,0.441,0.294,0.707,0.294L17,25.966V28c0,0.297,0.132,0.577,0.359,0.768
		C17.54,28.919,17.768,29,18,29c0.06,0,0.119-0.005,0.179-0.016l10-1.813C28.654,27.085,29,26.671,29,26.188V6.125
		C29,5.653,28.67,5.245,28.208,5.147z M27,25.353l-8,1.45V5.235l8,1.7V25.353z"/></svg>