<?xml version="1.0" encoding="UTF-8"?>
<svg xmlns="http://www.w3.org/2000/svg" xmlns:xlink="http://www.w3.org/1999/xlink" version="1.1" id="Layer_1" x="0px" y="0px" viewBox="0 0 24 24" style="enable-background:new 0 0 24 24;" xml:space="preserve">
<g>
	<path style="fill:#303C42;" d="M20.926,19.074c-0.207-0.136-0.421-0.276-0.573-0.428c-0.088-0.088-0.048-0.497-0.026-0.717   c0.042-0.422,0.084-0.857-0.199-1.17c-0.036-0.04-0.099-0.078-0.157-0.117C19.985,16.438,20,16.237,20,16   c0-3.247-1.496-5.12-2.697-6.625C16.575,8.463,16,7.743,16,7l0.001-0.233c0.008-1.38,0.024-4.253-1.502-5.788   C13.853,0.33,13.012,0,12,0C9.899,0,8.5,1.021,8.5,6c0,1.371-0.577,2.493-1.187,3.682c-0.268,0.521-0.544,1.06-0.776,1.63   c-0.419,1.03-1.333,3.399-1.501,4.784c-0.54,0.227-0.697,0.835-0.785,1.197c-0.03,0.125-0.076,0.312-0.081,0.334   c-0.074,0.046-0.354,0.101-0.538,0.138C3.021,17.885,2,18.087,2,19c0,0.266,0.04,0.491,0.083,0.726   c0.077,0.416,0.15,0.809-0.067,1.649C2.005,21.416,2,21.458,2,21.5c0,1.202,1.867,1.358,2.983,1.451   c0.186,0.016,0.34,0.027,0.439,0.043c0.154,0.024,0.476,0.173,0.788,0.316C6.876,23.618,7.706,24,8.5,24   c0.365,0,0.673-0.164,0.906-0.434l0.011,0.009C9.639,23.328,11.112,23,12,23h3.061c0.055,0.193,0.135,0.385,0.288,0.553   C15.619,23.85,16.006,24,16.5,24c1.298,0,1.927-0.669,2.536-1.315c0.103-0.109,0.208-0.221,0.318-0.331   c0.253-0.253,0.749-0.434,1.187-0.594C21.258,21.498,22,21.227,22,20.5C22,19.779,21.405,19.388,20.926,19.074z"/>
	<path style="fill:#FFFFFF;" d="M7.463,11.688c0.215-0.529,0.481-1.048,0.739-1.55c0.343-0.668,0.688-1.35,0.938-2.086   C9.748,8.589,10.621,9,11,9c0.209,0,1.874-0.559,2.83-1.199c1.92,3.928,2.156,6.516,2.168,8.949   c-0.483,0.523-0.733,1.786-0.862,2.951c-1.471,1.483-4.412,1.383-5.705,1.177c-0.251-0.474-0.625-0.926-1.145-1.288   c-0.493-0.343-0.875-1.144-1.212-1.85c-0.326-0.681-0.621-1.291-1.044-1.573C6.169,15.128,6.859,13.173,7.463,11.688z"/>
	<path style="fill:#F68919;" d="M8.5,23c-0.575,0-1.294-0.332-1.872-0.598c-0.424-0.196-0.759-0.351-1.05-0.396   c-0.116-0.019-0.295-0.034-0.512-0.052c-1.489-0.124-1.945-0.305-2.054-0.442c0.237-0.983,0.136-1.528,0.054-1.968   C3.034,19.368,3,19.199,2.995,19.009c0.083-0.116,0.588-0.216,0.832-0.264c0.425-0.084,0.792-0.157,1.027-0.392   c0.222-0.222,0.296-0.528,0.369-0.825C5.351,17,5.404,17,5.47,16.995c0.177,0.079,0.492,0.739,0.701,1.176   c0.391,0.818,0.833,1.745,1.543,2.239c1.006,0.701,1.222,1.769,1.054,2.303C8.708,22.903,8.619,23,8.5,23z"/>
	<path style="fill:#F68919;" d="M20.197,20.82c-0.535,0.195-1.141,0.416-1.55,0.826c-0.118,0.118-0.229,0.236-0.339,0.353   c-0.547,0.581-0.942,1-1.808,1c-0.201,0-0.339-0.041-0.412-0.12c-0.15-0.165-0.114-0.556-0.098-0.723   C15.996,22.089,16,22.035,16,22c0.004-0.655,0.15-2.438,0.369-3.584c0.04,0.057,0.08,0.115,0.129,0.167   C16.756,18.856,17.102,19,17.5,19l0.176,0.001c0.056,0,0.113,0.001,0.17,0.001c0.5,0,1.038-0.042,1.465-0.448   c0.025,0.288,0.109,0.574,0.335,0.8c0.224,0.224,0.494,0.401,0.731,0.557c0.376,0.247,0.622,0.42,0.638,0.53   C20.936,20.55,20.491,20.713,20.197,20.82z"/>
	<path style="fill:#F68919;" d="M11.454,6.001c0.903,0.19,1.78,0.583,1.996,0.874C12.945,7.236,11.339,7.963,11.012,8   c-0.345-0.039-1.418-0.737-1.517-0.965C9.59,6.749,10.697,6.03,11.454,6.001z"/>
	<path style="fill:#303C42;" d="M13.296,5.574c0.158-0.15,0.268-0.402,0.268-0.703c0-0.468-0.253-0.847-0.565-0.847   s-0.565,0.379-0.565,0.847c0,0.141,0.029,0.269,0.07,0.386C12.756,5.339,13.03,5.444,13.296,5.574z"/>
	<path style="fill:#FFFFFF;" d="M13,3.176c-0.468,0-0.847,0.569-0.847,1.271c0,0.288,0.076,0.541,0.183,0.755   c0.074,0.023,0.19,0.062,0.168,0.055c-0.041-0.117-0.07-0.244-0.07-0.386c0-0.468,0.253-0.847,0.565-0.847s0.565,0.379,0.565,0.847   c0,0.301-0.111,0.553-0.268,0.703c0.021,0.012-0.002,0,0.051,0.027c0.294-0.199,0.5-0.638,0.5-1.153   C13.847,3.745,13.468,3.176,13,3.176z"/>
	<path style="fill:#FFFFFF;" d="M10.905,5.083c0.075-0.19,0.13-0.399,0.13-0.636c0-0.702-0.379-1.271-0.847-1.271   S9.341,3.745,9.341,4.447c0,0.472,0.179,0.867,0.434,1.086c0.011-0.014,0.036-0.019,0.051-0.026   C9.705,5.352,9.624,5.129,9.624,4.871c0-0.468,0.253-0.847,0.565-0.847s0.565,0.379,0.565,0.847c0,0.094-0.017,0.18-0.036,0.264   C10.762,5.125,10.763,5.117,10.905,5.083z"/>
	<linearGradient id="SVGID_1_" gradientUnits="userSpaceOnUse" x1="10.3759" y1="6.8173" x2="17.1543" y2="13.5957">
		<stop offset="0" style="stop-color:#000000;stop-opacity:0.1"/>
		<stop offset="1" style="stop-color:#000000;stop-opacity:0"/>
	</linearGradient>
	<path style="fill:url(#SVGID_1_);" d="M13.83,7.801C12.874,8.441,11.209,9,11,9c-0.379,0-1.252-0.411-1.859-0.947l6.778,6.778   C15.754,12.904,15.259,10.724,13.83,7.801z"/>
	<linearGradient id="SVGID_2_" gradientUnits="userSpaceOnUse" x1="5.2451" y1="10.0597" x2="23.0856" y2="18.3789">
		<stop offset="0" style="stop-color:#FFFFFF;stop-opacity:0.2"/>
		<stop offset="1" style="stop-color:#FFFFFF;stop-opacity:0"/>
	</linearGradient>
	<path style="fill:url(#SVGID_2_);" d="M20.926,19.074c-0.207-0.136-0.421-0.276-0.573-0.428c-0.088-0.088-0.048-0.497-0.026-0.717   c0.042-0.422,0.084-0.857-0.199-1.17c-0.036-0.04-0.099-0.078-0.157-0.117C19.985,16.438,20,16.237,20,16   c0-3.247-1.496-5.12-2.697-6.625C16.575,8.463,16,7.743,16,7l0.001-0.233c0.008-1.38,0.024-4.253-1.502-5.788   C13.853,0.33,13.012,0,12,0C9.899,0,8.5,1.021,8.5,6c0,1.371-0.577,2.493-1.187,3.682c-0.268,0.521-0.544,1.06-0.776,1.63   c-0.419,1.03-1.333,3.399-1.501,4.784c-0.54,0.227-0.697,0.835-0.785,1.197c-0.03,0.125-0.076,0.312-0.081,0.334   c-0.074,0.046-0.354,0.101-0.538,0.138C3.021,17.885,2,18.087,2,19c0,0.266,0.04,0.491,0.083,0.726   c0.077,0.416,0.15,0.809-0.067,1.649C2.005,21.416,2,21.458,2,21.5c0,1.202,1.867,1.358,2.983,1.451   c0.186,0.016,0.34,0.027,0.439,0.043c0.154,0.024,0.476,0.173,0.788,0.316C6.876,23.618,7.706,24,8.5,24   c0.365,0,0.673-0.164,0.906-0.434l0.011,0.009C9.639,23.328,11.112,23,12,23h3.061c0.055,0.193,0.135,0.385,0.288,0.553   C15.619,23.85,16.006,24,16.5,24c1.298,0,1.927-0.669,2.536-1.315c0.103-0.109,0.208-0.221,0.318-0.331   c0.253-0.253,0.749-0.434,1.187-0.594C21.258,21.498,22,21.227,22,20.5C22,19.779,21.405,19.388,20.926,19.074z"/>
</g>
<g>
</g>
<g>
</g>
<g>
</g>
<g>
</g>
<g>
</g>
<g>
</g>
<g>
</g>
<g>
</g>
<g>
</g>
<g>
</g>
<g>
</g>
<g>
</g>
<g>
</g>
<g>
</g>
<g>
</g>

	<metadata>
		<rdf:RDF xmlns:rdf="http://www.w3.org/1999/02/22-rdf-syntax-ns#" xmlns:rdfs="http://www.w3.org/2000/01/rdf-schema#" xmlns:dc="http://purl.org/dc/elements/1.1/">
			<rdf:Description about="https://iconscout.com/legal#licenses" dc:title="logo; brand; brands; logos; linux" dc:description="logo; brand; brands; logos; linux" dc:publisher="Iconscout" dc:date="2017-03-22" dc:format="image/svg+xml" dc:language="en">
				<dc:creator>
					<rdf:Bag>
						<rdf:li>Alpár - Etele Méder</rdf:li>
					</rdf:Bag>
				</dc:creator>
			</rdf:Description>
		</rdf:RDF>
    </metadata></svg>
