<?xml version="1.0" encoding="utf-8"?>
<svg xmlns="http://www.w3.org/2000/svg" xmlns:xlink="http://www.w3.org/1999/xlink" version="1.1" id="Layer_1" x="0px" y="0px" viewBox="0 0 24 24" style="enable-background:new 0 0 24 24;" xml:space="preserve">
<style type="text/css">
	.st0{fill:none;stroke:#303C42;stroke-linecap:round;stroke-linejoin:round;}
</style>
<title>Total Commander</title>
<g id="Total_Commander">
	<g id="_Group_">
		<path id="_Path_" class="st0" d="M22.5,4.5V21c0,0.8-0.7,1.5-1.5,1.5H3c-0.8,0-1.5-0.7-1.5-1.5V3c0-0.8,0.7-1.5,1.5-1.5h16.5    L22.5,4.5z" style="fill: none; stroke: #303C42; stroke-linecap: round; stroke-linejoin: round;"/>
		<path id="_Rectangle_" class="st0" d="M7.5,1.5h11l0,0V8c0,0.8-0.7,1.5-1.5,1.5H9C8.2,9.5,7.5,8.8,7.5,8V1.5L7.5,1.5z" style="fill: none; stroke: #303C42; stroke-linecap: round; stroke-linejoin: round;"/>
		<rect id="_Rectangle_2" x="14.5" y="3.5" class="st0" width="2" height="4" style="fill: none; stroke: #303C42; stroke-linecap: round; stroke-linejoin: round;"/>
		<rect id="_Rectangle_3" x="4.5" y="12.5" class="st0" width="15" height="10" style="fill: none; stroke: #303C42; stroke-linecap: round; stroke-linejoin: round;"/>
		<line id="_Path_2" class="st0" x1="6.5" y1="14.5" x2="17.5" y2="14.5" style="fill: none; stroke: #303C42; stroke-linecap: round; stroke-linejoin: round;"/>
		<line id="_Path_3" class="st0" x1="6.5" y1="16.5" x2="17.5" y2="16.5" style="fill: none; stroke: #303C42; stroke-linecap: round; stroke-linejoin: round;"/>
		<line id="_Path_4" class="st0" x1="6.5" y1="18.5" x2="17.5" y2="18.5" style="fill: none; stroke: #303C42; stroke-linecap: round; stroke-linejoin: round;"/>
		<line id="_Path_5" class="st0" x1="4.5" y1="20.5" x2="19.5" y2="20.5" style="fill: none; stroke: #303C42; stroke-linecap: round; stroke-linejoin: round;"/>
	</g>
</g>

	<metadata>
		<rdf:RDF xmlns:rdf="http://www.w3.org/1999/02/22-rdf-syntax-ns#" xmlns:rdfs="http://www.w3.org/2000/01/rdf-schema#" xmlns:dc="http://purl.org/dc/elements/1.1/">
			<rdf:Description about="https://iconscout.com/legal#licenses" dc:title="logo; brand; brands; logos; total commander" dc:description="logo; brand; brands; logos; total commander" dc:publisher="Iconscout" dc:date="2017-02-21" dc:format="image/svg+xml" dc:language="en">
				<dc:creator>
					<rdf:Bag>
						<rdf:li>Alpár - Etele Méder</rdf:li>
					</rdf:Bag>
				</dc:creator>
			</rdf:Description>
		</rdf:RDF>
    </metadata></svg>
