<svg xmlns="http://www.w3.org/2000/svg" width="48" height="48" viewBox="0 0 48 48"><g transform="translate(0 -1004.362)"><circle cx="24" cy="1028.362" r="24" fill="#576d7e"/><g transform="translate(-203.6 857.346)"><path fill="#f8a43f" d="m 216.98288,168.4244 9.6204,-7.6005 c 0,0 0.2808,-0.22368 0.4958,-0.2237 0.215,-2e-5 0.5165,0.23992 0.5165,0.23992 l 9.6557,7.62524 c 0.3707,0.29275 0.3278,0.63794 0.3278,0.96687 l 0,11.40626 c 0,0.32894 -0.3802,0.59375 -0.8526,0.59375 l -19.2948,0 c -0.4723,0 -0.8526,-0.26481 -0.8526,-0.59375 l 0,-11.40626 c 0,-0.32893 0.013,-0.71505 0.3838,-1.00783 z"/><rect width="15" height="13" x="219.599" y="161.432" fill="#e9eded" rx=".609" ry=".594"/><path fill="none" stroke="#cad1d8" d="M221.59908 163.93223l11 0M221.59908 165.93223l11 0M221.59908 167.93223l11 0M221.59908 169.93223l11 0"/><path fill="#fcd062" d="m 217.45168,168.43221 9.6474,5.0625 9.6474,-5.0625 c 0.4183,-0.21947 0.8526,0.26482 0.8526,0.59375 l 0,11.81253 c 0,0.32894 -0.3802,0.59375 -0.8526,0.59375 l -19.2948,0 c -0.4723,0 -0.8526,-0.26481 -0.8526,-0.59375 l 0,-11.81253 c 0,-0.32893 0.4344,-0.81322 0.8526,-0.59375 z"/><path fill="#f8b84e" d="M236.91158 168.36973c.3633-.0498.6875.36844.6875.65625l0 11.8125c-.114-.5022-10.5-7.34375-10.5-7.34375l9.6562-5.0625c.052-.0274.1044-.0554.1563-.0625zM217.28658 168.36973c-.3633-.0498-.6875.36844-.6875.65625l0 11.8125c.114-.5022 10.5-7.34375 10.5-7.34375l-9.6562-5.0625c-.052-.0274-.1044-.0554-.1563-.0625z"/><g transform="rotate(-45 -25.098 2016.203)"><rect width="2" height="7.133" x="1464.918" y="888.437" fill="#4bbfeb" rx=".54" ry=".54" transform="rotate(.187)"/><circle cx="18.5" cy="13.5" r="2.5" fill="#ccc" opacity=".7" transform="rotate(38.464 -513.702 2521.435) scale(1.00408)"/><path fill="#48b0e1" d="m 1464.0178,893.1796 -2.0255,-0.0127 0.01,0.76073 c 0.7476,0.18215 1.3163,0.1738 2.0227,0.0851 z"/><path fill="#576d7e" d="m 1465.5523,885.12574 c -0.7166,-0.48756 -1.5816,-0.77215 -2.5136,-0.77526 -2.4853,-0.008 -4.5191,2.0033 -4.5271,4.48853 -0.01,2.4853 2.0032,4.51916 4.4884,4.52729 2.4853,0.008 4.5191,-2.00337 4.5273,-4.48861 0.01,-1.55329 -0.7807,-2.93933 -1.975,-3.75195 z m -1.1137,1.66594 c 0.6634,0.45168 1.076,1.20753 1.0732,2.07047 -0.01,1.38064 -1.1154,2.49309 -2.4962,2.48866 -1.3806,-0.004 -2.4931,-1.11555 -2.4885,-2.49619 -5e-4,-1.38063 1.1153,-2.49316 2.4959,-2.48857 0.5178,0.002 1.0174,0.15482 1.4156,0.42563 z"/><path fill="none" stroke="#fff" stroke-linecap="round" stroke-linejoin="round" stroke-width="1.339" d="m 19.475113,11.198011 a 2.5,2.5 0 0 1 1.400507,1.523255" transform="matrix(.61207 .44625 -.4267 .59962 1457.336 872.378)"/></g></g></g></svg>