<svg xmlns="http://www.w3.org/2000/svg" width="64" height="64"><g transform="translate(-1441 -877.362)"><path fill="#f8a43f" d="m 1446.3838,890.35437 9.6204,-7.6005 c 0,0 0.2808,-0.22368 0.4958,-0.2237 0.215,-2e-5 0.5165,0.23992 0.5165,0.23992 l 9.6557,7.62524 c 0.3707,0.29275 0.3278,0.63794 0.3278,0.96687 l 0,11.40626 c 0,0.32894 -0.3802,0.59375 -0.8526,0.59375 l -19.2948,0 c -0.4723,0 -0.8526,-0.26481 -0.8526,-0.59375 l 0,-11.40626 c 0,-0.32893 0.013,-0.71505 0.3838,-1.00783 z"/><rect width="15" height="13" x="1449" y="883.362" fill="#e9eded" rx=".609" ry=".594"/><path fill="none" stroke="#cad1d8" d="M1451 885.8622l11 0M1451 887.8622l11 0M1451 889.8622l11 0M1451 891.8622l11 0"/><path fill="#fcd062" d="m 1446.8526,890.36218 9.6474,5.0625 9.6474,-5.0625 c 0.4183,-0.21947 0.8526,0.26482 0.8526,0.59375 l 0,11.81253 c 0,0.32894 -0.3802,0.59375 -0.8526,0.59375 l -19.2948,0 c -0.4723,0 -0.8526,-0.26481 -0.8526,-0.59375 l 0,-11.81253 c 0,-0.32893 0.4344,-0.81322 0.8526,-0.59375 z"/><path fill="#f8b84e" d="m 1466.3125,890.2997 c 0.3633,-0.0498 0.6875,0.36844 0.6875,0.65625 l 0,11.8125 c -0.114,-0.5022 -10.5,-7.34375 -10.5,-7.34375 l 9.6562,-5.0625 c 0.052,-0.0274 0.1044,-0.0554 0.1563,-0.0625 z"/><path fill="#f8b84e" d="m 1446.6875,-130.0625 c -0.3633,-0.0498 -0.6875,0.36844 -0.6875,0.65625 l 0,11.8125 c 0.114,-0.5022 10.5,-7.34375 10.5,-7.34375 L 1446.8438,-130 c -0.052,-0.0274 -0.1044,-0.0554 -0.1563,-0.0625 z" transform="translate(0 1020.362)"/><g transform="rotate(-45 1461.049 893.15)"><rect width="2" height="7.133" x="1464.918" y="888.437" fill="#4bbfeb" rx=".54" ry=".54" transform="rotate(.187)"/><path fill="#ccc" d="M 21,13.5 C 21,14.880712 19.880712,16 18.5,16 17.119288,16 16,14.880712 16,13.5 16,12.119288 17.119288,11 18.5,11 c 1.380712,0 2.5,1.119288 2.5,2.5 z" opacity=".7" transform="rotate(38.464 -513.702 2521.435) scale(1.00408)"/><path fill="#48b0e1" d="m 1464.0178,893.1796 -2.0255,-0.0127 0.01,0.76073 c 0.7476,0.18215 1.3163,0.1738 2.0227,0.0851 z"/><path fill="#576d7e" d="m 1465.5523,885.12574 c -0.7166,-0.48756 -1.5816,-0.77215 -2.5136,-0.77526 -2.4853,-0.008 -4.5191,2.0033 -4.5271,4.48853 -0.01,2.4853 2.0032,4.51916 4.4884,4.52729 2.4853,0.008 4.5191,-2.00337 4.5273,-4.48861 0.01,-1.55329 -0.7807,-2.93933 -1.975,-3.75195 z m -1.1137,1.66594 c 0.6634,0.45168 1.076,1.20753 1.0732,2.07047 -0.01,1.38064 -1.1154,2.49309 -2.4962,2.48866 -1.3806,-0.004 -2.4931,-1.11555 -2.4885,-2.49619 -5e-4,-1.38063 1.1153,-2.49316 2.4959,-2.48857 0.5178,0.002 1.0174,0.15482 1.4156,0.42563 z"/><path fill="none" stroke="#fff" stroke-linecap="round" stroke-linejoin="round" stroke-width="1.339" d="m 19.475113,11.198011 c 0.66492,0.281657 1.175573,0.837066 1.400507,1.523255" transform="matrix(.61207 .44625 -.4267 .59962 1457.336 872.378)"/></g></g></svg>