<svg xmlns="http://www.w3.org/2000/svg" width="64" height="64" enable-background="new 0 0 64 64" viewBox="0 0 64 64"><path fill="#2D2F64" d="M43.84,5.217C40.049,1.086,34.473,0,32,0h-0.116c-2.444,0-7.961,1.076-11.724,5.168
		c-2.773,3.016-3.957,6.953-3.521,11.694c0.165,1.766,0.602,3.637,1.31,5.566C20.81,30.244,26.725,35.917,32,35.917
		c5.449,0,11.094-5.421,14.051-13.488c0.708-1.93,1.145-3.801,1.309-5.566C47.796,12.15,46.613,8.223,43.84,5.217z M42.414,6.525
		c1.125,1.223,1.93,2.628,2.444,4.199l-7.758-3.181l4.674-1.668C41.997,6.09,42.211,6.303,42.414,6.525z M21.586,6.478
		c3.073-3.336,7.815-4.538,10.298-4.538h0.048c0.01,0,0.01,0,0.02,0c1.892,0.02,5.169,0.708,8,2.53l-5.935,2.104c0,0,0,0,0,0.01
		l-15.214,5.401C19.248,9.871,20.17,8.029,21.586,6.478z M45.431,16.688c-0.146,1.59-0.554,3.307-1.203,5.081
		C41.6,28.955,36.567,33.978,32,33.978c-4.422,0-9.678-5.256-12.228-12.208c-0.65-1.774-1.058-3.491-1.203-5.081
		c-0.077-0.883-0.087-1.727-0.038-2.551l15.835-5.624l10.996,4.519C45.518,14.177,45.547,15.389,45.431,16.688z"/><path fill="#BAD5EA" d="M39.951 4.47l-5.935 2.104c0 0 0 0 0 .01l-15.214 5.401c.445-2.114 1.367-3.956 2.783-5.508 3.073-3.336 7.815-4.538 10.298-4.538h.048c.01 0 .01 0 .02 0C33.843 1.959 37.12 2.647 39.951 4.47zM44.858 10.725l-7.758-3.181 4.674-1.668c.223.214.437.427.64.649C43.539 7.748 44.344 9.153 44.858 10.725z"/><path fill="#FFE5AB" d="M45.431,16.688c-0.146,1.59-0.554,3.307-1.203,5.081C41.6,28.955,36.567,33.978,32,33.978
		c-4.422,0-9.678-5.256-12.228-12.208c-0.65-1.774-1.058-3.491-1.203-5.081c-0.077-0.883-0.087-1.727-0.038-2.551l15.835-5.624
		l10.996,4.519C45.518,14.177,45.547,15.389,45.431,16.688z"/><path fill="#9CB7CC" d="M39.951 4.47l-3.006 1.067c-1.881-.844-3.772-1.184-4.984-1.203-.01 0-.01 0-.02 0h-.038c-2.065 0-6.003 1.009-8.563 3.772-.786.863-1.387 1.833-1.804 2.909l-2.734.97c.445-2.114 1.367-3.956 2.783-5.508 3.073-3.336 7.815-4.538 10.298-4.538h.048c.01 0 .01 0 .02 0C33.843 1.959 37.12 2.647 39.951 4.47zM44.858 10.725l-3.084-1.261c-.466-.873-1.752-2.271-2.477-2.704l2.477-.884c.223.214.437.427.64.649C43.539 7.748 44.344 9.153 44.858 10.725z"/><path fill="#F3C88C" d="M45.431,16.688c-0.146,1.59-0.554,3.307-1.203,5.081C41.6,28.955,36.567,33.978,32,33.978
		c-4.422,0-9.678-5.256-12.228-12.208c-0.65-1.774-1.058-3.491-1.203-5.081c-0.077-0.883-0.087-1.727-0.038-2.551l2.414-0.854
		c-0.232,0.824-0.175,2.929-0.106,3.617c0.116,1.319,0.456,2.754,0.999,4.229C23.961,26.908,28.325,31.271,32,31.271
		c3.791,0,7.98-4.179,10.162-10.142c0.543-1.475,0.883-2.909,0.999-4.229c0.087-0.96,0.185-3.462-0.175-4.849l2.376,0.979
		C45.518,14.177,45.547,15.389,45.431,16.688z"/><path fill="#2D2F64" d="M51.094,36.344c-2.338-0.912-4.286-1.658-6.42-2.25l-0.223-0.068c-0.301-0.096-0.621-0.048-0.873,0.137
		L32,42.627l-11.578-8.465c-0.252-0.185-0.572-0.232-0.873-0.137l-0.193,0.059c-2.211,0.621-4.229,1.387-6.439,2.26
		c-5.973,2.309-9.26,7.195-9.26,13.77v12.916C3.656,63.563,4.092,64,4.625,64h54.749c0.534,0,0.97-0.438,0.97-0.971V50.113
		C60.344,43.539,57.057,38.652,51.094,36.344z M58.404,62.061h-8.601v-7.894c0-0.534-0.437-0.97-0.97-0.97s-0.97,0.436-0.97,0.97
		v7.894H16.136v-7.894c0-0.534-0.437-0.97-0.97-0.97s-0.97,0.436-0.97,0.97v7.894H5.595V50.113c0-4.043,1.396-9.396,8.02-11.966
		c2.095-0.814,3.995-1.542,6.051-2.134l11.763,8.592c0.34,0.252,0.805,0.252,1.145,0l11.762-8.592
		c1.988,0.572,3.851,1.271,6.052,2.134c6.623,2.569,8.019,7.923,8.019,11.966V62.061z"/><path fill="#41C4DF" d="M50.386,38.147c-2.201-0.863-4.063-1.562-6.052-2.134l-11.762,8.592c-0.34,0.252-0.805,0.252-1.145,0
		l-11.763-8.592c-2.056,0.592-3.956,1.319-6.051,2.134c-6.623,2.569-8.02,7.923-8.02,11.966v11.947h8.602v-7.894
		c0-0.534,0.437-0.97,0.97-0.97s0.97,0.436,0.97,0.97v7.894h31.729v-7.894c0-0.534,0.437-0.97,0.97-0.97s0.97,0.436,0.97,0.97v7.894
		h8.601V50.113C58.404,46.07,57.009,40.717,50.386,38.147z M51.859,47.796h-8.311c-0.533,0-0.97-0.437-0.97-0.97
		c0-0.543,0.437-0.97,0.97-0.97h8.311c0.533,0,0.97,0.427,0.97,0.97C52.829,47.359,52.393,47.796,51.859,47.796z"/><path fill="#2AB1D4" d="M9.9,49.726v9.833h4.296v2.502H5.595V50.113c0-4.043,1.396-9.396,8.02-11.966
		c2.095-0.814,3.995-1.542,6.051-2.134l2.754,2.008c-1.609,0.504-4.218,1.26-5.809,1.871C11.064,42.007,9.9,46.409,9.9,49.726z"/><rect width="31.729" height="2.502" x="16.136" y="59.559" fill="#2AB1D4"/><path fill="#2AB1D4" d="M58.404,50.113v11.947h-8.601v-2.502H54.1v-9.833c0-3.316-1.164-7.719-6.711-9.833
		c-1.668-0.649-4.237-1.387-5.799-1.871l2.744-2.008c1.988,0.572,3.851,1.271,6.052,2.134C57.009,40.717,58.404,46.07,58.404,50.113
		z"/><path fill="#2D2F64" d="M52.829,46.826c0,0.533-0.437,0.97-0.97,0.97h-8.311c-0.533,0-0.97-0.437-0.97-0.97
		c0-0.543,0.437-0.97,0.97-0.97h8.311C52.393,45.856,52.829,46.283,52.829,46.826z"/></svg>