<svg xmlns="http://www.w3.org/2000/svg" width="48" height="48" viewBox="0 0 48 48"><g transform="translate(0 -1004.362)"><path fill="#c2e4f8" fill-rule="evenodd" d="m 14.86963,1044.3963 -6.90399,-6.904 -2.46557,9.3697 z"/><path fill="#c2e4f8" d="m 37.33087,1021.9349 3.45191,-3.452 c 0.95621,-0.9561 0.95631,-2.4956 10e-5,-3.452 l -3.4517,-3.4517 c -0.95628,-0.9563 -2.49607,-0.9563 -3.45231,-10e-5 l -3.45188,3.4519 z"/><path fill="#c2e4f8" d="m 14.86953,1044.3962 22.68422,-22.6842 -6.90389,-6.9039 -22.68422,22.6842 z"/><path fill="#fff" fill-rule="evenodd" d="m 6.32255,1043.7394 -0.82258,3.1227 3.12259,-0.8227 -2.30001,-2.3 z"/><path fill="#fff" fill-rule="evenodd" d="m 7.9654,1037.4924 -1.73051,6.5779 1.19415,0.5527 1.59702,-6.0699 z"/><path fill="#fff" d="m 30.64944,1014.8084 -22.68404,22.684 1.06066,1.0607 22.68404,-22.6841 -1.06066,-1.0606 z"/><path fill="#fff" d="m 739.25043,694.51019 9.76358,0 0,2.7896 -9.76358,0 z" transform="rotate(45)"/><path fill="#fff" d="m 37.33105,1011.5794 c -0.95628,-0.9562 -2.49643,-0.9562 -3.45267,0 l -3.45129,3.4513 1.06066,1.0607 3.45129,-3.4513 c 0.95624,-0.9562 2.49639,-0.9563 3.45267,0 l -1.06066,-1.0607 z"/><path fill="#249fe6" fill-rule="evenodd" style="line-height:normal;text-indent:0;text-align:start;text-decoration-line:none;text-decoration-style:solid;text-decoration-color:#000;text-transform:none;block-progression:tb;isolation:auto;mix-blend-mode:normal" d="m 35.605469,1010.3613 a 0.50005,0.50005 0 0 0 -0.353516,0.1465 c -0.620427,0.082 -1.250715,0.2409 -1.726562,0.7168 l -2.242188,2.2422 -1.208984,1.2109 -0.763672,0.7618 -21.6992189,21.6992 a 0.50005,0.50005 0 0 0 -0.1308593,0.2265 l -2.4648438,9.3692 a 0.50005,0.50005 0 0 0 0.6113281,0.6113 l 9.3691409,-2.4648 a 0.50005,0.50005 0 0 0 0.226562,-0.1309 l 21.699219,-21.6992 0.761719,-0.7637 0.121094,-0.1211 0.101562,-0.098 a 0.50005,0.50005 0 0 0 0.002,-0 l 0.984375,-0.9864 2.244141,-2.2422 c 1.146193,-1.146 1.146068,-3.0139 0,-4.1601 l -3.451172,-3.4512 c -0.573238,-0.5732 -1.32869,-0.8632 -2.080078,-0.8633 z m 0,1 c 0.496572,10e-5 0.990004,0.1873 1.373047,0.5703 l 3.451172,3.4512 c 0.766352,0.7664 0.766386,1.9798 0,2.7461 l -2.244141,2.2422 -0.982422,0.9863 -0.101563,0.098 a 0.50005,0.50005 0 0 0 -0.002,0 l -0.123047,0.1231 a 0.50005,0.50005 0 0 0 0,0 l -0.761718,0.7618 -21.603516,21.6035 -8.408203,2.2129 2.2109375,-8.4102 21.6035155,-21.6016 0.763672,-0.7617 a 0.50005,0.50005 0 0 0 0,-0 l 1.208984,-1.211 2.242188,-2.2422 c 0.383069,-0.3831 0.876378,-0.5702 1.373047,-0.5703 z" color="#000" font-family="sans-serif" font-weight="400" overflow="visible" white-space="normal"/><path fill="#249fe6" fill-rule="evenodd" style="line-height:normal;text-indent:0;text-align:start;text-decoration-line:none;text-decoration-style:solid;text-decoration-color:#000;text-transform:none;block-progression:tb;isolation:auto;mix-blend-mode:normal" d="m 7.9570312,1036.9922 a 0.50005,0.50005 0 0 0 -0.4765624,0.373 l -1.6425782,6.2461 a 0.50005,0.50005 0 0 0 0.1308594,0.4805 l 2.3007812,2.3008 A 0.50005,0.50005 0 0 0 8.75,1046.5234 l 6.246094,-1.6425 a 0.50005,0.50005 0 0 0 0.226562,-0.8379 l -6.9042966,-6.9043 a 0.50005,0.50005 0 0 0 -0.3613282,-0.1465 z m 0.2695313,1.4687 5.6738285,5.6739 -5.1269535,1.3476 -1.8945313,-1.8945 1.3476563,-5.127 z" color="#000" font-family="sans-serif" font-weight="400" overflow="visible" white-space="normal"/><path fill="#fff" d="m 31.63552,1013.8223 -1.97216,1.9722 1.06066,1.0606 1.97216,-1.9721 -1.06066,-1.0607 z"/><path fill="#249fe6" style="line-height:normal;text-indent:0;text-align:start;text-decoration-line:none;text-decoration-style:solid;text-decoration-color:#000;text-transform:none;block-progression:tb;isolation:auto;mix-blend-mode:normal" d="m 31.989673,1013.4677 a 0.50005,0.50005 0 0 0 -0.707106,0 l -1.972164,1.9722 a 0.50005,0.50005 0 0 0 0,0.7071 l 6.903958,6.9039 a 0.50005,0.50005 0 0 0 0.707106,0 l 1.972164,-1.9721 a 0.50005,0.50005 0 0 0 0,-0.7071 l -6.903958,-6.904 z m -0.353553,1.0607 6.19685,6.1968 -1.265056,1.2651 -6.19685,-6.1969 1.265056,-1.265 z" color="#000" font-family="sans-serif" font-weight="400" overflow="visible" white-space="normal"/></g></svg>