<svg xmlns="http://www.w3.org/2000/svg" width="48" height="48" viewBox="0 0 48 48"><g transform="translate(0 -1004.364)"><path fill="#d3c874" d="m 8.0247841,1015.865 31.9504319,0 c 1.95273,0 3.524784,1.6069 3.524784,3.6028 l 0,17.7916 c 0,1.996 -1.572054,3.6029 -3.524784,3.6029 l -31.9504319,0 C 6.0720537,1040.8623 4.5,1039.2554 4.5,1037.2594 l 0,-17.7916 c 0,-1.996 1.5720537,-3.6028 3.5247841,-3.6028 z"/><path fill="#f9f9f9" d="M 8.0253906,11.501953 C 6.0726602,11.501953 4.5,13.109469 4.5,15.105469 l 0,17.791015 C 4.5,34.892484 6.0726602,36.5 8.0253906,36.5 l 1.5,0 C 7.5726602,36.5 6,34.892484 6,32.896484 L 6,15.105469 c 0,-1.996 1.5726602,-3.603516 3.5253906,-3.603516 l -1.5,0 z" transform="translate(0 1004.362)"/><path fill="#e7e377" d="m 8.0236078,1015.8658 c -0.7609424,0 -1.4585197,0.2467 -2.0333513,0.6627 l 0.022561,0.051 16.3824395,12.6682 c 0.902891,0.698 2.357271,0.698 3.26013,0 l 16.331675,-12.6288 0.01692,-0.093 c -0.573911,-0.4138 -1.26896,-0.6599 -2.027711,-0.6599 l -31.9526646,0 z"/><path fill="#fff" d="m 8.0234375,11.503906 c -0.7609424,0 -1.4583715,0.24611 -2.0332031,0.66211 l 0.023437,0.05078 16.3808586,12.667969 c 0.646244,0.499593 1.574011,0.635496 2.38086,0.419922 -0.320433,-0.08561 0.07626,-0.221516 -0.180391,-0.419922 L 7.5117188,12.216797 7.4902344,12.166016 c 0.5748316,-0.416 1.2722607,-0.66211 2.0332031,-0.66211 z" transform="translate(0 1004.362)"/><path fill="none" stroke="#6a3e5e" stroke-linecap="round" stroke-linejoin="round" d="m 42.479038,1016.9996 -17.304062,12.5053 c -0.629918,0.4552 -1.862234,0.4576 -2.480723,0 L 5.6547969,1016.9805" color="#000" font-family="sans-serif" font-weight="400" overflow="visible" white-space="normal" style="line-height:normal;text-indent:0;text-align:start;text-decoration-line:none;text-decoration-style:solid;text-decoration-color:#000;text-transform:none;block-progression:tb;isolation:auto;mix-blend-mode:normal"/><path fill="none" stroke="#6a3e5e" stroke-linecap="round" stroke-linejoin="round" stroke-width="1.016" d="m 37.48618,1034.8253 -9.393789,-7.2436 m -8.205227,0.039 -9.373344,7.2295"/><path fill="none" stroke="#6a3e5e" stroke-linecap="round" stroke-linejoin="round" d="m 8.0247841,1015.865 31.9504319,0 c 1.95273,0 3.524784,1.6069 3.524784,3.6028 l 0,17.7916 c 0,1.996 -1.572054,3.6029 -3.524784,3.6029 l -31.9504319,0 C 6.0720537,1040.8623 4.5,1039.2554 4.5,1037.2594 l 0,-17.7916 c 0,-1.996 1.5720537,-3.6028 3.5247841,-3.6028 z"/></g></svg>