<svg xmlns="http://www.w3.org/2000/svg" width="48" height="48" viewBox="0 0 48 48"><g transform="translate(0 -1004.362)"><circle cx="24" cy="1028.362" r="24" fill="#239fdb" fill-rule="evenodd"/><g transform="translate(-186 -1399)"><g transform="matrix(.9375 0 0 .95 12.188 190.28)"><rect width="32" height="20" x="195" y="2345.362" fill="#fcd062" rx="1" ry="1"/><path fill="#f9b945" fill-opacity=".341" d="m 195,2347.0343 0,-0.5794 1,-1.0927 30,0 1,1.0927 0,0.5794 -15.39784,12.0611 c -0.37682,0.3605 -0.7505,0.3556 -1.22266,-0.014 z"/><path fill="#f8b740" d="m 196,1325 c -0.55228,0 -1,0.4477 -1,1 l 0,0.5312 0.28125,0.1876 15.09375,10.8437 c 0.47216,0.3384 0.84193,0.3299 1.21875,0 L 227,1326.5312 227,1326 c 0,-0.5523 -0.44772,-1 -1,-1 l -30,0 z" transform="translate(0 1020.362)"/></g><g transform="translate(613.289 402)"><circle cx="-508.675" cy="889.197" r="6.5" fill="#f05542" transform="translate(115.907 1131.665)"/><circle cx="-508.675" cy="889.197" r="4.5" fill="#f17f53" transform="translate(115.907 1131.665)"/><path fill="none" stroke="#fff" stroke-linecap="round" stroke-linejoin="round" stroke-width="2" d="M-394.53515 2022.6324l3.53518-3.5404M-394.5378 2019.0946l3.5378 3.5378"/></g></g></g></svg>