<svg xmlns="http://www.w3.org/2000/svg" width="48" height="48" viewBox="0 0 48 48"><g transform="translate(-1.012 -1004.362)"><path fill="#72b6d3" d="m 13.021226,1008.8642 c -0.830442,5e-4 -1.506892,0.6672 -1.519435,1.4975 l -0.002,0 0,35.9791 0,0.022 c 0.01153,0.8319 0.689488,1.5 1.52144,1.4994 l 0.01804,0 22.960558,0 c 2.493024,0 4.500172,-2.0071 4.500172,-4.5003 l 0,-29.9995 c 0,-2.4931 -2.007148,-4.5002 -4.500172,-4.5002 l -22.960558,0 -0.01804,0 z"/><path fill="#fff" d="m 13.021484,4.5 0,0.00195 C 12.191042,4.5024531 11.514496,5.1697 11.501953,6 L 11.5,6 11.5,41.978516 11.5,42 c 0.01153,0.8319 0.689532,1.5006 1.521484,1.5 l 0.01758,0 1.482422,0 C 13.689532,43.5006 13.01153,42.8319 13,42 L 13,41.978516 13,6 13.002,6 c 0.01254,-0.8303 0.689089,-1.4975469 1.519531,-1.4980469 l 0,-0.00195 -1.482422,0 -0.01758,0 z" transform="translate(0 1004.362)"/><path fill="#ba7aae" d="m 28.5,1008.8623 5,0 0,8.7499 -2.497998,-1.8758 -2.502002,1.8758 z"/><rect width="14" height="7" x="19" y="1034.362" fill="#e2d3e2" rx="1" ry="1"/><path fill="none" stroke="#6a3e5e" stroke-linecap="round" stroke-linejoin="round" d="m 13.021226,1008.8642 c -0.830442,5e-4 -1.506892,0.6672 -1.519435,1.4975 l -0.002,0 0,35.9791 0,0.022 c 0.01153,0.8319 0.689488,1.5 1.52144,1.4994 l 0.01804,0 22.960558,0 c 2.493024,0 4.500172,-2.0071 4.500172,-4.5003 l 0,-29.9995 c 0,-2.4931 -2.007148,-4.5002 -4.500172,-4.5002 l -22.960558,0 -0.01804,0 z"/><g transform="translate(0 25)"><path fill="#758b98" fill-rule="evenodd" d="m 10.538493,1012.3623 a 1.0001,1.0001 0 1 0 0,2 l 2.947265,0 a 1.0001,1.0001 0 1 0 0,-2 l -2.947265,0 z" color="#000" font-family="sans-serif" font-weight="400" overflow="visible" white-space="normal" style="line-height:normal;text-indent:0;text-align:start;text-decoration-line:none;text-decoration-style:solid;text-decoration-color:#000;text-transform:none;block-progression:tb;isolation:auto;mix-blend-mode:normal"/><path fill="#fff" fill-rule="evenodd" style="line-height:normal;text-indent:0;text-align:start;text-decoration-line:none;text-decoration-style:solid;text-decoration-color:#000;text-transform:none;block-progression:tb;isolation:auto;mix-blend-mode:normal" d="m 10.539062,8 a 1.0001,1.0001 0 1 0 0,2 l 1.404297,0 a 1.0001,1.0001 0 0 1 0.07031,-1.9980469 l 1.541016,0 A 1.0001,1.0001 0 0 0 13.486328,8 l -2.947266,0 z" color="#000" font-family="sans-serif" font-weight="400" overflow="visible" transform="translate(0 1004.362)" white-space="normal"/></g><g transform="translate(0 30)"><path fill="#758b98" fill-rule="evenodd" style="line-height:normal;text-indent:0;text-align:start;text-decoration-line:none;text-decoration-style:solid;text-decoration-color:#000;text-transform:none;block-progression:tb;isolation:auto;mix-blend-mode:normal" d="m 10.538493,1012.3623 a 1.0001,1.0001 0 1 0 0,2 l 2.947265,0 a 1.0001,1.0001 0 1 0 0,-2 l -2.947265,0 z" color="#000" font-family="sans-serif" font-weight="400" overflow="visible" white-space="normal"/><path fill="#fff" fill-rule="evenodd" d="m 10.539062,8 a 1.0001,1.0001 0 1 0 0,2 l 1.404297,0 a 1.0001,1.0001 0 0 1 0.07031,-1.9980469 l 1.541016,0 A 1.0001,1.0001 0 0 0 13.486328,8 l -2.947266,0 z" color="#000" font-family="sans-serif" font-weight="400" overflow="visible" transform="translate(0 1004.362)" white-space="normal" style="line-height:normal;text-indent:0;text-align:start;text-decoration-line:none;text-decoration-style:solid;text-decoration-color:#000;text-transform:none;block-progression:tb;isolation:auto;mix-blend-mode:normal"/></g><path fill="#758b98" fill-rule="evenodd" d="m 10.538493,1012.3623 a 1.0001,1.0001 0 1 0 0,2 l 2.947265,0 a 1.0001,1.0001 0 1 0 0,-2 l -2.947265,0 z" color="#000" font-family="sans-serif" font-weight="400" overflow="visible" white-space="normal" style="line-height:normal;text-indent:0;text-align:start;text-decoration-line:none;text-decoration-style:solid;text-decoration-color:#000;text-transform:none;block-progression:tb;isolation:auto;mix-blend-mode:normal"/><path fill="#fff" fill-rule="evenodd" style="line-height:normal;text-indent:0;text-align:start;text-decoration-line:none;text-decoration-style:solid;text-decoration-color:#000;text-transform:none;block-progression:tb;isolation:auto;mix-blend-mode:normal" d="m 10.539062,8 a 1.0001,1.0001 0 1 0 0,2 l 1.404297,0 a 1.0001,1.0001 0 0 1 0.07031,-1.9980469 l 1.541016,0 A 1.0001,1.0001 0 0 0 13.486328,8 l -2.947266,0 z" color="#000" font-family="sans-serif" font-weight="400" overflow="visible" transform="translate(0 1004.362)" white-space="normal"/><path fill="none" stroke="#6a3e5e" stroke-linecap="round" stroke-linejoin="round" d="M10.538493 1012.3623a1.0001 1.0001 0 1 0 0 2l2.947265 0a1.0001 1.0001 0 1 0 0-2l-2.947265 0zM10.538493 1042.3621a1.0001 1.0001 0 1 0 0 2l2.947265 0a1.0001 1.0001 0 1 0 0-2l-2.947265 0zM10.538493 1037.3621a1.0001 1.0001 0 1 0 0 2l2.947265 0a1.0001 1.0001 0 1 0 0-2l-2.947265 0z" color="#000" font-family="sans-serif" font-weight="400" overflow="visible" white-space="normal" style="line-height:normal;text-indent:0;text-align:start;text-decoration-line:none;text-decoration-style:solid;text-decoration-color:#000;text-transform:none;block-progression:tb;isolation:auto;mix-blend-mode:normal"/><g transform="translate(0 20)"><path fill="#758b98" fill-rule="evenodd" style="line-height:normal;text-indent:0;text-align:start;text-decoration-line:none;text-decoration-style:solid;text-decoration-color:#000;text-transform:none;block-progression:tb;isolation:auto;mix-blend-mode:normal" d="m 10.538493,1012.3623 a 1.0001,1.0001 0 1 0 0,2 l 2.947265,0 a 1.0001,1.0001 0 1 0 0,-2 l -2.947265,0 z" color="#000" font-family="sans-serif" font-weight="400" overflow="visible" white-space="normal"/><path fill="#fff" fill-rule="evenodd" d="m 10.539062,8 a 1.0001,1.0001 0 1 0 0,2 l 1.404297,0 a 1.0001,1.0001 0 0 1 0.07031,-1.9980469 l 1.541016,0 A 1.0001,1.0001 0 0 0 13.486328,8 l -2.947266,0 z" color="#000" font-family="sans-serif" font-weight="400" overflow="visible" transform="translate(0 1004.362)" white-space="normal" style="line-height:normal;text-indent:0;text-align:start;text-decoration-line:none;text-decoration-style:solid;text-decoration-color:#000;text-transform:none;block-progression:tb;isolation:auto;mix-blend-mode:normal"/></g><path fill="none" stroke="#6a3e5e" stroke-linecap="round" stroke-linejoin="round" d="m 10.538493,1032.3621 a 1.0001,1.0001 0 1 0 0,2 l 2.947265,0 a 1.0001,1.0001 0 1 0 0,-2 l -2.947265,0 z" color="#000" font-family="sans-serif" font-weight="400" overflow="visible" white-space="normal" style="line-height:normal;text-indent:0;text-align:start;text-decoration-line:none;text-decoration-style:solid;text-decoration-color:#000;text-transform:none;block-progression:tb;isolation:auto;mix-blend-mode:normal"/><g transform="translate(0 15)"><path fill="#758b98" fill-rule="evenodd" d="m 10.538493,1012.3623 a 1.0001,1.0001 0 1 0 0,2 l 2.947265,0 a 1.0001,1.0001 0 1 0 0,-2 l -2.947265,0 z" color="#000" font-family="sans-serif" font-weight="400" overflow="visible" white-space="normal" style="line-height:normal;text-indent:0;text-align:start;text-decoration-line:none;text-decoration-style:solid;text-decoration-color:#000;text-transform:none;block-progression:tb;isolation:auto;mix-blend-mode:normal"/><path fill="#fff" fill-rule="evenodd" style="line-height:normal;text-indent:0;text-align:start;text-decoration-line:none;text-decoration-style:solid;text-decoration-color:#000;text-transform:none;block-progression:tb;isolation:auto;mix-blend-mode:normal" d="m 10.539062,8 a 1.0001,1.0001 0 1 0 0,2 l 1.404297,0 a 1.0001,1.0001 0 0 1 0.07031,-1.9980469 l 1.541016,0 A 1.0001,1.0001 0 0 0 13.486328,8 l -2.947266,0 z" color="#000" font-family="sans-serif" font-weight="400" overflow="visible" transform="translate(0 1004.362)" white-space="normal"/></g><path fill="none" stroke="#6a3e5e" stroke-linecap="round" stroke-linejoin="round" d="m 10.538493,1027.3621 a 1.0001,1.0001 0 1 0 0,2 l 2.947265,0 a 1.0001,1.0001 0 1 0 0,-2 l -2.947265,0 z" color="#000" font-family="sans-serif" font-weight="400" overflow="visible" white-space="normal" style="line-height:normal;text-indent:0;text-align:start;text-decoration-line:none;text-decoration-style:solid;text-decoration-color:#000;text-transform:none;block-progression:tb;isolation:auto;mix-blend-mode:normal"/><g transform="translate(0 10)"><path fill="#758b98" fill-rule="evenodd" style="line-height:normal;text-indent:0;text-align:start;text-decoration-line:none;text-decoration-style:solid;text-decoration-color:#000;text-transform:none;block-progression:tb;isolation:auto;mix-blend-mode:normal" d="m 10.538493,1012.3623 a 1.0001,1.0001 0 1 0 0,2 l 2.947265,0 a 1.0001,1.0001 0 1 0 0,-2 l -2.947265,0 z" color="#000" font-family="sans-serif" font-weight="400" overflow="visible" white-space="normal"/><path fill="#fff" fill-rule="evenodd" d="m 10.539062,8 a 1.0001,1.0001 0 1 0 0,2 l 1.404297,0 a 1.0001,1.0001 0 0 1 0.07031,-1.9980469 l 1.541016,0 A 1.0001,1.0001 0 0 0 13.486328,8 l -2.947266,0 z" color="#000" font-family="sans-serif" font-weight="400" overflow="visible" transform="translate(0 1004.362)" white-space="normal" style="line-height:normal;text-indent:0;text-align:start;text-decoration-line:none;text-decoration-style:solid;text-decoration-color:#000;text-transform:none;block-progression:tb;isolation:auto;mix-blend-mode:normal"/></g><path fill="none" stroke="#6a3e5e" stroke-linecap="round" stroke-linejoin="round" d="m 10.538493,1022.3621 a 1.0001,1.0001 0 1 0 0,2 l 2.947265,0 a 1.0001,1.0001 0 1 0 0,-2 l -2.947265,0 z" color="#000" font-family="sans-serif" font-weight="400" overflow="visible" white-space="normal" style="line-height:normal;text-indent:0;text-align:start;text-decoration-line:none;text-decoration-style:solid;text-decoration-color:#000;text-transform:none;block-progression:tb;isolation:auto;mix-blend-mode:normal"/><g transform="translate(0 5)"><path fill="#758b98" fill-rule="evenodd" d="m 10.538493,1012.3623 a 1.0001,1.0001 0 1 0 0,2 l 2.947265,0 a 1.0001,1.0001 0 1 0 0,-2 l -2.947265,0 z" color="#000" font-family="sans-serif" font-weight="400" overflow="visible" white-space="normal" style="line-height:normal;text-indent:0;text-align:start;text-decoration-line:none;text-decoration-style:solid;text-decoration-color:#000;text-transform:none;block-progression:tb;isolation:auto;mix-blend-mode:normal"/><path fill="#fff" fill-rule="evenodd" style="line-height:normal;text-indent:0;text-align:start;text-decoration-line:none;text-decoration-style:solid;text-decoration-color:#000;text-transform:none;block-progression:tb;isolation:auto;mix-blend-mode:normal" d="m 10.539062,8 a 1.0001,1.0001 0 1 0 0,2 l 1.404297,0 a 1.0001,1.0001 0 0 1 0.07031,-1.9980469 l 1.541016,0 A 1.0001,1.0001 0 0 0 13.486328,8 l -2.947266,0 z" color="#000" font-family="sans-serif" font-weight="400" overflow="visible" transform="translate(0 1004.362)" white-space="normal"/></g><path fill="none" stroke="#6a3e5e" stroke-linecap="round" stroke-linejoin="round" d="m 10.538493,1017.3621 a 1.0001,1.0001 0 1 0 0,2 l 2.947265,0 a 1.0001,1.0001 0 1 0 0,-2 l -2.947265,0 z" color="#000" font-family="sans-serif" font-weight="400" overflow="visible" white-space="normal" style="line-height:normal;text-indent:0;text-align:start;text-decoration-line:none;text-decoration-style:solid;text-decoration-color:#000;text-transform:none;block-progression:tb;isolation:auto;mix-blend-mode:normal"/><path fill="#fff" d="m 28.5,4.5 0,8.75 1.5,-1.125 0,-7.625 -1.5,0 z m 4.001953,6.875 -0.75,0.5625 L 33.5,13.25 l 0,-1.125 -0.998047,-0.75 z" transform="translate(0 1004.362)"/><path fill="none" stroke="#6a3e5e" stroke-linecap="round" stroke-linejoin="round" d="m 28.499998,1008.8622 5.000002,0 0,9.0006 -2.497999,-1.8986 -2.502003,1.8986 z"/><path fill="#fff" d="m 20,30 c -0.55401,0 -1,0.44599 -1,1 l 0,5 c 0,0.55401 0.44599,1 1,1 l 1.5,0 c -0.55401,0 -1,-0.44599 -1,-1 l 0,-5 c 0,-0.55401 0.44599,-1 1,-1 L 20,30 Z" transform="translate(0 1004.362)"/><rect width="14" height="7" x="19" y="1034.362" fill="none" stroke="#6a3e5e" stroke-linecap="round" stroke-linejoin="round" rx="1" ry="1"/></g></svg>