<svg xmlns="http://www.w3.org/2000/svg" width="48" height="48" viewBox="0 0 48 48"><g transform="translate(0 -1004.362)"><path fill="#fff" d="m 38.51103,1015.8641 0,22.0963 c 0,1.0628 -0.85565,1.9182 -1.91851,1.9182 l -19.18508,0 c -1.06286,0 -1.91851,-0.8553 -1.91851,-1.9182 l 0,-25.1912 c 0,-1.0627 0.85565,-1.9182 1.91851,-1.9182 l 16.09796,0 z"/><path fill="#fff" d="M38.51233 1015.8821l-3.1446 0c-1.04527 0-1.88676-.8415-1.88676-1.887l0-3.1451M17.40818 1010.8505c-1.06285 0-1.91992.8556-1.91992 1.9183l0 25.1922c0 1.0628.85707 1.9184 1.91992 1.9184l1.50977 0c-1.06285 0-1.91797-.8555-1.91797-1.9184l0-25.1922c0-1.0627.85512-1.9183 1.91797-1.9183l-1.50977 0z"/><path fill="#249fe6" style="line-height:normal;text-indent:0;text-align:start;text-decoration-line:none;text-decoration-style:solid;text-decoration-color:#000;text-transform:none;block-progression:tb;isolation:auto;mix-blend-mode:normal" d="m 17.416016,1010.3613 c -1.330148,0 -2.416016,1.0879 -2.416016,2.418 l 0,25.166 c 0,1.3302 1.085899,2.416 2.416016,2.416 l 19.167968,0 c 1.330148,0 2.416016,-1.0858 2.416016,-2.416 l 0,-22.0742 a 0.50004997,0.50004997 0 0 0 -0.146484,-0.3535 l -5,-5.0078 A 0.50004997,0.50004997 0 0 0 33.5,1010.3613 l -16.083984,0 z m 0,1 15.875,0 4.708984,4.7168 0,21.8672 c 0,0.7935 -0.622483,1.416 -1.416016,1.416 l -19.167968,0 C 16.622452,1039.3613 16,1038.7389 16,1037.9453 l 0,-25.166 c 0,-0.7933 0.622483,-1.418 1.416016,-1.418 z" color="#000" font-family="sans-serif" font-weight="400" overflow="visible" white-space="normal"/><path fill="#249fe6" style="line-height:normal;text-indent:0;text-align:start;text-decoration-line:none;text-decoration-style:solid;text-decoration-color:#000;text-transform:none;block-progression:tb;isolation:auto;mix-blend-mode:normal" d="M 33.492188,1010.3633 A 0.50004994,0.50004994 0 0 0 33,1010.8691 l 0,3.1211 c 0,1.3058 1.06742,2.3731 2.373047,2.3731 l 3.119141,0 a 0.50004994,0.50004994 0 1 0 0,-1 l -3.119141,0 C 34.604154,1015.3633 34,1014.7594 34,1013.9902 l 0,-3.1211 a 0.50004994,0.50004994 0 0 0 -0.507812,-0.5058 z" color="#000" font-family="sans-serif" font-weight="400" overflow="visible" white-space="normal"/><path fill="#c2e4f8" d="M19.000022 1014.3627l3.999939 0c.000021 0 .000039 0 .000039 0l0 4.0007c0 0-.000018 0-.000039 0l-3.999939 0c-.000022 0-.000039 0-.000039 0l0-4.0007c0 0 .000017 0 .000039 0zM25.499992 1014.3627l2.999982 0c.277005 0 .500009.223.500009.5001 0 .277-.223004.5001-.500009.5001l-2.999982 0c-.277005 0-.500009-.2231-.500009-.5001 0-.2771.223004-.5001.500009-.5001zM25.571421 1016.3631l6.857123 0c.316577 0 .571439.223.571439.5001 0 .277-.254862.5001-.571439.5001l-6.857123 0c-.316577 0-.571438-.2231-.571438-.5001 0-.2771.254861-.5001.571438-.5001zM25.571421 1018.3636l8.857123 0c.316577 0 .571439.223.571439.5001 0 .277-.254862.5001-.571439.5001l-8.857123 0c-.316577 0-.571438-.2231-.571438-.5001 0-.2771.254861-.5001.571438-.5001zM19.000022 1022.3643l3.999939 0c.000021 0 .000039 0 .000039.0001l0 4.0007c0 0-.000018 0-.000039 0l-3.999939 0c-.000022 0-.000039 0-.000039 0l0-4.0007c0-.0001.000017-.0001.000039-.0001zM25.499992 1022.3643l2.999982 0c.277005 0 .500009.2231.500009.5001 0 .2771-.223004.5001-.500009.5001l-2.999982 0c-.277005 0-.500009-.223-.500009-.5001 0-.277.223004-.5001.500009-.5001zM25.571421 1024.3647l8.857123 0c.316577 0 .571439.2231.571439.5001 0 .2771-.254862.5001-.571439.5001l-8.857123 0c-.316577 0-.571438-.223-.571438-.5001 0-.277.254861-.5001.571438-.5001zM25.571421 1026.3651l8.857123 0c.316577 0 .571439.2231.571439.5001 0 .2771-.254862.5001-.571439.5001l-8.857123 0c-.316577 0-.571438-.223-.571438-.5001 0-.277.254861-.5001.571438-.5001zM19.000022 1030.3658l3.999939 0c.000021 0 .000039.0001.000039.0001l0 4.0007c0 0-.000018 0-.000039 0l-3.999939 0c-.000022 0-.000039 0-.000039 0l0-4.0007c0 0 .000017-.0001.000039-.0001zM25.499992 1030.3658l2.999982 0c.277005 0 .500009.2231.500009.5001 0 .2771-.223004.5002-.500009.5002l-2.999982 0c-.277005 0-.500009-.2231-.500009-.5002 0-.277.223004-.5001.500009-.5001zM25.571421 1032.3662l8.857123 0c.316577 0 .571439.2231.571439.5001 0 .2771-.254862.5001-.571439.5001l-8.857123 0c-.316577 0-.571438-.223-.571438-.5001 0-.277.254861-.5001.571438-.5001zM25.571421 1034.3666l8.857123 0c.316577 0 .571439.223.571439.5001 0 .277-.254862.5001-.571439.5001l-8.857123 0c-.316577 0-.571438-.2231-.571438-.5001 0-.2771.254861-.5001.571438-.5001z"/><path fill="none" d="m 14.18298,1015.1599 0,-1.8362 c 0,-1.0867 0.87485,-1.9615 1.96154,-1.9615 l 16.34616,0 5.23077,5.2308 0,22.8846 c 0,1.0867 -0.87485,1.9615 -1.96154,1.9615 l -1.86817,0"/><path fill="none" d="M37.72145 1016.593l-3.26924 0c-1.08669 0-1.96153-.8749-1.96153-1.9617l0-3.2691M33.81694 1020.516l0 22.8847c0 1.0867-.87485 1.9615-1.96154 1.9615l-19.61539 0c-1.08669 0-1.96153-.8749-1.96153-1.9615l0-26.1539c0-1.0867.87484-1.9615 1.96153-1.9615l16.34616 0z"/><path fill="none" d="m 33.81694,1020.516 -3.26923,0 c -1.0867,0 -1.96154,-0.8748 -1.96154,-1.9615 l 0,-3.2692"/><path fill="#fff" d="m 32.51103,1021.8641 0,22.0963 c 0,1.0628 -0.85565,1.9182 -1.91851,1.9182 l -19.18508,0 c -1.06286,0 -1.91851,-0.8553 -1.91851,-1.9182 l 0,-25.1912 c 0,-1.0627 0.85565,-1.9183 1.91851,-1.9183 l 16.09796,0 z"/><path fill="#fff" d="M32.51233 1021.8821l-3.1446 0c-1.04527 0-1.88676-.8416-1.88676-1.8871l0-3.1451M11.40818 1016.8504c-1.06285 0-1.91992.8556-1.91992 1.9183l0 25.1923c0 1.0627.85707 1.9183 1.91992 1.9183l1.50977 0c-1.06285 0-1.91797-.8555-1.91797-1.9183l0-25.1923c0-1.0627.85512-1.9183 1.91797-1.9183l-1.50977 0z"/><path fill="#249fe6" style="line-height:normal;text-indent:0;text-align:start;text-decoration-line:none;text-decoration-style:solid;text-decoration-color:#000;text-transform:none;block-progression:tb;isolation:auto;mix-blend-mode:normal" d="m 11.416016,1016.3613 c -1.33018,0 -2.416016,1.0879 -2.416016,2.418 l 0,25.166 c 0,1.3302 1.085899,2.416 2.416016,2.416 l 19.167968,0 c 1.330148,0 2.416016,-1.0858 2.416016,-2.416 l 0,-22.0742 a 0.50004997,0.50004997 0 0 0 -0.146484,-0.3535 l -5,-5.0078 A 0.50004997,0.50004997 0 0 0 27.5,1016.3613 l -16.083984,0 z m 0,1 15.875,0 4.708984,4.7168 0,21.8672 c 0,0.7935 -0.622483,1.416 -1.416016,1.416 l -19.167968,0 C 10.622452,1045.3613 10,1044.7389 10,1043.9453 l 0,-25.166 c 0,-0.7933 0.622515,-1.418 1.416016,-1.418 z" color="#000" font-family="sans-serif" font-weight="400" overflow="visible" white-space="normal"/><path fill="#249fe6" style="line-height:normal;text-indent:0;text-align:start;text-decoration-line:none;text-decoration-style:solid;text-decoration-color:#000;text-transform:none;block-progression:tb;isolation:auto;mix-blend-mode:normal" d="M 27.492188,1016.3613 A 0.50004994,0.50004994 0 0 0 27,1016.8691 l 0,3.1211 c 0,1.3058 1.067387,2.3731 2.373047,2.3731 l 3.119141,0 a 0.50004994,0.50004994 0 1 0 0,-1 l -3.119141,0 C 28.604186,1021.3633 28,1020.7594 28,1019.9902 l 0,-3.1211 a 0.50004994,0.50004994 0 0 0 -0.507812,-0.5078 z" color="#000" font-family="sans-serif" font-weight="400" overflow="visible" white-space="normal"/><path fill="#c2e4f8" d="M13.000023 1020.3627l3.999939 0c.000021 0 .000039 0 .000039 0l0 4.0007c0 0-.000018 0-.000039 0l-3.999939 0c-.000022 0-.000039 0-.000039 0l0-4.0007c0 0 .000017 0 .000039 0zM19.499992 1020.3627l2.999982 0c.277005 0 .500009.223.500009.5001 0 .277-.223004.5001-.500009.5001l-2.999982 0c-.277005 0-.500009-.2231-.500009-.5001 0-.2771.223004-.5001.500009-.5001zM19.571421 1022.3631l6.857123 0c.316577 0 .571439.223.571439.5001 0 .277-.254862.5001-.571439.5001l-6.857123 0c-.316577 0-.571438-.2231-.571438-.5001 0-.2771.254861-.5001.571438-.5001zM19.571421 1024.3635l8.857123 0c.316577 0 .571439.2231.571439.5001 0 .2771-.254862.5001-.571439.5001l-8.857123 0c-.316577 0-.571438-.223-.571438-.5001 0-.277.254861-.5001.571438-.5001zM13.000023 1028.3643l3.999939 0c.000021 0 .000039 0 .000039 0l0 4.0007c0 0-.000018 0-.000039 0l-3.999939 0c-.000022 0-.000039 0-.000039 0l0-4.0007c0 0 .000017 0 .000039 0zM19.499992 1028.3643l2.999982 0c.277005 0 .500009.223.500009.5001 0 .277-.223004.5001-.500009.5001l-2.999982 0c-.277005 0-.500009-.2231-.500009-.5001 0-.2771.223004-.5001.500009-.5001zM19.571421 1030.3646l8.857123 0c.316577 0 .571439.2231.571439.5001 0 .2771-.254862.5001-.571439.5001l-8.857123 0c-.316577 0-.571438-.223-.571438-.5001 0-.277.254861-.5001.571438-.5001zM19.571421 1032.365l8.857123 0c.316577 0 .571439.223.571439.5001 0 .277-.254862.5001-.571439.5001l-8.857123 0c-.316577 0-.571438-.2231-.571438-.5001 0-.2771.254861-.5001.571438-.5001zM13.000023 1036.3658l3.999939 0c.000021 0 .000039.0001.000039.0001l0 4.0007c0 0-.000018 0-.000039 0l-3.999939 0c-.000022 0-.000039 0-.000039 0l0-4.0007c0 0 .000017-.0001.000039-.0001zM19.499992 1036.3658l2.999982 0c.277005 0 .500009.2231.500009.5001 0 .2771-.223004.5002-.500009.5002l-2.999982 0c-.277005 0-.500009-.2231-.500009-.5002 0-.277.223004-.5001.500009-.5001zM19.571421 1038.3662l8.857123 0c.316577 0 .571439.2231.571439.5001 0 .2771-.254862.5001-.571439.5001l-8.857123 0c-.316577 0-.571438-.223-.571438-.5001 0-.277.254861-.5001.571438-.5001zM19.571421 1040.3666l8.857123 0c.316577 0 .571439.223.571439.5001 0 .277-.254862.5001-.571439.5001l-8.857123 0c-.316577 0-.571438-.2231-.571438-.5001 0-.2771.254861-.5001.571438-.5001z"/></g></svg>