<svg xmlns="http://www.w3.org/2000/svg" id="Layer_1" viewBox="0 0 32 32"><path fill="#fff" d="M12.5 2h-10a1 1 0 0 0-1 1v6a1 1 0 0 0 1 1h1v3l3-3h6a1 1 0 0 0 1-1V3a1 1 0 0 0-1-1zM21.5 4h8a1 1 0 0 1 1 1v4a1 1 0 0 1-1 1h-1v2l-3-2h-4a1 1 0 0 1-1-1V5a1 1 0 0 1 1-1z"/><path fill="#b386bc" d="M11.09 23.777l2.427 1.425c.619.363.998 1.018.998 1.725l-.001 1.966V30H1.504v-1.108l-.001-1.966c0-.706.379-1.361.998-1.725l2.427-1.425"/><path fill="#eadded" d="M6.148 20.345v2.489l1.851.91 1.871-.91v-2.489z"/><path fill="#eadded" d="M4.894 15.024l-.008 3.637c0 1.682 1.394 3.046 3.113 3.046s3.113-1.364 3.113-3.046l.008-3.637H4.894z"/><path fill="#cbaad0" d="M4.918 23.861l1.37 1.676 1.713-1.676-2.158-1.005z"/><path fill="#cbaad0" d="M11.084 23.861l-1.371 1.676-1.712-1.676 2.158-1.005z"/><path fill="#9868ac" d="M10.49 13.25l-3.372-.55c-.854-.139-1.632.505-1.632 1.353v.037c-.736 0-1.285.664-1.131 1.369l.534 1.908.966-1.177.005-.644h4.282l.003.644.969 1.177.549-2.486c.142-.768-.386-1.502-1.173-1.631z"/><path fill="#cbaad0" d="M25.764 23.258l3.622 2.255a2.36 2.36 0 0 1 1.112 2.002V30h-13v-2.485c0-.814.42-1.571 1.111-2.001l3.619-2.255"/><path fill="#eadded" d="M26.891 15.923v3.048a2.894 2.894 0 0 1-5.788 0v-3.156"/><path fill="#eadded" d="M24.049 25.266a3.766 3.766 0 0 0 2.871-1.341l-1.172-.73v-1.774a3.05 3.05 0 0 1-3.536 0v1.774l-1.08.673a3.762 3.762 0 0 0 2.917 1.398z"/><path fill="#9868ac" d="M22.937 13.704a3.232 3.232 0 0 1 2.156-.035c.216-.202.351-.461.351-.748 0-.639-.648-1.158-1.447-1.158s-1.447.518-1.447 1.158c0 .303.149.577.387.783z"/><path fill="#9868ac" d="M23.612 13.522c-1.442.166-2.632 1.324-2.832 2.761a3.266 3.266 0 0 0 .229 1.746l.028.382c0-1.081.753-1.986 1.764-2.219l.131.054c.802.332 1.65.541 2.515.62.775 0 1.403.628 1.403 1.403l.103-.165a3.252 3.252 0 0 0-3.341-4.582z"/><path fill="#8e5ba5" d="M11.5 4.5h-8a.5.5 0 0 1 0-1h8a.5.5 0 0 1 0 1zM28.5 6.5h-6a.5.5 0 0 1 0-1h6a.5.5 0 0 1 0 1zM28.5 8.5h-6a.5.5 0 0 1 0-1h6a.5.5 0 0 1 0 1zM11.5 6.5h-8a.5.5 0 0 1 0-1h8a.5.5 0 0 1 0 1zM8.5 8.5h-5a.5.5 0 0 1 0-1h5a.5.5 0 0 1 0 1zM8.003 22.388a3.61 3.61 0 0 1-3.606-3.606v-1.727h1v1.727c0 1.438 1.169 2.606 2.606 2.606s2.606-1.169 2.606-2.606v-1.727h1v1.727a3.61 3.61 0 0 1-3.606 3.606z"/><path fill="#8e5ba5" d="M5.719 21.427h1v1.405h-1zM9.287 21.427h1v1.405h-1zM11.111 17.96a.498.498 0 0 1-.389-.187l-.967-1.2a.497.497 0 0 1-.111-.313v-.214H6.362v.214a.5.5 0 0 1-.11.313l-.964 1.2a.5.5 0 0 1-.872-.181l-.533-1.945a1.661 1.661 0 0 1 .325-1.414c.218-.27.508-.459.833-.551a1.89 1.89 0 0 1 2.165-1.475l3.366.562c.513.086.96.367 1.26.792.299.426.413.942.319 1.454l-.551 2.55a.5.5 0 0 1-.489.395zm-4.218-4.778a.898.898 0 0 0-.898.899c0 .276-.224.538-.5.538a.653.653 0 0 0-.64.792l.267.974.241-.3v-.538a.5.5 0 0 1 .5-.5h4.282a.5.5 0 0 1 .5.5v.537l.199.248.327-1.512a.91.91 0 0 0-.157-.683.92.92 0 0 0-.606-.382l-3.366-.562c-.05-.007-.1-.011-.149-.011zM1.5 30.5A.5.5 0 0 1 1 30v-2.933c0-.892.475-1.729 1.239-2.188l2.422-1.454a.501.501 0 0 1 .515.858l-2.423 1.454A1.56 1.56 0 0 0 2 27.067V30a.5.5 0 0 1-.5.5zM14.5 30.5a.5.5 0 0 1-.5-.5v-2.933c0-.542-.289-1.052-.753-1.33l-2.423-1.454a.5.5 0 0 1 .515-.858l2.423 1.454A2.566 2.566 0 0 1 15 27.067V30a.5.5 0 0 1-.5.5z"/><path fill="#8e5ba5" d="M4.098 30.5a.5.5 0 0 1-.5-.5v-1.136c0-.389-.144-.76-.406-1.047l-.427-.467a.5.5 0 1 1 .739-.674l.427.468c.431.471.667 1.082.667 1.721V30a.5.5 0 0 1-.5.5zM11.902 30.5a.5.5 0 0 1-.5-.5v-1.136c0-.639.237-1.25.667-1.721l.427-.468a.499.499 0 1 1 .739.674l-.427.468a1.548 1.548 0 0 0-.406 1.047V30a.5.5 0 0 1-.5.5zM6.295 26.063l-.028-.001a.498.498 0 0 1-.363-.187l-1.367-1.709a.5.5 0 0 1 .019-.647l.923-1.025a.498.498 0 0 1 .586-.116l2.154 1.025a.498.498 0 0 1 .139.804l-1.709 1.709a.5.5 0 0 1-.354.147zm-.712-2.19l.753.942.813-.813-1.177-.561-.389.432z"/><path fill="#8e5ba5" d="M9.714 26.063a.507.507 0 0 1-.354-.146l-1.709-1.709a.498.498 0 0 1 .139-.804l2.154-1.025a.498.498 0 0 1 .586.116l.923 1.025a.5.5 0 0 1 .019.647l-1.367 1.709a.502.502 0 0 1-.363.187h-.028zm-.855-2.061l.813.813.753-.941-.39-.434-1.176.562z"/><path fill="#8e5ba5" d="M7.996 30.5a.5.5 0 0 1-.5-.5v-6.168a.5.5 0 0 1 1 0V30a.5.5 0 0 1-.5.5zM24 25.545a4.613 4.613 0 0 1-3.154-1.242.5.5 0 0 1 .682-.732c1.346 1.256 3.589 1.257 4.938.007a.5.5 0 1 1 .68.734A4.623 4.623 0 0 1 24 25.545z"/><path fill="#8e5ba5" d="M17.5 30.5a.5.5 0 0 1-.5-.5v-2.485c0-.993.503-1.899 1.346-2.425l3.619-2.256a.501.501 0 0 1 .529.849l-3.619 2.255A1.846 1.846 0 0 0 18 27.515V30a.5.5 0 0 1-.5.5z"/><path fill="#8e5ba5" d="M21.73 21.484h1v1.774h-1zM30.5 30.5a.5.5 0 0 1-.5-.5v-2.484c0-.646-.328-1.235-.876-1.578l-3.622-2.254a.503.503 0 0 1-.236-.425v-1.774a.5.5 0 0 1 1 0v1.497l3.386 2.107A2.84 2.84 0 0 1 31 27.516V30a.5.5 0 0 1-.5.5zM20.168 30.5a.5.5 0 0 1-.5-.5v-1.373c0-.352-.13-.688-.367-.947l-.397-.436a.5.5 0 1 1 .74-.674l.397.436c.405.443.628 1.02.628 1.621V30a.502.502 0 0 1-.501.5z"/><path fill="#8e5ba5" d="M27.832 30.5a.5.5 0 0 1-.5-.5v-1.373c0-.602.224-1.178.63-1.622l.396-.435a.5.5 0 1 1 .74.674l-.398.436c-.238.26-.368.596-.368.947V30a.5.5 0 0 1-.5.5zM24 22.551a3.452 3.452 0 0 1-3.448-3.447v-.855a.5.5 0 0 1 1 0v.855c0 1.35 1.098 2.447 2.448 2.447s2.447-1.098 2.447-2.447v-1.336a.5.5 0 0 1 1 0v1.336c0 1.9-1.546 3.447-3.447 3.447z"/><path fill="#8e5ba5" d="M25.543 17.461a5.614 5.614 0 0 1-3.322-1.077.5.5 0 1 1 .587-.808 4.633 4.633 0 0 0 2.735.886.5.5 0 0 1 0 .999z"/><path fill="#8e5ba5" d="M21.052 19.033a.5.5 0 0 1-.5-.5c0-1.32.898-2.45 2.184-2.747a.5.5 0 0 1 .225.975 1.81 1.81 0 0 0-1.409 1.772c0 .277-.223.5-.5.5z"/><path fill="#8e5ba5" d="M26.972 18.89a.501.501 0 0 1-.5-.5.93.93 0 0 0-.929-.929.5.5 0 0 1 0-1c.515 0 .984.203 1.331.533a2.814 2.814 0 0 0-2.806-2.963 2.814 2.814 0 0 0-2.584 3.917.5.5 0 1 1-.919.392 3.814 3.814 0 0 1 3.503-5.31 3.814 3.814 0 0 1 3.464 5.399l-.136.225a.499.499 0 0 1-.424.236z"/><path fill="#8e5ba5" d="M22.921 14.24a.501.501 0 0 1-.328-.122c-.366-.317-.567-.734-.567-1.176 0-.926.885-1.68 1.974-1.68s1.974.754 1.974 1.68c0 .415-.183.814-.516 1.126a.504.504 0 0 1-.5.11 2.772 2.772 0 0 0-1.863.03.482.482 0 0 1-.174.032zM24 12.263c-.528 0-.974.312-.974.68 0 .082.023.156.058.221a3.77 3.77 0 0 1 1.846-.031.438.438 0 0 0 .044-.189c0-.37-.446-.681-.974-.681z"/><g><path fill="#8e5ba5" d="M3.5 13.5A.5.5 0 0 1 3 13v-2.5h-.5C1.673 10.5 1 9.827 1 9V3c0-.827.673-1.5 1.5-1.5h10c.827 0 1.5.673 1.5 1.5v6c0 .827-.673 1.5-1.5 1.5H6.707l-2.854 2.854a.5.5 0 0 1-.353.146zm-1-11A.5.5 0 0 0 2 3v6a.5.5 0 0 0 .5.5h1a.5.5 0 0 1 .5.5v1.793l2.146-2.146A.5.5 0 0 1 6.5 9.5h6A.5.5 0 0 0 13 9V3a.5.5 0 0 0-.5-.5h-10z"/></g><g><path fill="#8e5ba5" d="M28.5 12.5a.495.495 0 0 1-.277-.084L25.349 10.5H21.5c-.827 0-1.5-.673-1.5-1.5V5c0-.827.673-1.5 1.5-1.5h8c.827 0 1.5.673 1.5 1.5v4c0 .827-.673 1.5-1.5 1.5H29V12a.498.498 0 0 1-.5.5zm-7-8a.5.5 0 0 0-.5.5v4a.5.5 0 0 0 .5.5h4c.099 0 .195.029.277.084L28 11.065V10a.5.5 0 0 1 .5-.5h1A.5.5 0 0 0 30 9V5a.5.5 0 0 0-.5-.5h-8z"/></g></svg>