<svg xmlns="http://www.w3.org/2000/svg" width="48" height="48" viewBox="0 0 48 48"><g transform="translate(0 -1004.362)"><path fill="#c2e4f8" d="m 8.02478,1015.8648 31.95044,0 c 1.95273,0 3.52478,1.6069 3.52478,3.6028 l 0,17.7916 c 0,1.996 -1.57205,3.6029 -3.52478,3.6029 l -31.95044,0 c -1.95273,0 -3.52478,-1.6069 -3.52478,-3.6029 l 0,-17.7916 c 0,-1.996 1.57205,-3.6028 3.52478,-3.6028 z"/><path fill="#fff" d="m 8.02539,1015.864 c -1.95273,0 -3.52539,1.6075 -3.52539,3.6035 l 0,17.791 c 0,1.996 1.57266,3.6035 3.52539,3.6035 l 1.5,0 C 7.57266,1040.862 6,1039.2545 6,1037.2585 l 0,-17.791 c 0,-1.996 1.57266,-3.6035 3.52539,-3.6035 l -1.5,0 z"/><path fill="#c2e4f8" d="m 8.02361,1015.8656 c -0.76094,0 -1.45852,0.2467 -2.03335,0.6627 l 0.0226,0.051 16.38244,12.6682 c 0.90289,0.698 2.35727,0.698 3.26013,0 l 16.33167,-12.6288 0.0169,-0.093 c -0.57391,-0.4138 -1.26896,-0.6599 -2.02771,-0.6599 l -31.95266,0 z"/><path fill="#fff" d="m 8.02344,1015.8659 c -0.76094,0 -1.45837,0.2461 -2.03321,0.6621 l 0.0234,0.051 16.38086,12.668 c 0.64624,0.4996 1.57401,0.6355 2.38086,0.4199 -0.32043,-0.086 0.0763,-0.2215 -0.18039,-0.4199 l -17.08328,-12.668 -0.0215,-0.051 c 0.57484,-0.416 1.27227,-0.6621 2.03321,-0.6621 z"/><path fill="#249fe6" style="line-height:normal;text-indent:0;text-align:start;text-decoration-line:none;text-decoration-style:solid;text-decoration-color:#000;text-transform:none;block-progression:tb;isolation:auto;mix-blend-mode:normal" d="m 5.6230469,1016.4766 a 0.50005,0.50005 0 0 0 -0.2636719,0.9062 l 17.037109,12.5234 c 0.437222,0.3235 0.987128,0.4418 1.533204,0.4415 0.546075,-4e-4 1.098982,-0.1195 1.539062,-0.4375 l 17.302734,-12.5059 a 0.5000581,0.5000581 0 1 0 -0.585937,-0.8105 l -17.302735,12.5058 c -0.18984,0.1372 -0.570938,0.2478 -0.953124,0.2481 -0.382187,2e-4 -0.756232,-0.1101 -0.9375,-0.2442 a 0.50005,0.50005 0 0 0 -0.002,-0 L 5.9511719,1016.5781 a 0.50005,0.50005 0 0 0 -0.328125,-0.1015 z" color="#000" font-family="sans-serif" font-weight="400" overflow="visible" white-space="normal"/><path fill="#249fe6" style="line-height:normal;text-indent:0;text-align:start;text-decoration-line:none;text-decoration-style:solid;text-decoration-color:#000;text-transform:none;block-progression:tb;isolation:auto;mix-blend-mode:normal" d="m 28.072266,1027.0703 a 0.50789738,0.50789738 0 0 0 -0.289063,0.9141 l 9.392578,7.2422 a 0.50789738,0.50789738 0 1 0 0.621094,-0.8028 l -9.394531,-7.2441 a 0.50789738,0.50789738 0 0 0 -0.330078,-0.1094 z m -8.179688,0.037 a 0.50789738,0.50789738 0 0 0 -0.316406,0.1114 l -9.373047,7.2285 a 0.50825679,0.50825679 0 1 0 0.621094,0.8047 l 9.373047,-7.2286 a 0.50789738,0.50789738 0 0 0 -0.304688,-0.916 z" color="#000" font-family="sans-serif" font-weight="400" overflow="visible" white-space="normal"/><path fill="#249fe6" style="line-height:normal;text-indent:0;text-align:start;text-decoration-line:none;text-decoration-style:solid;text-decoration-color:#000;text-transform:none;block-progression:tb;isolation:auto;mix-blend-mode:normal" d="M 8.0253906,1015.3652 C 5.798378,1015.3652 4,1017.2083 4,1019.4668 l 0,17.793 c 0,2.2585 1.7983609,4.1015 4.0253906,4.1015 l 31.9492184,0 c 2.22703,0 4.025391,-1.843 4.025391,-4.1015 l 0,-17.793 c 0,-2.2584 -1.798361,-4.1016 -4.025391,-4.1016 l -31.9492184,0 z m 0,1 31.9492184,0 c 1.678431,0 3.025391,1.3682 3.025391,3.1016 l 0,17.793 c 0,1.7334 -1.34696,3.1015 -3.025391,3.1015 l -31.9492184,0 C 6.3469604,1040.3613 5,1038.9932 5,1037.2598 l 0,-17.793 c 0,-1.7335 1.3469433,-3.1016 3.0253906,-3.1016 z" color="#000" font-family="sans-serif" font-weight="400" overflow="visible" white-space="normal"/></g></svg>