<svg xmlns="http://www.w3.org/2000/svg" enable-background="new 0 0 66 66" viewBox="0 0 66 66"><path d="M33.1495,1h-0.2884c-9.108,0-16.4915,7.3834-16.4915,16.4915v24.5652c0,10.1214,15.0167,5.1192,26.8906,6.3806
		c3.5239,0,6.3807-2.8567,6.3807-6.3806V17.4915C49.6409,8.3834,42.2575,1,33.1495,1z"/><path fill="#FAB687" d="M63.8541,65H2.1494c0-2.7451-0.0408-3.1703,0.0908-3.8936c-0.0101-0.0202-0.0101-0.0303,0-0.0404
		c0.9314-5.6698,18.886-14.5194,21.93-15.0907c0.4009-0.2005,2.3609-0.1553,2.4613-0.1616l12.7505-0.0099
		c0.3143,0.0391,2.8898-0.258,5.2455,1.2407c0.0516,0,0.8093,0.5364,2.5622,1.4525c0,0,0.0101,0,0.0101,0.0101
		c5.8824,2.9393,15.5851,6.5139,16.5635,12.5588c0.0101,0.0101,0.0101,0.0202,0,0.0404C63.9258,62.0002,63.8189,62.4343,63.8541,65z
		"/><path fill="#E3AE35" d="M63.8541 65H38.8878c-.1917-.262-.2724-.363-.464-.6152 1.5736-5.8306 2.4008-18.4196 2.4008-18.4196h6.2239c8.6953 0 15.8574 6.6174 16.7149 15.1008.0101.0101.0101.0202 0 .0404C63.9021 62.3558 63.8373 63.1337 63.8541 65zM28.76 64.9901H2.1494v-2.2143c0-9.2843 7.5264-16.8107 16.8107-16.8107h6.582c.2323 1.6624-.6178 8.6904 2.2596 15.1311C27.4605 62.8561 28.1656 63.871 28.76 64.9901z"/><path fill="#FFDA55" d="M47.2502 56.1937L40.8851 65h-5.3262c2.7274-14.2555 5.8574-17.8821 2.4815-21.9298 3.4238 1.6994 5.262 4.7846 8.887 8.4935l-3.8433 2.1283L47.2502 56.1937zM30.4547 65h-5.3261l-.0101-.0099-6.3652-8.7964 4.1762-2.5017-3.8433-2.1283c3.7929-3.9414 5.5854-6.866 8.887-8.4935C24.5903 47.1239 27.7699 50.9442 30.4547 65z"/><path fill="#FAB687" d="M26.5728,35.7378v9.2594c0,3.7796,2.7935,6.8421,6.241,6.8421h0.383c3.4475,0,6.241-3.0626,6.241-6.8421
		v-9.2594H26.5728z"/><path fill="#F8A771" d="M32.9779,42.2536L32.9779,42.2536c3.65,0,6.7669-2.5426,7.0875-5.8976
		c0.0541-0.566,0.0815-1.1371,0.0815-1.7125c0-0.5713-0.027-1.1378-0.0802-1.6989c-0.3181-3.3555-3.437-5.8984-7.0874-5.8984
		h-0.0014c-3.9291,0-7.1142,2.9391-7.1142,6.5646v2.0783C25.8637,39.3146,29.0488,42.2536,32.9779,42.2536z"/><path fill="#FAB687" d="M45.727,23.8031h-0.5346C44.224,33.4768,39.3619,41.214,33.0068,41.214
		c-5.9314,0-10.5414-6.7181-11.9334-15.454c1.6039-13.6079,19.9327-7.9993,22.4647-13.0531
		C43.0438,16.7419,44.7889,19.8288,45.727,23.8031z"/><g><path fill="#FAB687" d="M43.1578,24.9725c0.4478,2.1252,2.0298,3.2325,3.4726,2.3376c1.4229-0.8835,2.0199-3.2771,1.4029-5.2233
				c-0.5671-1.8232-2.0099-2.6286-3.2636-1.9126C43.4862,20.9012,42.7498,22.9929,43.1578,24.9725z"/></g><g><circle cx="28.224" cy="26.21" r="1.492" fill="#3D2F46"/><circle cx="37.787" cy="26.21" r="1.492" fill="#3D2F46"/><path fill="#3D2F46" d="M29.4534 22.5615l-.0171-.0872c-.0743-.3792-.4418-.6262-.8209-.552l-3.1178.6108c-.3791.0742-.6262.4417-.5519.8208l.0171.0873c.0743.3792.4418.6262.8209.552l3.1178-.6108C29.2806 23.3081 29.5277 22.9407 29.4534 22.5615zM40.5129 22.5332l-3.1178-.6108c-.3791-.0742-.7466.1729-.8209.552l-.0171.0872c-.0742.3792.1729.7466.5519.8209l3.1178.6108c.3792.0742.7466-.1729.8209-.552l.0171-.0873C41.1391 22.9749 40.892 22.6074 40.5129 22.5332z"/></g><g><path fill="#663430" d="M36.4456,33.9906c0.7442,0,1.2851,0.7568,0.9979,1.4434c-0.6742,1.6123-2.3619,2.8636-4.4342,2.8636
			c-1.8158,0-3.6373-1.0276-4.4138-2.7918c-0.3133-0.7119,0.189-1.5151,0.9668-1.5151H36.4456z"/><path fill="#EF4F63" d="M36.519,36.8263c-1.3785,1.3827-3.2042,1.7373-4.8329,1.2987l0.0082-0.0082
			C32.2695,36.7008,34.3292,35.7314,36.519,36.8263z"/></g></svg>