<svg xmlns="http://www.w3.org/2000/svg" width="48" height="48" viewBox="0 0 48 48"><g transform="translate(-157 -1079.962)"><path fill="#e9e9e9" d="m 170.5,1104.2035 0,-16.0063 c 0,-0.9707 0.78148,-1.7523 1.7522,-1.7523 l 13.2178,0 6.05637,6.1573 0,11.6013"/><path fill="#d1d1d2" d="m 191.5,1092.3462 -3.75001,0 c -1.24649,0 -2.24999,-1.0037 -2.24999,-2.2502 l 0,-3.7503"/><path fill="#fff" d="m 172.44668,1085.945 c -0.94764,0 -1.70987,0.7643 -1.70987,1.7119 l 0,15.6238 1.53948,0 0,-15.6238 c 0,-0.9476 0.76223,-1.7119 1.70986,-1.7119 l -1.53947,0 z"/><path fill="none" stroke="#6a3e5e" stroke-linecap="round" stroke-linejoin="round" d="m 170.50001,1104.2019 0,-15.9894 c 0,-0.9697 0.7805,-1.7504 1.74999,-1.7504 l 13.25,0 5.99996,6.0001 0,11.7397"/><path fill="#e7e377" d="m 166.81818,1102.507 28.36363,0 c 2.9463,0 5.31823,2.372 5.31823,5.3183 l 0,10.6367 -5.31823,0 -28.36363,0 -5.31823,0 0,-10.6367 c 0,-2.9463 2.37193,-5.3183 5.31823,-5.3183 z"/><path fill="#fff" d="m 166.81796,1102.507 c -2.9463,0 -5.31801,2.3718 -5.31801,5.3182 l 0,10.6363 1.53948,0 0,-10.6363 c 0,-2.9464 2.37171,-5.3182 5.31801,-5.3182 l -1.53948,0 z"/><path fill="none" stroke="#6a3e5e" stroke-linecap="round" stroke-linejoin="round" d="M166.81818 1102.507l28.36363 0c2.9463 0 5.31823 2.372 5.31823 5.3183l0 10.6367-5.31823 0-28.36363 0-5.31823 0 0-10.6367c0-2.9463 2.37193-5.3183 5.31823-5.3183zM191.5 1092.4622l-3.72685 0c-1.25955 0-2.27357-1.0142-2.27357-2.2738l0-3.6316"/><path fill="#e9e9e9" d="m 191.26318,1111.5154 0,9.4082 c 0,0.9476 -0.7629,1.7106 -1.71054,1.7106 l -17.1053,0 c -0.94763,0 -1.71053,-0.763 -1.71053,-1.7106 l 0,-9.4082 1.71053,0 14.25442,0 z"/><ellipse cx="165.605" cy="1106.612" fill="#938993" rx="1.026" ry="1.026"/><ellipse cx="169.711" cy="1106.612" fill="#938993" rx="1.026" ry="1.026"/><path fill="none" stroke="#938993" stroke-linecap="round" stroke-linejoin="round" d="M174.79544 1116.3627l12.40911 0M174.79544 1119.4418l12.40911 0"/><path fill="#fff" d="m 170.73681,1111.2427 0,9.4096 c 0,0.9476 0.76223,1.7099 1.70987,1.7099 l 1.53947,0 c -0.94763,0 -1.70986,-0.7623 -1.70986,-1.7099 l 0,-9.4096 -1.53948,0 z"/><rect width="25.032" height="2.553" x="168.684" y="1110.717" fill="#d3c874" rx="0" ry="0"/><path fill="none" stroke="#6a3e5e" stroke-linecap="round" stroke-linejoin="round" d="m 191.49996,1113.5772 0,7.1328 c 0,0.9706 -0.7805,1.7522 -1.75,1.7522 l -17.49996,0 c -0.96949,0 -1.74999,-0.7816 -1.74999,-1.7522 l 0,-7.1328"/><rect width="1.316" height="2.553" x="168.684" y="1110.717" fill="#fff" rx="0" ry="0"/><rect width="25" height="3" x="168.5" y="1110.462" fill="none" stroke="#6a3e5e" stroke-linecap="round" stroke-linejoin="round" rx="0" ry="0"/></g></svg>