<svg xmlns="http://www.w3.org/2000/svg" width="48" height="48" viewBox="0 0 48 48"><g transform="translate(1 -1003.362)"><path fill="#938993" d="m 27.137244,1028.1362 2.270361,3.9325 -2.586245,1.4932 -2.270509,-3.9325"/><path fill="#7a727b" style="line-height:normal;text-indent:0;text-align:start;text-decoration-line:none;text-decoration-style:solid;text-decoration-color:#000;text-transform:none;block-progression:tb;isolation:auto;mix-blend-mode:normal" d="m 29.962913,1013.6098 c -3.169646,-5.4901 -10.223335,-7.3801 -15.713313,-4.2105 -5.489979,3.1699 -7.3819575,10.225 -4.212313,15.7152 3.169633,5.4904 10.225278,7.3793 15.715266,4.2096 5.489995,-3.1698 7.380013,-10.2239 4.21036,-15.7143 z" color="#000" font-family="sans-serif" font-weight="400" overflow="visible" white-space="normal"/><path fill="#fff" d="m 27.791202,1033.0019 -0.323281,0.1867 -0.32328,0.1866 -0.323281,0.1867 -2.270509,-3.9325 0.323299,-0.1867 0.323299,-0.1866 0.323299,-0.1866 z"/><path fill="#c48c75" d="m 30.373324,1030.7295 6.725162,11.648 c 0.827962,1.4342 0.34009,3.2553 -1.093939,4.0832 -1.434179,0.8279 -3.255219,0.3399 -4.083033,-1.0941 l -6.725161,-11.6481 z"/><path fill="none" d="m 29.948712,1030.228 6.725162,11.648 c 0.827962,1.4342 0.34009,3.2553 -1.093939,4.0832 -1.434179,0.8279 -3.255219,0.3399 -4.083033,-1.0941 l -6.725161,-11.6481 z"/><path fill="#e9e9e9" d="m 27.364226,1015.1107 c -2.342781,-4.0579 -7.556378,-5.455 -11.614188,-3.112 -4.057809,2.3428 -5.456229,7.5576 -3.113448,11.6155 2.342772,4.0581 7.557814,5.4543 11.61563,3.1114 4.057823,-2.3429 5.454794,-7.5567 3.112006,-11.6149 z" color="#000" font-family="sans-serif" font-weight="400" overflow="visible" white-space="normal" style="line-height:normal;text-indent:0;text-align:start;text-decoration-line:none;text-decoration-style:solid;text-decoration-color:#000;text-transform:none;block-progression:tb;isolation:auto;mix-blend-mode:normal"/><path fill="none" stroke="#6a3e5e" stroke-linecap="round" stroke-linejoin="round" d="m 891.49941,497.90848 a 5.5002351,5.5019002 0 0 1 -3.65799,-3.20894 5.5002351,5.5019002 0 0 1 0.31821,-4.85643" transform="rotate(59.985) skewX(-.03)"/><path fill="none" stroke="#6a3e5e" stroke-linecap="round" stroke-linejoin="round" d="m 27.493213,1028.7311 1.587047,2.7489 -2.586245,1.4932 -1.612214,-2.7923"/><path fill="#fff" d="m 26.220703,28.765625 -1.023437,0.589844 6.724609,11.648437 c 0.827814,1.434 2.647852,1.92165 4.082031,1.09375 0.916929,-0.529365 1.44165,-1.464604 1.488282,-2.445312 -0.24779,0.374033 -0.571934,0.704945 -0.988282,0.945312 -1.434179,0.8279 -3.25617,0.338297 -4.083984,-1.095703 L 26.220703,28.765625 Z" transform="translate(0 1004.362)"/><path fill="none" stroke="#6a3e5e" stroke-linecap="round" stroke-linejoin="round" d="m 30.374876,1030.7311 6.725162,11.648 c 0.827962,1.4342 0.34009,3.2553 -1.093939,4.0832 -1.434179,0.8279 -3.255219,0.3399 -4.083033,-1.0941 l -6.725161,-11.6481 z"/><path fill="#fff" style="line-height:normal;text-indent:0;text-align:start;text-decoration-line:none;text-decoration-style:solid;text-decoration-color:#000;text-transform:none;block-progression:tb;isolation:auto;mix-blend-mode:normal" d="m 19.6875,3.5039062 c -1.854778,0.046837 -3.721882,0.5427032 -5.4375,1.5332032 -5.489979,3.1699 -7.3825351,10.2246436 -4.212891,15.7148436 2.245503,3.889632 6.440628,5.96037 10.648438,5.716797 C 17.00604,26.201458 13.514966,24.177973 11.537109,20.751953 8.3674651,15.261753 10.260021,8.2070094 15.75,5.0371094 17.351244,4.1126427 19.084284,3.6310949 20.816406,3.53125 20.442029,3.5040161 20.064391,3.4943889 19.6875,3.5039062 Z" color="#000" font-family="sans-serif" font-weight="400" overflow="visible" transform="translate(0 1004.362)" white-space="normal"/><path fill="none" stroke="#6a3e5e" stroke-linecap="round" stroke-linejoin="round" d="m 29.964189,1013.6092 c -3.170048,-5.491 -10.224631,-7.3812 -15.715306,-4.2111 -5.4906746,3.1703 -7.3828931,10.2263 -4.212847,15.7172 3.170036,5.4911 10.226575,7.3802 15.71726,4.2101 5.49069,-3.1702 7.380948,-10.2252 4.210893,-15.7162 z" color="#000" font-family="sans-serif" font-weight="400" overflow="visible" white-space="normal" style="line-height:normal;text-indent:0;text-align:start;text-decoration-line:none;text-decoration-style:solid;text-decoration-color:#000;text-transform:none;block-progression:tb;isolation:auto;mix-blend-mode:normal"/><path fill="#fff" style="line-height:normal;text-indent:0;text-align:start;text-decoration-line:none;text-decoration-style:solid;text-decoration-color:#000;text-transform:none;block-progression:tb;isolation:auto;mix-blend-mode:normal" d="M 19.769531,6.5019531 C 18.398608,6.53659 17.018066,6.9045312 15.75,7.6367188 c -4.057809,2.3428 -5.456062,7.5573342 -3.113281,11.6152342 1.702473,2.948988 4.921601,4.482818 8.111328,4.207031 -2.664138,-0.240807 -5.17638,-1.721445 -6.611328,-4.207031 C 11.793938,15.194053 13.192191,9.9795188 17.25,7.6367188 18.359033,6.9963573 19.554409,6.6446596 20.753906,6.5410156 20.427229,6.5113963 20.099073,6.4936272 19.769531,6.5019531 Z" color="#000" font-family="sans-serif" font-weight="400" overflow="visible" transform="translate(0 1004.362)" white-space="normal"/><path fill="none" stroke="#6a3e5e" stroke-linecap="round" stroke-linejoin="round" d="m 27.36582,1015.1098 c -2.343284,-4.0588 -7.557998,-5.4562 -11.616677,-3.1128 -4.058681,2.3435 -5.4574,7.5593 -3.114117,11.6181 2.343275,4.0589 7.559435,5.4554 11.618121,3.1121 4.058694,-2.3435 5.455963,-7.5584 3.112673,-11.6174 z" color="#000" font-family="sans-serif" font-weight="400" overflow="visible" white-space="normal" style="line-height:normal;text-indent:0;text-align:start;text-decoration-line:none;text-decoration-style:solid;text-decoration-color:#000;text-transform:none;block-progression:tb;isolation:auto;mix-blend-mode:normal"/></g></svg>