<svg xmlns="http://www.w3.org/2000/svg" width="48" height="48" viewBox="0 0 48 48"><g transform="translate(0 -1004.362)"><path fill="#c2e4f8" d="m 12.00913,1008.8641 c -0.83045,5e-4 -1.5069,0.6672 -1.51944,1.4975 l -0.002,0 0,35.9791 0,0.022 c 0.0115,0.8319 0.68949,1.5 1.52144,1.4994 l 0.018,0 22.96056,0 c 2.49302,0 4.50017,-2.0071 4.50017,-4.5003 l 0,-29.9995 c 0,-2.4931 -2.00715,-4.5002 -4.50017,-4.5002 l -22.96056,0 -0.018,0 z"/><path fill="#fff" d="M12.00938 1008.8621l0 0c-.83044.0005-1.50698.6677-1.51953 1.498l-.002 0 0 35.9785 0 .022c.0115.8319.68953 1.5006 1.52148 1.5l.0176 0 1.48243 0c-.83196.0006-1.50996-.6681-1.52149-1.5l0-.022 0-35.9785.002 0c.0125-.8303.68909-1.4975 1.51953-1.498l0 0-1.48242 0-.0176 0zM18.987915 1034.3621l11.999965 0c.55401 0 1.000018.446 1.000018 1l0 5c0 .554-.446008 1-1.000018 1l-11.999965 0c-.554009 0-1.000017-.446-1.000017-1l0-5c0-.554.446008-1 1.000017-1z"/><path fill="#249fe6" style="line-height:normal;text-indent:0;text-align:start;text-decoration-line:none;text-decoration-style:solid;text-decoration-color:#000;text-transform:none;block-progression:tb;isolation:auto;mix-blend-mode:normal" d="m 12.009766,1008.3613 a 0.50005,0.50005 0 0 0 -0.355469,0.1485 c -0.778369,0.16 -1.343049,0.716 -1.513672,1.4922 a 0.50005,0.50005 0 0 0 -0.1523438,0.3593 l 0,35.9785 0,0.024 a 0.50005,0.50005 0 0 0 0,0.01 c 0.015203,1.0998 0.9216548,1.993 2.0214848,1.9922 l 0.01758,0 22.960937,0 c 2.761383,0 5,-2.2384 5,-5 l 0,-30 c 0,-2.7614 -2.238617,-5 -5,-5 l -22.960937,0 -0.01758,0 z m 0.04883,1 22.929687,0 c 2.224658,0 4,1.7753 4,4 l 0,30 c 0,2.2249 -1.775342,4 -4,4 l -22.960937,0 -0.01758,0 a 0.50005,0.50005 0 0 0 -0.002,0 c -0.564069,4e-4 -1.011734,-0.4418 -1.019531,-1.0058 l 0,-0.016 0,-35.9433 a 0.50005,0.50005 0 0 0 0.002,-0.027 c 0.0085,-0.5628 0.456524,-1.0055 1.019532,-1.0058 a 0.50005,0.50005 0 0 0 0.04883,-0 z" color="#000" font-family="sans-serif" font-weight="400" overflow="visible" white-space="normal"/><path fill="#c2e4f8" fill-rule="evenodd" d="m 9.52639,1037.3621 a 1.0001,1.0001 0 1 0 0,2 l 2.94727,0 a 1.0001,1.0001 0 1 0 0,-2 l -2.94727,0 z" color="#000" font-family="sans-serif" font-weight="400" overflow="visible" white-space="normal" style="line-height:normal;text-indent:0;text-align:start;text-decoration-line:none;text-decoration-style:solid;text-decoration-color:#000;text-transform:none;block-progression:tb;isolation:auto;mix-blend-mode:normal"/><path fill="#fff" fill-rule="evenodd" style="line-height:normal;text-indent:0;text-align:start;text-decoration-line:none;text-decoration-style:solid;text-decoration-color:#000;text-transform:none;block-progression:tb;isolation:auto;mix-blend-mode:normal" d="m 9.52696,1037.362 a 1.0001,1.0001 0 1 0 0,2 l 1.4043,0 a 1.0001,1.0001 0 0 1 0.0703,-1.998 l 1.54102,0 a 1.0001,1.0001 0 0 0 -0.0684,0 l -2.94727,0 z" color="#000" font-family="sans-serif" font-weight="400" overflow="visible" white-space="normal"/><path fill="#c2e4f8" fill-rule="evenodd" style="line-height:normal;text-indent:0;text-align:start;text-decoration-line:none;text-decoration-style:solid;text-decoration-color:#000;text-transform:none;block-progression:tb;isolation:auto;mix-blend-mode:normal" d="m 9.52639,1042.3621 a 1.0001,1.0001 0 1 0 0,2 l 2.94727,0 a 1.0001,1.0001 0 1 0 0,-2 l -2.94727,0 z" color="#000" font-family="sans-serif" font-weight="400" overflow="visible" white-space="normal"/><path fill="#fff" fill-rule="evenodd" d="m 9.52696,1042.362 a 1.0001,1.0001 0 1 0 0,2 l 1.4043,0 a 1.0001,1.0001 0 0 1 0.0703,-1.998 l 1.54102,0 a 1.0001,1.0001 0 0 0 -0.0684,0 l -2.94727,0 z" color="#000" font-family="sans-serif" font-weight="400" overflow="visible" white-space="normal" style="line-height:normal;text-indent:0;text-align:start;text-decoration-line:none;text-decoration-style:solid;text-decoration-color:#000;text-transform:none;block-progression:tb;isolation:auto;mix-blend-mode:normal"/><path fill="#c2e4f8" fill-rule="evenodd" style="line-height:normal;text-indent:0;text-align:start;text-decoration-line:none;text-decoration-style:solid;text-decoration-color:#000;text-transform:none;block-progression:tb;isolation:auto;mix-blend-mode:normal" d="m 9.52639,1012.3622 a 1.0001,1.0001 0 1 0 0,2 l 2.94727,0 a 1.0001,1.0001 0 1 0 0,-2 l -2.94727,0 z" color="#000" font-family="sans-serif" font-weight="400" overflow="visible" white-space="normal"/><path fill="#fff" fill-rule="evenodd" d="m 9.52696,1012.3621 a 1.0001,1.0001 0 1 0 0,2 l 1.4043,0 a 1.0001,1.0001 0 0 1 0.0703,-1.998 l 1.54102,0 a 1.0001,1.0001 0 0 0 -0.0684,0 l -2.94727,0 z" color="#000" font-family="sans-serif" font-weight="400" overflow="visible" white-space="normal" style="line-height:normal;text-indent:0;text-align:start;text-decoration-line:none;text-decoration-style:solid;text-decoration-color:#000;text-transform:none;block-progression:tb;isolation:auto;mix-blend-mode:normal"/><path fill="#249fe6" fill-rule="evenodd" style="line-height:normal;text-indent:0;text-align:start;text-decoration-line:none;text-decoration-style:solid;text-decoration-color:#000;text-transform:none;block-progression:tb;isolation:auto;mix-blend-mode:normal" d="m 9.5332031,1011.8613 c -0.4636448,-0.01 -0.8763835,0.1828 -1.1386719,0.4746 -0.2622883,0.2919 -0.3828124,0.6614 -0.3828124,1.0254 -1e-7,0.364 0.1205241,0.7355 0.3828124,1.0274 0.2622884,0.2918 0.6750271,0.4792 1.1386719,0.4726 l 2.9335939,0 c 0.463645,0.01 0.876383,-0.1808 1.138672,-0.4726 0.262288,-0.2919 0.382812,-0.6634 0.382812,-1.0274 0,-0.364 -0.120524,-0.7335 -0.382812,-1.0254 -0.262289,-0.2918 -0.675027,-0.4811 -1.138672,-0.4746 l -2.9335939,0 z m -0.013672,1 a 0.50005,0.50005 0 0 0 0.00781,0 l 2.9472652,0 a 0.50005,0.50005 0 0 0 0.0059,0 c 0.212516,-0 0.30702,0.058 0.382812,0.1426 0.07579,0.084 0.125,0.2167 0.125,0.3574 0,0.1408 -0.04921,0.2751 -0.125,0.3594 -0.07579,0.084 -0.170296,0.1436 -0.382812,0.1406 a 0.50005,0.50005 0 0 0 -0.0059,0 l -2.9472652,0 a 0.50005,0.50005 0 0 0 -0.00781,0 c -0.2125165,0 -0.3070201,-0.056 -0.3828124,-0.1406 -0.075792,-0.084 -0.1250001,-0.2186 -0.125,-0.3594 0,-0.1407 0.049208,-0.2731 0.125,-0.3574 0.075792,-0.084 0.1702959,-0.1456 0.3828124,-0.1426 z" color="#000" font-family="sans-serif" font-weight="400" overflow="visible" white-space="normal"/><path fill="#249fe5" fill-opacity=".98" fill-rule="evenodd" style="line-height:normal;text-indent:0;text-align:start;text-decoration-line:none;text-decoration-style:solid;text-decoration-color:#000;text-transform:none;block-progression:tb;isolation:auto;mix-blend-mode:normal" d="m 9.5332031,1041.8613 c -0.4636448,-0.01 -0.8763835,0.1808 -1.1386719,0.4727 -0.2622883,0.2918 -0.3828124,0.6633 -0.3828124,1.0273 -1e-7,0.364 0.1205241,0.7355 0.3828124,1.0274 0.2622884,0.2918 0.6750271,0.4792 1.1386719,0.4726 l 2.9335939,0 c 0.463645,0.01 0.876383,-0.1808 1.138672,-0.4726 0.262288,-0.2919 0.382812,-0.6634 0.382812,-1.0274 0,-0.364 -0.120524,-0.7355 -0.382812,-1.0273 -0.262289,-0.2919 -0.675027,-0.4792 -1.138672,-0.4727 l -2.9335939,0 z m -0.013672,1 a 0.50005,0.50005 0 0 0 0.00781,0 l 2.9472652,0 a 0.50005,0.50005 0 0 0 0.0059,0 c 0.212516,-0 0.30702,0.058 0.382812,0.1426 0.07579,0.084 0.125,0.2167 0.125,0.3574 0,0.1408 -0.04921,0.2751 -0.125,0.3594 -0.07579,0.084 -0.170296,0.1436 -0.382812,0.1406 a 0.50005,0.50005 0 0 0 -0.0059,0 l -2.9472652,0 a 0.50005,0.50005 0 0 0 -0.00781,0 c -0.2125165,0 -0.3070201,-0.056 -0.3828124,-0.1406 -0.075792,-0.084 -0.1250001,-0.2186 -0.125,-0.3594 0,-0.1407 0.049208,-0.2731 0.125,-0.3574 0.075792,-0.084 0.1702959,-0.1456 0.3828124,-0.1426 z" color="#000" font-family="sans-serif" font-weight="400" overflow="visible" white-space="normal"/><path fill="#249fe6" fill-rule="evenodd" style="line-height:normal;text-indent:0;text-align:start;text-decoration-line:none;text-decoration-style:solid;text-decoration-color:#000;text-transform:none;block-progression:tb;isolation:auto;mix-blend-mode:normal" d="m 9.5332031,1036.8613 c -0.4636448,-0.01 -0.8763835,0.1808 -1.1386719,0.4727 -0.2622883,0.2918 -0.3828124,0.6633 -0.3828124,1.0273 -1e-7,0.364 0.1205241,0.7355 0.3828124,1.0274 0.2622884,0.2918 0.6750271,0.4792 1.1386719,0.4726 l 2.9335939,0 c 0.463645,0.01 0.876383,-0.1808 1.138672,-0.4726 0.262288,-0.2919 0.382812,-0.6634 0.382812,-1.0274 0,-0.364 -0.120524,-0.7355 -0.382812,-1.0273 -0.262289,-0.2919 -0.675027,-0.4792 -1.138672,-0.4727 l -2.9335939,0 z m -0.013672,1 a 0.50005,0.50005 0 0 0 0.00781,0 l 2.9472652,0 a 0.50005,0.50005 0 0 0 0.0059,0 c 0.212516,-0 0.30702,0.058 0.382812,0.1426 0.07579,0.084 0.125,0.2167 0.125,0.3574 0,0.1408 -0.04921,0.2751 -0.125,0.3594 -0.07579,0.084 -0.170296,0.1436 -0.382812,0.1406 a 0.50005,0.50005 0 0 0 -0.0059,0 l -2.9472652,0 a 0.50005,0.50005 0 0 0 -0.00781,0 c -0.2125165,0 -0.3070201,-0.056 -0.3828124,-0.1406 -0.075792,-0.084 -0.1250001,-0.2186 -0.125,-0.3594 0,-0.1407 0.049208,-0.2731 0.125,-0.3574 0.075792,-0.084 0.1702959,-0.1456 0.3828124,-0.1426 z" color="#000" font-family="sans-serif" font-weight="400" overflow="visible" white-space="normal"/><path fill="#c2e4f8" fill-rule="evenodd" style="line-height:normal;text-indent:0;text-align:start;text-decoration-line:none;text-decoration-style:solid;text-decoration-color:#000;text-transform:none;block-progression:tb;isolation:auto;mix-blend-mode:normal" d="m 9.52639,1032.3621 a 1.0001,1.0001 0 1 0 0,2 l 2.94727,0 a 1.0001,1.0001 0 1 0 0,-2 l -2.94727,0 z" color="#000" font-family="sans-serif" font-weight="400" overflow="visible" white-space="normal"/><path fill="#fff" fill-rule="evenodd" d="m 9.52696,1032.362 a 1.0001,1.0001 0 1 0 0,2 l 1.4043,0 a 1.0001,1.0001 0 0 1 0.0703,-1.998 l 1.54102,0 a 1.0001,1.0001 0 0 0 -0.0684,0 l -2.94727,0 z" color="#000" font-family="sans-serif" font-weight="400" overflow="visible" white-space="normal" style="line-height:normal;text-indent:0;text-align:start;text-decoration-line:none;text-decoration-style:solid;text-decoration-color:#000;text-transform:none;block-progression:tb;isolation:auto;mix-blend-mode:normal"/><path fill="#249fe6" fill-rule="evenodd" style="line-height:normal;text-indent:0;text-align:start;text-decoration-line:none;text-decoration-style:solid;text-decoration-color:#000;text-transform:none;block-progression:tb;isolation:auto;mix-blend-mode:normal" d="m 9.5332031,1031.8613 c -0.4636448,-0.01 -0.8763835,0.1808 -1.1386719,0.4727 -0.2622883,0.2918 -0.3828124,0.6633 -0.3828124,1.0273 -1e-7,0.364 0.1205241,0.7355 0.3828124,1.0274 0.2622884,0.2918 0.6750271,0.4792 1.1386719,0.4726 l 2.9335939,0 c 0.463645,0.01 0.876383,-0.1808 1.138672,-0.4726 0.262288,-0.2919 0.382812,-0.6634 0.382812,-1.0274 0,-0.364 -0.120524,-0.7355 -0.382812,-1.0273 -0.262289,-0.2919 -0.675027,-0.4792 -1.138672,-0.4727 l -2.9335939,0 z m -0.013672,1 a 0.50005,0.50005 0 0 0 0.00781,0 l 2.9472652,0 a 0.50005,0.50005 0 0 0 0.0059,0 c 0.212516,-0 0.30702,0.058 0.382812,0.1426 0.07579,0.084 0.125,0.2167 0.125,0.3574 0,0.1408 -0.04921,0.2751 -0.125,0.3594 -0.07579,0.084 -0.170296,0.1436 -0.382812,0.1406 a 0.50005,0.50005 0 0 0 -0.0059,0 l -2.9472652,0 a 0.50005,0.50005 0 0 0 -0.00781,0 c -0.2125165,0 -0.3070201,-0.056 -0.3828124,-0.1406 -0.075792,-0.084 -0.1250001,-0.2186 -0.125,-0.3594 0,-0.1407 0.049208,-0.2731 0.125,-0.3574 0.075792,-0.084 0.1702959,-0.1456 0.3828124,-0.1426 z" color="#000" font-family="sans-serif" font-weight="400" overflow="visible" white-space="normal"/><path fill="#c2e4f8" fill-rule="evenodd" d="m 9.52639,1027.3621 a 1.0001,1.0001 0 1 0 0,2 l 2.94727,0 a 1.0001,1.0001 0 1 0 0,-2 l -2.94727,0 z" color="#000" font-family="sans-serif" font-weight="400" overflow="visible" white-space="normal" style="line-height:normal;text-indent:0;text-align:start;text-decoration-line:none;text-decoration-style:solid;text-decoration-color:#000;text-transform:none;block-progression:tb;isolation:auto;mix-blend-mode:normal"/><path fill="#fff" fill-rule="evenodd" style="line-height:normal;text-indent:0;text-align:start;text-decoration-line:none;text-decoration-style:solid;text-decoration-color:#000;text-transform:none;block-progression:tb;isolation:auto;mix-blend-mode:normal" d="m 9.52696,1027.362 a 1.0001,1.0001 0 1 0 0,2 l 1.4043,0 a 1.0001,1.0001 0 0 1 0.0703,-1.998 l 1.54102,0 a 1.0001,1.0001 0 0 0 -0.0684,0 l -2.94727,0 z" color="#000" font-family="sans-serif" font-weight="400" overflow="visible" white-space="normal"/><path fill="#249fe6" fill-rule="evenodd" style="line-height:normal;text-indent:0;text-align:start;text-decoration-line:none;text-decoration-style:solid;text-decoration-color:#000;text-transform:none;block-progression:tb;isolation:auto;mix-blend-mode:normal" d="m 9.5332031,1026.8613 c -0.4636448,-0.01 -0.8763835,0.1808 -1.1386719,0.4727 -0.2622883,0.2918 -0.3828124,0.6633 -0.3828124,1.0273 -1e-7,0.364 0.1205241,0.7355 0.3828124,1.0274 0.2622884,0.2918 0.6750271,0.4792 1.1386719,0.4726 l 2.9335939,0 c 0.463645,0.01 0.876383,-0.1808 1.138672,-0.4726 0.262288,-0.2919 0.382812,-0.6634 0.382812,-1.0274 0,-0.364 -0.120524,-0.7355 -0.382812,-1.0273 -0.262289,-0.2919 -0.675027,-0.4792 -1.138672,-0.4727 l -2.9335939,0 z m -0.013672,1 a 0.50005,0.50005 0 0 0 0.00781,0 l 2.9472652,0 a 0.50005,0.50005 0 0 0 0.0059,0 c 0.212516,-0 0.30702,0.058 0.382812,0.1426 0.07579,0.084 0.125,0.2167 0.125,0.3574 0,0.1408 -0.04921,0.2751 -0.125,0.3594 -0.07579,0.084 -0.170296,0.1436 -0.382812,0.1406 a 0.50005,0.50005 0 0 0 -0.0059,0 l -2.9472652,0 a 0.50005,0.50005 0 0 0 -0.00781,0 c -0.2125165,0 -0.3070201,-0.056 -0.3828124,-0.1406 -0.075792,-0.084 -0.1250001,-0.2186 -0.125,-0.3594 0,-0.1407 0.049208,-0.2731 0.125,-0.3574 0.075792,-0.084 0.1702959,-0.1456 0.3828124,-0.1426 z" color="#000" font-family="sans-serif" font-weight="400" overflow="visible" white-space="normal"/><path fill="#c2e4f8" fill-rule="evenodd" style="line-height:normal;text-indent:0;text-align:start;text-decoration-line:none;text-decoration-style:solid;text-decoration-color:#000;text-transform:none;block-progression:tb;isolation:auto;mix-blend-mode:normal" d="m 9.52639,1022.3621 a 1.0001,1.0001 0 1 0 0,2 l 2.94727,0 a 1.0001,1.0001 0 1 0 0,-2 l -2.94727,0 z" color="#000" font-family="sans-serif" font-weight="400" overflow="visible" white-space="normal"/><path fill="#fff" fill-rule="evenodd" d="m 9.52696,1022.362 a 1.0001,1.0001 0 1 0 0,2 l 1.4043,0 a 1.0001,1.0001 0 0 1 0.0703,-1.998 l 1.54102,0 a 1.0001,1.0001 0 0 0 -0.0684,0 l -2.94727,0 z" color="#000" font-family="sans-serif" font-weight="400" overflow="visible" white-space="normal" style="line-height:normal;text-indent:0;text-align:start;text-decoration-line:none;text-decoration-style:solid;text-decoration-color:#000;text-transform:none;block-progression:tb;isolation:auto;mix-blend-mode:normal"/><path fill="#249fe6" fill-rule="evenodd" style="line-height:normal;text-indent:0;text-align:start;text-decoration-line:none;text-decoration-style:solid;text-decoration-color:#000;text-transform:none;block-progression:tb;isolation:auto;mix-blend-mode:normal" d="m 9.5332031,1021.8613 c -0.4636448,-0.01 -0.8763835,0.1808 -1.1386719,0.4727 -0.2622883,0.2918 -0.3828124,0.6633 -0.3828124,1.0273 -1e-7,0.364 0.1205241,0.7355 0.3828124,1.0274 0.2622884,0.2918 0.6750271,0.4792 1.1386719,0.4726 l 2.9335939,0 c 0.463645,0.01 0.876383,-0.1808 1.138672,-0.4726 0.262288,-0.2919 0.382812,-0.6634 0.382812,-1.0274 0,-0.364 -0.120524,-0.7355 -0.382812,-1.0273 -0.262289,-0.2919 -0.675027,-0.4792 -1.138672,-0.4727 l -2.9335939,0 z m -0.013672,1 a 0.50005,0.50005 0 0 0 0.00781,0 l 2.9472652,0 a 0.50005,0.50005 0 0 0 0.0059,0 c 0.212516,-0 0.30702,0.058 0.382812,0.1426 0.07579,0.084 0.125,0.2167 0.125,0.3574 0,0.1408 -0.04921,0.2751 -0.125,0.3594 -0.07579,0.084 -0.170296,0.1436 -0.382812,0.1406 a 0.50005,0.50005 0 0 0 -0.0059,0 l -2.9472652,0 a 0.50005,0.50005 0 0 0 -0.00781,0 c -0.2125165,0 -0.3070201,-0.056 -0.3828124,-0.1406 -0.075792,-0.084 -0.125,-0.2186 -0.125,-0.3594 0,-0.1407 0.049208,-0.2731 0.125,-0.3574 0.075792,-0.084 0.1702959,-0.1456 0.3828124,-0.1426 z" color="#000" font-family="sans-serif" font-weight="400" overflow="visible" white-space="normal"/><path fill="#c2e4f8" fill-rule="evenodd" d="m 9.52639,1017.3621 a 1.0001,1.0001 0 1 0 0,2 l 2.94727,0 a 1.0001,1.0001 0 1 0 0,-2 l -2.94727,0 z" color="#000" font-family="sans-serif" font-weight="400" overflow="visible" white-space="normal" style="line-height:normal;text-indent:0;text-align:start;text-decoration-line:none;text-decoration-style:solid;text-decoration-color:#000;text-transform:none;block-progression:tb;isolation:auto;mix-blend-mode:normal"/><path fill="#fff" fill-rule="evenodd" style="line-height:normal;text-indent:0;text-align:start;text-decoration-line:none;text-decoration-style:solid;text-decoration-color:#000;text-transform:none;block-progression:tb;isolation:auto;mix-blend-mode:normal" d="m 9.52696,1017.362 a 1.0001,1.0001 0 1 0 0,2 l 1.4043,0 a 1.0001,1.0001 0 0 1 0.0703,-1.998 l 1.54102,0 a 1.0001,1.0001 0 0 0 -0.0684,0 l -2.94727,0 z" color="#000" font-family="sans-serif" font-weight="400" overflow="visible" white-space="normal"/><path fill="#249fe6" fill-rule="evenodd" style="line-height:normal;text-indent:0;text-align:start;text-decoration-line:none;text-decoration-style:solid;text-decoration-color:#000;text-transform:none;block-progression:tb;isolation:auto;mix-blend-mode:normal" d="m 9.5332031,1016.8613 c -0.4636448,-0.01 -0.8763835,0.1808 -1.1386719,0.4727 -0.2622883,0.2918 -0.3828124,0.6633 -0.3828124,1.0273 -1e-7,0.364 0.1205241,0.7355 0.3828124,1.0274 0.2622884,0.2918 0.6750271,0.4792 1.1386719,0.4726 l 2.9335939,0 c 0.463645,0.01 0.876383,-0.1808 1.138672,-0.4726 0.262288,-0.2919 0.382812,-0.6634 0.382812,-1.0274 0,-0.364 -0.120524,-0.7355 -0.382812,-1.0273 -0.262289,-0.2919 -0.675027,-0.4792 -1.138672,-0.4727 l -2.9335939,0 z m -0.013672,1 a 0.50005,0.50005 0 0 0 0.00781,0 l 2.9472652,0 a 0.50005,0.50005 0 0 0 0.0059,0 c 0.212516,-0 0.30702,0.058 0.382812,0.1426 0.07579,0.084 0.125,0.2167 0.125,0.3574 0,0.1408 -0.04921,0.2751 -0.125,0.3594 -0.07579,0.084 -0.170296,0.1436 -0.382812,0.1406 a 0.50005,0.50005 0 0 0 -0.0059,0 l -2.9472652,0 a 0.50005,0.50005 0 0 0 -0.00781,0 c -0.2125165,0 -0.3070201,-0.056 -0.3828124,-0.1406 -0.075792,-0.084 -0.1250001,-0.2186 -0.125,-0.3594 0,-0.1407 0.049208,-0.2731 0.125,-0.3574 0.075792,-0.084 0.1702959,-0.1456 0.3828124,-0.1426 z" color="#000" font-family="sans-serif" font-weight="400" overflow="visible" white-space="normal"/><path fill="#fff" d="m 27.4879,1008.8621 0,8.75 1.5,-1.125 0,-7.625 -1.5,0 z m 4.00195,6.875 -0.75,0.5625 1.74805,1.3125 0,-1.125 -0.99805,-0.75 z"/><path fill="#249fe6" style="line-height:normal;text-indent:0;text-align:start;text-decoration-line:none;text-decoration-style:solid;text-decoration-color:#000;text-transform:none;block-progression:tb;isolation:auto;mix-blend-mode:normal" d="m 27.488281,1008.3613 a 0.50004991,0.50004991 0 0 0 -0.5,0.5 l 0,9.002 a 0.50004991,0.50004991 0 0 0 0.802735,0.3984 l 2.199218,-1.6699 2.195313,1.6699 a 0.50004991,0.50004991 0 0 0 0.802734,-0.3984 l 0,-9.002 a 0.50004991,0.50004991 0 0 0 -0.5,-0.5 l -5,0 z m 0.5,1 4,0 0,7.4942 -1.695312,-1.2891 a 0.50004991,0.50004991 0 0 0 -0.605469,0 l -1.699219,1.2891 0,-7.4942 z" color="#000" font-family="sans-serif" font-weight="400" overflow="visible" white-space="normal"/><path fill="#fff" d="m 18.9879,1034.3621 c -0.55401,0 -1,0.446 -1,1 l 0,5 c 0,0.554 0.44599,1 1,1 l 1.5,0 c -0.55401,0 -1,-0.446 -1,-1 l 0,-5 c 0,-0.554 0.44599,-1 1,-1 l -1.5,0 z"/><path fill="#249fe6" style="line-height:normal;text-indent:0;text-align:start;text-decoration-line:none;text-decoration-style:solid;text-decoration-color:#000;text-transform:none;block-progression:tb;isolation:auto;mix-blend-mode:normal" d="m 18.988281,1033.8613 c -0.822356,0 -1.5,0.6777 -1.5,1.5 l 0,5 c 0,0.8224 0.677644,1.5 1.5,1.5 l 12,0 c 0.822357,0 1.5,-0.6776 1.5,-1.5 l 0,-5 c 0,-0.8223 -0.677643,-1.5 -1.5,-1.5 l -12,0 z m 0,1 12,0 c 0.285664,0 0.5,0.2144 0.5,0.5 l 0,5 c 0,0.2857 -0.214336,0.5 -0.5,0.5 l -12,0 c -0.285662,0 -0.5,-0.2143 -0.5,-0.5 l 0,-5 c 0,-0.2856 0.214338,-0.5 0.5,-0.5 z" color="#000" font-family="sans-serif" font-weight="400" overflow="visible" white-space="normal"/></g></svg>