<svg xmlns="http://www.w3.org/2000/svg" width="48" height="48" viewBox="0 0 48 48"><g transform="translate(0 -1004.362)"><circle cx="24" cy="1028.362" r="24" fill="#239fdb" fill-rule="evenodd"/><g transform="translate(498.008 -1587)"><path fill="#f8b740" d="m -488,2625.3622 c -0.55228,0 -2,-14.066 -2,-14.6437 l 0,0 0.28125,-0.7519 15.09375,-11.3423 c 0.47216,-0.3539 0.84193,-0.345 1.21875,0 l 14.93733,11.1873 c 0.46892,0.9069 0.36998,0.5207 0.46892,0.9069 0,0.5777 -1.44772,14.6437 -2,14.6437 z"/><rect width="32" height="20" x="-490" y="2610.362" fill="#fcd062" rx="1" ry="1"/><path fill="#f9b945" fill-opacity=".341" d="m -490,2612.0343 0,-0.5794 c -0.0905,-0.7477 0.59268,-1.0927 1,-1.0927 l 30,0 c 0.71041,0.033 0.97567,0.4569 1,1.0927 l 0,0.5794 -15.39784,12.0611 c -0.37682,0.3605 -0.7505,0.3556 -1.22266,-0.014 z"/><path fill="#f8fafa" d="m -487,2600.3622 c -0.55394,0 -1,0.4461 -1,1 l 0,12.25 13.375,10.4688 c 0.23608,0.1847 0.45768,0.2823 0.65625,0.2812 0.19857,0 0.37409,-0.1011 0.5625,-0.2812 L -460,2613.6122 l 0,-12.25 c 0,-0.5539 -0.44606,-1 -1,-1 z"/><g transform="matrix(.3 0 0 .29311 -320.098 2303.998)"><path fill="#78c8f0" fill-rule="evenodd" d="m -533.34049,1031.9068 0,2.8125 5.26351,3.0077 c 1.07381,0.6136 1.7365,1.7555 1.73649,2.9923 l 0,4.4918 -20,0 0,-4.3951 c 0,-1.2965 0.69471,-2.4936 1.82041,-3.1369 l 5.17959,-2.9598 0,-2.8125"/><path fill="#f8b84e" d="m -539.34049,1031.6111 6,0 0,4.5687 -3,2.0469 -3,-2.0469 z"/><path fill="#fcd062" d="m -538.11933,1022.4681 c -1.23133,0 -2.22259,1.0037 -2.22259,2.2505 l 0,1.7504 c 0,0.01 0.002,0.017 0.002,0.025 -5e-5,0.01 -0.002,0.017 -0.002,0.025 l 0,2.6998 c 0,2.2443 1.78506,4.0518 4.00143,4.0518 2.21636,0 4.00142,-1.8075 4.00142,-4.0518 l 0,-2.6998 c 0,-0.01 -0.002,-0.017 -0.002,-0.025 10e-5,-0.01 0.002,-0.017 0.002,-0.025 l 0,-4.0944 c 0,-0.8417 -0.26182,-0.838 -0.91676,-0.323 -0.32689,0.2569 -0.73798,0.4165 -1.30582,0.4165 l -1.77884,0 z"/><path fill="#1f303e" fill-rule="evenodd" d="m -532.07988,1021.3375 c -0.16566,-0.045 -0.4246,0.1014 -0.79282,0.391 -0.36758,0.2888 -0.82855,0.4677 -1.46706,0.4677 l -2.00073,0 -2.00073,0 c -1.38457,0 -2.49927,1.1303 -2.49927,2.5323 0.002,0.8949 8e-5,1.6661 0,2.5572 0,0.4132 0.32733,0.3817 0.50564,0.2788 0.83309,-0.5103 2.20148,-1.8115 2.30769,-2.2079 1.39238,2.4116 4.18321,0.9792 5.72178,2.118 0.12358,0.1236 0.46443,0.1549 0.46422,-0.2397 -5.1e-4,-1.5829 6.8e-4,-3.5562 6.8e-4,-5.1419 0,-0.4732 -0.0737,-0.7106 -0.23939,-0.7555 z"/><path fill="#27b2e7" style="line-height:normal;-inkscape-font-specification:Sans;text-indent:0;text-align:start;text-decoration-line:none;text-transform:none;block-progression:tb;marker:none" d="M-542.84375 1041.9375l0 3.25 1 0 0-3.25-1 0zM-530.8125 1041.9375l0 3.25 1 0 0-3.25-1 0z" color="#000" font-family="Sans" font-weight="400" overflow="visible"/><circle cx="-534.341" cy="1041.219" r=".5" fill="#34485c"/><circle cx="-534.341" cy="1043.219" r=".5" fill="#34485c"/><rect width="2" height="7" x="-537.341" y="1038.211" fill="#4bbfeb" fill-rule="evenodd"/><path fill="#27b2e7" fill-rule="evenodd" d="m -536.37906,1038.2111 4.01378,1 0,-5 -0.93835,-1.0312 c 0,0 -0.40838,2.0312 -1.03856,3.0312 -0.63019,1 -2.03687,2 -2.03687,2 z"/><path fill="#27b2e7" fill-rule="evenodd" d="m -536.30366,1038.2111 -4.01658,1 0,-3 0,-2 0.94115,-1.0312 c 0,0 0.40838,2.0312 1.03857,3.0312 0.63018,1 2.03686,2 2.03686,2 z"/></g><rect width="13" height="2" x="-477" y="2603.362" fill="#34485c" rx="0" ry="0"/><rect width="13" height="1" x="-477" y="2606.362" fill="#cad1d8" rx="0" ry="0"/><rect width="13" height="1" x="-477" y="2608.362" fill="#cad1d8" rx="0" ry="0"/><rect width="13" height="2" x="-477" y="2611.362" fill="#34485c" rx="0" ry="0"/><rect width="6" height="2" x="-484" y="2611.362" fill="#fbfbfb"/><path fill="#cad1d8" d="m -480.03313,2611.6112 c -0.1068,-0.01 -0.18125,0.1143 -0.26192,0.1987 -0.1396,0.1092 -0.26671,0.2628 -0.39699,0.402 -0.0791,0.1336 -0.19166,0.1234 -0.28556,0.051 -0.10149,-0.035 -0.22087,-0.065 -0.31185,0.039 -0.0731,0.093 -0.0898,0.3622 -0.19751,0.3274 -0.0827,-0.1422 -0.18201,-0.2603 -0.25242,-0.4275 -0.005,-0.1891 -0.1759,-0.2713 -0.20668,-0.065 -0.081,0.1441 -0.0539,0.1196 -0.0797,0.1768 -0.0672,0.1872 -0.13028,0.407 -0.25725,0.4816 -0.14566,0.1308 0.10827,0.4276 0.17631,0.1873 0.10299,-0.1762 0.14706,-0.4504 0.25449,-0.6095 0.0663,0.1541 0.15091,0.2677 0.23334,0.3963 0.0707,0.127 0.20047,0.2229 0.28325,0.077 0.071,-0.1151 0.10167,-0.3806 0.21725,-0.3515 0.10429,-0.027 0.19632,0.1045 0.29987,0.09 0.0946,0 0.16134,-0.1191 0.23954,-0.1897 0.13857,-0.1106 0.26238,-0.269 0.39966,-0.3847 0.0954,-0.1608 0.24356,-0.1691 0.36002,-0.066 0.15081,0.1071 0.30251,0.2131 0.45879,0.2921 0.0781,0.059 0.11881,0.013 0.10099,-0.1264 0.0313,-0.1987 -0.11086,-0.108 -0.17547,-0.1889 -0.1604,-0.094 -0.31442,-0.2166 -0.47264,-0.3208 -0.0411,0.017 -0.0843,0.01 -0.12549,0.01 z" color="#000" font-family="Sans" font-weight="400" overflow="visible" style="line-height:normal;-inkscape-font-specification:Sans;text-indent:0;text-align:start;text-decoration-line:none;text-transform:none;block-progression:tb;marker:none"/></g></g></svg>