<svg xmlns="http://www.w3.org/2000/svg" width="48" height="48" viewBox="0 0 48 48"><g transform="translate(0 -1004.362)"><circle cx="24" cy="1028.362" r="24" fill="#ffa40b" fill-rule="evenodd"/><g transform="translate(-6 -894.5)"><rect width="21" height="28" x="20" y="1909.862" fill="#e9eded" rx="1" ry="1"/><path fill="#fbfbfb" d="m 21,1910.8622 19,0 0,20.0625 -5,4.9375 -14,0 z"/><path fill="#374b5f" fill-opacity=".069" d="m 25,1909.8622 0,1.2188 c 0,0.9824 0.79881,1.7812 1.78125,1.7812 l 7.4375,0 c 0.98244,0 1.78125,-0.7988 1.78125,-1.7812 l 0,-1.2188 -11,0 z"/><path fill="#374b5f" d="m 30.5,1906.8622 c -1.20812,0 -2.20438,0.8608 -2.4375,2 l -1.0625,0 c -0.55401,0 -1,0.446 -1,1 l 0,1 c 0,0.554 0.44599,1 1,1 l 3.5,0 3.5,0 c 0.55401,0 1,-0.446 1,-1 l 0,-1 c 0,-0.554 -0.44599,-1 -1,-1 l -1.0625,0 c -0.23312,-1.1392 -1.22938,-2 -2.4375,-2 z"/><path fill="#cad1d8" d="m 20,1935.8622 0,1 c 0,0.554 0.44599,1 1,1 l 19,0 c 0.55401,0 1,-0.446 1,-1 l 0,-1 c 0,0.554 -0.44599,1 -1,1 l -19,0 c -0.55401,0 -1,-0.446 -1,-1 z"/><circle cx="16.5" cy="3.5" r="2.5" fill="#e9eded" transform="matrix(.2 0 0 .2 27.2 1908.662)"/><path fill="#cad1d8" d="m 35,1935.8622 0,-5 5,0 z"/><g transform="translate(423.268 -97.5)"><circle cx="-508.675" cy="889.197" r="6.5" fill="#f05542" transform="translate(115.907 1131.665)"/><circle cx="-508.675" cy="889.197" r="4.5" fill="#f17f53" transform="translate(115.907 1131.665)"/><path fill="none" stroke="#fff" stroke-linecap="round" stroke-linejoin="round" stroke-width="2" d="M-394.53515 2022.6324l3.53518-3.5404M-394.5378 2019.0946l3.5378 3.5378"/></g></g></g></svg>