<svg xmlns="http://www.w3.org/2000/svg" width="32" height="32" viewBox="0 0 32 32"><g transform="translate(0 -1020.362)"><path fill="#fede7d" fill-rule="evenodd" d="m 9.7669328,1047.5814 -4.9861994,-4.9862 -1.7806859,6.767 z"/><path fill="#e2e6e9" d="m 25.988916,1031.3593 2.493041,-2.4931 c 0.690613,-0.6905 0.690712,-1.8025 8.6e-5,-2.4931 l -2.492904,-2.4929 c -0.690624,-0.6906 -1.802688,-0.6907 -2.493301,-10e-5 l -2.493042,2.4931 z"/><path fill="#f8572f" d="m 9.7668623,1047.5813 16.3830347,-16.383 -4.986129,-4.9861 -16.3830346,16.383 z"/><path fill="#ffcc59" d="m 6.9176405,1044.7321 16.3830345,-16.383 -2.136907,-2.1369 -16.3830346,16.383 z"/><path fill="#feb033" d="m 8.3422564,1046.1567 16.3830296,-16.383 -2.136912,-2.1369 -16.3830297,16.383 z"/><path fill="#60727d" fill-rule="evenodd" d="m 3.5940518,1047.107 -0.5940513,2.2552 2.2551704,-0.5941 -1.6611191,-1.6611 z"/><rect width="7.051" height="2.015" x="740.607" y="709.669" fill="#60727d" rx="0" ry="0" transform="rotate(45)"/></g></svg>