<svg xmlns="http://www.w3.org/2000/svg" width="96" height="96" viewBox="0 0 96 96"><g transform="scale(3)"><path fill-rule="evenodd" d="M95,95h-69v-12h-21v-39h21v-39h54l15,15v75Zm-24,-84h-39v33h48v39h-48v6h57v-60h-18v-18Zm3,39h-63v27h63v-27Zm3,-39v12h12l-12,-12Z" transform="matrix(.33333 0 0 .33333 -.667 -.667)"/><g transform="translate(-17.184 -.456) scale(.62893)"><path d="M0.075,-0.7v0.7h0.225v-0.19h0.105c0.165,0 0.27,-0.11 0.27,-0.255c0,-0.145 -0.105,-0.255 -0.27,-0.255h-0.33Zm0.315,0.2c0.035,0 0.06,0.025 0.06,0.055c0,0.03 -0.025,0.055 -0.06,0.055h-0.09v-0.11h0.09Z" transform="matrix(12 0 0 12 35.677 37.785)"/><path d="M0.075,-0.7v0.7h0.28c0.22,0 0.38,-0.16 0.38,-0.35c0,-0.19 -0.16,-0.35 -0.38,-0.35h-0.28Zm0.28,0.2c0.09,0 0.155,0.065 0.155,0.15c0,0.085 -0.065,0.15 -0.155,0.15h-0.055v-0.3h0.055Z" transform="matrix(12 0 0 12 44.137 37.785)"/><path d="M0.075,-0.7v0.7h0.225v-0.22h0.255v-0.195h-0.255v-0.09h0.335v-0.195h-0.56Z" transform="matrix(12 0 0 12 53.377 37.785)"/></g></g></svg>