<?xml version="1.0" encoding="UTF-8"?><!DOCTYPE svg PUBLIC "-//W3C//DTD SVG 1.1//EN" "http://www.w3.org/Graphics/SVG/1.1/DTD/svg11.dtd"><svg xmlns="http://www.w3.org/2000/svg" xmlns:xlink="http://www.w3.org/1999/xlink" version="1.1" x="0px" y="0px" width="512px" height="512px" viewBox="0 0 512 512" xml:space="preserve"><g id="file__x2C__pdf__x2C__document__x2C_"><g id="Layer_110"><path fill-rule="evenodd" clip-rule="evenodd" fill="#FFF" d="M107.072 25.469H349.08l71.522 72.375v350.031h-313.53z"/><path d="M420.602 454.736h-313.53a6.858 6.858 0 0 1-6.859-6.861V25.469a6.857 6.857 0 0 1 6.859-6.86H349.08c1.831 0 3.593.734 4.877 2.037l71.526 72.375a6.878 6.878 0 0 1 1.982 4.823v350.031a6.86 6.86 0 0 1-6.863 6.861zm-306.669-13.72h299.813V100.662l-67.534-68.333H113.933v408.687z" fill="#4C8CF9"/><path fill-rule="evenodd" clip-rule="evenodd" fill="#4C8CF9" d="M129.981 177.616h313.532v105.599H129.981z"/><path d="M213.359 258.467h-11.056v-9.819h11.056v9.819zm22.51-20.314v20.313H224.68v-56.1h22.11c6.394 0 11.322 1.753 15.048 4.983 3.597 3.226 5.46 7.663 5.46 12.912 0 5.378-1.863 9.682-5.46 12.913-3.727 3.368-8.654 4.979-15.048 4.979h-10.921zm0-8.741h10.921c3.063 0 5.46-.808 7.059-2.561 1.6-1.615 2.398-3.763 2.398-6.452 0-2.693-.798-4.983-2.398-6.727-1.599-1.753-3.996-2.561-7.059-2.561h-10.921v18.301zm39.56 29.055v-56.1h19.043c6.791 0 12.389 2.29 16.785 6.598 4.396 4.433 6.657 9.948 6.657 16.813v9.283c0 6.86-2.262 12.513-6.657 16.817-4.396 4.438-9.994 6.589-16.785 6.589h-19.043zm11.187-47.354v38.608h7.323c3.996 0 7.057-1.34 9.323-4.033 2.268-2.693 3.46-6.19 3.46-10.627v-9.283c0-4.442-1.192-7.938-3.46-10.627-2.267-2.689-5.327-4.038-9.323-4.038h-7.323zm74.316 24.08H337.76v23.273h-11.187v-56.1h38.223v8.746H337.76v15.473h23.172v8.608z" fill="#FEFEFE"/><path d="M263.416 146.446h-.11c-13.931-.027-26.04-5.089-32.391-13.541a6.858 6.858 0 0 1 1.365-9.604c3.028-2.285 7.328-1.666 9.606 1.363 3.721 4.956 11.939 8.043 21.446 8.062h.083c9.737 0 18.726-3.244 22.393-8.085 2.284-3.02 6.589-3.611 9.608-1.326a6.866 6.866 0 0 1 1.33 9.613c-6.321 8.343-19.083 13.518-33.33 13.518z" fill="#4C8CF9"/><path d="M143.969 233.308h-.078c-41.673-.454-66.399-11.334-73.486-32.34-9.229-27.366 17.023-62.753 32.453-74.771 2.992-2.322 7.303-1.79 9.627 1.197a6.863 6.863 0 0 1-1.198 9.631C98.028 147.35 76.77 176.9 83.407 196.581c6.254 18.538 36.426 22.741 60.635 23.007a6.86 6.86 0 1 1-.073 13.72z" fill="#4C8CF9"/><path fill-rule="evenodd" clip-rule="evenodd" fill="#D4E4FF" d="M349.08 97.844h71.522L349.08 25.469z"/><path d="M420.602 104.704H349.08a6.858 6.858 0 0 1-6.86-6.86V25.469a6.859 6.859 0 0 1 11.737-4.823l71.526 72.375a6.862 6.862 0 0 1-4.881 11.683zm-64.663-13.72h48.239l-48.239-48.813v48.813z" fill="#4C8CF9"/><path d="M239.34 493.393c-.376 0-.757-.027-1.143-.092l-22.509-3.766a6.863 6.863 0 0 1-5.727-6.77v-34.891a6.857 6.857 0 0 1 6.859-6.859c3.791 0 6.86 3.07 6.86 6.859v29.082l16.782 2.809a6.861 6.861 0 0 1 5.633 7.9 6.854 6.854 0 0 1-6.755 5.728z" fill="#4C8CF9"/><path d="M325.251 493.393a6.88 6.88 0 0 1-1.146-.092l-22.507-3.766a6.86 6.86 0 0 1-5.727-6.77v-34.891c0-3.789 3.069-6.859 6.859-6.859s6.86 3.07 6.86 6.859v29.082l16.78 2.809a6.863 6.863 0 0 1 5.635 7.9 6.857 6.857 0 0 1-6.754 5.728z" fill="#4C8CF9"/><path d="M290.874 65.155c6.259-1.748 13.188.941 16.519 6.86a14.87 14.87 0 0 1-5.332 20.313c-7.057 4.033-15.978 1.615-19.979-5.516-3.193-5.516-2.396-12.375 1.469-16.95 1.331 1.886 3.726 2.418 5.727 1.211 1.999-1.21 2.798-3.765 1.596-5.918z" fill-rule="evenodd" clip-rule="evenodd" fill="#4C8CF9"/><g><path d="M228.809 65.155c6.259-1.748 13.185.941 16.65 6.86 3.994 7.13 1.597 16.142-5.463 20.313-6.924 4.033-15.982 1.615-19.979-5.516-3.196-5.516-2.397-12.375 1.466-16.95 1.331 1.886 3.861 2.418 5.727 1.211 2.131-1.21 2.797-3.765 1.599-5.918z" fill-rule="evenodd" clip-rule="evenodd" fill="#4C8CF9"/></g><g><path d="M313.651 374.693c-4.662 0-10.521.541-17.445 1.885-9.462-10.227-19.318-25.158-26.375-39.686 6.929-29.596 3.464-33.764 2-35.648-1.734-2.152-3.996-5.516-6.662-5.516-1.064 0-3.992.537-5.194.807-3.063 1.08-4.66 3.365-5.859 6.457-3.729 8.607 1.333 23.41 6.527 34.846-4.529 17.758-11.855 39.012-19.713 56.365-19.712 9.145-30.101 18.023-31.035 26.5-.399 3.096.399 7.666 5.729 11.838 1.464 1.078 3.196 1.748 5.061 1.748 4.527 0 9.056-3.635 14.383-11.168 3.997-5.379 8.126-12.912 12.387-22.191 13.989-6.193 31.167-11.709 45.819-14.803 8.255 7.939 15.583 11.977 21.975 11.977 4.662 0 8.526-2.156 11.453-6.322 3.065-4.172 3.735-8.076 2.001-11.303-2.002-3.901-6.93-5.786-15.052-5.786zm-92.833 50.717c-2.397-1.887-2.265-3.227-2.265-3.629.266-2.965 4.795-8.076 15.982-14.4-8.522 15.74-12.918 17.758-13.717 18.029zm42.488-120.262c.267 0 5.461 5.781.532 16.951-7.325-7.671-.931-16.685-.532-16.951zm-10.657 84.073c5.197-12.643 10.125-26.633 13.85-39.682 5.865 10.627 12.922 20.85 19.851 29.055-11.059 2.693-22.912 6.322-33.701 10.627zm66.996-2.551c-1.597 2.283-5.062 2.283-6.259 2.283-2.799 0-3.864-1.613-8.122-4.844a63.97 63.97 0 0 1 9.452-.67c4.662 0 5.461.807 6.131 1.072-.138.405-.405 1.079-1.202 2.159z" fill="#4C8CF9"/></g></g></g><metadata><rdf:RDF xmlns:rdf="http://www.w3.org/1999/02/22-rdf-syntax-ns#" xmlns:rdfs="http://www.w3.org/2000/01/rdf-schema#" xmlns:dc="http://purl.org/dc/elements/1.1/"><rdf:Description about="https://iconscout.com/legal#licenses" dc:title="file,pdf,document" dc:description="file,pdf,document" dc:publisher="Iconscout" dc:date="2018-06-25" dc:format="image/svg+xml" dc:language="en"><dc:creator><rdf:Bag><rdf:li>Ibrandify Icons</rdf:li></rdf:Bag></dc:creator></rdf:Description></rdf:RDF></metadata></svg>