<?xml version="1.0" encoding="UTF-8" standalone="no"?>
<svg xmlns="http://www.w3.org/2000/svg" xmlns:xlink="http://www.w3.org/1999/xlink" viewBox="0 0 248.59869 243.69339"><defs><linearGradient id="linear-gradient" x1="73.2232" y1="116.07074" x2="255.23062" y2="116.07074" gradientTransform="matrix(1, 0.0836, 0, 1, 0, -46.24678)" gradientUnits="userSpaceOnUse"><stop offset="0.01124"/><stop offset="0.07179" stop-color="#1b1b1b"/><stop offset="0.2177" stop-color="#575757"/><stop offset="0.3632" stop-color="#8a8a8a"/><stop offset="0.50475" stop-color="#b4b4b4"/><stop offset="0.64157" stop-color="#d5d5d5"/><stop offset="0.77243" stop-color="#ececec"/><stop offset="0.89473" stop-color="#fafafa"/><stop offset="1" stop-color="#fff"/></linearGradient><linearGradient id="linear-gradient-2" x1="190.22155" y1="105.98989" x2="245.65126" y2="48.26139" gradientTransform="matrix(1, 0.0836, 0, 1, 0, -46.24678)" gradientUnits="userSpaceOnUse"><stop offset="0" stop-color="#fff"/><stop offset="0.1172" stop-color="#fbfbfb"/><stop offset="0.24172" stop-color="#eee"/><stop offset="0.36968" stop-color="#d9d9d9"/><stop offset="0.50004" stop-color="#bbb"/><stop offset="0.63232" stop-color="#949494"/><stop offset="0.7661" stop-color="#656565"/><stop offset="0.89856" stop-color="#2f2f2f"/><stop offset="1"/></linearGradient><linearGradient id="linear-gradient-3" x1="37.7569" y1="98.57772" x2="198.96439" y2="98.57772" gradientTransform="matrix(1, 0.0836, 0, 1, 0, -46.24678)" gradientUnits="userSpaceOnUse"><stop offset="0"/><stop offset="1" stop-color="#fff"/></linearGradient><linearGradient id="linear-gradient-4" x1="196.15798" y1="102.84712" x2="131.6282" y2="-86.26852" gradientTransform="matrix(1, -0.2318, 0, 1, 0, 146.40418)" gradientUnits="userSpaceOnUse"><stop offset="0.57303" stop-color="#b5b5b5"/><stop offset="1" stop-color="#d4d4d4"/></linearGradient><linearGradient id="linear-gradient-5" x1="89.52936" y1="156.31705" x2="240.49125" y2="156.31705" gradientTransform="matrix(1, 0.0836, 0, 1, 0, -46.24678)" gradientUnits="userSpaceOnUse"><stop offset="0" stop-color="#f0f0f0"/><stop offset="1" stop-color="#c9c9c9"/></linearGradient><filter id="luminosity-invert" filterUnits="userSpaceOnUse" color-interpolation-filters="sRGB"><feColorMatrix values="-1 0 0 0 1 0 -1 0 0 1 0 0 -1 0 1 0 0 0 1 0"/></filter><mask id="mask" x="73.2232" y="-11.70884" width="182.00742" height="197.24204" maskUnits="userSpaceOnUse"><path d="M88.4776,165.8028s54.7021,4.3964,145.7016-75.9092c0,0,21.5669-18.5928,21.042-20.4571C254.69679,67.5742,205.253,6.542,205.253,6.542l-37.3496-8.6191s-94.6802-13.377-94.6802-8.60161C73.2232-5.8974,88.4776,165.8028,88.4776,165.8028Z" fill="url(#linear-gradient)" filter="url(#luminosity-invert)"/></mask><linearGradient id="linear-gradient-6" x1="101.18403" y1="41.97756" x2="226.52354" y2="41.97756" gradientTransform="matrix(1, -0.2318, 0, 1, 0, 146.40418)" gradientUnits="userSpaceOnUse"><stop offset="0.01685" stop-color="#0081fa"/><stop offset="0.6677" stop-color="#017bee"/><stop offset="1" stop-color="#0277e6"/></linearGradient><mask id="mask-2" x="196.2139" y="16.3692" width="48.52249" height="60.5947" maskUnits="userSpaceOnUse"><polygon points="244.736 76.964 196.214 70.415 196.214 16.369 244.736 22.916 244.736 76.964" fill="url(#linear-gradient-2)" filter="url(#luminosity-invert)"/></mask><linearGradient id="linear-gradient-7" x1="197.98822" y1="89.59096" x2="225.34895" y2="68.327" gradientTransform="matrix(1, 0.0836, 0, 1, 0, -46.24678)" gradientUnits="userSpaceOnUse"><stop offset="0" stop-color="#fff"/><stop offset="1" stop-color="#a6a6a6"/></linearGradient><linearGradient id="linear-gradient-8" x1="100.92182" y1="92.06274" x2="168.3009" y2="126.71482" gradientTransform="matrix(1, 0.0836, 0, 1, 0, -46.24678)" gradientUnits="userSpaceOnUse"><stop offset="0.01685" stop-color="#0079eb"/><stop offset="0.25614" stop-color="#0073df"/><stop offset="0.68671" stop-color="#0163bf"/><stop offset="0.90449" stop-color="#025aad"/></linearGradient><linearGradient id="linear-gradient-9" x1="97.43858" y1="95.75825" x2="164.35262" y2="130.17117" gradientTransform="matrix(1, 0.0836, 0, 1, 0, -46.24678)" xlink:href="#linear-gradient-6"/><filter id="luminosity-invert-noclip" x="37.7569" y="23.27245" width="161.20749" height="77.90675" filterUnits="userSpaceOnUse" color-interpolation-filters="sRGB"><feColorMatrix values="-1 0 0 0 1 0 -1 0 0 1 0 0 -1 0 1 0 0 0 1 0" result="invert"/><feFlood flood-color="#fff" result="bg"/><feBlend in="invert" in2="bg"/></filter><mask id="mask-3" x="37.7569" y="23.27245" width="161.20749" height="77.90675" maskUnits="userSpaceOnUse"><path d="M198.96439,81.9785c0,11.6182-6.3804,20.1748-14.252,19.1114L52.0039,83.1807c-7.8691-1.0586-14.247-11.3379-14.247-22.959V42.4737c0-11.6172,6.3779-20.1729,14.247-19.11241L184.71239,41.2715c7.8716,1.0615,14.252,11.33979,14.252,22.957Z" fill="url(#linear-gradient-3)" filter="url(#luminosity-invert-noclip)"/></mask><linearGradient id="linear-gradient-10" x1="47.5513" y1="-72.33725" x2="185.14749" y2="-72.33725" gradientTransform="matrix(1, -0.2318, 0, 1, 0, 146.40418)" gradientUnits="userSpaceOnUse"><stop offset="0.01685" stop-color="#5aacfa"/><stop offset="0.41631" stop-color="#4ea7fb"/><stop offset="1" stop-color="#359cfc"/></linearGradient><linearGradient id="linear-gradient-11" x1="48.9702" y1="114.60524" x2="195.97459" y2="114.60524" gradientTransform="matrix(1, 0.0836, 0, 1, 0, -46.24678)" xlink:href="#linear-gradient-10"/><linearGradient id="linear-gradient-12" x1="45.75166" y1="101.74409" x2="194.04423" y2="101.74409" gradientTransform="matrix(1, 0.0836, 0, 1, 0, -46.24678)" gradientUnits="userSpaceOnUse"><stop offset="0.01685" stop-color="#c8e1fa"/><stop offset="0.19257" stop-color="#bcdbfa"/><stop offset="0.50998" stop-color="#9ccdfb"/><stop offset="0.93016" stop-color="#69b5fc"/><stop offset="1" stop-color="#60b1fc"/></linearGradient><linearGradient id="linear-gradient-13" y1="178.56545" x2="130.85649" y2="178.56545" gradientUnits="userSpaceOnUse"><stop offset="0" stop-color="#084cd4"/><stop offset="0.19663" stop-color="#3776ed"/><stop offset="0.99438" stop-color="#0775f2"/></linearGradient><linearGradient id="linear-gradient-14" x1="89.7786" y1="117.44776" x2="89.7786" y2="181.22111" gradientUnits="userSpaceOnUse"><stop offset="0.01685" stop-color="#46a3fa"/><stop offset="0.26316" stop-color="#3a99f2"/><stop offset="0.70618" stop-color="#1a7fdd"/><stop offset="1" stop-color="#026acc"/></linearGradient><linearGradient id="linear-gradient-15" x1="78.489" y1="187.24853" x2="106.96495" y2="223.34585" gradientUnits="userSpaceOnUse"><stop offset="0.01685" stop-color="#44a2fa"/><stop offset="0.33092" stop-color="#2d8ae2"/><stop offset="0.82023" stop-color="#025eb5"/></linearGradient><linearGradient id="linear-gradient-16" x1="59.41165" y1="124.2666" x2="59.41165" y2="236.17178" gradientUnits="userSpaceOnUse"><stop offset="0.01685" stop-color="#4ea7fa"/><stop offset="0.24229" stop-color="#429ff7"/><stop offset="0.64776" stop-color="#228cef"/><stop offset="1" stop-color="#0277e6"/></linearGradient><linearGradient id="linear-gradient-17" x1="59.41165" y1="246.1998" x2="59.41165" y2="128.27829" gradientUnits="userSpaceOnUse"><stop offset="0" stop-color="#87cafa"/><stop offset="0.26287" stop-color="#7bc3fb"/><stop offset="0.73578" stop-color="#5bb2fd"/><stop offset="1" stop-color="#47a6ff"/></linearGradient><linearGradient id="linear-gradient-18" x1="-0.74685" y1="184.73244" x2="34.39084" y2="184.73244" gradientUnits="userSpaceOnUse"><stop offset="0" stop-color="#2dbcfa"/><stop offset="0.05942" stop-color="#3ebffa"/><stop offset="0.21901" stop-color="#67c5fc"/><stop offset="0.36428" stop-color="#85c9fc"/><stop offset="0.48899" stop-color="#97ccfd"/><stop offset="0.57865" stop-color="#9dcdfd"/><stop offset="1" stop-color="#47a6ff"/></linearGradient><linearGradient id="linear-gradient-19" x1="82.57985" y1="184.73244" x2="117.71754" y2="184.73244" gradientUnits="userSpaceOnUse"><stop offset="0" stop-color="#2dbcfa"/><stop offset="0.10023" stop-color="#39bffa"/><stop offset="0.2813" stop-color="#59c6fb"/><stop offset="0.52103" stop-color="#8cd2fd"/><stop offset="0.53933" stop-color="#90d3fd"/><stop offset="1" stop-color="#47a6ff"/></linearGradient><linearGradient id="linear-gradient-20" x1="34.49025" y1="125.47025" x2="81.83674" y2="125.47025" gradientUnits="userSpaceOnUse"><stop offset="0" stop-color="#2dbcfa"/><stop offset="0.05331" stop-color="#39c0fa"/><stop offset="0.14965" stop-color="#59cafb"/><stop offset="0.27807" stop-color="#8cdafb"/><stop offset="0.4319" stop-color="#d3f0fc"/><stop offset="0.51685" stop-color="#fdfdfd"/><stop offset="1" stop-color="#47a6ff"/></linearGradient></defs><title>5Asset 4</title><g style="isolation:isolate"><g id="Layer_2" data-name="Layer 2"><g id="图层_1" data-name="图层 1"><polygon points="209.673 15.116 97.635 0 89.53 4.367 97.635 218.621 240.492 243.362 248.599 238.994 248.599 64.573 209.673 15.116" fill="url(#linear-gradient-4)"/><polygon points="201.567 19.487 89.53 4.367 89.53 222.988 240.492 243.362 240.492 68.941 201.567 19.487" fill="url(#linear-gradient-5)"/><g mask="url(#mask)"><path d="M231.03079,71.3369,205.7779,24.5352c-1.18411-1.8037-4.47071-3.4414-7.17531-3.6553L90.8443,6.3369V185.53319l132.8188-45.0908,12.0957-60.4922C235.36919,75.5147,231.55279,72.9629,231.03079,71.3369Z" fill="#fff"/></g><path d="M172.09869,75.6289a4.9955,4.9955,0,0,0-5.0396,2.40139c-1.3613,2.0332-2.3447,5.2129-2.834,9.4473-.9336,8.0859-.0249,20.0566,3.4717,35.1523-5.2392,15.2402-27.2895,57.9443-28.2197,59.4795-29.8618,3.7871-34.9268,10.0117-37.2149,15.2236-2.4267,5.544-.9707,18.0196,6.5606,19.5557,3.5986.7402,11.9932,6.3437,32.7016-30.5791a225.83452,225.83452,0,0,1,30.1636-.8193,196.054,196.054,0,0,1,20.7998,1.666c12.5445,21.4238,21.895,22.3007,26.6665,22.709l1.6245.2109c1.5723.4219,3.3575-.583,4.5415-2.5508a9.60966,9.60966,0,0,0,.2081-8.9355c-2.4649-5.4073-14.3384-15.0996-35.4766-18.3028-7.103-12.5888-8.1602-19.082-12.0132-29.7383a206.07051,206.07051,0,0,1-7.1953-25.121c7.1465-21.087,9.2778-33.1202,9.3081-33.3565.3369-1.418-.3311-5.5537-.4312-6.1396C178.47019,78.668,175.08449,75.9658,172.09869,75.6289ZM167.437,88.1397c.4146-3.6045,1.1973-6.1494,2.1587-7.5977a2.219,2.219,0,0,1,2.543-.6816c1.3145.3427,5.6895,2.5927,4.1196,8.6347a200.60061,200.60061,0,0,1-7.2348,31.6866A115.54532,115.54532,0,0,1,167.437,88.1397Zm-21.45309,91.5449c7.01369-12.2207,15.82619-27.2871,23.93259-49.7432,1.7696,6.7139,3.2359,12.5332,6.0406,20.3067,5.0766,14.039,8.2402,22.1943,12.643,30.3632-5.4258-.665-11.8906-.4521-19.01219-.6806C158.7549,179.584,145.56009,180.419,145.9839,179.68459Zm-39.7612,31.4756c-5.5103-4.8076-2.7764-17.7578,26.7598-21.7901C118.4341,211.87209,111.0577,214.76759,106.2227,211.16019Zm116.5122-11.0948a5.22408,5.22408,0,0,1,.03519,4.9424c-.5884,1.0674-1.3633,1.418-1.566,1.3731l-2.1064-.2891c-4.0693-.3476-15.3101-2.2978-26.0332-19.5264C212.56349,189.92289,221.32859,197.11129,222.7349,200.06539Z" fill="url(#linear-gradient-6)"/><g mask="url(#mask-2)"><polygon points="200.911 19.696 239.442 68.655 239.705 72.12 197.623 67.787 198.281 19.492 200.911 19.696" fill="#4c4c4c"/></g><polyline points="200.911 19.696 200.911 63.901 239.705 69.135" stroke="#fff" stroke-linecap="round" stroke-linejoin="round" stroke-width="0.54284" fill="url(#linear-gradient-7)"/><polygon points="236.547 71.244 236.547 238.799 90.974 219.155 90.974 221.391 238.519 241.303 238.519 71.514 236.547 71.244" fill="#fff" opacity="0.5"/><path d="M200.732,92.4395c0,11.6201-9.0425,22.6455-16.9156,21.582L65.3511,95.207c-7.8716-1.0625-14.2524-11.3417-14.2524-22.9609L48.0303,47.1162c0-11.6172,9.4492-21.3388,17.3208-20.2754l121.1274,16.3438c7.8707,1.0625,14.2535,11.34369,14.2535,22.9619Z" fill="url(#linear-gradient-8)"/><path d="M196.27349,95.2617c0,11.6202-6.3828,20.1758-14.2534,19.1133L60.8936,98.0274c-7.8726-1.0616-14.2544-11.3399-14.2544-22.959V48.7735c0-11.61721,6.3818-20.1739,14.2544-19.1123l121.1265,16.3457c7.8706,1.0615,14.2534,11.3427,14.2534,22.9609Z" fill="url(#linear-gradient-9)"/><g mask="url(#mask-3)"><path d="M185.14749,49.4961a10.59029,10.59029,0,0,0-2.2163-.5752L61.8023,32.57129c-7.8716-1.06049-14.251,7.49411-14.251,19.11131V74.1778C73.7539,77.3311,138.90969,81.1094,185.14749,49.4961Z" fill="url(#linear-gradient-10)"/></g><path d="M191.86619,53.6016a30.664,30.664,0,0,1,2.6265,12.4961V92.3916c0,11.6201-6.3809,20.1748-14.251,19.1133L59.1118,95.15629c-3.9702-.5352-7.5556-3.417-10.1416-7.6289,2.5811,5.7226,6.8194,9.8134,11.6275,10.4609L181.73,114.335c7.8648,1.0615,14.2446-7.4932,14.2446-19.1133v-26.29A29.72289,29.72289,0,0,0,191.86619,53.6016Z" fill="url(#linear-gradient-11)"/><path d="M51.0005,90.5586a30.74345,30.74345,0,0,1-2.623-12.4971V51.7695c0-11.6171,6.3794-20.1787,14.2505-19.11621L183.76029,48.999c3.9673.5342,7.5527,3.4239,10.1362,7.6319-2.581-5.7217-6.8169-9.8125-11.6211-10.46L61.1421,29.8242c-7.8681-1.0634-14.2475,7.4922-14.2475,19.1123V75.2324A29.7558,29.7558,0,0,0,51.0005,90.5586Z" fill="url(#linear-gradient-12)"/><path d="M65.1035,91.9297V41.8057l16.6202,2.2441a37.667,37.667,0,0,1,6.7011,1.3828,13.60411,13.60411,0,0,1,8.9732,8.4043,18.539,18.539,0,0,1,1.3369,7.02839q0,6.40711-3.5791,10.35741-3.5808,3.9492-12.9331,2.6894L70.9141,72.3867V92.7178Zm5.8106-25.4746,11.3833,1.53519q5.6448.76306,8.0166-1.31449,2.3781-2.0757,2.3755-6.4209a10.986,10.986,0,0,0-1.398-5.5771,8.00713,8.00713,0,0,0-3.6772-3.4561,23.54575,23.54575,0,0,0-5.438-1.1777L70.9141,48.5254Z" fill="#fff"/><path d="M106.1934,97.4756V47.3545l15.1885,2.0459a34.80092,34.80092,0,0,1,7.8491,1.7783,17.08379,17.08379,0,0,1,6.4643,4.4629,24.5004,24.5004,0,0,1,5.2178,9.2705,39.98259,39.98259,0,0,1,1.7305,12.1485,37.65,37.65,0,0,1-1.1743,9.9609,22.60681,22.60681,0,0,1-3.0059,6.8955,14.14271,14.14271,0,0,1-4.0156,4.0049,13.35671,13.35671,0,0,1-5.2647,1.8027,26.022,26.022,0,0,1-7.081-.1006Zm5.811-5.1475,9.4102,1.2696a19.64548,19.64548,0,0,0,6.8408,0,8.06774,8.06774,0,0,0,3.9546-2.0606,13.89616,13.89616,0,0,0,3.229-5.9023,33.20967,33.20967,0,0,0,1.1592-9.4951q0-7.85595-2.2696-12.378a14.70744,14.70744,0,0,0-5.518-6.4013,22.04733,22.04733,0,0,0-7.5454-2.043l-9.2608-1.248Z" fill="#fff"/><path d="M150.97659,103.5186V53.3955l29.7602,4.0176v5.9326l-23.9497-3.23241V75.5762l20.7207,2.7949v5.9336l-20.7207-2.7959v22.794Z" fill="#fff"/><polygon points="95.359 172.699 95.359 113.437 47.53 113.437 35.497 124.567 47.53 172.699 12.032 172.699 0 183.829 59.26 243.693 71.293 232.563 121.505 182.098 130.856 172.699 95.359 172.699" fill="url(#linear-gradient-13)"/><polygon points="95.359 172.699 95.359 113.612 82.925 125.269 81.721 186.034 97.836 172.699 95.359 172.699" fill="url(#linear-gradient-14)"/><polygon points="130.856 172.699 95.359 172.699 95.359 172.676 80.92 185.635 58.819 243.247 59.26 243.693 71.293 232.563 121.505 182.098 130.856 172.699" fill="url(#linear-gradient-15)"/><polygon points="83.327 183.829 83.327 124.567 35.497 124.567 35.497 183.829 0 183.829 59.26 243.693 118.823 183.829 83.327 183.829" fill="url(#linear-gradient-16)"/><path d="M36.6988,124.5674H35.4966v60.4658h1.2022Zm46.6279,0H82.1236v60.4658h1.2031Zm34.2939,59.2617-58.2089,58.8008L1.2032,183.82909H0l59.2603,59.8643.1514-.1504.1503.1504,59.2613-59.8643Z" fill="url(#linear-gradient-17)"/><polygon points="1.191 185.409 35.497 185.409 35.497 184.056 0 184.056 1.191 185.409" fill="url(#linear-gradient-18)"/><polygon points="83.327 185.409 117.625 185.409 118.823 184.056 83.327 184.056 83.327 185.409" fill="url(#linear-gradient-19)"/><rect x="35.4966" y="124.5674" width="47.8301" height="1.8057" fill="url(#linear-gradient-20)"/><path d="M83.3267,124.5674H35.4966v59.2617H0l37.1089,37.4863c12.3833-10.6181,34.3159-36.497,46.2178-92.5527Z" fill="#fff8f5" opacity="0.55" style="mix-blend-mode:soft-light"/></g></g></g>
	<metadata>
		<rdf:RDF xmlns:rdf="http://www.w3.org/1999/02/22-rdf-syntax-ns#" xmlns:rdfs="http://www.w3.org/2000/01/rdf-schema#" xmlns:dc="http://purl.org/dc/elements/1.1/">
			<rdf:Description about="https://iconscout.com/legal#licenses" dc:title="5Asset 4" dc:description="5Asset 4" dc:publisher="Iconscout" dc:date="2017-07-04" dc:format="image/svg+xml" dc:language="en">
				<dc:creator>
					<rdf:Bag>
						<rdf:li>John Pham</rdf:li>
					</rdf:Bag>
				</dc:creator>
			</rdf:Description>
		</rdf:RDF>
    </metadata></svg>
