<svg xmlns="http://www.w3.org/2000/svg" data-name="Layer 1" viewBox="0 0 64 64"><polygon fill="#fff" points="53 17 53 59 11 59 11 5 41 5 41 17 53 17"/><polygon fill="#80d8ff" points="53 17 41 17 41 5 53 17"/><path fill="#0091ea" d="M53,60H11a1,1,0,0,1-1-1V5a1,1,0,0,1,1-1H41a1,1,0,0,1,.71.29l12,12A1,1,0,0,1,54,17V59A1,1,0,0,1,53,60ZM12,58H52V17.41L40.59,6H12Z"/><path fill="#0091ea" d="M53 18H41a1 1 0 0 1-1-1V5a1 1 0 0 1 2 0V16H53a1 1 0 0 1 0 2zM26.87 34.68a4.75 4.75 0 0 0-2.7-.47H21.61v9.73h2V40.35h1.08A4 4 0 0 0 26.59 40a3 3 0 0 0 1.68-2.83A2.74 2.74 0 0 0 26.87 34.68zm-1 3.57c-.26.41-.5.51-1.3.51h-1v-3h1.24a1.27 1.27 0 0 1 1.32 1.45A1.7 1.7 0 0 1 25.89 38.25zM35.31 35.23a3.27 3.27 0 0 0-2.12-1c-.4 0-1.14-.05-1.7-.05h-2v9.73H31.9c.57 0 1 0 1.4-.06a3.3 3.3 0 0 0 2.36-1.4 5.54 5.54 0 0 0 1-3.37A5.12 5.12 0 0 0 35.31 35.23zm-2.74 7.11h-1V35.75h.9a1.62 1.62 0 0 1 1.54.81 5.47 5.47 0 0 1 .49 2.73C34.45 41.35 33.86 42.34 32.57 42.34z"/><polygon fill="#0091ea" points="43.24 35.79 43.46 34.2 38.18 34.2 38.18 43.94 40.14 43.94 40.14 39.61 42.62 39.61 42.62 38.02 40.14 38.02 40.14 35.79 43.24 35.79"/></svg>