<?xml version="1.0" encoding="UTF-8"?><!DOCTYPE svg PUBLIC "-//W3C//DTD SVG 1.1//EN" "http://www.w3.org/Graphics/SVG/1.1/DTD/svg11.dtd"><svg xmlns="http://www.w3.org/2000/svg" xmlns:xlink="http://www.w3.org/1999/xlink" version="1.1" x="0px" y="0px" width="512px" height="512px" viewBox="0 0 512 512" xml:space="preserve"><g id="file__x2C___pdf__x2C__doc__x2C_"><g id="Layer_113"><path d="M428.136 454.297H83.865a5.02 5.02 0 0 1-5.022-5.021V24.188a5.02 5.02 0 0 1 5.022-5.021h344.271a5.02 5.02 0 0 1 5.021 5.021v425.088a5.02 5.02 0 0 1-5.021 5.021zm-339.25-10.043h334.228V29.209H88.886v415.045z"/><path d="M387.789 179.522H124.215c-9.218 0-16.721-7.555-16.721-16.836V70.4c0-9.282 7.502-16.831 16.721-16.831h263.574c9.217 0 16.716 7.549 16.716 16.831v92.286c0 9.281-7.499 16.836-16.716 16.836zM124.215 63.611c-3.684 0-6.678 3.047-6.678 6.789v92.286c0 3.746 2.994 6.793 6.678 6.793h263.574c3.677 0 6.674-3.047 6.674-6.793V70.4c0-3.742-2.997-6.789-6.674-6.789H124.215z"/><path d="M179.036 149.541h-12.284v-10.777h12.284v10.777zm24.556-22.291v22.29h-12.278V88.118h24.265c7.021 0 12.576 1.773 16.519 5.318 4.094 3.691 5.993 8.416 5.993 14.323 0 5.761-1.899 10.485-5.993 14.172-3.943 3.546-9.498 5.319-16.519 5.319h-11.987zm0-9.599h11.986c3.511 0 5.994-.887 7.75-2.659 1.753-1.914 2.629-4.281 2.629-7.232 0-2.952-.876-5.318-2.629-7.232-1.757-1.923-4.24-2.956-7.75-2.956h-11.986v20.079zm43.564 31.89V88.118h20.905c7.454 0 13.593 2.367 18.418 7.091 4.825 4.875 7.167 11.069 7.167 18.453v10.194c0 7.524-2.342 13.729-7.167 18.453-4.825 4.875-10.964 7.232-18.418 7.232h-20.905zm12.132-51.97v42.521h8.043c4.387 0 7.893-1.471 10.38-4.573 2.483-2.951 3.65-6.793 3.65-11.664v-10.194c0-4.724-1.167-8.562-3.65-11.664-2.487-2.952-5.993-4.427-10.38-4.427h-8.043zm81.573 26.43h-25.434v25.539h-12.283V88.118h42.104v9.453h-29.82v16.978h25.434v9.452z"/><path d="M390.855 473.934H121.29a5.022 5.022 0 1 1 0-10.042h269.565a5.018 5.018 0 0 1 5.021 5.021 5.018 5.018 0 0 1-5.021 5.021z"/><path d="M366.884 492.834H145.116a5.02 5.02 0 1 1 0-10.042h221.768c2.775 0 5.021 2.246 5.021 5.021s-2.246 5.021-5.021 5.021z"/><path d="M320.838 321.264c-6.438 0-14.329.74-23.686 2.514-12.864-13.881-26.315-33.965-35.668-53.748 9.353-40.019 4.679-45.629 2.63-48.284-2.338-2.956-5.409-7.529-8.915-7.529-1.466 0-5.555.735-7.167 1.179-4.089 1.48-6.139 4.578-8.038 8.713-4.971 11.815 1.899 31.749 8.914 47.25-5.992 24.064-16.075 52.861-26.601 76.336-26.606 12.254-40.789 24.361-42.104 36.023-.438 4.137.584 10.336 7.892 15.945 1.904 1.482 4.241 2.217 6.729 2.217 6.14 0 12.425-4.725 19.586-14.908 5.263-7.383 10.964-17.576 16.812-30.271 18.715-8.266 42.103-15.801 61.986-19.93 11.109 10.779 21.047 16.236 29.674 16.236 6.284 0 11.695-2.951 15.642-8.561 4.097-5.762 4.972-10.928 2.776-15.355-2.777-5.314-9.353-7.827-20.462-7.827zm-125.867 68.658c-3.219-2.512-3.073-4.281-3.073-4.875.438-3.988 6.578-10.928 21.636-19.49-11.402 21.263-17.541 24.068-18.563 24.365zm57.74-162.863c.292-.146 7.308 7.826.584 22.885-9.941-10.335-1.314-22.588-.584-22.885zm-14.62 113.839c7.167-17.121 13.89-36.17 18.861-53.746 7.892 14.324 17.395 28.354 26.899 39.424-15.058 3.545-30.994 8.569-45.76 14.322zm90.785-3.394c-2.191 3.104-6.87 3.104-8.478 3.104-3.803 0-5.116-2.217-10.964-6.648 4.82-.588 9.207-.734 12.717-.734 6.285 0 7.454.885 8.33 1.33-.146.589-.583 1.467-1.605 2.948z"/></g></g><metadata><rdf:RDF xmlns:rdf="http://www.w3.org/1999/02/22-rdf-syntax-ns#" xmlns:rdfs="http://www.w3.org/2000/01/rdf-schema#" xmlns:dc="http://purl.org/dc/elements/1.1/"><rdf:Description about="https://iconscout.com/legal#licenses" dc:title="file,pdf,doc" dc:description="file,pdf,doc" dc:publisher="Iconscout" dc:date="2018-05-14" dc:format="image/svg+xml" dc:language="en"><dc:creator><rdf:Bag><rdf:li>Ibrandify Icons</rdf:li></rdf:Bag></dc:creator></rdf:Description></rdf:RDF></metadata></svg>