<svg xmlns="http://www.w3.org/2000/svg" width="24" height="24" viewBox="0 0 6.35 6.35"><g transform="translate(0 -2.117)"><path fill="#ffed51" d="M 0.26458315,3.4394765 A 0.2646098,0.2646098 0 0 0 -1.9032552e-7,3.7040598 V 6.8790599 A 0.2646098,0.2646098 0 0 0 0.26458315,7.1436432 H 1.3229165 A 0.2646098,0.2646098 0 0 0 1.5874998,6.8790599 v -0.79375 h 3.1750001 v 0.79375 A 0.2646098,0.2646098 0 0 0 5.0270833,7.1436432 H 6.0854166 A 0.2646098,0.2646098 0 0 0 6.35,6.8790599 V 3.7040598 A 0.2646098,0.2646098 0 0 0 6.0854166,3.4394765 Z" color="#000" font-family="sans-serif" font-weight="400" overflow="visible" white-space="normal" style="line-height:normal;font-variant-ligatures:normal;font-variant-position:normal;font-variant-caps:normal;font-variant-numeric:normal;font-variant-alternates:normal;font-feature-settings:normal;text-indent:0;text-align:start;text-decoration-line:none;text-decoration-style:solid;text-decoration-color:#000;text-transform:none;text-orientation:mixed;shape-padding:0;isolation:auto;mix-blend-mode:normal"/><path fill="#ffa41d" d="M1.2965614 5.5566599A.26460985.26460985 0 0 0 1.0583332 5.8202098V8.2009431A.26460985.26460985 0 0 0 1.321883 8.4665599H5.0270833A.26460985.26460985 0 0 0 5.2906331 8.2009431V5.8202098A.26460985.26460985 0 0 0 5.0270833 5.5566599H1.321883a.26460985.26460985 0 0 0-.025322 0zM1.2965614 2.1170765A.26460985.26460985 0 0 0 1.0583332 2.3806264V3.7050933A.26460985.26460985 0 0 0 1.321883 3.9686431H5.0270833A.26460985.26460985 0 0 0 5.2906331 3.7050933V2.3806264A.26460985.26460985 0 0 0 5.0270833 2.1170765H1.321883a.26460985.26460985 0 0 0-.025322 0z" color="#000" font-family="sans-serif" font-weight="400" overflow="visible" white-space="normal" style="line-height:normal;font-variant-ligatures:normal;font-variant-position:normal;font-variant-caps:normal;font-variant-numeric:normal;font-variant-alternates:normal;font-feature-settings:normal;text-indent:0;text-align:start;text-decoration-line:none;text-decoration-style:solid;text-decoration-color:#000;text-transform:none;text-orientation:mixed;shape-padding:0;isolation:auto;mix-blend-mode:normal"/><path fill="#2a60b0" d="M 1.2970785,2.1171835 A 0.26460985,0.26460985 0 0 0 1.0588501,2.3807333 V 3.4395834 H 0.26458334 A 0.2646098,0.2646098 0 0 0 0,3.7041667 V 6.8791668 A 0.2646098,0.2646098 0 0 0 0.26458334,7.1437502 H 1.0588501 V 8.2010501 A 0.26460985,0.26460985 0 0 0 1.3223999,8.4666669 H 5.0276002 A 0.26460985,0.26460985 0 0 0 5.2911501,8.2010501 V 7.1437502 H 6.0854168 A 0.2646098,0.2646098 0 0 0 6.3500002,6.8791668 V 3.7041667 A 0.2646098,0.2646098 0 0 0 6.0854168,3.4395834 H 5.2911501 V 2.3807333 A 0.26460985,0.26460985 0 0 0 5.0276002,2.1171835 H 1.3223999 a 0.26460985,0.26460985 0 0 0 -0.025321,0 z M 1.5880168,2.6463501 H 4.7614667 V 3.4395834 H 1.5880168 Z m -1.05885012,1.3224 H 1.3223999 5.0276002 5.8208335 V 6.6145835 H 5.2916668 v -0.79375 A 0.2646098,0.2646098 0 0 0 5.1216514,5.5743368 0.2646098,0.2646098 0 0 0 5.0270835,5.5562501 H 1.3229167 a 0.2646098,0.2646098 0 0 0 -0.00879,5.292e-4 0.26460985,0.26460985 0 0 0 -0.017053,0 0.26460985,0.26460985 0 0 0 -0.1229899,0.044959 0.2646098,0.2646098 0 0 0 -5.159e-4,5.292e-4 0.26460985,0.26460985 0 0 0 -0.020671,0.015502 0.2646098,0.2646098 0 0 0 -5.159e-4,5.292e-4 0.26460985,0.26460985 0 0 0 -0.036175,0.037171 0.2646098,0.2646098 0 0 0 -5.16e-4,0.00103 0.26460985,0.26460985 0 0 0 -0.014986,0.020153 0.2646098,0.2646098 0 0 0 -5.16e-4,0.00103 0.26460985,0.26460985 0 0 0 -0.023771,0.047542 0.26460985,0.26460985 0 0 0 -0.00827,0.02377 0.2646098,0.2646098 0 0 0 0,0.00103 0.26460985,0.26460985 0 0 0 -0.00568,0.024805 0.2646098,0.2646098 0 0 0 -0.00414,0.045998 v 0.79375 H 0.52916668 Z M 1.2970785,4.4979168 a 0.26514415,0.26514415 0 0 0 0.025321,0.5296834 h 0.2656169 a 0.26484171,0.26484171 0 0 0 0,-0.5296834 H 1.3223999 a 0.26460982,0.26460982 0 0 0 -0.025321,0 z m 1.0583334,0 a 0.26514415,0.26514415 0 0 0 0.025321,0.5296834 h 0.2656168 a 0.26484171,0.26484171 0 0 0 0,-0.5296834 H 2.3807333 a 0.26460982,0.26460982 0 0 0 -0.025321,0 z M 1.5880168,6.0859335 H 4.7614667 V 7.9375002 H 1.5880168 Z m 0.5291667,0.2635499 a 0.2646484,0.2646484 0 1 0 0,0.5291667 H 4.2323 a 0.2646484,0.2646484 0 1 0 0,-0.5291667 z m -0.026355,0.7947835 a 0.26460982,0.26460982 0 0 0 -0.00103,5.292e-4 0.26500138,0.26500138 0 1 0 0.027388,0.5291666 h 2.1151166 a 0.26464845,0.26464845 0 0 0 0,-0.5291666 H 2.1171835 a 0.26460982,0.26460982 0 0 0 -0.026355,-5.292e-4 z" color="#000" font-family="sans-serif" font-weight="400" overflow="visible" white-space="normal" style="line-height:normal;font-variant-ligatures:normal;font-variant-position:normal;font-variant-caps:normal;font-variant-numeric:normal;font-variant-alternates:normal;font-feature-settings:normal;text-indent:0;text-align:start;text-decoration-line:none;text-decoration-style:solid;text-decoration-color:#000;text-transform:none;text-orientation:mixed;shape-padding:0;isolation:auto;mix-blend-mode:normal"/></g></svg>