<svg xmlns="http://www.w3.org/2000/svg" width="36" height="36" viewBox="0 0 36 36"><g transform="translate(1.535 -1018.897)"><g transform="translate(225 -438.79)"><rect width="2" height="3" x="-1191.659" y="897.831" fill="#2b4255" rx="0" ry="0" transform="rotate(-45)"/><circle cx="-1196.343" cy="897.861" r="7.106" fill="none" stroke="#2b4255" stroke-dashoffset="1.5" stroke-linecap="round" stroke-linejoin="round" style="isolation:auto;mix-blend-mode:normal" color="#000" overflow="visible" transform="scale(1.00612 .99384) rotate(-45)"/><g transform="translate(195 345.484)"><rect width="4.007" height="11.019" x="-1083.641" y="512.605" fill="#2b4255" color="#000" overflow="visible" style="isolation:auto;mix-blend-mode:normal" rx="2.004" ry="2.004" transform="scale(.99496 1.00502) rotate(-45)"/><path fill="#f8b84e" style="isolation:auto;mix-blend-mode:normal" d="m -398.92969,112 c -0.50956,0 -1.01775,0.1974 -1.4082,0.5918 -0.7809,0.78879 -0.7809,2.05886 0,2.84765 l 0.22851,0.23047 2.85938,-2.80664 -0.26953,-0.27148 c -0.39045,-0.3944 -0.9006,-0.5918 -1.41016,-0.5918 z m 2.38281,1.57422 -2.85742,2.80664 2.91992,2.94922 2.85938,-2.80664 -2.92188,-2.94922 z m 3.625,3.66016 -2.85937,2.80664 0.37695,0.38086 c 0.7809,0.78879 2.03746,0.78879 2.81836,0 0.7809,-0.7888 0.7809,-2.05887 0,-2.84766 l -0.33594,-0.33984 z" color="#000" overflow="visible" transform="translate(0 1020.362)"/><path fill="#25b39e" d="m -396.54688,113.57422 -2.85742,2.80664 2.91992,2.94922 2.85938,-2.80664 z" color="#000" overflow="visible" transform="translate(0 1020.362)" style="isolation:auto;mix-blend-mode:normal"/></g><circle cx="-1196.343" cy="897.861" r="7.106" fill="#e9eded" stroke="#2b4255" stroke-dashoffset="1.5" stroke-linecap="round" stroke-linejoin="round" color="#000" overflow="visible" transform="scale(1.00612 .99384) rotate(-45)" style="isolation:auto;mix-blend-mode:normal"/></g><path fill="#e9eded" style="line-height:normal;text-indent:0;text-align:start;text-decoration-line:none;text-decoration-style:solid;text-decoration-color:#000;text-transform:none;block-progression:tb;isolation:auto;mix-blend-mode:normal" d="m 12.767578,8.4941406 c -2.198912,-0.032 -4.3186156,0.8177219 -5.876953,2.3574214 -3.1769307,3.1379 -3.1769307,8.272257 0,11.410157 2.7014536,2.6686 6.774892,2.92684 9.90625,1.05664 l 1.376953,1.376953 c -0.0042,0.7729 0.193181,1.550626 0.777344,2.140626 l 0.228516,0.230468 4.705078,4.753906 c 0.145265,0.146701 0.30218,0.276719 0.466796,0.386719 0.166039,0.111 0.341331,0.204497 0.523438,0.279297 0.723121,0.2972 1.536644,0.2972 2.259766,0 0.182105,-0.075 0.357396,-0.168297 0.523437,-0.279297 0.164618,-0.11 0.321532,-0.240018 0.466797,-0.386719 l 0.289062,-0.289062 0.01563,-0.01563 c 0.02884,-0.04 0.115661,-0.107136 0.142581,-0.148438 l 0.148438,-0.263671 0.140625,-0.300782 c 0.1468,-0.3624 0.181274,-0.720768 0.181641,-1.105468 0,-0.3865 -0.05398,-0.746875 -0.201172,-1.109375 L 28.7015,28.289018 28.551228,28.04687 l -0.0059,0 c -0.02708,-0.041 -0.102306,-0.13317 -0.131256,-0.17247 l 0,-0.0053 L 28.125,27.578125 27.785156,27.232422 27.082031,26.521484 24.164062,23.576172 23.460938,22.865234 23.191406,22.59375 c -0.579472,-0.5853 -1.353275,-0.888672 -2.121094,-0.888672 -0.07461,0 -0.146849,0.01648 -0.220703,0.02148 l -1.242187,-1.242187 c 1.756209,-3.0756 1.444469,-7.009894 -1.199219,-9.621094 C 16.908226,9.3811813 14.884141,8.5366594 12.767578,8.5058594 Z m -0.01367,1 c 1.859939,0.026989 3.636006,0.7689434 4.951172,2.0683594 2.792434,2.758116 2.792434,7.230165 0,9.988281 -2.792149,2.758137 -7.319179,2.758137 -10.111328,0 -2.7924337,-2.758116 -2.7924337,-7.230165 0,-9.988281 1.3663724,-1.350001 3.227802,-2.0961228 5.160156,-2.0683594 z m 5.892578,11.4316404 1.859375,1.859375 c 0.06143,-0.01846 0.120986,-0.04237 0.183594,-0.05469 0.124783,-0.02442 0.254117,-0.03711 0.380859,-0.03711 0.509561,0 1.019707,0.197397 1.410157,0.591797 l 0.269531,0.271485 0.703125,0.710937 2.921875,2.949219 -0.002,0.002 0.703125,0.710938 0.002,-0.002 0.335937,0.339844 0,0.002 c 0.09716,0.09829 0.182924,0.20311 0.25586,0.314453 l 0,0.002 C 27.888911,28.920879 28,29.305924 28,29.691406 l 0,0.002 c -3.68e-4,0.385397 -0.110818,0.77075 -0.330078,1.105469 l 0,0.002 c -0.07303,0.111302 -0.158611,0.216221 -0.25586,0.314453 l 0,0.002 c -0.09761,0.0986 -0.201859,0.183863 -0.3125,0.257812 -0.110618,0.07395 -0.227747,0.136247 -0.347656,0.185547 -0.47978,0.197198 -1.018266,0.197198 -1.498047,0 -0.119909,-0.0493 -0.237037,-0.111597 -0.347656,-0.185547 -0.11064,-0.07395 -0.214888,-0.159214 -0.3125,-0.257812 l -4.705078,-4.753907 -0.228516,-0.230469 c -0.509483,-0.514637 -0.680713,-1.231618 -0.52539,-1.888671 l -1.904297,-1.904297 z" color="#000" font-family="sans-serif" font-weight="400" overflow="visible" transform="translate(0 1016.362)" white-space="normal"/></g></svg>