<svg xmlns="http://www.w3.org/2000/svg" data-name="Layer 1" viewBox="0 0 32 32"><path d="M22.5,0H4.5A2.5,2.5,0,0,0,2,2.5v27A2.5,2.5,0,0,0,4.5,32h18A2.5,2.5,0,0,0,25,29.5V2.5A2.5,2.5,0,0,0,22.5,0ZM24,29.5A1.5,1.5,0,0,1,22.5,31H4.5A1.5,1.5,0,0,1,3,29.5V2.5A1.5,1.5,0,0,1,4.5,1h18A1.5,1.5,0,0,1,24,2.5ZM13.5,2.5A.5.5,0,1,0,13,2,.5.5,0,0,0,13.5,2.5Zm0,24.5A1.5,1.5,0,1,0,15,28.5,1.5,1.5,0,0,0,13.5,27Zm0,2a.5.5,0,1,1,.5-.5A.5.5,0,0,1,13.5,29Zm16-29h-3a.5.5,0,0,0-.5.5v26a.59.59,0,0,0,0,.14l1.5,5a.5.5,0,0,0,1,0l1.5-5a.59.59,0,0,0,0-.14V.5A.5.5,0,0,0,29.5,0ZM28,29.76,27.17,27h1.66ZM29,26H27V6h2ZM29,5H27V4h2Zm0-2H27V1h2ZM22.5,3H4.5a.5.5,0,0,0-.5.5v22a.5.5,0,0,0,.5.5h18a.5.5,0,0,0,.5-.5V3.5A.5.5,0,0,0,22.5,3ZM22,25H5V4H22Z"/></svg>