<svg xmlns="http://www.w3.org/2000/svg" data-name="Layer 1" viewBox="0 0 32 32"><rect width="22" height="31" x="2.5" y=".5" fill="#58565d" rx="2"/><rect width="19" height="23" x="4" y="3.5" fill="#4eb9e9" rx=".5"/><circle cx="13.5" cy="28.5" r="1" fill="#fff"/><circle cx="13.5" cy="2" r=".5" fill="#fff"/><path fill="#dfdfe1" d="M29.5,1V26.43a.68.68,0,0,1,0,.14l-1,3.33a.5.5,0,0,1-1,0l-1-3.33a.68.68,0,0,1,0-.14V1A.5.5,0,0,1,27,.5h2A.5.5,0,0,1,29.5,1Z"/><path fill="#aeadb2" d="M29.5,26.39v.08l-1,3.4a.5.5,0,0,1-1,0l-1-3.4v-.08Z"/><rect width="3" height="1" x="26.5" y="3" fill="#aeadb2"/><rect width="3" height="1" x="26.5" y="5" fill="#aeadb2"/></svg>