<svg xmlns="http://www.w3.org/2000/svg" width="32" height="32" viewBox="0 0 32 32"><path d="M 7.890625 5.1386719 L 7.890625 5.140625 C 6.1021101 5.140625 4.640625 6.602025 4.640625 8.390625 L 4.640625 20.015625 C 4.640625 21.804125 6.1089613 23.234375 7.890625 23.234375 L 12.71875 23.234375 L 15.601562 26.681641 A 0.50004994 0.50004994 0 0 0 16.367188 26.681641 L 19.279297 23.232422 L 24.109375 23.232422 C 25.891039 23.232422 27.359375 21.802172 27.359375 20.013672 L 27.359375 8.3886719 C 27.359375 6.6000719 25.89789 5.1386719 24.109375 5.1386719 L 7.890625 5.1386719 z M 7.890625 6.140625 L 24.109375 6.140625 C 25.35682 6.140625 26.359375 7.143125 26.359375 8.390625 L 26.359375 20.015625 C 26.359375 21.263025 25.363671 22.234375 24.109375 22.234375 L 19.046875 22.234375 A 0.50004994 0.50004994 0 0 0 18.664062 22.412109 L 15.986328 25.582031 L 13.335938 22.414062 A 0.50004994 0.50004994 0 0 0 12.953125 22.234375 L 7.890625 22.234375 C 6.6363287 22.234375 5.640625 21.263025 5.640625 20.015625 L 5.640625 8.390625 C 5.640625 7.143125 6.6431799 6.140625 7.890625 6.140625 z M 16.0625 8.4824219 C 12.782084 8.4824219 10.11328 11.159466 10.113281 14.447266 C 10.11328 17.735066 12.782084 20.414062 16.0625 20.414062 C 19.342916 20.414062 22.01172 17.735066 22.011719 14.447266 C 22.01172 11.159466 19.342916 8.4824219 16.0625 8.4824219 z M 16.0625 9.4824219 C 18.800857 9.4824219 21.01172 11.698266 21.011719 14.447266 C 21.01172 17.196266 18.800857 19.414062 16.0625 19.414062 C 13.324143 19.414062 11.11328 17.196266 11.113281 14.447266 C 11.11328 11.698266 13.324143 9.4824219 16.0625 9.4824219 z M 18.171875 12.546875 A 0.50004997 0.50004997 0 0 0 17.830078 12.697266 L 15.400391 15.138672 L 14.287109 14.070312 A 0.50004997 0.50004997 0 0 0 13.925781 13.927734 A 0.50004997 0.50004997 0 0 0 13.595703 14.792969 L 14.96875 16.109375 A 0.50004997 0.50004997 0 0 0 15.757812 16.197266 L 18.539062 13.404297 A 0.50004997 0.50004997 0 0 0 18.171875 12.546875 z " color="#000" font-family="sans-serif" font-weight="400" overflow="visible" white-space="normal" style="line-height:normal;text-indent:0;text-align:start;text-decoration-line:none;text-decoration-style:solid;text-decoration-color:#000;text-transform:none;block-progression:tb;isolation:auto;mix-blend-mode:normal"/></svg>