<svg xmlns="http://www.w3.org/2000/svg" width="32" height="32" viewBox="0 0 32 32"><g transform="translate(-322.183 -546.79)"><g transform="translate(-504.242 -1002.826)"><path fill="#f9f9f9" stroke="#a6bcc0" stroke-linecap="round" stroke-linejoin="round" d="m 834.31521,1555.2568 c -1.51798,0 -2.75,1.232 -2.75,2.75 l 0,11.625 c 0,1.518 1.23202,2.7188 2.75,2.7188 l 5.0625,0 3.03125,3.625 3.0625,-3.625 5.0625,0 c 1.51798,0 2.75,-1.2008 2.75,-2.7188 l 0,-11.625 c 0,-1.518 -1.23202,-2.75 -2.75,-2.75 z"/><path fill="none" stroke="#fff" stroke-linecap="round" d="m 841.37747,1556.2568 9.34111,0 c 0.85693,0 1.5468,0.6899 1.5468,1.5468 l 0,5.1518"/></g><g transform="matrix(1.38974 0 0 1.38974 -88.982 -1265.366)"><circle cx="8" cy="6" r="11" fill="#e5ffd5" stroke="#71c837" stroke-dashoffset="1.3" stroke-linecap="round" stroke-linejoin="round" stroke-width="2.016" transform="matrix(.35644 0 0 .3575 304.563 1312.2)"/><g transform="rotate(44.561 148.974 1353.38)"><path fill="#d5fff6" stroke="#71c837" stroke-linecap="round" stroke-linejoin="round" stroke-width=".72" d="M234.85744 1212.6078l-.0142 2.8361M234.83874 1215.438l-1.45908.02"/></g></g></g></svg>