<svg xmlns="http://www.w3.org/2000/svg" width="42" height="42" viewBox="0 0 42 42"><g transform="translate(0 -1010.362)"><g transform="matrix(1.68 0 0 1.68 -41.236 983.635)"><circle cx="37.045" cy="28.409" r="12.5" fill="#50b748" fill-rule="evenodd"/></g><path fill="#10a711" style="line-height:normal;text-indent:0;text-align:start;text-decoration-line:none;text-decoration-style:solid;text-decoration-color:#000;text-transform:none;block-progression:tb;isolation:auto;mix-blend-mode:normal" d="M 24.173828 41.732422 A 21 21 0 0 0 25.171875 41.582031 A 21 21 0 0 0 27.205078 41.0625 A 21 21 0 0 0 29.177734 40.341797 A 21 21 0 0 0 31.068359 39.429688 A 21 21 0 0 0 32.857422 38.332031 A 21 21 0 0 0 34.529297 37.0625 A 21 21 0 0 0 36.064453 35.630859 A 21 21 0 0 0 37.449219 34.054688 A 21 21 0 0 0 38.669922 32.345703 A 21 21 0 0 0 39.714844 30.525391 A 21 21 0 0 0 40.572266 28.609375 A 21 21 0 0 0 41.234375 26.617188 A 21 21 0 0 0 41.695312 24.568359 A 21 21 0 0 0 41.947266 22.494141 L 31.414062 11.962891 L 31.404297 11.953125 C 30.815276 11.363576 30.004171 10.996094 29.109375 10.996094 L 12.890625 10.996094 L 12.890625 10.998047 C 11.995829 10.998047 11.184724 11.365529 10.595703 11.955078 C 10.448891 12.102022 10.314056 12.261047 10.197266 12.433594 C 10.197266 12.433594 10.197266 12.435547 10.197266 12.435547 C 10.0806 12.608102 9.9787394 12.792594 9.8964844 12.986328 C 9.8964844 12.986328 9.8964844 12.988281 9.8964844 12.988281 C 9.8143528 13.182033 9.75036 13.385185 9.7070312 13.595703 C 9.7070312 13.595703 9.7070312 13.597656 9.7070312 13.597656 C 9.6638263 13.808209 9.640625 14.025134 9.640625 14.248047 L 9.640625 14.25 L 9.640625 25.873047 L 9.640625 25.875 C 9.640625 26.097919 9.6636491 26.315683 9.7070312 26.525391 C 9.7506145 26.736069 9.8155935 26.937711 9.8984375 27.130859 C 9.9801313 27.321326 10.079821 27.502515 10.195312 27.671875 C 10.218865 27.706381 10.250544 27.73405 10.275391 27.767578 C 10.370803 27.896454 10.466859 28.025447 10.580078 28.138672 L 24.173828 41.732422 z " color="#000" font-family="sans-serif" font-weight="400" transform="translate(0 1010.362)" white-space="normal"/><path fill="#fff" style="line-height:normal;text-indent:0;text-align:start;text-decoration-line:none;text-decoration-style:solid;text-decoration-color:#000;text-transform:none;block-progression:tb;isolation:auto;mix-blend-mode:normal" d="m 7.890625,5.1386719 0,0.00195 c -1.7885149,0 -3.25,1.4614 -3.25,3.25 l 0,11.6250001 c 0,1.7885 1.4683363,3.21875 3.25,3.21875 l 4.828125,0 2.882812,3.447266 a 0.50004994,0.50004994 0 0 0 0.765626,0 l 2.912109,-3.449219 4.830078,0 c 1.781664,0 3.25,-1.43025 3.25,-3.21875 l 0,-11.6250002 c 0,-1.7886 -1.461485,-3.25 -3.25,-3.25 l -16.21875,0 z m 0,1.0019531 16.21875,0 c 1.247445,0 2.25,1.0025 2.25,2.25 l 0,11.625 c 0,1.2474 -0.995704,2.21875 -2.25,2.21875 l -5.0625,0 a 0.50004994,0.50004994 0 0 0 -0.382813,0.177734 l -2.677734,3.169922 -2.65039,-3.167969 a 0.50004994,0.50004994 0 0 0 -0.382813,-0.179687 l -5.0625,0 c -1.2542963,0 -2.25,-0.97135 -2.25,-2.21875 l 0,-11.625 c 0,-1.2475 1.0025549,-2.25 2.25,-2.25 z M 16.0625,8.4824219 c -3.280416,0 -5.94922,2.6770441 -5.949219,5.9648441 -1e-6,3.2878 2.668803,5.966796 5.949219,5.966796 3.280416,0 5.94922,-2.678996 5.949219,-5.966796 1e-6,-3.2878 -2.668803,-5.9648441 -5.949219,-5.9648441 z m 0,1 c 2.738357,0 4.94922,2.2158441 4.949219,4.9648441 1e-6,2.749 -2.210862,4.966796 -4.949219,4.966796 -2.738357,0 -4.94922,-2.217796 -4.949219,-4.966796 -1e-6,-2.749 2.210862,-4.9648441 4.949219,-4.9648441 z m 2.109375,3.0644531 a 0.50004997,0.50004997 0 0 0 -0.341797,0.150391 l -2.429687,2.441406 -1.113282,-1.06836 a 0.50004997,0.50004997 0 0 0 -0.361328,-0.142578 0.50004997,0.50004997 0 0 0 -0.330078,0.865235 l 1.373047,1.316406 a 0.50004997,0.50004997 0 0 0 0.789062,0.08789 l 2.78125,-2.792969 a 0.50004997,0.50004997 0 0 0 -0.367187,-0.857422 z" color="#000" font-family="sans-serif" font-weight="400" overflow="visible" transform="translate(5 1016.224)" white-space="normal"/></g></svg>