<?xml version="1.0" encoding="UTF-8"?><svg xmlns="http://www.w3.org/2000/svg" xmlns:xlink="http://www.w3.org/1999/xlink" version="1.1" id="Layer_1" x="0px" y="0px" viewBox="0 0 24 24" xml:space="preserve"><path d="M7.5 13.5h-7A.5.5 0 0 1 0 13V1A.5.5 0 0 1 .5.5h7A.5.5 0 0 1 8 1v12a.5.5 0 0 1-.5.5zm-6.5-1h6v-11H1v11z"/><path d="M13 23.5c-1.038 0-1.781-.584-1.813-.609A.502.502 0 0 1 11 22.5v-3.39l-2.881-6.241-.843-.421a.5.5 0 0 1 .447-.895l1 .5a.497.497 0 0 1 .23.238l3 6.5A.487.487 0 0 1 12 19v3.228c.207.115.569.272 1 .272.548 0 2-1.363 2-3 0-1.759-.958-4.297-.967-4.322a.5.5 0 0 1 .467-.677h7c.827 0 1.5-.673 1.5-1.5 0-.52-.269-.996-.719-1.273a.502.502 0 0 1 .034-.87c.423-.218.685-.642.685-1.108 0-.631-.477-1.161-1.108-1.233a.498.498 0 1 1-.287-.859c.254-.241.395-.564.395-.908 0-.631-.477-1.161-1.108-1.233a.499.499 0 1 1-.287-.859c.254-.241.395-.564.395-.908 0-.689-.561-1.25-1.25-1.25H10.5c-.812 0-2.173.381-2.646.854a.5.5 0 0 1-.707-.707C7.896 1.899 9.575 1.5 10.5 1.5h9.25a2.253 2.253 0 0 1 2.015 3.25 2.239 2.239 0 0 1 1 3 2.239 2.239 0 0 1 .586 3.575c.414.453.649 1.044.649 1.675 0 1.378-1.121 2.5-2.5 2.5h-6.296c.306.929.796 2.632.796 4 0 2.17-1.843 4-3 4z"/><metadata><rdf:RDF xmlns:rdf="http://www.w3.org/1999/02/22-rdf-syntax-ns#" xmlns:rdfs="http://www.w3.org/2000/01/rdf-schema#" xmlns:dc="http://purl.org/dc/elements/1.1/"><rdf:Description about="https://iconscout.com/legal#licenses" dc:title="thumbs,down" dc:description="thumbs,down" dc:publisher="Iconscout" dc:date="2018-01-03" dc:format="image/svg+xml" dc:language="en"><dc:creator><rdf:Bag><rdf:li>Icon 54</rdf:li></rdf:Bag></dc:creator></rdf:Description></rdf:RDF></metadata></svg>