<svg xmlns="http://www.w3.org/2000/svg" viewBox="0 0 48 48"><g data-name="Layer 2"><path fill="#30385c" d="M41,42H7a1,1,0,0,1-1-1V7A1,1,0,0,1,7,6H41a1,1,0,0,1,1,1V41A1,1,0,0,1,41,42ZM8,40H40V8H8Z"/><circle cx="11" cy="11" r="1" fill="#30385c"/><circle cx="15" cy="11" r="1" fill="#30385c"/><circle cx="19" cy="11" r="1" fill="#30385c"/><path fill="#30385c" d="M21 16H7a1 1 0 0 1 0-2H20.59l3.7-3.71A1 1 0 0 1 25 10H41a1 1 0 0 1 0 2H25.41l-3.7 3.71A1 1 0 0 1 21 16zM16 29a1 1 0 0 1-1-1 9 9 0 0 1 9-9 1 1 0 0 1 0 2 7 7 0 0 0-7 7A1 1 0 0 1 16 29zM24 37a1 1 0 0 1 0-2 7 7 0 0 0 7-7 1 1 0 0 1 2 0A9 9 0 0 1 24 37z"/><path fill="#30385c" d="M29.66 23.34a1 1 0 0 1-.71-.29 7 7 0 0 0-9.9 0 1 1 0 0 1-1.41-1.41 9 9 0 0 1 12.72 0 1 1 0 0 1 0 1.41A1 1 0 0 1 29.66 23.34zM24 37a8.93 8.93 0 0 1-6.36-2.64A1 1 0 1 1 19.05 33 7 7 0 0 0 29 33a1 1 0 1 1 1.41 1.41A9 9 0 0 1 24 37zM34 29a1 1 0 0 1-.7-.29L32 27.41l-1.29 1.3a1 1 0 0 1-1.41 0 1 1 0 0 1 0-1.42l2-2a1 1 0 0 1 1.41 0l2 2a1 1 0 0 1 0 1.42A1 1 0 0 1 34 29zM16 31a1 1 0 0 1-.7-.29l-2-2a1 1 0 1 1 1.41-1.42L16 28.59l1.3-1.3a1 1 0 0 1 1.41 0 1 1 0 0 1 0 1.42l-2 2A1 1 0 0 1 16 31z"/><rect width="3" height="28" x="38" y="12" fill="#30385c" opacity=".5"/><path fill="#30385c" d="M38 37h0a0 0 0 0 1 0 0v3a0 0 0 0 1 0 0H35a0 0 0 0 1 0 0v0A3 3 0 0 1 38 37zM41 10H34a2 2 0 0 0 2-2h5z" opacity=".5"/></g></svg>