<svg xmlns="http://www.w3.org/2000/svg" enable-background="new 0 0 79 79" viewBox="0 0 79 79"><path fill="#F4F4F4" d="M34.9244614,15.1995478v38.175724c0,0.4209404-0.3060989,0.9470863-0.6791649,1.1670723
				L18.7205982,63.505043l7.5088501-42.2792206l0.0191498-0.2391357l0.6887417-0.3920994
				c0.3730087-0.2201023,0.6791096-0.736557,0.6791096-1.1766472c-0.0095749-0.4303989,0.296526-0.9565449,0.6695938-1.1669559
				l5.9592533-3.4435377C34.6279373,14.5874624,34.9244614,14.7691498,34.9244614,15.1995478z"/><path fill="#D9DADF" d="M14.5202618,66.0872574c-0.1821289,0-0.34375-0.0761719-0.4545898-0.2148438
				c-0.1020508-0.1269531-0.15625-0.3007813-0.15625-0.5019531l-0.1049805-38.1176758
				c0-0.5161133,0.3476563-1.1157227,0.7910156-1.3662109l5.8422852-3.3847656
				c0.1455078-0.0834961,0.2880859-0.1254883,0.425293-0.1254883c0.3041992,0,0.6118164,0.2236328,0.6118164,0.7241211
				c0.0019531,0.0898438,0.0229492,0.2490234,0.1401367,0.2490234c0.0517578,0,0.1196289-0.0224609,0.1914063-0.0634766
				l5.0126953-2.8989258c0.3012695-0.1777344,0.5585938-0.6225586,0.5585938-0.9692383
				c-0.0117188-0.5117188,0.3359375-1.1181641,0.7910156-1.375l5.9575214-3.4418955
				c0.1450195-0.0834961,0.2880859-0.1259766,0.4248047-0.1259766c0.3046875,0,0.6123047,0.2241211,0.6123047,0.7246094v38.1757813
				c0,0.5058594-0.3500977,1.1088867-0.796875,1.3725586L14.9465313,65.9593277
				C14.8034649,66.0438004,14.6594219,66.0872574,14.5202618,66.0872574z M20.8630352,22.8533688
				c-0.0512695,0-0.1171875,0.0219727-0.1870117,0.0620117l-5.84375,3.3857422
				c-0.2993164,0.1689453-0.550293,0.6040039-0.550293,0.9511719l0.1049805,38.1176758
				c0,0.0893555,0.0185547,0.1635742,0.0507813,0.2041016c0.0292969,0.0375977,0.1357422,0.0512695,0.2685547-0.0268555
				l19.4199238-11.2114296c0.2973633-0.1757813,0.5595703-0.625,0.5595703-0.9604492V15.1995592
				c0-0.0922852-0.0175781-0.2475586-0.1347656-0.2475586c-0.0507813,0-0.1171875,0.0224609-0.1865234,0.0625l-5.9594746,3.442872
				c-0.3017578,0.1704102-0.5576172,0.6162109-0.5498047,0.9550781c0,0.5253906-0.3427734,1.1196289-0.796875,1.3876953
				l-0.6914063,0.394043l-4.3222656,2.5053711c-0.1474609,0.0844727-0.2919922,0.1274414-0.4296875,0.1274414l0,0
				c-0.2993164,0-0.6064453-0.2231445-0.6176758-0.7211914C20.9973125,23.0081539,20.9802227,22.8533688,20.8630352,22.8533688z"/><g enable-background="new"><path fill="#BCBCBE" d="M25.7461376,56.9971466c-0.1624546,0.1488457-0.3185406,0.290329-0.4778366,0.4300346
								c-0.640686-0.0381203-0.8638992-0.2160454-1.3276825,0.3261223c-0.2499981,0.288475-0.1702366,0.2020836-0.859623,0.9477196
								c-0.1850929,0.0481262-0.3670044,0.0944672-0.5489178,0.1407623c0.4395103-0.4335938,0.8661594-0.8964424,1.26404-1.3683701
								C24.5192757,56.6308441,24.8682766,56.999897,25.7461376,56.9971466z"/><path fill="#BCBCBE" d="M27.1881104,55.3022079c-0.2142296,0.3127975-0.2650261,0.4801598-0.5319729,0.4869728
								c-3.7663326,0.1142273-0.5297146-1.5499344-5.3600063,3.0689201
								c-0.1214485-0.0326691-0.242897-0.0652885-0.3675556-0.0997391c0.2387886-0.228508,1.5071468-1.1810417,2.846796-2.9721107
								C24.6999779,54.5482674,24.9301929,55.5676346,27.1881104,55.3022079z"/><path fill="#BCBCBE" d="M24.3413906 53.7933655c1.3318729-.7689552 1.76404.3135338 3.8701496-.2417107-.0730247.1559486-.1555977.3210449-.2413692.4806671-2.6923981.2997704-2.5324821-.4719086-3.6659012.1824722-.363493.2098618-.7170849.5351143-1.0161667.9353142-.9091339 1.2168617-1.9531193 2.2358475-3.1560993 3.143322-.0800381-.071209-.1537285-.1497688-.2337856-.2283363 1.2155285-.9134979 2.2665081-1.8784943 3.2167301-3.1636429C23.4679813 54.4221916 23.9221401 54.0354195 24.3413906 53.7933655zM23.5196972 52.3521004c.0350742-.0202484.0733891-.0276871.1053352-.0204468.0831127.025383.0930347.1407585.0199986.2930298-.4634762.9869003-1.0773792 1.8661232-1.8798943 2.6817665-.9197998.9311256-1.8695831 1.5684166-2.3802109 1.9503708-.0386047-.1025009-.0772228-.2013092-.1190376-.3055878.2709675-.2474747 1.206501-.8207092 2.1922932-1.7685051.8217449-.7936974 1.4484348-1.6619835 1.9151134-2.6506805C23.4145699 52.445797 23.4655094 52.3833847 23.5196972 52.3521004zM22.7697525 51.4272003l.0638103-.0221558c.0797977-.0130234.1247005.0491066.1089916.1462784-.0062656.0439873-.0252361.106308-.0601425.1851959-.7721138 1.8319817-2.1778145 3.173008-3.8203468 4.2938194l-.0361862-.371788c.2630978-.2068176 1.5037079-.9985275 2.4944515-2.2145348.4583035-.5581779.8270435-1.1710663 1.0966816-1.8185272C22.658268 51.5319328 22.7091637 51.4621811 22.7697525 51.4272003zM24.0938339 46.4534073c.1243572-.0718002.1597424.0178757.1695595.1039429.1316586 1.3809242.6073952 2.4567719 1.4143047 3.1909447 1.6284904 1.4965057 3.4084187.6963882 3.5086708.6863022-.0219822.1301613-.0439453.2675781-.0659084.4050484-3.9975796 1.5424423-5.7777939-3.840744-5.0521431-4.3715096L24.0938339 46.4534073z"/><path fill="#BCBCBE" d="M25.531889,45.6378288c0.2119083,2.4871407,1.8658504,3.6647911,3.5736752,3.3314323
								c0.2044106-0.0488281,0.1608028-0.0714607,0.1544857,0.4172745
								c-2.3600674,0.3614082-3.7940769-1.0417328-4.0495262-3.3245926c-0.2774754-1.92593-2.3408012-0.1220703-2.2189732,1.3654938
								c0.3695621,4.4028778,4.1547165,5.7542725,5.844696,4.5488167c-0.0538254,0.1668663-0.1108303,0.3355637-0.1710358,0.5061111
								c-1.9435749,0.8014679-4.0688038-0.1489334-5.1537819-1.9237366
								C20.8065186,46.1705856,25.3294182,43.2257729,25.531889,45.6378288z"/><path fill="#BCBCBE" d="M26.6221409,44.9276352c0.1371136,1.442543,1.1354485,2.6176376,2.6262531,2.6013298
								c0.0067844,0.1392365,0.0071888,0.2821083,0.0044575,0.4414749c-4.3755913,0.0173912-1.7680187-5.8088646-5.229393-3.8104362
								c-0.6409016,0.3700256-1.1979961,1.0109749-1.6521549,1.9080734
								c-1.5180473,2.9884872,1.6620388,5.0755539-3.3514805,8.5774002l-0.0011311-0.3993454
								c0.5744591-0.3980293,1.1995583-0.921936,1.656601-1.4628563c1.0188274-1.198513,1.2344112-2.7788658,0.9110928-4.1995697
								c-0.1487389-0.6444359,0.0052376-1.5296974,0.4210815-2.4266739
								C23.4114933,43.1476746,26.373064,42.3575058,26.6221409,44.9276352z"/><path fill="#BCBCBE" d="M27.9125996,43.863327c0.1179142,1.040226,0.5540695,1.6765137,1.327734,1.9454613
								c0.010025,0.1593704,0.0104809,0.3205795,0.0109596,0.4890938c-1.7838593-0.2957916-1.5789528-2.2885628-1.8541794-2.8929367
								c-1.418438-3.2483368-6.0949574,0.3536797-6.7516346,4.4925804c-0.310648,1.964222,1.1946907,3.0024071-1.6266308,5.2805786
								l-0.0011749-0.4140053c2.7722931-2.0751038,0.2862129-2.8732529,1.7638817-6.4351234
								C22.7889309,41.4787445,27.4821873,40.121769,27.9125996,43.863327z"/><path fill="#BCBCBE" d="M29.1648159,42.8320961c0.0389805,0.2270203,0.0620861,0.4926262,0.0725784,0.8168297
								c0.0102844,0.2436371,0.0110016,0.4964333,0.0085487,0.7620583c-0.1506195-0.1846161-0.2661572-0.378437-0.2925339-0.6751518
								c-0.5178642-6.4907913-8.4270306-2.257225-9.5397949,4.4875488
								c-0.2379322,1.4009056,0.1360683,2.6761246-0.4087391,3.4031181
								c-0.0019569-0.6900902-0.003458-1.2201385-0.0054321-1.9162178
								C18.9949551,42.4618683,28.0701332,36.4597969,29.1648159,42.8320961z"/></g><path fill="#EF473E" d="M26.6378613 46.3547249c-.704628.4025192-.7077274-.8208961-.0059948-1.2219353C27.308466 44.7322884 27.3811417 45.9147568 26.6378613 46.3547249zM25.4216766 52.6682968c-.2934933.1676559-.5331001.0359001-.5331001-.3054848 0-.3414574.2336102-.7487221.5271034-.9164543C26.0922794 51.0458603 26.164957 52.2283287 25.4216766 52.6682968zM21.6718235 45.5941963c0 .335392-.2396069.7427292-.5331001.9164543-.2934933.1676598-.5330982.0359001-.5330982-.3054848 0-.3414574.2336102-.7487221.5271034-.9164505C21.4262218 45.1149864 21.6658268 45.252739 21.6718235 45.5941963zM23.1727924 55.5899849c0 .3353882-.2396069.7427254-.5331001.9164543-.2934933.1676598-.5330982.0359001-.5330982-.3054848 0-.3414574.2336102-.7487221.5271034-.9164543C22.9271908 55.110775 23.1667957 55.2485275 23.1727924 55.5899849zM21.7746925 52.0248032c0 .3353882-.2396049.7427254-.5330982.9164543-.2934933.1676559-.5330982.0359001-.5330982-.3054848 0-.3414612.2336102-.7487221.5271015-.9164543C21.5290909 51.5455894 21.7686977 51.683342 21.7746925 52.0248032z"/><g><path fill="#F9D893" d="M24.4827175 31.6507339c2.589777-1.4952106 4.7514133-.6989307 5.342308 1.7221985.1648312.6695938-.3754349 1.7149506-1.0534077 2.1063766l-8.5557671 4.9396744c-.677927.3914032-1.2359543-.0198517-1.075407-.8773041C19.7157021 36.4472694 21.8793297 33.153801 24.4827175 31.6507339zM24.4641209 25.0914726c1.4237156-.8219833 2.5935764-.1554203 2.598259 1.4960709.0046825 1.651701-1.1575813 3.6647167-2.5812969 4.4867001-1.4508419.8376446-2.6071854.1632767-2.6118679-1.4884243C21.8645325 27.9343281 23.013279 25.9291172 24.4641209 25.0914726z"/></g><g><path fill="#FFF" d="M69.0585098,25.1246452c0,0.5026703-0.3442993,1.101757-0.7781296,1.3565407L43.6212692,40.714695
				c-0.2203598,0.1239853-0.413147,0.1377716-0.5577698,0.0551414c-0.0137863-0.0068932-0.0344238-0.0137863-0.0482101-0.0275726
				l-1.8936768-1.101757c-0.1377296-0.0826302-0.227253-0.2547836-0.227253-0.5026741l-0.0413132-15.941328
				c0-0.495779,0.3443031-1.101759,0.7781334-1.3496494l24.659111-14.2404842
				c0.2134628-0.1239867,0.4131927-0.1376882,0.5508804-0.0550585l1.9143524,1.1155443
				c0.1583633,0.075737,0.2547836,0.2547827,0.2547836,0.5233498L69.0585098,25.1246452z"/><polygon fill="#D9DADF" points="56.193 27.403 56.196 28.49 51.518 31.19 51.515 30.104"/><polygon fill="#D9DADF" points="56.185 25.139 56.189 26.225 53.005 28.063 53.002 26.977"/><polygon fill="#D9DADF" points="52.259 27.406 52.262 28.492 49.022 30.363 49.019 29.277"/><polygon fill="#662DDC" points="69.051 11.121 69.059 13.784 42.838 28.922 42.83 26.26"/><polygon fill="#D9DADF" points="52.195 31.98 52.198 33.071 49.767 34.475 49.764 33.384"/><polygon fill="#D9DADF" points="50.46 30.713 50.463 31.8 47.095 33.744 47.092 32.658"/><polygon fill="#D9DADF" points="47.876 29.937 47.879 31.023 44.195 33.15 44.192 32.064"/><polygon fill="#D9DADF" points="45.861 33.369 45.864 34.455 44.202 35.414 44.199 34.328"/><polygon fill="#D9DADF" points="48.564 34.077 48.567 35.168 44.21 37.684 44.207 36.592"/><polygon fill="#D9DADF" points="56.201 29.668 56.204 30.759 53.579 32.274 53.576 31.183"/><polygon fill="#EF473E" points="67.206 24.402 61.601 27.638 61.587 21.193 67.192 17.956"/><path fill="#FFF" d="M64.3984604 22.784174c1.0507736-.6066647 1.9150238-.2099667 2.0589752.8657341.0225143.1691532-.0913391.3967953-.2496338.4881859l-3.6095428 2.083971c-.1582642.0913734-.273037-.0042686-.2515793-.1988125C62.4884834 24.7825699 63.3520737 23.3883076 64.3984604 22.784174zM64.3917618 20.419838c.4792023-.2766685.8717651-.0580196.8733521.5027618.001564.5507069-.3884506 1.2312679-.8676529 1.5079346-.4836464.279232-.8762093.0504932-.8777695-.5002136C63.5181007 21.3695393 63.9081154 20.69907 64.3917618 20.419838z"/><g><path fill="#FFF" d="M69.5870056,53.1824722c0,0.888607-0.6249466,1.9529076-1.3768387,2.3922653L46.0251503,68.3956451
				c-0.4003792,0.2245712-0.7518883,0.2441177-1.0057755,0.0781403c-0.0194893-0.0097809-0.0390396-0.0195541-0.0585861-0.0391006
				l-1.9821701-1.1424332c-0.2441139-0.146492-0.400383-0.4589691-0.400383-0.8885498l-0.0488091-17.400486
				c-0.0097733-0.8787117,0.6151695-1.9529076,1.3768349-2.3922653l22.1752434-12.8208542
				c0.3808289-0.2245636,0.732338-0.2441101,0.9764557-0.0976181l2.070076,1.2010193
				c-0.0194855-0.0097733-0.0292587-0.0195503-0.0488129-0.0195503c0.2734375,0.1269455,0.4589691,0.449131,0.4589691,0.9080353
				L69.5870056,53.1824722z"/><path fill="#D9DADF" d="M69.1296387,35.1424294c-0.0361328,0-0.0727539-0.0083008-0.1069336-0.0253906
					c-0.0473633-0.0234375-0.0942383-0.0473633-0.1533203-0.0712891c-0.105957-0.0424805-0.1665039-0.1542969-0.1450195-0.2666016
					c0.0219727-0.1123047,0.1201172-0.1933594,0.234375-0.1933594c0.0825195,0,0.1459961,0.0322266,0.184082,0.0512695
					c0.027832,0.012207,0.059082,0.0263672,0.090332,0.0463867c0.0864258,0.0356445,0.1469727,0.1210938,0.1469727,0.2202148
					c0,0.1333008-0.0820313,0.2451172-0.2441406,0.2387695C69.1340332,35.1424294,69.1315918,35.1424294,69.1296387,35.1424294z"/><path fill="#F4F4F4" d="M69.5900726,53.1898651c0,0.8813286-0.6182785,1.9470139-1.3813324,2.3812561L49.4737015,66.4027023
					c2.6968994-8.0774536,8.361866-25.4272842,8.361866-25.4272842l10.9256935-6.1771812
					c0.0789261,0,0.1315994,0.0131683,0.1973648,0.0263367c0.0263367,0,0.052597,0.0131683,0.0789337,0.0263367
					s0.0657578,0.0261765,0.0920944,0.0525131c0.052597,0.0263367,0.1052704,0.0525131,0.1446991,0.1051903
					c0.1710281,0.1711884,0.2631302,0.4342384,0.2631302,0.7762985L69.5900726,53.1898651z"/><path fill="#F8F7F3" d="M69.274353,35.0086136L56.8948822,54.242382l-12.0243187-5.1440773h-0.0131683
				c0.0131683-0.0393448,0.039505-0.0656853,0.0526733-0.1050301c0.0262566-0.0526733,0.0525932-0.1053467,0.0789299-0.1448517
				c0.0920219-0.1578636,0.1972885-0.3025551,0.3157234-0.4472504c0.0394249-0.0525131,0.0789337-0.1051865,0.1315269-0.1578598
				c0.0789299-0.0921822,0.1578598-0.171032,0.2367935-0.2367134h0.0131683v-0.0131683l0.0263367-0.0131683l0.0394249-0.0131683
				l22.5094414-13.0241661c0.1841202-0.1051865,0.3551483-0.1446915,0.4998474-0.1446915
				c0.0789261,0,0.1315994,0.0131683,0.1973648,0.0263367c0.0263367,0,0.052597,0.0131683,0.0789337,0.0263367
				s0.0657578,0.0261765,0.0920944,0.0525131C69.182251,34.92976,69.2349243,34.9559364,69.274353,35.0086136z"/><path fill="#908FA1" d="M36.2474365,11.8997545c-0.0036621-0.0024414-0.0036011-0.0075684-0.0074463-0.0097656
					l-2.5288086-1.4707031c-0.4331055-0.2558594-1.0141602-0.2084961-1.6098633,0.1342773l-20.7690449,11.993165
					C10.1608725,23.2218056,9.293211,24.8040428,9.293211,26.0604l0.1264648,42.6103516
					c0,0.659668,0.2392578,1.1674805,0.6777344,1.4321289l2.5241089,1.4589844
					c0.5106125,0.306572,1.1071348,0.1771164,1.6209106-0.1196289l20.7739277-11.9941444
					c1.1411133-0.6582031,2.0322266-2.2021484,2.0288086-3.5141602l-0.1206055-42.6049805
					C36.9224854,12.6497545,36.6679077,12.1449938,36.2474365,11.8997545z M11.5705547,22.9598141l20.7690449-11.9926767
					c0.3441238-0.1989975,0.7910538-0.3359156,1.1303711-0.1362305l1.6748047,0.9741211
					c-0.3692894,0.1120253-2.0163231,1.1209126-21.2739277,12.2163095c-0.6030626,0.347765-1.1489296,0.9961205-1.4855347,1.6049805
					l-2.2507935-1.0063477C10.4630108,23.9283199,10.9817486,23.2991695,11.5705547,22.9598141z M10.3405743,69.6922379
					c-0.2861328-0.1728516-0.4433594-0.5356445-0.4433594-1.0219727L9.77075,26.0599117
					c0-0.3206787,0.0696411-0.6608887,0.184082-0.9978027l2.2173462,0.9914551
					c-0.2124023,0.4921875-0.3379517,1.0070801-0.3379517,1.4848633
					c0.1577044,54.8230743,0.1108837,38.5467758,0.1225586,42.6054688c0.0005493,0.1745605,0.0230103,0.3334961,0.0552368,0.4841309
					c0.0020752,0.0098877,0.0011597,0.0222168,0.0033569,0.0319824L10.3405743,69.6922379z M34.7780762,59.0350075
					L14.0041485,71.0291519c-0.4610033,0.2656326-1.0099316,0.3686905-1.3365479-0.0541992
					c-0.1570196-0.2017212-0.2293701-0.5867004-0.2293701-0.8354492c-0.0119133-4.0602875,0.0358601,12.2215042-0.125-42.6015625
					c-0.0035124-1.181448,0.8677282-2.5715542,1.7983398-3.1005859
					c21.9601383-12.673008,20.875124-12.0931292,21.2341938-12.1820078c0.7310219-0.1831989,1.0991249,0.3207827,1.1012573,1.074585
					l0.1206055,42.6049805C36.5710449,57.0730934,35.7683105,58.4637184,34.7780762,59.0350075z"/><polygon fill="#908FA1" points="25.359 19.944 22.116 21.819 22.059 21.857 22.059 22.508 25.359 20.595"/><polygon fill="#908FA1" points="26.784 19.131 25.675 19.772 25.675 20.422 26.784 19.762"/><path fill="#908FA1" d="M26.4463482 60.1908913l-2.4187012 1.3978271c-.5334473.3034668-.9564819 1.0393066-.9564819 1.6462402s.432251.8460732.9564819.5426025l2.4279175-1.3978271c.5241699-.3037109.9564209-1.0393066.9472046-1.6462402C27.4027691 60.1265602 26.9705791 59.8874245 26.4463482 60.1908913zM43.7419434 40.9207497l24.6557617-14.2348614c.5063477-.2919922.9013672-.9770508.8999023-1.5585938L69.2521973 9.188817c-.0021591-.8355646-.7069702-.8133411-2.2885742-1.8422847-.2143555-.1289063-.5112305-.109375-.7924805.0532227L41.5129395 21.6399899c-.5104027.2911415-.8984375 1.0227013-.8984375 1.5571289l.0410156 15.9409161c0 .3188477.1254883.5766602.3461914.7084961l1.9418945 1.1293945C43.2013435 41.1261673 43.491642 41.0651817 43.7419434 40.9207497zM68.1594238 26.2728024l-24.65625 14.2348614c-.2564964.1488609-.4177513.0819664-.4255981-.2241211-.0001221-.0054932-.0011597-.0123291-.0011597-.0175781-.0582428-21.8581409-.0381241-14.3076763-.0424805-15.9433575-.0054283-.3452225.2702599-.9204998.6577148-1.1445313L68.3474121 8.9432116c.0098267-.0056152.0159302-.0061035.0252686-.0109863.274559-.141613.4019775-.0296612.4019775.2575684l.0454102 15.9384775C68.8215332 25.541357 68.5187988 26.0652828 68.1594238 26.2728024zM41.7502441 22.0535641L66.4104004 7.8123527c.0830078-.0478516.1645508-.074707.2299805-.074707.0317383 0 .0581055.0063477.0805664.0195313l1.355957.7885737-24.625 14.2177744c-.2112885.1241341-.3711281.2967968-.5319824.5284424l-1.5479126-.8619385C41.4810181 22.2741451 41.6077271 22.1348629 41.7502441 22.0535641zM41.2443848 39.4353981c-.0708008-.0419922-.1113281-.1503906-.1113281-.2978516-.0188293-16.9058132-.0970306-15.9198208.0192261-16.2834454l1.5413208.8582764c-.0837746.2106819-.139904.5213089-.1396484.6160889.0044441 1.625391-.016098-5.8872261.043457 15.8940411L41.2443848 39.4353981zM69.776123 35.7850075c0-1.0952835-.9390335-1.5534286-1.7524414-.9960938C44.3020287 48.5330009 45.7042656 47.5593605 45.2683105 48.07407c-.1004143.0996246-.3412132.4039536-.5112305.7038574l-1.8994141-.9831543c-.1166992-.0600586-.2607422-.0151367-.3217773.1020508-.0605469.1171875-.0146484.2612305.1020508.3217773l1.9226074.9951172c-.1407356.3369522-.204834.6859436-.204834.9902344l.0390625 17.3911171c0 1.0181503.7863503 1.5539627 1.7524414 1.0092773l22.1796875-12.8256874c.8422852-.4790039 1.5019531-1.6162109 1.5019531-2.5893555L69.776123 35.7850075zM45.6174316 48.398777c.2631187-.3062553-1.4728851.7708321 22.762207-13.2490234.2673492-.1520386.3920517-.1134872.5708008-.0786133L56.8034668 53.9436989 45.190979 48.9760475C45.2617149 48.8745422 45.4374657 48.5802917 45.6174316 48.398777zM68.0891113 55.3645973L45.9108887 68.1897964c-.6359062.3582535-1.0385742.0624313-1.0385742-.5952148L44.833252 50.2034645c0-.2300911.0495605-.5207443.1604004-.7924805l11.807373 5.0507813c.0302734.0131836.0620117.0195313.09375.0195313.0791016 0 .1557617-.0395508.2006836-.1098633l12.1607666-18.894165c.0241699.0921631.0423584.1915283.0423584.3082275l.0527344 17.4042969C69.3513184 53.9793434 68.7741699 54.9749489 68.0891113 55.3645973z"/><g><path d="M36.3718262 11.6927233l-2.5395508-1.4790039c-.5053711-.2988281-1.1762695-.2539063-1.8505878.1333008L11.2131329 22.3396969c-1.2104492.6972656-2.1582031 2.331543-2.1582031 3.7216797l.1264648 42.609375c0 .7358398.2875977 1.3310547.796875 1.6386719l2.3803711 1.3710938c.5861244.4501572 1.3547211.3385696 2.0078125-.0283203l20.7685566-11.9926796c1.2050781-.6943359 2.1489258-2.3325195 2.1489258-3.730957L37.1672363 13.320653C37.1560059 12.5711412 36.8674316 11.9822741 36.3718262 11.6927233zM34.657959 58.832859L13.8942852 70.8230972c-.3891602.2177734-.6723633.309082-1.0058594.065918l-2.4248047-1.4013672c-.2084961-.1259766-.328125-.4233398-.328125-.8183594l-.1264648-42.609375c0-1.043457.7695313-2.3681641 1.6811523-2.8935547l20.7685566-11.9926767c.2593689-.1493177.6348839-.2874517.890625-.1367188l2.4296875 1.418457c.0904121.1001167.4217491.0963192.434082.8740234L36.329834 55.930027C36.329834 56.9812965 35.564209 58.3103981 34.657959 58.832859zM43.8601074 41.1277809l24.6621094-14.2348614c.5776367-.3398438 1.0131836-1.0996094 1.0131836-1.7695313L69.4875488 9.1902819c0-.4462891-.1914063-.7939453-.4916992-.9355469l-1.909668-1.1127925c-.2871094-.171875-.6806641-.1538086-1.034668.0512695L41.3942871 21.4324703c-.5805664.331543-1.0180664 1.0898438-1.0180664 1.765625l.0410156 15.9399395c0 .4052734.1674805.737793.4648438.9150391l1.8647461 1.0849609C43.0235977 41.3349686 43.4245796 41.3738136 43.8601074 41.1277809zM41.3713379 39.13657l-.0410156-15.9399395c0-.3291016.2563477-.7744141.5395508-.9365234L66.5300293 8.0188951c.0522461-.030273.0859375-.039062.0864258-.0463862l1.8989258 1.0966792c.0048828.0087891.0180664.0473633.0180664.1225586l.0478516 15.9331064c0 .3334961-.253418.7753906-.5395508.9433594L43.3869629 40.2986794c-.0566406.0322266-.0927734.0419922-.1088867.0449219-.0078125-.0048828-.0151367-.0097656-.0229492-.0141602l-1.8657227-1.0786133C41.3845215 39.2430153 41.3713379 39.2063942 41.3713379 39.13657zM69.8962402 35.7820778c0-.5912285-.255455-1.0000725-.5883789-1.1982422l-2.065918-1.1987305c-.3637695-.2177734-.8662109-.1835938-1.3398438.0947266L43.7277832 46.3011208c-.8837891.5092773-1.5673828 1.6977539-1.5561523 2.703125l.0488281 17.3994179c0 .5410156.2094727.9765625.5795898 1.1987305l1.9819336 1.1425781c.4296494.3103027.9600601.2202759 1.4223633-.0390625l22.1865234-12.8222694c.871582-.5087891 1.5541992-1.6953125 1.5541992-2.7021484L69.8962402 35.7820778zM68.0310059 55.2644997L45.8498535 68.0838394c-.4359131.2441406-.607254.0999832-.7104492.0410156l-1.9765625-1.1396484c-.1416016-.0849609-.2265625-.3022461-.2265625-.5825195l-.0488281-17.4033241c-.0083008-.7475586.5400391-1.6992188 1.1982422-2.078125L66.2629395 34.098484c.1783447-.104908.4374466-.202343.6152344-.0966797l1.9619141 1.1381836c.1000671.0906296.340332.1157799.340332.6430664l.0488281 17.3994141C69.229248 53.9319801 68.6799316 54.8860817 68.0310059 55.2644997z"/></g></g><g><polygon fill="#EF473E" points="67.978 50.097 67.986 53.228 47.384 65.122 47.375 61.992"/><polygon fill="#FFF" points="55.734 57.784 55.736 58.418 56.125 57.739 56.296 57.831 55.906 58.51 56.458 58.191 56.459 58.46 55.907 58.779 56.299 59.002 56.13 59.296 55.738 59.072 55.739 59.707 55.502 59.844 55.5 59.209 55.11 59.884 54.944 59.785 55.334 59.11 54.781 59.429 54.781 59.16 55.333 58.841 54.941 58.613 55.106 58.327 55.498 58.555 55.496 57.921"/><polygon fill="#FFF" points="63.987 52.983 63.988 53.617 64.382 52.935 64.553 53.028 64.159 53.709 64.711 53.391 64.712 53.659 64.16 53.978 64.556 54.199 64.387 54.492 63.99 54.271 63.992 54.906 63.758 55.041 63.757 54.406 63.367 55.081 63.201 54.981 63.59 54.307 63.038 54.625 63.038 54.357 63.59 54.038 63.198 53.81 63.363 53.524 63.755 53.752 63.753 53.118"/><polygon fill="#FFF" points="59.865 55.381 59.866 56.015 60.256 55.336 60.422 55.43 60.028 56.112 60.581 55.794 60.581 56.062 60.029 56.381 60.425 56.602 60.26 56.893 59.868 56.669 59.87 57.304 59.632 57.441 59.63 56.807 59.241 57.481 59.07 57.384 59.46 56.709 58.908 57.028 58.907 56.76 59.459 56.441 59.067 56.213 59.236 55.924 59.628 56.153 59.627 55.518"/><polygon fill="#FFF" points="51.608 60.184 51.609 60.818 51.999 60.139 52.165 60.234 51.776 60.913 52.328 60.594 52.329 60.863 51.776 61.182 52.168 61.405 52.003 61.696 51.611 61.473 51.613 62.107 51.375 62.244 51.373 61.61 50.984 62.285 50.813 62.187 51.203 61.513 50.651 61.832 50.65 61.563 51.202 61.244 50.81 61.016 50.979 60.728 51.372 60.956 51.37 60.321"/></g></g></svg>