<svg xmlns="http://www.w3.org/2000/svg" width="24" height="24" enable-background="new 0 0 51 40" viewBox="0 0 51 40"><path fill="#E5F0F9" d="M50.00006,27.71377c0,4.09281-3.32063,7.41343-7.4135,7.41343c-3.87215,0-29.48837,0-33.17307,0
				c-4.09281,0-7.41343-3.32063-7.41343-7.41343c0-4.09287,3.32063-7.4135,7.41343-7.4135c0.3972,0,0.79434,0.03313,1.18043,0.09932
				c0.80407-4.91702,6.16706-7.5792,10.50243-5.46082c1.36795-4.44584,5.51597-7.67826,10.41416-7.67826
				c6.84595,0,12.04686,6.27311,10.66787,13.06185c0.13238-0.02209,0.2758-0.02209,0.40818-0.02209
				C46.67943,20.30027,50.00006,23.6209,50.00006,27.71377z"/><path d="M50.0008,27.71308c0,4.09003-3.32007,7.41004-7.41003,7.41004H9.41071c-3.03992,0-5.6499-1.83002-6.79993-4.45001
				c0.91003,0.39001,1.91003,0.60999,2.96008,0.60999h33.16992c4.09009,0,7.41992-3.32001,7.41992-7.40997
				c0-1.04999-0.21997-2.06-0.60986-2.96002C48.17072,22.06312,50.0008,24.67311,50.0008,27.71308z" opacity=".07"/><g><path fill="#70C392" d="M38.44592,35.12691h-2.01499c-0.42195,0-0.76719-0.34523-0.76719-0.76718L35.6637,22.81795
				c0-0.82077-0.67154-1.49231-1.49232-1.49231l-5.48839,0c-0.81955,0-1.48392,0.66437-1.48392,1.48392l0.00003,12.31736h-2.78218
				c-0.65763,0-1.00327,0.76719-0.57329,1.26463l7.00608,8.08514c0.16019,0.17707,0.37096,0.26979,0.58173,0.26979
				s0.42154-0.09273,0.57329-0.26979l7.01447-8.08515C39.44919,35.8941,39.09506,35.12691,38.44592,35.12691z"/><path d="M38.44592,35.12691h-2.01499c-0.42195,0-0.76719-0.34523-0.76719-0.76718L35.6637,22.81795
				c0-0.82077-0.67154-1.49231-1.49232-1.49231h-2.01487c-0.40048,0-0.72513,0.32465-0.72513,0.72512l0.00006,22.69571
				c0.21077,0,0.42154-0.09273,0.57329-0.26979l7.01447-8.08515C39.44919,35.8941,39.09506,35.12691,38.44592,35.12691z" opacity=".05"/><path fill="#293C66" d="M43.33887,19.33326C44.04403,12.36439,38.56384,6.2605,31.51074,6.2605
			c-4.8916,0-9.18652,2.91553-11.00392,7.35938c-4.38424-1.45712-9.3731,0.98959-10.69432,5.68994
			c-0.13281-0.00635-0.26563-0.00977-0.39941-0.00977C4.77441,19.30006,1,23.07447,1,27.71363s3.77441,8.41357,8.41309,8.41357
			h13.2605c0.04468,0.33167,0.18378,0.65027,0.41626,0.91846l7.00781,8.08496c0.33594,0.38721,0.82129,0.60889,1.33301,0.60889
			s0.99707-0.22168,1.33301-0.60889c7.18373-8.44182,7.2993-8.07716,7.42407-9.00342h2.39917
			C47.22559,36.1272,51,32.35279,51,27.71363C51,23.32789,47.62695,19.7151,43.33887,19.33326z M31.43066,43.615l-6.49023-7.48779
			h2.25391c0.55273,0,1-0.44775,1-1V22.81812c0-0.26953,0.21973-0.48877,0.48926-0.48877h5.49414
			c0.26953,0,0.48926,0.21924,0.48926,0.48877v11.54541c0,0.97266,0.79102,1.76367,1.76367,1.76367h1.49023L31.43066,43.615z
			 M42.58691,34.1272c-0.22546,0-6.17639,0-5.91992,0V22.81812c0-1.37207-1.11621-2.48877-2.48926-2.48877h-5.49414
			c-1.37305,0-2.48926,1.1167-2.48926,2.48877V34.1272c-2.81984,0-10.23653,0-16.78125,0C5.87695,34.1272,3,31.25025,3,27.71363
			s2.87695-6.41357,6.41309-6.41357c0.34277,0,0.68262,0.02881,1.01074,0.08496c0.26367,0.04688,0.53418-0.01563,0.75-0.1709
			c0.21777-0.15479,0.36328-0.38965,0.40723-0.65283c0.70435-4.30535,5.36214-6.53941,9.07715-4.72412
			c0.26172,0.12939,0.56836,0.13525,0.83594,0.01904c0.26855-0.11621,0.47266-0.34424,0.55859-0.62354
			c1.28223-4.17041,5.08301-6.97217,9.45801-6.97217c6.22932,0,10.93897,5.71025,9.6875,11.86279
			c-0.06543,0.32324,0.0332,0.6582,0.2627,0.89502c0.22852,0.2373,0.5625,0.34375,0.88574,0.29004
			c0.07715-0.01318,0.16211-0.00781,0.24023-0.0083c3.53613,0,6.41309,2.87695,6.41309,6.41357S46.12305,34.1272,42.58691,34.1272z"/></g></svg>
