<?xml version="1.0" encoding="UTF-8"?>
<svg width="18" height="18" xmlns="http://www.w3.org/2000/svg" xmlns:xlink="http://www.w3.org/1999/xlink" version="1.1" id="Layer_1" x="0px" y="0px" viewBox="0 0 24 24" style="enable-background:new 0 0 24 24;" xml:space="preserve">
<g>
	<path style="fill:#303C42;" d="M20.854,5.146l-5-5C15.76,0.053,15.633,0,15.5,0H5C3.897,0,3,0.897,3,2v20c0,1.103,0.897,2,2,2h14   c1.103,0,2-0.897,2-2V5.5C21,5.367,20.947,5.24,20.854,5.146z"/>
	<path style="fill:#7DDDE9;" d="M16,1.707L19.293,5H17c-0.551,0-1-0.449-1-1V1.707z"/>
	<path style="fill:#42A5F5;" d="M19,23H5c-0.551,0-1-0.449-1-1V2c0-0.551,0.449-1,1-1h10v3c0,1.103,0.897,2,2,2h3v16   C20,22.551,19.551,23,19,23z"/>
	<path style="fill:#FFFFFF;" d="M16.5,11h-9C7.224,11,7,11.224,7,11.5S7.224,12,7.5,12h9c0.276,0,0.5-0.224,0.5-0.5   S16.776,11,16.5,11z"/>
	<path style="fill:#FFFFFF;" d="M16.5,13h-9C7.224,13,7,13.224,7,13.5S7.224,14,7.5,14h9c0.276,0,0.5-0.224,0.5-0.5   S16.776,13,16.5,13z"/>
	<path style="fill:#FFFFFF;" d="M16.5,15h-9C7.224,15,7,15.224,7,15.5S7.224,16,7.5,16h9c0.276,0,0.5-0.224,0.5-0.5   S16.776,15,16.5,15z"/>
	<path style="fill:#FFFFFF;" d="M12.5,17h-5C7.224,17,7,17.224,7,17.5S7.224,18,7.5,18h5c0.276,0,0.5-0.224,0.5-0.5   S12.776,17,12.5,17z"/>
	<linearGradient id="SVGID_1_" gradientUnits="userSpaceOnUse" x1="16.5887" y1="4.4994" x2="20.9554" y2="8.8661">
		<stop offset="0" style="stop-color:#000000;stop-opacity:0.1"/>
		<stop offset="1" style="stop-color:#000000;stop-opacity:0"/>
	</linearGradient>
	<path style="fill:url(#SVGID_1_);" d="M20,9.821V6h-3c-0.529,0-1.007-0.21-1.365-0.546l-0.002,0.001L20,9.821z"/>
	<linearGradient id="SVGID_2_" gradientUnits="userSpaceOnUse" x1="0.2652" y1="7.4215" x2="23.0503" y2="18.0464">
		<stop offset="0" style="stop-color:#FFFFFF;stop-opacity:0.2"/>
		<stop offset="1" style="stop-color:#FFFFFF;stop-opacity:0"/>
	</linearGradient>
	<path style="fill:url(#SVGID_2_);" d="M20.854,5.146l-5-5C15.76,0.053,15.633,0,15.5,0H5C3.897,0,3,0.897,3,2v20   c0,1.103,0.897,2,2,2h14c1.103,0,2-0.897,2-2V5.5C21,5.367,20.947,5.24,20.854,5.146z"/>
</g>
<g>
</g>
<g>
</g>
<g>
</g>
<g>
</g>
<g>
</g>
<g>
</g>
<g>
</g>
<g>
</g>
<g>
</g>
<g>
</g>
<g>
</g>
<g>
</g>
<g>
</g>
<g>
</g>
<g>
</g>

	<metadata>
		<rdf:RDF xmlns:rdf="http://www.w3.org/1999/02/22-rdf-syntax-ns#" xmlns:rdfs="http://www.w3.org/2000/01/rdf-schema#" xmlns:dc="http://purl.org/dc/elements/1.1/">
			<rdf:Description about="https://iconscout.com/legal#licenses" dc:title="logo; brand; brands; logos; docs; google" dc:description="logo; brand; brands; logos; docs; google" dc:publisher="Iconscout" dc:date="2017-03-22" dc:format="image/svg+xml" dc:language="en">
				<dc:creator>
					<rdf:Bag>
						<rdf:li>Alpár - Etele Méder</rdf:li>
					</rdf:Bag>
				</dc:creator>
			</rdf:Description>
		</rdf:RDF>
    </metadata></svg>
