<?xml version="1.0" encoding="utf-8"?>
<!-- Generator: Adobe Illustrator 19.1.1, SVG Export Plug-In . SVG Version: 6.00 Build 0)  -->
<svg version="1.1" id="Layer_1" xmlns="http://www.w3.org/2000/svg" xmlns:xlink="http://www.w3.org/1999/xlink" x="0px" y="0px"
	 width="24" height="24" viewBox="0 0 1200 1200" enable-background="new 0 0 1200 1200" xml:space="preserve">
<g>
	<path fill="#FC523A" d="M1065.124,936.216c0-31.534-25.657-57.19-57.194-57.19c-31.534,0-57.19,25.656-57.19,57.19
		c0,3.596,0.374,7.103,1.012,10.517l41.988,44.823c4.547,1.168,9.285,1.855,14.191,1.855
		C1039.468,993.411,1065.124,967.754,1065.124,936.216z"/>
	<path fill="#FC523A" d="M895.643,525.015c-0.329,0.285-0.68,0.525-1.065,0.716c-0.084,0.042-0.142,0.117-0.229,0.154l-21.714,9.422
		l16.609,7.909l6.448-18.234C895.678,524.994,895.658,525.002,895.643,525.015z"/>
	<path fill="#FC523A" d="M160.646,271.418c7.242,0,13.136-5.89,13.136-13.132c0-7.243-5.894-13.136-13.136-13.136
		c-7.243,0-13.132,5.894-13.132,13.136C147.514,265.528,153.403,271.418,160.646,271.418z"/>
	<path fill="#FC523A" d="M177.48,634.059c27.764,0,50.354-22.59,50.354-50.354s-22.59-50.354-50.354-50.354
		c-27.764,0-50.354,22.59-50.354,50.354S149.716,634.059,177.48,634.059z"/>
	<path fill="#FC523A" d="M280.964,800.933c14.384,0,26.084-11.704,26.084-26.088c0-14.385-11.699-26.083-26.084-26.083
		c-14.384,0-26.088,11.699-26.088,26.083C254.875,789.23,266.579,800.933,280.964,800.933z"/>
	<path fill="#FC523A" d="M121.804,1002.277c-6.137,0-11.126,4.989-11.126,11.125s4.989,11.126,11.126,11.126
		c6.137,0,11.126-4.989,11.126-11.126S127.941,1002.277,121.804,1002.277z"/>
	<path fill="#FC523A" d="M1028.109,340.075c-24.103,0-43.715,19.612-43.715,43.715c0,24.103,19.612,43.71,43.715,43.71
		s43.715-19.608,43.715-43.71C1071.824,359.687,1052.211,340.075,1028.109,340.075z"/>
	<path fill="#FC523A" d="M1042.12,182.709H800.068l97.189,337.003c0.102,0.352,0.078,0.703,0.104,1.056
		c0.019,0.245,0.088,0.477,0.071,0.724c-0.026,0.382-0.154,0.733-0.261,1.095l-0.148,24.333l-7.779-3.705l-86.462,244.489l0,0
		l139.394,148.807c-0.001-0.099-0.015-0.195-0.015-0.295c0-36.267,29.502-65.769,65.769-65.769
		c36.267,0,65.773,29.502,65.773,65.769s-29.506,65.773-65.773,65.773c-1.565,0-3.099-0.127-4.637-0.235l24.816,26.491h0v60.458
		H177.48v-60.458h0.001l228.868-244.319l0,0l-22.171-68.931l-8.011,8.01c-0.837,0.839-1.935,1.257-3.032,1.257
		c-1.098,0-2.196-0.418-3.033-1.257c-1.677-1.675-1.677-4.389,0-6.065l11.123-11.125l-4.878-15.166h-17.133
		c-2.371,0-4.29-1.917-4.29-4.288c0-2.371,1.918-4.29,4.29-4.29h14.373l-37.235-115.767l-2.604-1.263
		c-0.088-0.043-0.14-0.124-0.225-0.172l-0.324-0.204l-0.389-0.242l-0.38-0.35l-0.158-0.156c-0.054-0.058-0.126-0.096-0.177-0.156
		c-0.07-0.081-0.097-0.189-0.161-0.273l-0.107-0.155l-0.21-0.323l-0.103-0.252c-0.144-0.273-0.318-0.523-0.411-0.816
		c-0.014-0.043-0.051-0.074-0.063-0.118l-33.626-116.59l-69.834-217.12l8.362,3.982l-8.534-29.588
		c-0.102-0.352-0.078-0.703-0.104-1.057c-0.019-0.244-0.088-0.477-0.071-0.724c0.045-0.658,0.204-1.294,0.485-1.88
		c0.004-0.008,0.003-0.018,0.007-0.026c0.043-0.089,0.125-0.14,0.172-0.226c0.264-0.477,0.58-0.921,0.987-1.297
		c0.203-0.188,0.445-0.301,0.673-0.453c0.255-0.17,0.47-0.385,0.76-0.511l31.411-13.628H157.88
		c-37.541,0-67.975,30.432-67.975,67.975v831.34c0,37.542,30.434,67.976,67.975,67.976h884.24c37.542,0,67.975-30.434,67.975-67.976
		v-831.34C1110.095,213.141,1079.663,182.709,1042.12,182.709z M832.91,709.538c0-2.37,1.918-4.288,4.29-4.288h19.646
		c2.37,0,4.288,1.919,4.288,4.288c0,2.371-1.918,4.29-4.288,4.29h-19.646C834.828,713.828,832.91,711.909,832.91,709.538z
		 M868.364,733.054l-13.894,13.895c-1.671,1.676-4.39,1.676-6.065,0c-0.838-0.838-1.257-1.935-1.257-3.033s0.419-2.195,1.257-3.033
		l13.894-13.894c1.676-1.676,4.39-1.676,6.065,0C870.04,728.664,870.04,731.379,868.364,733.054z M868.364,692.092
		c-1.675,1.676-4.39,1.676-6.065,0l-13.894-13.894c-0.838-0.838-1.257-1.936-1.257-3.033c0-1.097,0.419-2.195,1.257-3.033
		c1.675-1.676,4.394-1.676,6.065,0l13.894,13.895C870.04,687.702,870.04,690.416,868.364,692.092z M890.1,758.154
		c0,2.371-1.919,4.289-4.289,4.289c-2.371,0-4.289-1.918-4.289-4.289v-19.65c0-2.371,1.919-4.289,4.289-4.289
		c2.371,0,4.289,1.919,4.289,4.289V758.154z M890.1,680.577c0,2.371-1.919,4.289-4.289,4.289c-2.371,0-4.289-1.919-4.289-4.289
		v-19.65c0-2.371,1.919-4.289,4.289-4.289c2.371,0,4.289,1.918,4.289,4.289V680.577z M184.769,844.7
		c0,2.371-1.919,4.289-4.289,4.289c-2.371,0-4.289-1.918-4.289-4.289v-7.754c0-2.371,1.919-4.289,4.289-4.289
		c2.371,0,4.289,1.919,4.289,4.289V844.7z M206.082,894.471c-0.838,0.838-1.935,1.257-3.033,1.257s-2.195-0.419-3.033-1.257
		l-1.709-1.709l-0.013-0.012l-3.757-3.757c-1.676-1.676-1.676-4.39,0-6.066c1.676-1.676,4.39-1.676,6.065,0l3.757,3.757l0.021,0.021
		l0.034,0.034c0.566,0.565,0.943,1.252,1.127,1.977l0.54-0.31C207.757,890.081,207.757,892.795,206.082,894.471z M194.537,848.745
		l3.774-3.778h0.004l0.029-0.034l0.406-0.348c0.423-0.482,0.863-0.922,1.265-1.323c1.676-1.676,4.39-1.676,6.065,0
		c1.676,1.671,1.676,4.39,0,6.065l-1.646,1.65l-0.021,0.021l-3.812,3.812c-0.838,0.838-1.935,1.257-3.033,1.257
		c-1.097,0-2.195-0.419-3.033-1.257C192.862,853.14,192.862,850.421,194.537,848.745z M212.398,873.158h-7.749
		c-2.371,0-4.289-1.918-4.289-4.289c0-2.371,1.919-4.289,4.289-4.289h5.391c0.8,0,1.55,0.218,2.191,0.603l0.167-0.603
		c2.371,0,4.289,1.918,4.289,4.289C216.688,871.24,214.77,873.158,212.398,873.158z M280.964,740.183
		c19.114,0,34.663,15.549,34.663,34.662c0,19.114-15.549,34.667-34.663,34.667c-19.114,0-34.667-15.553-34.667-34.667
		C246.297,755.732,261.85,740.183,280.964,740.183z M213.691,425.206c0,2.371-1.919,4.289-4.289,4.289h-17.585
		c-2.371,0-4.289-1.919-4.289-4.289s1.918-4.289,4.289-4.289h17.585C211.772,420.917,213.691,422.835,213.691,425.206z
		 M200.236,457.691c-0.838,0.838-1.935,1.256-3.033,1.256s-2.195-0.419-3.033-1.256l-12.437-12.433
		c-1.676-1.675-1.676-4.389,0-6.065c1.676-1.676,4.39-1.676,6.065,0l12.437,12.432C201.912,453.297,201.912,456.015,200.236,457.691
		z M200.236,392.718c1.675,1.676,1.675,4.39,0,6.066l-12.437,12.432c-0.838,0.838-1.935,1.257-3.033,1.257
		c-1.098,0-2.195-0.419-3.033-1.257c-1.676-1.676-1.676-4.394,0-6.066l12.437-12.432
		C195.846,391.042,198.561,391.042,200.236,392.718z M160.646,236.571c11.972,0,21.715,9.743,21.715,21.715
		c0,11.972-9.743,21.711-21.715,21.711c-11.972,0-21.711-9.739-21.711-21.711C138.935,246.314,148.674,236.571,160.646,236.571z
		 M167.748,405.422c-2.371,0-4.289-1.919-4.289-4.289v-17.585c0-2.371,1.919-4.289,4.289-4.289s4.289,1.919,4.289,4.289v17.585
		C172.037,403.504,170.118,405.422,167.748,405.422z M172.037,449.275v17.585c0,2.371-1.919,4.289-4.289,4.289
		s-4.289-1.919-4.289-4.289v-17.585c0-2.371,1.919-4.289,4.289-4.289S172.037,446.904,172.037,449.275z M135.259,392.718
		c1.675-1.676,4.39-1.676,6.065,0l12.432,12.432c1.676,1.676,1.676,4.39,0,6.066c-0.838,0.838-1.935,1.257-3.033,1.257
		c-1.097,0-2.195-0.419-3.033-1.257l-12.432-12.432C133.583,397.108,133.583,394.393,135.259,392.718z M153.757,445.258
		l-12.432,12.433c-0.838,0.838-1.935,1.256-3.033,1.256s-2.195-0.419-3.033-1.256c-1.676-1.676-1.676-4.394,0-6.066l12.432-12.432
		c1.676-1.676,4.39-1.676,6.065,0C155.432,440.864,155.432,443.583,153.757,445.258z M126.094,420.917h17.581
		c2.371,0,4.289,1.919,4.289,4.289s-1.919,4.289-4.289,4.289h-17.581c-2.371,0-4.289-1.919-4.289-4.289
		S123.723,420.917,126.094,420.917z M177.48,524.773c32.497,0,58.933,26.436,58.933,58.932c0,32.497-26.436,58.933-58.933,58.933
		s-58.933-26.436-58.933-58.933C118.547,551.208,144.983,524.773,177.48,524.773z M121.804,1033.107
		c-10.866,0-19.704-8.838-19.704-19.704c0-10.866,8.838-19.704,19.704-19.704s19.704,8.839,19.704,19.704
		C141.509,1024.269,132.67,1033.107,121.804,1033.107z M144.267,868.869c0-2.371,1.919-4.289,4.289-4.289h7.754
		c2.371,0,4.289,1.918,4.289,4.289c0,2.371-1.919,4.289-4.289,4.289h-7.754C146.186,873.158,144.267,871.24,144.267,868.869z
		 M166.422,888.992l-3.812,3.812l-0.021,0.021l-1.65,1.646c-0.838,0.838-1.935,1.257-3.033,1.257c-1.098,0-2.195-0.419-3.033-1.257
		c-1.675-1.676-1.675-4.394,0-6.065c0.394-0.394,0.825-0.825,1.294-1.24l0.377-0.427l0.059,0.059l-0.059-0.063l3.812-3.808
		c1.675-1.676,4.39-1.676,6.065,0C168.097,884.602,168.097,887.321,166.422,888.992z M166.422,854.811
		c-0.838,0.838-1.935,1.257-3.033,1.257c-1.098,0-2.195-0.419-3.033-1.257l-3.816-3.812c-0.566-0.57-0.943-1.257-1.122-1.981
		l-0.545,0.31c-1.675-1.675-1.675-4.39,0-6.065c1.676-1.676,4.39-1.676,6.066,0l5.483,5.483
		C168.097,850.421,168.097,853.135,166.422,854.811z M176.19,900.788v-7.749c0-2.371,1.919-4.289,4.289-4.289
		c2.371,0,4.289,1.918,4.289,4.289v5.391c0,0.8-0.218,1.55-0.603,2.19l0.603,0.168c0,2.371-1.919,4.289-4.289,4.289
		C178.109,905.077,176.19,903.159,176.19,900.788z M932.722,268.982c0,2.371-1.919,4.289-4.289,4.289h-10.728
		c-2.371,0-4.289-1.919-4.289-4.289s1.919-4.289,4.289-4.289h10.728C930.803,264.693,932.722,266.611,932.722,268.982z
		 M908.464,250.962l7.586-7.582c1.676-1.676,4.39-1.676,6.066,0c1.675,1.676,1.675,4.394,0,6.066l-7.586,7.581
		c-0.838,0.838-1.935,1.257-3.033,1.257c-1.098,0-2.195-0.419-3.033-1.257C906.788,255.352,906.788,252.637,908.464,250.962z
		 M908.464,280.937c1.676-1.676,4.39-1.676,6.066,0l7.586,7.586c1.675,1.676,1.675,4.39,0,6.066
		c-0.838,0.838-1.935,1.256-3.033,1.256s-2.195-0.419-3.033-1.256l-7.586-7.586C906.788,285.327,906.788,282.613,908.464,280.937z
		 M903.261,686.027l13.89-13.895c1.672-1.676,4.39-1.676,6.066,0c1.675,1.676,1.675,4.39,0,6.066l-13.89,13.894
		c-1.676,1.676-4.39,1.676-6.066,0c-0.838-0.838-1.257-1.935-1.257-3.033C902.005,687.962,902.423,686.864,903.261,686.027z
		 M860.301,268.982c0-2.371,1.918-4.289,4.289-4.289h10.723c2.371,0,4.289,1.919,4.289,4.289s-1.919,4.289-4.289,4.289H864.59
		C862.219,273.272,860.301,271.353,860.301,268.982z M884.554,287.003l-7.582,7.586c-0.838,0.838-1.935,1.256-3.033,1.256
		c-1.097,0-2.195-0.419-3.033-1.256c-1.676-1.672-1.676-4.39,0-6.066l7.582-7.586c1.676-1.676,4.39-1.676,6.066,0
		C886.229,282.613,886.229,285.327,884.554,287.003z M884.554,257.027c-0.838,0.838-1.935,1.257-3.033,1.257
		s-2.195-0.419-3.033-1.257l-7.582-7.581c-1.676-1.676-1.676-4.39,0-6.066c1.675-1.676,4.39-1.676,6.065,0l7.582,7.582
		C886.229,252.637,886.229,255.352,884.554,257.027z M900.798,300.905c0,2.371-1.919,4.289-4.289,4.289s-4.289-1.918-4.289-4.289
		v-10.727c0-2.371,1.919-4.289,4.289-4.289s4.289,1.919,4.289,4.289V300.905z M900.798,247.786c0,2.371-1.919,4.289-4.289,4.289
		s-4.289-1.919-4.289-4.289v-10.723c0-2.371,1.919-4.289,4.289-4.289s4.289,1.919,4.289,4.289V247.786z M923.217,746.949
		c-1.676,1.676-4.394,1.676-6.066,0l-13.89-13.895c-0.838-0.838-1.257-1.935-1.257-3.033s0.419-2.195,1.257-3.033
		c1.676-1.676,4.39-1.676,6.066,0l13.89,13.894C924.892,742.559,924.892,745.273,923.217,746.949z M934.422,713.828h-19.646
		c-2.371,0-4.289-1.919-4.289-4.289s1.919-4.289,4.289-4.289h19.646c2.371,0,4.289,1.919,4.289,4.289
		S936.793,713.828,934.422,713.828z M966.203,576.851c-14.979,0-27.169-12.185-27.169-27.165c0-14.979,12.19-27.164,27.169-27.164
		s27.164,12.185,27.164,27.164C993.367,564.666,981.182,576.851,966.203,576.851z M1028.109,436.078
		c-28.836,0-52.293-23.457-52.293-52.289c0-28.836,23.457-52.293,52.293-52.293c28.836,0,52.294,23.457,52.294,52.293
		C1080.402,412.621,1056.945,436.078,1028.109,436.078z"/>
	<path fill="#FC523A" d="M966.203,531.1c-10.25,0-18.59,8.336-18.59,18.586c0,10.25,8.34,18.586,18.59,18.586
		s18.586-8.336,18.586-18.586C984.789,539.436,976.453,531.1,966.203,531.1z"/>
	<path fill="#FFFFFF" d="M1028.109,331.496c-28.836,0-52.293,23.457-52.293,52.293c0,28.832,23.457,52.289,52.293,52.289
		c28.836,0,52.294-23.457,52.294-52.289C1080.402,354.953,1056.945,331.496,1028.109,331.496z M1028.109,427.5
		c-24.103,0-43.715-19.608-43.715-43.71c0-24.103,19.612-43.715,43.715-43.715s43.715,19.612,43.715,43.715
		C1071.824,407.892,1052.211,427.5,1028.109,427.5z"/>
	<path fill="#50BAC9" d="M966.203,522.521c-14.979,0-27.169,12.185-27.169,27.164c0,14.98,12.19,27.165,27.169,27.165
		s27.164-12.185,27.164-27.165C993.367,534.707,981.182,522.521,966.203,522.521z M966.203,568.272
		c-10.25,0-18.59-8.336-18.59-18.586c0-10.25,8.34-18.586,18.59-18.586s18.586,8.336,18.586,18.586
		C984.789,559.936,976.453,568.272,966.203,568.272z"/>
	<path fill="#50BAC9" d="M280.964,809.512c19.114,0,34.663-15.553,34.663-34.667c0-19.113-15.549-34.662-34.663-34.662
		c-19.114,0-34.667,15.549-34.667,34.662C246.297,793.959,261.85,809.512,280.964,809.512z M280.964,748.762
		c14.384,0,26.084,11.699,26.084,26.083c0,14.384-11.699,26.088-26.084,26.088c-14.384,0-26.088-11.704-26.088-26.088
		C254.875,760.461,266.579,748.762,280.964,748.762z"/>
	<path fill="#FFFFFF" d="M121.804,993.699c-10.866,0-19.704,8.839-19.704,19.704c0,10.866,8.838,19.704,19.704,19.704
		s19.704-8.838,19.704-19.704C141.509,1002.537,132.67,993.699,121.804,993.699z M121.804,1024.528
		c-6.137,0-11.126-4.989-11.126-11.126s4.989-11.125,11.126-11.125c6.137,0,11.126,4.989,11.126,11.125
		S127.941,1024.528,121.804,1024.528z"/>
	<path fill="#FFFFFF" d="M177.48,642.638c32.497,0,58.933-26.436,58.933-58.933c0-32.497-26.436-58.932-58.933-58.932
		s-58.933,26.436-58.933,58.932C118.547,616.202,144.983,642.638,177.48,642.638z M177.48,533.351
		c27.764,0,50.354,22.59,50.354,50.354s-22.59,50.354-50.354,50.354c-27.764,0-50.354-22.59-50.354-50.354
		S149.716,533.351,177.48,533.351z"/>
	<path fill="#FFFFFF" d="M160.646,279.996c11.972,0,21.715-9.739,21.715-21.711c0-11.972-9.743-21.715-21.715-21.715
		c-11.972,0-21.711,9.743-21.711,21.715C138.935,270.258,148.674,279.996,160.646,279.996z M160.646,245.149
		c7.242,0,13.136,5.894,13.136,13.136c0,7.243-5.894,13.132-13.136,13.132c-7.243,0-13.132-5.89-13.132-13.132
		C147.514,251.043,153.403,245.149,160.646,245.149z"/>
	<path fill="#50BAC9" d="M950.74,936.216c0-31.534,25.657-57.19,57.19-57.19c31.538,0,57.194,25.656,57.194,57.19
		c0,31.538-25.657,57.194-57.194,57.194c-4.906,0-9.644-0.687-14.191-1.855l9.554,10.198c1.538,0.108,3.072,0.235,4.637,0.235
		c36.267,0,65.773-29.506,65.773-65.773s-29.506-65.769-65.773-65.769c-36.267,0-65.769,29.502-65.769,65.769
		c0,0.1,0.014,0.195,0.015,0.295l9.575,10.222C951.113,943.319,950.74,939.813,950.74,936.216z"/>
	<path fill="#FFFFFF" d="M205.541,888.716c-0.184-0.725-0.561-1.412-1.127-1.977l-0.034-0.034l-0.021-0.021l-3.757-3.757
		c-1.675-1.676-4.39-1.676-6.065,0c-1.676,1.676-1.676,4.39,0,6.066l3.757,3.757l0.013,0.012l1.709,1.709
		c0.838,0.838,1.935,1.257,3.033,1.257s2.195-0.419,3.033-1.257c1.676-1.676,1.676-4.39,0-6.065L205.541,888.716z"/>
	<path fill="#FFFFFF" d="M160.939,843.263c-1.676-1.676-4.39-1.676-6.066,0c-1.675,1.675-1.675,4.39,0,6.065l0.545-0.31
		c0.18,0.725,0.557,1.412,1.122,1.981l3.816,3.812c0.838,0.838,1.935,1.257,3.033,1.257c1.097,0,2.195-0.419,3.033-1.257
		c1.676-1.676,1.676-4.39,0-6.066L160.939,843.263z"/>
	<path fill="#FFFFFF" d="M212.398,864.58l-0.167,0.603c-0.641-0.385-1.391-0.603-2.191-0.603h-5.391
		c-2.371,0-4.289,1.918-4.289,4.289c0,2.371,1.919,4.289,4.289,4.289h7.749c2.371,0,4.289-1.918,4.289-4.289
		C216.688,866.498,214.77,864.58,212.398,864.58z"/>
	<path fill="#FFFFFF" d="M160.599,868.869c0-2.371-1.919-4.289-4.289-4.289h-7.754c-2.371,0-4.289,1.918-4.289,4.289
		c0,2.371,1.919,4.289,4.289,4.289h7.754C158.681,873.158,160.599,871.24,160.599,868.869z"/>
	<path fill="#FFFFFF" d="M197.57,856.068c1.098,0,2.195-0.419,3.033-1.257l3.812-3.812l0.021-0.021l1.646-1.65
		c1.676-1.675,1.676-4.394,0-6.065c-1.675-1.676-4.39-1.676-6.065,0c-0.402,0.402-0.842,0.842-1.265,1.323l-0.406,0.348
		l-0.029,0.034h-0.004l-3.774,3.778c-1.676,1.676-1.676,4.394,0,6.066C195.375,855.649,196.473,856.068,197.57,856.068z"/>
	<path fill="#FFFFFF" d="M160.356,882.927l-3.812,3.808l0.059,0.063l-0.059-0.059l-0.377,0.427c-0.469,0.415-0.901,0.846-1.294,1.24
		c-1.675,1.671-1.675,4.389,0,6.065c0.838,0.838,1.935,1.257,3.033,1.257c1.097,0,2.195-0.419,3.033-1.257l1.65-1.646l0.021-0.021
		l3.812-3.812c1.676-1.672,1.676-4.39,0-6.066C164.746,881.251,162.032,881.251,160.356,882.927z"/>
	<path fill="#FFFFFF" d="M180.48,832.656c-2.371,0-4.289,1.919-4.289,4.289v7.754c0,2.371,1.919,4.289,4.289,4.289
		c2.371,0,4.289-1.918,4.289-4.289v-7.754C184.769,834.575,182.85,832.656,180.48,832.656z"/>
	<path fill="#FFFFFF" d="M184.769,900.788l-0.603-0.168c0.385-0.641,0.603-1.39,0.603-2.19v-5.391c0-2.371-1.919-4.289-4.289-4.289
		c-2.371,0-4.289,1.918-4.289,4.289v7.749c0,2.371,1.919,4.289,4.289,4.289C182.85,905.077,184.769,903.159,184.769,900.788z"/>
	<path fill="#FFFFFF" d="M916.05,294.589c0.838,0.838,1.935,1.256,3.033,1.256s2.195-0.419,3.033-1.256
		c1.675-1.676,1.675-4.39,0-6.066l-7.586-7.586c-1.676-1.676-4.39-1.676-6.066,0c-1.675,1.676-1.675,4.39,0,6.066L916.05,294.589z"
		/>
	<path fill="#FFFFFF" d="M876.972,243.38c-1.676-1.676-4.39-1.676-6.065,0c-1.676,1.676-1.676,4.39,0,6.066l7.582,7.581
		c0.838,0.838,1.935,1.257,3.033,1.257s2.195-0.419,3.033-1.257c1.675-1.675,1.675-4.389,0-6.065L876.972,243.38z"/>
	<path fill="#FFFFFF" d="M913.415,268.982c0,2.371,1.919,4.289,4.289,4.289h10.728c2.371,0,4.289-1.919,4.289-4.289
		s-1.919-4.289-4.289-4.289h-10.728C915.334,264.693,913.415,266.611,913.415,268.982z"/>
	<path fill="#FFFFFF" d="M879.603,268.982c0-2.371-1.919-4.289-4.289-4.289H864.59c-2.371,0-4.289,1.919-4.289,4.289
		s1.918,4.289,4.289,4.289h10.723C877.684,273.272,879.603,271.353,879.603,268.982z"/>
	<path fill="#FFFFFF" d="M911.497,258.284c1.097,0,2.195-0.419,3.033-1.257l7.586-7.581c1.675-1.672,1.675-4.39,0-6.066
		c-1.676-1.676-4.39-1.676-6.066,0l-7.586,7.582c-1.675,1.676-1.675,4.39,0,6.065C909.302,257.865,910.399,258.284,911.497,258.284z
		"/>
	<path fill="#FFFFFF" d="M878.489,280.937l-7.582,7.586c-1.676,1.676-1.676,4.394,0,6.066c0.838,0.838,1.935,1.256,3.033,1.256
		c1.098,0,2.195-0.419,3.033-1.256l7.582-7.586c1.675-1.676,1.675-4.39,0-6.066C882.878,279.261,880.164,279.261,878.489,280.937z"
		/>
	<path fill="#FFFFFF" d="M896.509,232.774c-2.371,0-4.289,1.919-4.289,4.289v10.723c0,2.371,1.919,4.289,4.289,4.289
		s4.289-1.919,4.289-4.289v-10.723C900.798,234.692,898.88,232.774,896.509,232.774z"/>
	<path fill="#FFFFFF" d="M896.509,285.888c-2.371,0-4.289,1.919-4.289,4.289v10.727c0,2.371,1.919,4.289,4.289,4.289
		s4.289-1.918,4.289-4.289v-10.727C900.798,287.807,898.88,285.888,896.509,285.888z"/>
	<path fill="#FFFFFF" d="M181.734,439.193c-1.676,1.676-1.676,4.39,0,6.065l12.437,12.433c0.838,0.838,1.935,1.256,3.033,1.256
		s2.195-0.419,3.033-1.256c1.675-1.676,1.675-4.394,0-6.066l-12.437-12.432C186.124,437.517,183.41,437.517,181.734,439.193z"/>
	<path fill="#FFFFFF" d="M147.691,411.216c0.838,0.838,1.935,1.257,3.033,1.257c1.097,0,2.195-0.419,3.033-1.257
		c1.676-1.676,1.676-4.39,0-6.066l-12.432-12.432c-1.676-1.676-4.39-1.676-6.065,0c-1.676,1.676-1.676,4.39,0,6.066L147.691,411.216
		z"/>
	<path fill="#FFFFFF" d="M187.527,425.206c0,2.371,1.918,4.289,4.289,4.289h17.585c2.371,0,4.289-1.919,4.289-4.289
		s-1.919-4.289-4.289-4.289h-17.585C189.446,420.917,187.527,422.835,187.527,425.206z"/>
	<path fill="#FFFFFF" d="M126.094,429.496h17.581c2.371,0,4.289-1.919,4.289-4.289s-1.919-4.289-4.289-4.289h-17.581
		c-2.371,0-4.289,1.919-4.289,4.289S123.723,429.496,126.094,429.496z"/>
	<path fill="#FFFFFF" d="M181.734,411.216c0.838,0.838,1.935,1.257,3.033,1.257c1.097,0,2.195-0.419,3.033-1.257l12.437-12.432
		c1.675-1.676,1.675-4.39,0-6.066c-1.676-1.676-4.39-1.676-6.065,0l-12.437,12.432C180.058,406.822,180.058,409.54,181.734,411.216z
		"/>
	<path fill="#FFFFFF" d="M147.691,439.193l-12.432,12.432c-1.676,1.672-1.676,4.39,0,6.066c0.838,0.838,1.935,1.256,3.033,1.256
		s2.195-0.419,3.033-1.256l12.432-12.433c1.676-1.675,1.676-4.394,0-6.065C152.081,437.517,149.367,437.517,147.691,439.193z"/>
	<path fill="#FFFFFF" d="M172.037,383.548c0-2.371-1.919-4.289-4.289-4.289s-4.289,1.919-4.289,4.289v17.585
		c0,2.371,1.919,4.289,4.289,4.289s4.289-1.919,4.289-4.289V383.548z"/>
	<path fill="#FFFFFF" d="M167.748,444.986c-2.371,0-4.289,1.918-4.289,4.289v17.585c0,2.371,1.919,4.289,4.289,4.289
		s4.289-1.919,4.289-4.289v-17.585C172.037,446.904,170.118,444.986,167.748,444.986z"/>
	<path fill="#FFFFFF" d="M359.215,682.073c-2.371,0-4.29,1.919-4.29,4.29c0,2.371,1.918,4.288,4.29,4.288h17.133l-2.759-8.578
		H359.215z"/>
	<path fill="#FFFFFF" d="M381.226,705.817L381.226,705.817l-11.123,11.125c-1.677,1.676-1.677,4.389,0,6.065
		c0.837,0.839,1.935,1.257,3.033,1.257c1.097,0,2.195-0.418,3.032-1.257l8.011-8.01v-0.001L381.226,705.817z"/>
	<path fill="#FFFFFF" d="M862.299,726.989l-13.894,13.894c-0.838,0.838-1.257,1.936-1.257,3.033s0.419,2.195,1.257,3.033
		c1.675,1.676,4.394,1.676,6.065,0l13.894-13.895c1.676-1.675,1.676-4.39,0-6.065C866.689,725.314,863.974,725.314,862.299,726.989z
		"/>
	<path fill="#FFFFFF" d="M909.327,692.092l13.89-13.894c1.675-1.676,1.675-4.39,0-6.066c-1.676-1.676-4.394-1.676-6.066,0
		l-13.89,13.895c-0.838,0.838-1.257,1.935-1.257,3.033c0,1.098,0.419,2.195,1.257,3.033
		C904.937,693.767,907.651,693.767,909.327,692.092z"/>
	<path fill="#FFFFFF" d="M885.811,734.215c-2.371,0-4.289,1.919-4.289,4.289v19.65c0,2.371,1.919,4.289,4.289,4.289
		c2.371,0,4.289-1.918,4.289-4.289v-19.65C890.1,736.133,888.182,734.215,885.811,734.215z"/>
	<path fill="#FFFFFF" d="M885.811,656.638c-2.371,0-4.289,1.918-4.289,4.289v19.65c0,2.371,1.919,4.289,4.289,4.289
		c2.371,0,4.289-1.919,4.289-4.289v-19.65C890.1,658.556,888.182,656.638,885.811,656.638z"/>
	<path fill="#FFFFFF" d="M909.327,726.989c-1.676-1.676-4.39-1.676-6.066,0c-0.838,0.838-1.257,1.935-1.257,3.033
		s0.419,2.195,1.257,3.033l13.89,13.895c1.672,1.676,4.39,1.676,6.066,0c1.675-1.676,1.675-4.39,0-6.066L909.327,726.989z"/>
	<path fill="#FFFFFF" d="M854.47,672.132c-1.671-1.676-4.39-1.676-6.065,0c-0.838,0.838-1.257,1.935-1.257,3.033
		c0,1.098,0.419,2.195,1.257,3.033l13.894,13.894c1.676,1.676,4.39,1.676,6.065,0c1.676-1.676,1.676-4.39,0-6.065L854.47,672.132z"
		/>
	<path fill="#FFFFFF" d="M934.422,705.249h-19.646c-2.371,0-4.289,1.919-4.289,4.289s1.919,4.289,4.289,4.289h19.646
		c2.371,0,4.289-1.919,4.289-4.289S936.793,705.249,934.422,705.249z"/>
	<path fill="#FFFFFF" d="M861.134,709.538c0-2.37-1.918-4.288-4.288-4.288h-19.646c-2.371,0-4.29,1.919-4.29,4.288
		c0,2.371,1.918,4.29,4.29,4.29h19.646C859.215,713.828,861.134,711.909,861.134,709.538z"/>
	<polygon fill="#FFFFFF" points="455.332,936.218 406.349,783.927 177.481,1028.246 1028.108,1028.246 1003.293,1001.754
		993.739,991.556 951.751,946.733 942.176,936.511 802.781,787.704 750.26,936.218 	"/>
	<polygon fill="#A5B1F7" points="177.48,1028.246 177.48,1088.704 1028.109,1088.704 1028.109,1028.246 1028.108,1028.246
		177.481,1028.246 	"/>
	<polygon fill="#C78075" points="227.579,228.117 297.413,445.237 235.941,232.099 	"/>
	<path fill="#C78075" d="M453.023,782.138l-0.302-20.129L342.359,582.166l14.233-6.044l-20.238-9.816l37.235,115.767h3.316
		c2.371,0,4.29,1.919,4.29,4.29c0,2.371-1.919,4.288-4.29,4.288h-0.556l4.878,15.166l0,0l1.388-1.388
		c0.838-0.838,1.935-1.256,3.033-1.256c1.098,0,2.195,0.419,3.033,1.256c1.675,1.676,1.675,4.391,0,6.066l-4.502,4.501v0.001
		l22.171,68.931l1.676-1.789H453.023z M388.68,668.293c-0.838,0.837-1.935,1.257-3.033,1.257s-2.195-0.42-3.033-1.257
		l-12.511-12.509c-1.677-1.675-1.677-4.389,0-6.066c0.838-0.838,1.935-1.256,3.032-1.256s2.194,0.419,3.032,1.256l12.513,12.509
		C390.355,663.902,390.355,666.616,388.68,668.293z M402.456,733.893v-17.689c0-2.371,1.92-4.289,4.29-4.289
		c2.371,0,4.29,1.918,4.29,4.289v17.689c0,2.371-1.919,4.29-4.29,4.29C404.376,738.183,402.456,736.265,402.456,733.893z"/>
	<polygon fill="#C78075" points="690.4,614.377 707.998,782.138 797.567,782.138 802.781,787.704 889.244,543.216 872.635,535.306
		"/>
	<path fill="#C9F9FE" d="M376.167,649.718c-0.838-0.838-1.935-1.256-3.032-1.256s-2.194,0.419-3.032,1.256
		c-1.677,1.677-1.677,4.391,0,6.066l12.511,12.509c0.838,0.837,1.935,1.257,3.033,1.257s2.194-0.42,3.033-1.257
		c1.675-1.677,1.675-4.391,0-6.066L376.167,649.718z"/>
	<path fill="#C9F9FE" d="M381.194,686.363c0-2.371-1.919-4.29-4.29-4.29h-3.316l2.759,8.578h0.556
		C379.276,690.651,381.194,688.734,381.194,686.363z"/>
	<path fill="#C9F9FE" d="M388.68,710.495c1.675-1.675,1.675-4.391,0-6.066c-0.838-0.838-1.935-1.256-3.033-1.256
		c-1.098,0-2.195,0.419-3.033,1.256l-1.388,1.388l2.952,9.179L388.68,710.495z"/>
	<path fill="#C9F9FE" d="M411.036,733.893v-17.689c0-2.371-1.919-4.289-4.29-4.289c-2.37,0-4.29,1.918-4.29,4.289v17.689
		c0,2.371,1.92,4.29,4.29,4.29C409.117,738.183,411.036,736.265,411.036,733.893z"/>
	<polygon fill="#C9F9FE" points="707.998,782.138 713.668,836.185 707.35,836.185 750.26,936.218 802.781,787.704 802.781,787.704
		797.567,782.138 	"/>
	<polygon fill="#C9F9FE" points="453.023,782.138 408.025,782.138 406.349,783.927 406.349,783.927 455.332,936.218 	"/>
	<path fill="#4F667B" d="M455.332,936.218H750.26L707.35,836.185H500.322L455.332,936.218z M703.199,922.568h-40.316l-3.19-17.529
		h38.174L703.199,922.568z M680.122,846.691l7.21,23.704h-67.01l-1.494-23.704H680.122z M524.775,846.728h31.053l-2.124,11.473
		h32.457l-0.786,12.577h33.99l0.823,13.808h-35.682l0.869-13.808h-33.992l2.32-12.577h-32.454L524.775,846.728z M517.342,870.943
		h34.011l-2.554,13.829h-35.7L517.342,870.943z M506.881,905.039h38.175l-3.24,17.529h-40.319L506.881,905.039z"/>
	<polygon fill="#C9F9FE" points="687.332,870.395 680.122,846.691 618.828,846.691 620.322,870.395 	"/>
	<polygon fill="#C9F9FE" points="555.827,846.728 524.775,846.728 521.249,858.201 553.703,858.201 	"/>
	<polygon fill="#C9F9FE" points="585.375,870.778 586.161,858.201 553.703,858.201 551.383,870.778 	"/>
	<polygon fill="#C9F9FE" points="620.188,884.587 619.365,870.778 585.375,870.778 584.506,884.587 	"/>
	<polygon fill="#C9F9FE" points="545.056,905.039 506.881,905.039 501.498,922.568 541.816,922.568 	"/>
	<polygon fill="#C9F9FE" points="662.884,922.568 703.199,922.568 697.867,905.039 659.693,905.039 	"/>
	<polygon fill="#C9F9FE" points="551.353,870.943 517.342,870.943 513.099,884.772 548.799,884.772 	"/>
	<path fill="#C78075" d="M896.941,523.399c-0.249,0.514-0.584,0.951-0.961,1.338c-0.088,0.091-0.192,0.16-0.288,0.245l-6.448,18.234
		l7.779,3.705l0.148-24.333c-0.078,0.262-0.105,0.539-0.223,0.785C896.943,523.381,896.945,523.39,896.941,523.399z"/>
	<polygon fill="#A2A09E" points="707.998,782.138 690.4,614.377 578.181,663.068 524.629,782.138 	"/>
	<polygon fill="#A3F4FD" points="500.322,836.185 707.35,836.185 713.668,836.185 707.998,782.138 524.629,782.138 	"/>
	<path fill="#A2A09E" d="M452.721,762.009l-1.069-71.358h-15.064c-2.371,0-4.29-1.917-4.29-4.288c0-2.371,1.919-4.29,4.29-4.29
		h14.936l-0.904-60.349l-94.027-45.603l-14.233,6.044L452.721,762.009z M424.816,662.227l12.509-12.509
		c0.838-0.838,1.935-1.256,3.032-1.256c1.098,0,2.195,0.419,3.033,1.256c1.675,1.677,1.675,4.391,0,6.066l-12.508,12.509
		c-0.838,0.837-1.935,1.257-3.033,1.257c-1.096,0-2.194-0.42-3.033-1.257C423.141,666.616,423.141,663.902,424.816,662.227z
		 M424.816,704.429c0.838-0.838,1.936-1.256,3.033-1.256s2.195,0.419,3.033,1.256l12.508,12.513c1.675,1.676,1.675,4.389,0,6.065
		c-0.838,0.839-1.936,1.257-3.033,1.257c-1.098,0-2.196-0.418-3.033-1.257l-12.509-12.511
		C423.141,708.82,423.141,706.104,424.816,704.429z M406.746,634.543c2.371,0,4.29,1.919,4.29,4.29v17.689
		c0,2.371-1.919,4.29-4.29,4.29c-2.37,0-4.29-1.919-4.29-4.29v-17.689C402.456,636.461,404.376,634.543,406.746,634.543z"/>
	<path fill="#A3F4FD" d="M437.325,723.006c0.837,0.839,1.935,1.257,3.033,1.257c1.096,0,2.194-0.418,3.033-1.257
		c1.675-1.675,1.675-4.389,0-6.065l-12.508-12.513c-0.838-0.838-1.935-1.256-3.033-1.256s-2.195,0.419-3.033,1.256
		c-1.675,1.676-1.675,4.391,0,6.066L437.325,723.006z"/>
	<path fill="#A3F4FD" d="M436.588,682.073c-2.371,0-4.29,1.919-4.29,4.29c0,2.371,1.919,4.288,4.29,4.288h15.064l-0.129-8.578
		H436.588z"/>
	<path fill="#A3F4FD" d="M427.849,669.549c1.098,0,2.195-0.42,3.033-1.257l12.508-12.509c1.675-1.675,1.675-4.389,0-6.066
		c-0.838-0.838-1.936-1.256-3.033-1.256c-1.097,0-2.195,0.419-3.032,1.256l-12.509,12.509c-1.675,1.675-1.675,4.389,0,6.066
		C425.655,669.13,426.753,669.549,427.849,669.549z"/>
	<path fill="#A3F4FD" d="M406.746,660.811c2.371,0,4.29-1.919,4.29-4.29v-17.689c0-2.371-1.919-4.29-4.29-4.29
		c-2.37,0-4.29,1.919-4.29,4.29v17.689C402.456,658.893,404.376,660.811,406.746,660.811z"/>
	<polygon fill="#A2A09E" points="452.721,762.009 453.023,782.138 465.074,782.138 	"/>
	<polygon fill="#A3F4FD" points="465.074,782.138 453.023,782.138 455.332,936.218 498.24,836.185 	"/>
	<polygon fill="#4E8EA2" points="498.24,836.185 455.332,936.218 500.322,836.185 	"/>
	<path fill="#88B6BA" d="M454.281,682.073c2.371,0,4.29,1.919,4.29,4.29c0,2.371-1.918,4.288-4.29,4.288h-2.629l1.069,71.358
		l12.352,20.129h59.556l53.552-119.071l-20.157,8.746c-0.075,0.032-0.158,0.02-0.233,0.048c-0.582,0.221-1.187,0.376-1.817,0.377
		c-0.002,0-0.004,0.002-0.007,0.002c-0.001,0-0.001,0-0.002,0c0,0-0.001,0-0.002,0c-0.12,0-0.241-0.031-0.361-0.04
		c-0.255-0.018-0.511-0.028-0.761-0.084c-0.168-0.038-0.33-0.116-0.496-0.171c-0.194-0.064-0.393-0.111-0.581-0.2
		c-0.004-0.002-0.006-0.006-0.01-0.008c-0.014-0.006-0.029-0.008-0.044-0.015l-103.092-49.999l0.904,60.349H454.281z"/>
	<path fill="#89F1FD" d="M458.57,686.363c0-2.371-1.918-4.29-4.29-4.29h-2.757l0.129,8.578h2.629
		C456.652,690.651,458.57,688.734,458.57,686.363z"/>
	<polygon fill="#89F1FD" points="500.322,836.185 524.629,782.138 465.074,782.138 498.24,836.185 	"/>
	<path fill="#4CEAFC" d="M793.162,159.472l-0.104-0.254l-0.21-0.323l-0.106-0.153c0.017,0.023,0.023,0.051,0.039,0.073
		C792.932,159.022,793.044,159.248,793.162,159.472z"/>
	<polygon fill="#4CEAFC" points="785.336,168.918 626.742,237.735 676.658,410.831 884.115,511.438 	"/>
	<path fill="#4CEAFC" d="M792.234,158.149l-0.365-0.333l-0.431-0.272l-0.275-0.174c0.463,0.259,0.88,0.568,1.229,0.936
		L792.234,158.149z"/>
	<path fill="#4CEAFC" d="M332.431,564.075l0.38,0.35l0.389,0.242l0.324,0.204c-0.472-0.262-0.897-0.577-1.251-0.952L332.431,564.075
		z"/>
	<polygon fill="#4CEAFC" points="339.34,553.313 497.937,484.504 448.02,311.418 240.549,210.786 	"/>
	<polygon fill="#4CEAFC" points="623.854,227.722 776.293,161.576 576.889,64.857 	"/>
	<path fill="#4CEAFC" d="M331.514,562.76l0.103,0.252l0.21,0.323l0.107,0.155c-0.015-0.021-0.021-0.046-0.036-0.067
		C331.746,563.215,331.633,562.987,331.514,562.76z"/>
	<polygon fill="#4CEAFC" points="244.752,201.339 452.468,302.089 614.295,231.87 565.375,62.228 	"/>
	<polygon fill="#4CEAFC" points="879.912,520.883 672.21,420.159 510.383,490.369 559.302,659.993 	"/>
	<polygon fill="#4CEAFC" points="547.788,657.366 500.824,494.517 348.383,560.655 	"/>
	<polygon fill="#4CEAFC" points="666.107,411.541 617.182,241.883 458.57,310.707 507.496,480.357 	"/>
	<path fill="#FFFFFF" d="M229.555,196.848c-0.228,0.152-0.47,0.265-0.673,0.453c-0.407,0.375-0.723,0.82-0.987,1.297
		c-0.047,0.086-0.129,0.137-0.172,0.226c-0.004,0.008-0.003,0.018-0.007,0.026c-0.281,0.586-0.44,1.223-0.485,1.88
		c-0.017,0.248,0.052,0.48,0.071,0.724c0.026,0.353,0.002,0.704,0.104,1.057l8.534,29.588l61.472,213.138l33.626,116.59
		c0.013,0.043,0.05,0.074,0.063,0.118c0.093,0.293,0.267,0.543,0.411,0.816c0.119,0.227,0.232,0.455,0.385,0.663
		c0.015,0.02,0.021,0.046,0.036,0.067c0.064,0.085,0.092,0.192,0.161,0.273c0.051,0.059,0.123,0.098,0.177,0.156
		c0.354,0.375,0.779,0.69,1.251,0.952c0.085,0.047,0.137,0.129,0.225,0.172l2.604,1.263l20.238,9.816l94.027,45.603l103.092,49.999
		c0.014,0.007,0.029,0.009,0.044,0.015c0.004,0.002,0.006,0.006,0.01,0.008c0.187,0.089,0.386,0.135,0.581,0.2
		c0.166,0.055,0.328,0.133,0.496,0.171c0.25,0.056,0.506,0.066,0.761,0.084c0.12,0.009,0.241,0.04,0.361,0.04c0,0,0.001,0,0.002,0
		c0.001,0,0.001,0,0.002,0c0.002,0,0.004-0.002,0.007-0.002c0.63-0.001,1.235-0.156,1.817-0.377
		c0.076-0.028,0.159-0.016,0.233-0.048l20.157-8.746L690.4,614.377l182.235-79.07l21.714-9.422c0.087-0.038,0.145-0.112,0.229-0.154
		c0.385-0.191,0.735-0.431,1.065-0.716c0.015-0.012,0.035-0.02,0.049-0.033c0.095-0.085,0.199-0.154,0.288-0.245
		c0.378-0.387,0.712-0.824,0.961-1.338c0.004-0.009,0.003-0.018,0.007-0.026c0.118-0.246,0.145-0.523,0.223-0.785
		c0.107-0.362,0.235-0.714,0.261-1.095c0.016-0.248-0.052-0.479-0.071-0.724c-0.026-0.353-0.002-0.704-0.104-1.056l-97.189-337.003
		l-6.432-22.304c-0.013-0.044-0.05-0.074-0.063-0.118c-0.093-0.293-0.267-0.542-0.411-0.815c-0.118-0.224-0.23-0.45-0.381-0.656
		c-0.016-0.022-0.023-0.051-0.039-0.073c-0.065-0.086-0.093-0.194-0.163-0.275c-0.054-0.062-0.13-0.102-0.187-0.162
		c-0.349-0.368-0.766-0.677-1.229-0.936c-0.089-0.049-0.144-0.135-0.237-0.18l-0.052-0.025c-0.001,0-0.001-0.001-0.002-0.002
		c-0.001-0.001-0.002,0-0.003-0.001L570.966,50.499c-0.011-0.005-0.023-0.004-0.035-0.009c-0.007-0.003-0.012-0.011-0.019-0.014
		c-0.119-0.056-0.254-0.041-0.376-0.088c-0.549-0.209-1.104-0.37-1.665-0.387c-0.204-0.006-0.396,0.068-0.6,0.086
		c-0.495,0.044-0.979,0.105-1.439,0.286c-0.058,0.023-0.122,0.011-0.179,0.036L261.725,182.709l-31.411,13.628
		C230.025,196.463,229.809,196.678,229.555,196.848z M458.57,310.707l158.612-68.824l48.924,169.658l-158.611,68.816L458.57,310.707
		z M448.02,311.418l49.917,173.086L339.34,553.313l-98.791-342.527L448.02,311.418z M500.824,494.517l46.964,162.849l-199.405-96.71
		L500.824,494.517z M559.302,659.993l-48.918-169.624l161.827-70.211l207.701,100.724L559.302,659.993z M676.658,410.831
		l-49.916-173.096l158.594-68.817l98.78,342.52L676.658,410.831z M776.293,161.576l-152.438,66.146L576.889,64.857L776.293,161.576z
		 M565.375,62.228l48.92,169.642l-161.827,70.219L244.752,201.339L565.375,62.228z"/>
</g>
</svg>
